DBRep_DrawableShape

CASCADE Topology V3, (c) Open Cascade
Locations 0
Curve2ds 514
1 26.907248094147423 0 0 -1 
1 0 0 0 -1 
1 1.4134893836734506 23.948706828181624 -1 0 
1 0 -2 1 0 
1 -17 -17.5 1 0 
1 0 -2 1 0 
1 1.4134893836734506 23.948706828181624 -1 0 
1 0 0 1 0 
1 26.907248094147423 0 0 -1 
1 0 0 0 -1 
1 19.413489383673451 3.9487068281816242 -0.66896473162244974 0.74329414624716639 
1 0 -2 1 0 
1 19.413489383673451 -22.051293171818376 0 1 
1 -5.5865106163265494 -22.051293171818376 1 0 
1 -17.586510616326549 -11.051293171818376 0.73715414020074144 -0.67572462851734627 
1 0 -2 1 0 
1 0 -2 1 0 
2 0 -8.5 -1 0 -0 -1 2
2 -2.5865106163265494 -9.0512931718183758 1 0 0 -1 2
1 12 17 -1 0 
1 0 0 1 0 
1 0 -2 1 0 
2 0 -11.5 -1 0 -0 -1 2
2 6.4134893836734506 -8.0512931718183758 1 0 0 -1 2
1 -2 11.5 0 -1 
1 0 -2 1 0 
1 8.4134893836734506 14.948706828181624 0 -1 
1 0 -2 1 0 
2 0 11.5 1 0 -0 1 2
2 6.4134893836734506 14.948706828181624 -1 0 0 1 2
1 2 -11.5 0 1 
1 0 -2 1 0 
1 4.4134893836734506 -8.0512931718183758 0 1 
1 12 17 -1 0 
1 0 -2 1 0 
1 24 0 0 -1 
1 0 0 0 -1 
1 -2 8.5 0 -1 
1 0 -2 1 0 
1 -0.58651061632654944 7.9487068281816242 0 -1 
1 0 -2 1 0 
2 0 8.5 1 0 -0 1 2
2 -2.5865106163265494 7.9487068281816242 -1 0 0 1 2
1 2 -8.5 0 1 
1 0 -2 1 0 
1 -4.5865106163265494 -9.0512931718183758 0 1 
1 0 -2 1 0 
2 0 0 0 -1 1 0 1.7000000000000028
2 10.413489383673451 -16.051293171818376 0 -1 1 0 1.7000000000000028
1 0 -2 1 0 
2 0 0 0 -1 1 0 1.7000000000000028
2 -8.5865106163265494 -16.051293171818376 0 -1 1 0 1.7000000000000028
1 0 -2 1 0 
2 -3.5527136788005009e-15 0 0 -1 1 0 1.7000000000000028
2 0.91348938367345056 -16.051293171818376 0 -1 1 0 1.7000000000000028
1 0 0 0 -1 
1 6.2831853071795862 0 0 -1 
1 0 0 1 0 
2 -3.5527136788005009e-15 0 0 -1 1 0 1.7000000000000028
2 0.91348938367345056 -16.051293171818376 0 -1 1 0 1.7000000000000028
1 0 0 0 -1 
1 6.2831853071795862 0 0 -1 
1 0 0 1 0 
2 0 0 0 -1 1 0 1.7000000000000028
2 -8.5865106163265494 -16.051293171818376 0 -1 1 0 1.7000000000000028
1 0 0 0 -1 
1 6.2831853071795862 0 0 -1 
1 0 0 1 0 
2 0 0 0 -1 1 0 1.7000000000000028
2 10.413489383673451 -16.051293171818376 0 -1 1 0 1.7000000000000028
1 2 -8.5 0 1 
1 0 -0 1 0 
1 -4.5865106163265494 -9.0512931718183758 0 1 
1 0 0 0 -1 
1 17 0 0 -1 
8 -9.5 -7.5
1 2 7.5 0 1 
8 -9.5 -7.5
1 -1 7.5 0 -1 
1 3.1415926535897931 0 0 -1 
1 0 0 0 -1 
1 0 0 1 0 
2 0 8.5 1 0 -0 1 2
2 -2.5865106163265494 7.9487068281816242 -1 0 0 1 2
1 -2 8.5 0 -1 
1 0 0 1 0 
1 -0.58651061632654944 7.9487068281816242 0 -1 
8 7.5 9.5
1 15 7.5 0 -1 
8 7.5 9.5
1 -5 7.5 0 1 
1 -12 17 0 -1 
1 0 0 1 0 
8 2.5256465859091861 4.5256465859091861
1 6.4134893836734506 -4.5256465859091897 0 -1 
8 2.5256465859091861 4.5256465859091861
1 32 -4.5256465859091861 0 1 
1 -12 17 0 -1 
1 0 -2 1 0 
8 -9.5 -7.5
1 1 7.5 0 1 
8 -9.5 -7.5
1 -10 7.5 0 -1 
8 -9.2067446918367253 14.793255308163275
1 -2.7932553081632747 -7.0512931718183758 -1 0 
8 -9.2067446918367253 14.793255308163275
1 -2.7932553081632747 15.000000000000002 1 0 
8 -15 15.000000000000002
1 0 13.5 1 0 
8 -15 15.000000000000002
1 10 0 0 1 
8 -9.2067446918367253 14.793255308163275
1 -2.7932553081632747 -7.0512931718183758 -1 0 
8 -9.2067446918367253 14.793255308163275
1 -2.7932553081632747 -15 1 0 
1 0 -2 1 0 
2 0 0 0 1 -1 0 1.5
2 0 -12 0 1 -1 0 1.5
1 0 -2 1 0 
2 0 -12 -1 0 -0 -1 1.5
2 -6 -12 1 0 0 -1 1.5
1 -1.5 12 0 -1 
1 0 -2 1 0 
1 -4.5 12 0 -1 
1 1.5 -12 0 1 
1 0 -2 1 0 
1 -7.5 -12 0 1 
1 0 -2 1 0 
2 0 12 1 0 -0 1 1.5
2 -6 12 -1 0 0 1 1.5
1 0 -2 1 0 
2 0 8.5465008283713956e-17 0 1 -1 0 1.5
2 0 0 0 1 -1 0 1.5
1 0 -2 1 0 
2 0 -12 -1 0 -0 -1 1.5
2 6 -12 1 0 0 -1 1.5
1 -1.5 12 0 -1 
1 0 -2 1 0 
1 7.5 12 0 -1 
1 1.5 -12 0 1 
1 0 -2 1 0 
1 4.5 -12 0 1 
1 0 -2 1 0 
2 0 12 1 0 -0 1 1.5
2 6 12 -1 0 0 1 1.5
1 0 -2 1 0 
2 0 0 0 1 -1 0 1.5
2 0 12 0 1 -1 0 1.5
1 0 0 0 -1 
1 6.2831853071795862 0 0 -1 
1 0 0 1 0 
2 0 0 0 1 -1 0 1.5
2 0 12 0 1 -1 0 1.5
1 0 0 0 -1 
1 24 0 0 -1 
1 3.1415926535897931 0 0 -1 
1 0 0 0 -1 
1 0 0 1 0 
2 0 12 1 0 -0 1 1.5
2 6 12 -1 0 0 1 1.5
1 3.1415926535897931 0 0 -1 
1 0 0 0 -1 
1 1.5 -12 0 1 
1 0 0 1 0 
1 4.5 -12 0 1 
1 0 0 0 -1 
1 24 0 0 -1 
1 -1.5 12 0 -1 
1 0 0 1 0 
1 7.5 12 0 -1 
1 0 0 1 0 
2 0 -12 -1 0 -0 -1 1.5
2 6 -12 1 0 0 -1 1.5
1 0 0 0 -1 
1 6.2831853071795862 0 0 -1 
1 0 0 1 0 
2 0 8.5465008283713956e-17 0 1 -1 0 1.5
2 0 0 0 1 -1 0 1.5
1 0 0 0 -1 
1 24 0 0 -1 
1 3.1415926535897931 0 0 -1 
1 0 0 0 -1 
1 0 0 1 0 
2 0 12 1 0 -0 1 1.5
2 -6 12 -1 0 0 1 1.5
1 3.1415926535897931 0 0 -1 
1 0 0 0 -1 
1 1.5 -12 0 1 
1 0 0 1 0 
1 -7.5 -12 0 1 
1 0 0 0 -1 
1 24 0 0 -1 
1 -1.5 12 0 -1 
1 0 0 1 0 
1 -4.5 12 0 -1 
1 0 0 1 0 
2 0 -12 -1 0 -0 -1 1.5
2 -6 -12 1 0 0 -1 1.5
1 0 0 0 -1 
1 6.2831853071795862 0 0 -1 
1 0 0 1 0 
2 0 0 0 1 -1 0 1.5
2 0 -12 0 1 -1 0 1.5
1 2 -11.5 0 1 
1 0 -0 1 0 
1 4.4134893836734506 -8.0512931718183758 0 1 
1 0 0 0 -1 
1 23 0 0 -1 
1 3.1415926535897931 0 0 -1 
1 0 0 0 -1 
1 0 0 1 0 
2 0 11.5 1 0 -0 1 2
2 6.4134893836734506 14.948706828181624 -1 0 0 1 2
1 0 0 0 -1 
1 23 0 0 -1 
1 -2 11.5 0 -1 
1 0 0 1 0 
1 8.4134893836734506 14.948706828181624 0 -1 
1 0 0 1 0 
2 0 -11.5 -1 0 -0 -1 2
2 6.4134893836734506 -8.0512931718183758 1 0 0 -1 2
8 -2.0000005999999999 5.999999999062311e-07
1 2.6179938779914949 0 0 1 
8 -2.0000005999999999 5.999999999062311e-07
1 -10.267949192431121 15 0 -1 
8 -9.2067446918367253 14.793255308163275
1 -2.7932553081632747 -9.0512931718183758 -1 0 
8 -9.2067446918367253 14.793255308163275
1 -2.7932553081632747 15.000000000000002 1 0 
1 0 0 0 -1 
1 17 0 0 -1 
1 -5 15 0 1 
1 3.1415926535897931 0 0 -1 
1 0 -0 0 -1 
1 -1 15 0 1 
8 -15 15.000000000000002
1 0 15.5 1 0 
8 -15 15.000000000000002
1 10 0 0 1 
8 -9.2067446918367253 14.793255308163275
1 -2.7932553081632747 -9.0512931718183758 -1 0 
8 -9.2067446918367253 14.793255308163275
1 -2.7932553081632747 -15 1 0 
8 -20.724353414090814 14.275646585909186
1 -15 3.2243534140908139 0 1 
8 -20.724353414090814 14.275646585909186
1 -15.586510616326549 3.2243534140908103 0 -1 
1 17 17.5 -1 0 
1 0 -2 1 0 
8 -20.724353414090814 14.275646585909186
1 15.000000000000002 3.2243534140908139 0 1 
8 -20.724353414090814 14.275646585909186
1 -15.586510616326549 3.2243534140908103 0 -1 
1 17 17.5 -1 0 
1 0 -0 1 0 
8 -8.7932553081632747 -6.7932553081632747
1 32 -8.7932553081632747 0 -1 
8 -8.7932553081632747 -6.7932553081632747
1 -8.7932553081632747 -11.051293171818376 1 0 
8 -8.7932553081632747 -6.7932553081632747
1 1.9999999999999982 -8.7932553081632747 0 -1 
8 -8.7932553081632747 -6.7932553081632747
1 -8.7932553081632747 -11.051293171818376 1 0 
1 0 0 1 0 
2 0 -8.5 -1 0 -0 -1 2
2 -2.5865106163265494 -9.0512931718183758 1 0 0 -1 2
1 16.278820596099706 0 0 -1 
1 -17.586510616326549 -11.051293171818376 0.73715414020074144 -0.67572462851734627 
1 0 0 1 0 
1 -5.5865106163265494 -22.051293171818376 1 0 
1 0 0 0 -1 
1 19.413489383673451 -22.051293171818376 0 1 
1 19.413489383673451 3.9487068281816242 -0.66896473162244974 0.74329414624716639 
1 0 0 1 0 
1 0 -2 1 0 
2 -1.7763568394002505e-15 8.8817841970012523e-16 1 0 -0 1 1.25
2 -12.724137931034484 -10.741379310344827 1 0 -0 1 1.25
1 1.7241379310344822 -1.7241379310344822 0 1 
1 0 -2 1 0 
1 -12.379310344827587 -9.2241379310344822 0 1 
1 -1.724137931034484 -1.7241379310344822 1 0 
1 0 -2 1 0 
1 -8.931034482758621 -9.2241379310344822 -1 0 
1 1.7241379310344822 1.7241379310344822 -1 0 
1 0 -2 1 0 
1 -12.379310344827587 -5.7758620689655178 1 0 
1 -1.724137931034484 1.7241379310344822 0 -1 
1 0 -2 1 0 
1 -8.931034482758621 -5.7758620689655178 0 -1 
1 0 -2 1 0 
2 0 8.8817841970012523e-16 1 0 -0 1 1.25
2 -0.1724137931034484 -10.741379310344827 1 0 -0 1 1.25
1 0 -2 1 0 
2 1.7763568394002505e-15 0 1 0 -0 1 1.25
2 -12.724137931034484 10.431034482758619 1 0 -0 1 1.25
1 0 -2 1 0 
2 2.8620689655172393 0 -3.7007434154171886e-16 -1 1 -3.7007434154171886e-16 1.1999999999999993
2 -9.4827586206896548 10.293103448275861 3.7007434154171886e-16 -1 -1 -3.7007434154171886e-16 1.1999999999999993
1 -2.8620689655172429 -1.1999999999999993 1 0 
1 0 -2 1 0 
1 -3.7586206896551726 9.0931034482758619 -1 0 
1 2.8620689655172393 1.1999999999999993 -1 0 
1 0 -2 1 0 
1 -9.4827586206896548 11.493103448275861 1 0 
1 0 -2 1 0 
2 -2.8620689655172433 0 3.7007434154171886e-16 1 -1 3.7007434154171886e-16 1.1999999999999993
2 -3.7586206896551722 10.293103448275861 -3.7007434154171886e-16 1 1 3.7007434154171886e-16 1.1999999999999993
1 9.3367973547472829 -5.1317902692489366 0 1 
1 0 -2 1 0 
1 -14.724137931034482 -4.9482758620689662 0 1 
1 -9.835616438356162 -5.1317902692489366 1 0 
1 0 -2 1 0 
1 4.4482758620689644 -4.9482758620689662 -1 0 
1 9.3367973547472829 4.2475200755786489 -1 0 
1 0 -2 1 0 
1 -14.724137931034482 4.4310344827586192 1 0 
1 -9.835616438356162 4.2475200755786489 0 -1 
1 0 -2 1 0 
1 4.4482758620689644 4.4310344827586192 0 -1 
1 6.854038734057629 4.2475200755786489 0 1 
1 0 -2 1 0 
1 -12.241379310344827 4.4310344827586192 0 1 
1 1.7505904581955596 4.2475200755786489 -1 0 
1 0 -2 1 0 
1 -7.137931034482758 4.4310344827586192 1 0 
1 6.854038734057629 5.9026924893717521 -1 0 
1 0 -2 1 0 
1 -12.241379310344827 6.0862068965517224 1 0 
1 1.7505904581955596 5.9026924893717521 0 -1 
1 0 -2 1 0 
1 -7.137931034482758 6.0862068965517224 0 -1 
1 0 -2 1 0 
2 3.0531133177191805e-16 -3.5527136788005009e-15 1 0 -0 1 1.25
2 -0.10344827586206762 10.362068965517242 1 0 -0 1 1.25
1 0 0 0 -1 
1 6.2831853071795862 0 0 -1 
1 0 0 1 0 
2 3.0531133177191805e-16 -3.5527136788005009e-15 1 0 -0 1 1.25
2 -0.10344827586206762 10.362068965517242 1 0 -0 1 1.25
1 5.1034482758620694 0 0 -1 
1 0 0 0 -1 
1 1.6551724137931032 0 0 -1 
1 0 0 0 -1 
1 1.7505904581955596 5.9026924893717521 0 -1 
1 0 0 1 0 
1 -7.137931034482758 6.0862068965517224 0 -1 
1 1.6551724137931032 0 0 -1 
1 0 0 0 -1 
1 6.854038734057629 5.9026924893717521 -1 0 
1 0 0 1 0 
1 -12.241379310344827 6.0862068965517224 1 0 
1 11.586206896551722 0 0 -1 
1 0 0 0 -1 
1 1.7505904581955596 4.2475200755786489 -1 0 
1 0 0 1 0 
1 -7.137931034482758 4.4310344827586192 1 0 
1 2.4827586206896548 0 0 -1 
1 0 0 0 -1 
1 6.854038734057629 4.2475200755786489 0 1 
1 0 0 1 0 
1 -12.241379310344827 4.4310344827586192 0 1 
1 9.3793103448275854 0 0 -1 
1 0 -0 0 -1 
1 -9.835616438356162 4.2475200755786489 0 -1 
1 0 0 1 0 
1 4.4482758620689644 4.4310344827586192 0 -1 
1 0 0 0 -1 
1 9.3793103448275854 0 0 -1 
1 9.3367973547472829 4.2475200755786489 -1 0 
1 0 0 1 0 
1 -14.724137931034482 4.4310344827586192 1 0 
1 19.172413793103445 0 0 -1 
1 0 0 0 -1 
1 -9.835616438356162 -5.1317902692489366 1 0 
1 0 -0 1 0 
1 4.4482758620689644 -4.9482758620689662 -1 0 
1 9.3367973547472829 -5.1317902692489366 0 1 
1 0 0 1 0 
1 -14.724137931034482 -4.9482758620689662 0 1 
1 0 0 0 -1 
1 5.7241379310344822 0 0 -1 
1 3.141592653589794 0 0 -1 
1 0 -0 0 -1 
1 0 0 1 0 
2 -2.8620689655172433 0 3.7007434154171886e-16 1 -1 3.7007434154171886e-16 1.1999999999999993
2 -3.7586206896551722 10.293103448275861 -3.7007434154171886e-16 1 1 3.7007434154171886e-16 1.1999999999999993
1 3.141592653589794 0 0 -1 
1 0 0 0 -1 
1 2.8620689655172393 1.1999999999999993 -1 0 
1 0 0 1 0 
1 -9.4827586206896548 11.493103448275861 1 0 
1 0 0 0 -1 
1 5.7241379310344822 0 0 -1 
1 -2.8620689655172429 -1.1999999999999993 1 0 
1 0 -0 1 0 
1 -3.7586206896551726 9.0931034482758619 -1 0 
1 0 0 1 0 
2 2.8620689655172393 0 -3.7007434154171886e-16 -1 1 -3.7007434154171886e-16 1.1999999999999993
2 -9.4827586206896548 10.293103448275861 3.7007434154171886e-16 -1 -1 -3.7007434154171886e-16 1.1999999999999993
1 0 0 0 -1 
1 6.2831853071795862 0 0 -1 
1 0 0 1 0 
2 1.7763568394002505e-15 0 1 0 -0 1 1.25
2 -12.724137931034484 10.431034482758619 1 0 -0 1 1.25
1 0 0 0 -1 
1 6.2831853071795862 0 0 -1 
1 0 0 1 0 
2 0 8.8817841970012523e-16 1 0 -0 1 1.25
2 -0.1724137931034484 -10.741379310344827 1 0 -0 1 1.25
1 3.4482758620689662 0 0 -1 
1 0 0 0 -1 
1 3.4482758620689644 0 0 -1 
1 0 -0 0 -1 
1 -1.724137931034484 1.7241379310344822 0 -1 
1 0 0 1 0 
1 -8.931034482758621 -5.7758620689655178 0 -1 
1 0 0 0 -1 
1 3.4482758620689644 0 0 -1 
1 1.7241379310344822 1.7241379310344822 -1 0 
1 0 0 1 0 
1 -12.379310344827587 -5.7758620689655178 1 0 
1 3.4482758620689662 0 0 -1 
1 0 0 0 -1 
1 -1.724137931034484 -1.7241379310344822 1 0 
1 0 -0 1 0 
1 -8.931034482758621 -9.2241379310344822 -1 0 
1 1.7241379310344822 -1.7241379310344822 0 1 
1 0 0 1 0 
1 -12.379310344827587 -9.2241379310344822 0 1 
1 0 0 0 -1 
1 6.2831853071795862 0 0 -1 
1 0 0 1 0 
2 -1.7763568394002505e-15 8.8817841970012523e-16 1 0 -0 1 1.25
2 -12.724137931034484 -10.741379310344827 1 0 -0 1 1.25
1 19.413489383673451 3.9487068281816242 -0.66896473162244974 0.74329414624716639 
1 0 -2 1 0 
1 19.413489383673451 -22.051293171818376 0 1 
1 -5.5865106163265494 -22.051293171818376 1 0 
1 -17.586510616326549 -11.051293171818376 0.73715414020074144 -0.67572462851734627 
1 0 -2 1 0 
1 0 -2 1 0 
2 0 0 0 -1 1 0 1.7000000000000028
2 -0.81425160731753721 -19.170874252899456 0 -1 1 0 1.7000000000000028
1 0 -2 1 0 
2 0 0 0 -1 1 0 1.7000000000000028
2 7.7375907350247992 -19.09097335199856 0 -1 1 0 1.7000000000000028
1 0 -2 1 0 
2 0 0 0 -1 1 0 1.7000000000000028
2 16.061960104394174 -18.972752631277832 0 -1 1 0 1.7000000000000028
1 0 -2 1 0 
2 -3.5527136788005009e-15 0 0 -1 1 0 0.85000000000000142
2 13.145577221511289 -0.52746659524179762 0 -1 1 0 0.85000000000000142
1 0 -2 1 0 
2 0 3.5527136788005009e-15 0 -1 1 0 0.85000000000000142
2 14.375072717006788 -2.2551197483949501 0 -1 1 0 0.85000000000000142
1 0 -2 1 0 
2 0 0 0 -1 1 0 0.85000000000000142
2 15.557279924213994 -3.9163247033499076 0 -1 1 0 0.85000000000000142
1 0 -2 1 0 
2 -3.5527136788005009e-15 0 0 -1 1 0 4.1499999999999986
2 5.6703587530428194 7.8666122335870305 0 -1 1 0 4.1499999999999986
1 0 -2 1 0 
2 -3.5527136788005009e-15 1.7763568394002505e-15 0 -1 1 0 0.84999999999999964
2 -0.55620431002024162 14.64677439574919 0 -1 1 0 0.84999999999999964
1 0 -2 1 0 
2 0 0 0 -1 1 0 0.84999999999999964
2 -4.1501142199301526 19.696837458812254 0 -1 1 0 0.84999999999999964
1 0 -2 1 0 
2 0 0 0 -1 1 0 0.84999999999999964
2 -2.9679070127229465 18.0356325038573 0 -1 1 0 0.84999999999999964
1 0 -2 1 0 
2 -1.7763568394002505e-15 8.8817841970012523e-16 0 -1 1 0 0.85000000000000053
2 -1.7384115172274495 16.307979350704144 0 -1 1 0 0.85000000000000053
1 0 -2 1 0 
2 0 -3.5527136788005009e-15 0 -1 1 0 0.85000000000000142
2 11.963370014304083 1.1337383597131527 0 -1 1 0 0.85000000000000142
1 0 0 0 -1 
1 6.2831853071795862 0 0 -1 
1 0 0 1 0 
2 0 -3.5527136788005009e-15 0 -1 1 0 0.85000000000000142
2 11.963370014304083 1.1337383597131527 0 -1 1 0 0.85000000000000142
1 0 0 0 -1 
1 6.2831853071795862 0 0 -1 
1 0 0 1 0 
2 -1.7763568394002505e-15 8.8817841970012523e-16 0 -1 1 0 0.85000000000000053
2 -1.7384115172274495 16.307979350704144 0 -1 1 0 0.85000000000000053
1 0 0 0 -1 
1 6.2831853071795862 0 0 -1 
1 0 0 1 0 
2 0 0 0 -1 1 0 0.84999999999999964
2 -2.9679070127229465 18.0356325038573 0 -1 1 0 0.84999999999999964
1 0 0 0 -1 
1 6.2831853071795862 0 0 -1 
1 0 0 1 0 
2 0 0 0 -1 1 0 0.84999999999999964
2 -4.1501142199301526 19.696837458812254 0 -1 1 0 0.84999999999999964
1 0 0 0 -1 
1 6.2831853071795862 0 0 -1 
1 0 0 1 0 
2 -3.5527136788005009e-15 1.7763568394002505e-15 0 -1 1 0 0.84999999999999964
2 -0.55620431002024162 14.64677439574919 0 -1 1 0 0.84999999999999964
1 0 0 0 -1 
1 6.2831853071795862 0 0 -1 
1 0 0 1 0 
2 -3.5527136788005009e-15 0 0 -1 1 0 4.1499999999999986
2 5.6703587530428194 7.8666122335870305 0 -1 1 0 4.1499999999999986
1 0 0 0 -1 
1 6.2831853071795862 0 0 -1 
1 0 0 1 0 
2 0 0 0 -1 1 0 0.85000000000000142
2 15.557279924213994 -3.9163247033499076 0 -1 1 0 0.85000000000000142
1 0 0 0 -1 
1 6.2831853071795862 0 0 -1 
1 0 0 1 0 
2 0 3.5527136788005009e-15 0 -1 1 0 0.85000000000000142
2 14.375072717006788 -2.2551197483949501 0 -1 1 0 0.85000000000000142
1 0 0 0 -1 
1 6.2831853071795862 0 0 -1 
1 0 0 1 0 
2 -3.5527136788005009e-15 0 0 -1 1 0 0.85000000000000142
2 13.145577221511289 -0.52746659524179762 0 -1 1 0 0.85000000000000142
1 0 0 0 -1 
1 6.2831853071795862 0 0 -1 
1 0 0 1 0 
2 0 0 0 -1 1 0 1.7000000000000028
2 16.061960104394174 -18.972752631277832 0 -1 1 0 1.7000000000000028
1 0 0 0 -1 
1 6.2831853071795862 0 0 -1 
1 0 0 1 0 
2 0 0 0 -1 1 0 1.7000000000000028
2 7.7375907350247992 -19.09097335199856 0 -1 1 0 1.7000000000000028
1 0 0 0 -1 
1 6.2831853071795862 0 0 -1 
1 0 0 1 0 
2 0 0 0 -1 1 0 1.7000000000000028
2 -0.81425160731753721 -19.170874252899456 0 -1 1 0 1.7000000000000028
1 16.278820596099706 0 0 -1 
1 -17.586510616326549 -11.051293171818376 0.73715414020074144 -0.67572462851734627 
1 0 0 1 0 
1 -5.5865106163265494 -22.051293171818376 1 0 
1 0 0 0 -1 
1 19.413489383673451 -22.051293171818376 0 1 
1 19.413489383673451 3.9487068281816242 -0.66896473162244974 0.74329414624716639 
1 0 0 1 0 
Curves 215
8 0 34
1 -17 0 0 1 0 0 
8 0 19
1 -17 0 19 0 0 -1 
1 -17 0 19 1 0 0 
1 -15 0 19 0 0 -1 
1 -17 0 2 1 0 0 
1 15 0 19 0 0 -1 
1 15 0 19 1 0 0 
8 0 19
1 17 0 0 0 0 1 
1 17 20 37 0 -0.74329414624716639 -0.66896473162244974 
1 17 46 37 0 -1 0 
1 17 46 12 0 0 1 
1 17 35 0 0 0.67572462851734627 0.73715414020074144 
8 0 35
1 17 35 0 0 -1 0 
2 17 33 15 -1 0 0 0 0 1 0 1 0 2
1 17 33 0 0 0 1 
2 17 32 24 -1 0 0 0 0 1 0 1 0 2
1 17 9 26 0 1 0 
2 17 9 24 -1 0 -0 0 0 -1 0 -1 -0 2
1 17 32 22 0 -1 0 
1 17 31 0 0 0 1 
1 17 33 24 0 -1 0 
1 17 16 17 0 1 0 
2 17 16 15 -1 0 -0 0 0 -1 0 -1 -0 2
1 17 33 13 0 -1 0 
2 17 40 28 1 0 0 0 1 0 0 0 1 1.7
2 17 40 9 1 0 0 0 1 0 0 0 1 1.7
2 17 40 18.5 1 0 0 0 1 0 0 0 1 1.7
1 15 41.700000000000003 18.5 1 0 0 
2 15 40 18.5 1 0 0 0 1 0 0 0 1 1.7
1 15 41.700000000000003 9 1 0 0 
2 15 40 9 1 0 0 0 1 0 0 0 1 1.7
1 15 41.700000000000003 28 1 0 0 
2 15 40 28 1 0 0 0 1 0 0 0 1 1.7
1 15 33 13 0 -1 0 
1 15 16 13 1 0 0 
1 7.5 31 13 -1 0 0 
1 15 16 17 1 0 0 
2 15 16 15 -1 0 -0 0 0 -1 0 -1 -0 2
1 15 16 17 0 1 0 
1 7.5 31 17 1 0 0 
1 17 33 24 -1 0 0 
1 -15 28.474353414090814 24 0 1 0 
1 17 31 24 -1 0 0 
1 7.5 31 22 -1 0 0 
1 15.000000000000002 31 14.793255308163275 0 0 -1 
1 0 31 2 1 0 0 
1 -15 31 14.793255308163275 0 0 -1 
2 -12 31 12 0 -1 0 1 0 0 0 0 1 1.5
2 -12 31 18 0 1 0 0 0 -1 -1 0 -0 1.5
1 12 31 16.5 -1 0 0 
1 -12 31 19.5 1 0 0 
2 12 31 18 0 1 0 0 0 1 1 0 0 1.5
2 0 31 12 0 -1 0 1 0 0 0 0 1 1.5
2 -12 31 6 0 1 0 0 0 -1 -1 0 -0 1.5
1 12 31 4.5 -1 0 0 
1 -12 31 7.5 1 0 0 
2 12 31 6 0 1 0 0 0 1 1 0 0 1.5
2 12 31 12 0 -1 0 1 0 0 0 0 1 1.5
1 13.5 33 12 0 -1 0 
2 12 33 12 0 -1 0 1 0 0 0 0 1 1.5
1 12 33 7.5 0 -1 0 
1 12 33 4.5 0 -1 0 
2 12 33 6 0 1 0 0 0 1 1 0 0 1.5
1 -12 33 7.5 0 -1 0 
1 -12 33 7.5 1 0 0 
1 -12 33 4.5 0 -1 0 
1 12 33 4.5 -1 0 0 
2 -12 33 6 0 1 0 0 0 -1 -1 0 -0 1.5
1 1.5 33 12 0 -1 0 
2 0 33 12 0 -1 0 1 0 0 0 0 1 1.5
1 12 33 19.5 0 -1 0 
1 12 33 16.5 0 -1 0 
2 12 33 18 0 1 0 0 0 1 1 0 0 1.5
1 -12 33 19.5 0 -1 0 
1 -12 33 19.5 1 0 0 
1 -12 33 16.5 0 -1 0 
1 12 33 16.5 -1 0 0 
2 -12 33 18 0 1 0 0 0 -1 -1 0 -0 1.5
1 -10.5 33 12 0 -1 0 
2 -12 33 12 0 -1 0 1 0 0 0 0 1 1.5
1 15 32 22 0 -1 0 
1 15 9 22 1 0 0 
1 15 9 26 1 0 0 
2 15 9 24 -1 0 -0 0 0 -1 0 -1 -0 2
1 15 32 26 1 0 0 
1 15 9 26 0 1 0 
2 15 32 24 -1 0 0 0 0 1 0 1 0 2
1 15 33 22.267949192431121 -1 0 0 
1 15.000000000000002 33 14.793255308163275 0 0 -1 
1 15 33 17 1 0 0 
1 15 33 13 1 0 0 
1 0 33 2 1 0 0 
1 -15 33 14.793255308163275 0 0 -1 
1 -15 20.724353414090814 2 0 1 0 
1 17 35 2 -1 0 0 
1 15.000000000000002 20.724353414090814 2 0 1 0 
1 17 35 0 -1 0 0 
1 -15 35 8.7932553081632747 -0 0 1 
1 15.000000000000002 35 8.7932553081632747 -0 0 1 
2 15 33 15 -1 0 0 0 0 1 0 1 0 2
1 15 46 12 1 0 0 
1 15 35 0 0 0.67572462851734627 0.73715414020074144 
1 15 46 37 1 0 0 
1 15 46 12 0 0 1 
1 15 20 37 1 0 0 
1 15 46 37 0 -1 0 
1 15 20 37 0 -0.74329414624716639 -0.66896473162244974 
2 -12.724137931034484 6.7586206896551726 2 0 0 1 1 0 0 0 1 0 1.25
1 -12.379310344827587 8.2758620689655178 2 0 1 0 
1 -8.931034482758621 8.2758620689655178 2 -1 0 0 
1 -12.379310344827587 11.724137931034482 2 1 0 0 
1 -8.931034482758621 11.724137931034482 2 0 -1 0 
2 -0.1724137931034484 6.7586206896551726 2 0 0 1 1 0 0 0 1 0 1.25
2 -12.724137931034484 27.931034482758619 2 0 0 1 1 0 0 0 1 0 1.25
2 -9.4827586206896548 27.793103448275861 2 0 -0 -1 3.7007434154171886e-16 -1 0 -1 -3.7007434154171886e-16 0 1.2
1 -3.7586206896551726 26.593103448275862 2 -1 0 0 
1 -9.4827586206896548 28.993103448275861 2 1 0 0 
2 -3.7586206896551722 27.793103448275861 2 0 0 -1 -3.7007434154171886e-16 1 0 1 3.7007434154171886e-16 0 1.2
1 -14.724137931034482 12.551724137931034 2 0 1 0 
1 4.4482758620689644 12.551724137931034 2 -1 0 0 
1 -14.724137931034482 21.931034482758619 2 1 0 0 
1 4.4482758620689644 21.931034482758619 2 0 -1 0 
1 -12.241379310344827 21.931034482758619 2 0 1 0 
1 -7.137931034482758 21.931034482758619 2 1 0 0 
1 -12.241379310344827 23.586206896551722 2 1 0 0 
1 -7.137931034482758 23.586206896551722 2 0 -1 0 
2 -0.10344827586206762 27.862068965517242 2 0 0 1 1 0 0 0 1 0 1.25
1 1.1465517241379324 27.862068965517242 0 0 0 1 
2 -0.10344827586206762 27.862068965517242 0 0 0 1 1 0 0 0 1 0 1.25
1 -7.137931034482758 23.586206896551722 0 0 0 1 
1 -7.137931034482758 21.931034482758619 0 0 0 1 
1 -7.137931034482758 23.586206896551722 0 0 -1 0 
1 -12.241379310344827 23.586206896551722 0 0 0 1 
1 -12.241379310344827 23.586206896551722 0 1 0 0 
1 4.4482758620689644 21.931034482758619 0 0 0 1 
1 -7.137931034482758 21.931034482758619 0 1 0 0 
1 -12.241379310344827 21.931034482758619 0 0 0 1 
1 -12.241379310344827 21.931034482758619 0 0 1 0 
1 4.4482758620689644 12.551724137931034 0 0 0 1 
1 4.4482758620689644 21.931034482758619 0 0 -1 0 
1 -14.724137931034482 21.931034482758619 0 0 0 1 
1 -14.724137931034482 21.931034482758619 0 1 0 0 
1 -14.724137931034482 12.551724137931034 0 0 0 1 
1 4.4482758620689644 12.551724137931034 0 -1 0 0 
1 -14.724137931034482 12.551724137931034 0 0 1 0 
1 -3.7586206896551726 28.993103448275861 0 0 0 1 
1 -3.7586206896551726 26.593103448275862 0 0 0 1 
2 -3.7586206896551722 27.793103448275861 0 0 0 -1 -3.7007434154171886e-16 1 0 1 3.7007434154171886e-16 0 1.2
1 -9.4827586206896548 28.993103448275861 0 0 0 1 
1 -9.4827586206896548 28.993103448275861 0 1 0 0 
1 -9.4827586206896548 26.593103448275862 0 0 0 1 
1 -3.7586206896551726 26.593103448275862 0 -1 0 0 
2 -9.4827586206896548 27.793103448275861 0 0 -0 -1 3.7007434154171886e-16 -1 0 -1 -3.7007434154171886e-16 0 1.2
1 -11.474137931034484 27.931034482758619 0 0 0 1 
2 -12.724137931034484 27.931034482758619 0 0 0 1 1 0 0 0 1 0 1.25
1 1.0775862068965516 6.7586206896551726 0 0 0 1 
2 -0.1724137931034484 6.7586206896551726 0 0 0 1 1 0 0 0 1 0 1.25
1 -8.931034482758621 11.724137931034482 0 0 0 1 
1 -8.931034482758621 8.2758620689655178 0 0 0 1 
1 -8.931034482758621 11.724137931034482 0 0 -1 0 
1 -12.379310344827587 11.724137931034482 0 0 0 1 
1 -12.379310344827587 11.724137931034482 0 1 0 0 
1 -12.379310344827587 8.2758620689655178 0 0 0 1 
1 -8.931034482758621 8.2758620689655178 0 -1 0 0 
1 -12.379310344827587 8.2758620689655178 0 0 1 0 
1 -11.474137931034484 6.7586206896551726 0 0 0 1 
2 -12.724137931034484 6.7586206896551726 0 0 0 1 1 0 0 0 1 0 1.25
1 -15 20 37 0 -0.74329414624716639 -0.66896473162244974 
1 -15 46 37 0 -1 0 
1 -15 46 12 0 0 1 
1 -15 35 0 0 0.67572462851734627 0.73715414020074144 
2 -15 43.11958108108108 16.772259009009012 1 0 0 0 1 0 0 0 1 1.7
2 -15 43.039680180180184 25.324101351351349 1 0 0 0 1 0 0 0 1 1.7
2 -15 42.921459459459456 33.648470720720724 1 0 0 0 1 0 0 0 1 1.7
2 -15 24.476173423423422 30.732087837837838 1 0 0 0 1 0 0 0 1 0.84999999999999998
2 -15 26.203826576576574 31.961583333333337 1 0 0 0 1 0 0 0 1 0.84999999999999998
2 -15 27.865031531531532 33.143790540540543 1 0 0 0 1 0 0 0 1 0.84999999999999998
2 -15 16.082094594594594 23.256869369369369 1 0 0 0 1 0 0 0 1 4.1500000000000004
2 -15 9.3019324324324337 17.030306306306308 1 0 0 0 1 0 0 0 1 0.84999999999999998
2 -15 4.2518693693693699 13.436396396396397 1 0 0 0 1 0 0 0 1 0.84999999999999998
2 -15 5.9130743243243247 14.618603603603603 1 0 0 0 1 0 0 0 1 0.84999999999999998
2 -15 7.6407274774774789 15.8480990990991 1 0 0 0 1 0 0 0 1 0.84999999999999998
2 -15 22.814968468468471 29.549880630630632 1 0 0 0 1 0 0 0 1 0.84999999999999998
1 -17 23.664968468468473 29.549880630630632 1 0 0 
2 -17 22.814968468468471 29.549880630630632 1 0 0 0 1 0 0 0 1 0.84999999999999998
1 -17 8.4907274774774795 15.8480990990991 1 0 0 
2 -17 7.6407274774774789 15.8480990990991 1 0 0 0 1 0 0 0 1 0.84999999999999998
1 -17 6.7630743243243243 14.618603603603603 1 0 0 
2 -17 5.9130743243243247 14.618603603603603 1 0 0 0 1 0 0 0 1 0.84999999999999998
1 -17 5.1018693693693695 13.436396396396397 1 0 0 
2 -17 4.2518693693693699 13.436396396396397 1 0 0 0 1 0 0 0 1 0.84999999999999998
1 -17 10.151932432432433 17.030306306306308 1 0 0 
2 -17 9.3019324324324337 17.030306306306308 1 0 0 0 1 0 0 0 1 0.84999999999999998
1 -17 20.232094594594592 23.256869369369369 1 0 0 
2 -17 16.082094594594594 23.256869369369369 1 0 0 0 1 0 0 0 1 4.1500000000000004
1 -17 28.715031531531533 33.143790540540543 1 0 0 
2 -17 27.865031531531532 33.143790540540543 1 0 0 0 1 0 0 0 1 0.84999999999999998
1 -17 27.053826576576576 31.961583333333337 1 0 0 
2 -17 26.203826576576574 31.961583333333337 1 0 0 0 1 0 0 0 1 0.84999999999999998
1 -17 25.326173423423423 30.732087837837838 1 0 0 
2 -17 24.476173423423422 30.732087837837838 1 0 0 0 1 0 0 0 1 0.84999999999999998
1 -17 44.621459459459459 33.648470720720724 1 0 0 
2 -17 42.921459459459456 33.648470720720724 1 0 0 0 1 0 0 0 1 1.7
1 -17 44.739680180180187 25.324101351351349 1 0 0 
2 -17 43.039680180180184 25.324101351351349 1 0 0 0 1 0 0 0 1 1.7
1 -17 44.819581081081083 16.772259009009012 1 0 0 
2 -17 43.11958108108108 16.772259009009012 1 0 0 0 1 0 0 0 1 1.7
1 -17 46 12 1 0 0 
1 -17 35 0 0 0.67572462851734627 0.73715414020074144 
1 -17 46 37 1 0 0 
1 -17 46 12 0 0 1 
1 -17 20 37 1 0 0 
1 -17 46 37 0 -1 0 
1 -17 20 37 0 -0.74329414624716639 -0.66896473162244974 
8 0 35
1 -17 0 0 0 1 0 
Polygon3D 0
PolygonOnTriangulations 0
Surfaces 137
1 -17 0 0 0 1 0 1 0 0 0 0 -1 
1 -17 20 37 0 0.66896473162244974 -0.74329414624716639 0 -0.74329414624716639 -0.66896473162244974 -1 0 -0 
1 -17 0 19 -0 1 0 0 0 -1 -1 0 -0 
1 -15 23.948706828181624 17.586510616326549 1 0 0 -0 0 1 0 -1 0 
1 0 17.5 2 0 0 1 1 0 -0 -0 1 0 
1 -17 0 0 0 1 0 1 0 0 0 0 -1 
1 15.000000000000002 23.948706828181624 17.586510616326549 1 0 0 -0 0 1 0 -1 0 
1 15 0 19 -0 1 0 0 0 -1 -1 0 -0 
1 15 20 37 0 0.66896473162244974 -0.74329414624716639 0 -0.74329414624716639 -0.66896473162244974 -1 0 -0 
1 17 0 0 -1 0 0 0 1 0 0 0 -1 
1 17 23.948706828181624 17.586510616326549 1 0 0 -0 0 1 0 -1 0 
1 15 35 0 0 -0.73715414020074144 0.67572462851734627 0 0.67572462851734627 0.73715414020074144 -1 0 0 
2 15 33 15 -1 0 0 0 0 1 0 1 0 2
1 17 24.5 15 -1 -0 -0 0 0 -1 0 -1 0 
1 0 33 12 -0 -1 -0 0 0 -1 1 -0 0 
1 17 33 0 -1 0 0 0 0 1 0 1 -0 
2 15 32 24 -1 0 0 0 0 1 0 1 0 2
1 17 20.5 24 -1 -0 -0 0 0 -1 0 -1 0 
1 15 9 26 0 0 1 0 1 0 -1 0 0 
2 15 9 24 -1 0 -0 0 0 -1 0 -1 -0 2
1 15 32 22 0 0 -1 0 -1 0 -1 -0 -0 
1 0 31 12 -0 -1 -0 0 0 -1 1 -0 0 
1 17 33 24 -0 -0 -1 -1 0 0 0 1 -0 
1 15 16 17 0 0 1 0 1 0 -1 0 0 
2 15 16 15 -1 0 -0 0 0 -1 0 -1 -0 2
1 15 33 13 0 0 -1 0 -1 0 -1 -0 -0 
2 15 40 28 -1 -0 -0 0 1 0 0 0 1 1.7
1 17 40 28 1 0 0 -0 0 1 0 -1 0 
2 15 40 9 -1 -0 -0 0 1 0 0 0 1 1.7
1 17 40 9 1 0 0 -0 0 1 0 -1 0 
2 15 40 18.5 -1 -0 -0 0 1 0 0 0 1 1.7
1 17 40 18.500000000000004 1 0 0 -0 0 1 0 -1 0 
1 15.000000000000002 40 18.500000000000004 1 0 0 -0 0 1 0 -1 0 
1 15.000000000000002 40 9 1 0 0 -0 0 1 0 -1 0 
1 15.000000000000002 40 28 1 0 0 -0 0 1 0 -1 0 
1 15 24.5 15 -1 -0 -0 0 0 -1 0 -1 0 
2 -12 33 12 -0 1 -0 1 0 0 0 0 1 1.5
1 -12 31 12 -0 -1 -0 0 0 -1 1 -0 0 
2 -12 33 18 0 1 0 0 0 -1 -1 0 -0 1.5
1 0 31 18 0 1 0 0 -0 1 1 0 -0 
1 12 33 16.5 -0 -0 -1 -1 0 0 0 1 -0 
1 -12 33 19.5 -0 0 1 1 0 0 0 1 -0 
2 12 33 18 0 1 0 0 0 1 1 0 0 1.5
2 0 33 12 -0 1 -0 1 0 0 0 0 1 1.5
1 -8.5465008283713956e-17 31.000000000000007 12 -0 -1 -0 0 0 -1 1 -0 0 
2 -12 33 6 0 1 0 0 0 -1 -1 0 -0 1.5
1 0 31 6 0 1 0 0 -0 1 1 0 -0 
1 12 33 4.5 -0 -0 -1 -1 0 0 0 1 -0 
1 -12 33 7.5 -0 0 1 1 0 0 0 1 -0 
2 12 33 6 0 1 0 0 0 1 1 0 0 1.5
2 12 33 12 -0 1 -0 1 0 0 0 0 1 1.5
1 12 31 12 -0 -1 -0 0 0 -1 1 -0 0 
1 12 33 12 -0 -1 -0 0 0 -1 1 -0 0 
1 0 33 6 0 1 0 0 -0 1 1 0 -0 
1 -8.5465008283713956e-17 33.000000000000007 12 -0 -1 -0 0 0 -1 1 -0 0 
1 0 33 18 0 1 0 0 -0 1 1 0 -0 
1 -12 33 12 -0 -1 -0 0 0 -1 1 -0 0 
1 15 20.5 24 -1 -0 -0 0 0 -1 0 -1 0 
1 17 35 0 0 -1 0 -1 0 0 -0 -0 -1 
1 0 17.5 0 0 0 1 1 0 -0 -0 1 0 
1 15 46 12 0 -1 0 0 0 1 -1 0 0 
1 15 46 37 0 0 -1 0 -1 0 -1 -0 -0 
2 -12.724137931034484 6.7586206896551726 0 -0 -0 -1 1 0 0 0 1 0 1.25
1 -12.724137931034482 6.7586206896551717 2 0 0 1 1 0 -0 -0 1 0 
1 -10.655172413793105 10 2 -0 -0 -1 -1 0 0 0 1 -0 
1 -12.379310344827587 8.2758620689655178 0 -1 0 0 0 1 0 0 0 -1 
1 -8.931034482758621 8.2758620689655178 0 0 -1 0 -1 0 0 -0 -0 -1 
1 -12.379310344827587 11.724137931034482 0 0 1 0 1 0 0 0 0 -1 
1 -8.931034482758621 11.724137931034482 0 1 0 -0 0 -1 0 0 -0 -1 
2 -0.1724137931034484 6.7586206896551726 0 -0 -0 -1 1 0 0 0 1 0 1.25
1 -0.1724137931034484 6.7586206896551717 2 0 0 1 1 0 -0 -0 1 0 
2 -12.724137931034484 27.931034482758619 0 -0 -0 -1 1 0 0 0 1 0 1.25
1 -12.724137931034486 27.931034482758619 2 0 0 1 1 0 -0 -0 1 0 
2 -9.4827586206896548 27.793103448275861 0 0 -0 -1 3.7007434154171886e-16 -1 0 -1 -3.7007434154171886e-16 0 1.2
1 -6.6206896551724155 27.793103448275861 2 -0 -0 -1 -1 0 0 0 1 -0 
1 -3.7586206896551726 26.593103448275862 0 0 -1 0 -1 0 0 -0 -0 -1 
1 -9.4827586206896548 28.993103448275861 0 0 1 0 1 0 0 0 0 -1 
2 -3.7586206896551722 27.793103448275861 0 0 0 -1 -3.7007434154171886e-16 1 0 1 3.7007434154171886e-16 0 1.2
1 -5.3873405762871984 17.68351440717997 2 -0 -0 -1 -1 0 0 0 1 -0 
1 -14.724137931034482 12.551724137931034 0 -1 0 0 0 1 0 0 0 -1 
1 4.4482758620689644 12.551724137931034 0 0 -1 0 -1 0 0 -0 -0 -1 
1 -14.724137931034482 21.931034482758619 0 0 1 0 1 0 0 0 0 -1 
1 4.4482758620689644 21.931034482758619 0 1 0 -0 0 -1 0 0 -0 -1 
1 -12.241379310344827 21.931034482758619 0 -1 0 0 0 1 0 0 0 -1 
1 -7.137931034482758 21.931034482758619 0 0 1 0 1 0 0 0 0 -1 
1 -12.241379310344827 23.586206896551722 0 0 1 0 1 0 0 0 0 -1 
1 -7.137931034482758 23.586206896551722 0 1 0 -0 0 -1 0 0 -0 -1 
2 -0.10344827586206762 27.862068965517242 0 -0 -0 -1 1 0 0 0 1 0 1.25
1 -0.10344827586206792 27.862068965517246 2 0 0 1 1 0 -0 -0 1 0 
1 -0.10344827586206792 27.862068965517246 0 0 0 1 1 0 -0 -0 1 0 
1 -5.3873405762871984 17.68351440717997 0 -0 -0 -1 -1 0 0 0 1 -0 
1 -6.6206896551724155 27.793103448275861 0 -0 -0 -1 -1 0 0 0 1 -0 
1 -12.724137931034486 27.931034482758619 0 0 0 1 1 0 -0 -0 1 0 
1 -0.1724137931034484 6.7586206896551717 0 0 0 1 1 0 -0 -0 1 0 
1 -10.655172413793105 10 0 -0 -0 -1 -1 0 0 0 1 -0 
1 -12.724137931034482 6.7586206896551717 0 0 0 1 1 0 -0 -0 1 0 
1 -17 35 0 0 -0.73715414020074144 0.67572462851734627 0 0.67572462851734627 0.73715414020074144 -1 0 0 
2 -17 43.11958108108108 16.772259009009012 -1 -0 -0 0 1 0 0 0 1 1.7
1 -15 43.11958108108108 16.772259009009012 1 0 0 -0 0 1 0 -1 0 
2 -17 43.039680180180184 25.324101351351349 -1 -0 -0 0 1 0 0 0 1 1.7
1 -15 43.039680180180184 25.324101351351349 1 0 0 -0 0 1 0 -1 0 
2 -17 42.921459459459456 33.648470720720724 -1 -0 -0 0 1 0 0 0 1 1.7
1 -15 42.921459459459456 33.648470720720724 1 0 0 -0 0 1 0 -1 0 
2 -17 24.476173423423422 30.732087837837838 -1 -0 -0 0 1 0 0 0 1 0.84999999999999998
1 -15 24.476173423423422 30.732087837837842 1 0 0 -0 0 1 0 -1 0 
2 -17 26.203826576576574 31.961583333333337 -1 -0 -0 0 1 0 0 0 1 0.84999999999999998
1 -15 26.203826576576578 31.961583333333337 1 0 0 -0 0 1 0 -1 0 
2 -17 27.865031531531532 33.143790540540543 -1 -0 -0 0 1 0 0 0 1 0.84999999999999998
1 -15 27.865031531531532 33.143790540540543 1 0 0 -0 0 1 0 -1 0 
2 -17 16.082094594594594 23.256869369369369 -1 -0 -0 0 1 0 0 0 1 4.1500000000000004
1 -15.000000000000004 16.082094594594594 23.256869369369372 1 0 0 -0 0 1 0 -1 0 
2 -17 9.3019324324324337 17.030306306306308 -1 -0 -0 0 1 0 0 0 1 0.84999999999999998
1 -15 9.3019324324324355 17.030306306306311 1 0 0 -0 0 1 0 -1 0 
2 -17 4.2518693693693699 13.436396396396397 -1 -0 -0 0 1 0 0 0 1 0.84999999999999998
1 -15 4.2518693693693699 13.436396396396397 1 0 0 -0 0 1 0 -1 0 
2 -17 5.9130743243243247 14.618603603603603 -1 -0 -0 0 1 0 0 0 1 0.84999999999999998
1 -15 5.9130743243243247 14.618603603603603 1 0 0 -0 0 1 0 -1 0 
2 -17 7.6407274774774789 15.8480990990991 -1 -0 -0 0 1 0 0 0 1 0.84999999999999998
1 -15.000000000000004 7.6407274774774798 15.848099099099102 1 0 0 -0 0 1 0 -1 0 
2 -17 22.814968468468471 29.549880630630632 -1 -0 -0 0 1 0 0 0 1 0.84999999999999998
1 -15 22.814968468468468 29.549880630630632 1 0 0 -0 0 1 0 -1 0 
1 -17 22.814968468468468 29.549880630630632 1 0 0 -0 0 1 0 -1 0 
1 -17 23.948706828181624 17.586510616326549 1 0 0 -0 0 1 0 -1 0 
1 -17.000000000000004 7.6407274774774798 15.848099099099102 1 0 0 -0 0 1 0 -1 0 
1 -17 5.9130743243243247 14.618603603603603 1 0 0 -0 0 1 0 -1 0 
1 -17 4.2518693693693699 13.436396396396397 1 0 0 -0 0 1 0 -1 0 
1 -17 9.3019324324324355 17.030306306306311 1 0 0 -0 0 1 0 -1 0 
1 -17.000000000000004 16.082094594594594 23.256869369369372 1 0 0 -0 0 1 0 -1 0 
1 -17 27.865031531531532 33.143790540540543 1 0 0 -0 0 1 0 -1 0 
1 -17 26.203826576576578 31.961583333333337 1 0 0 -0 0 1 0 -1 0 
1 -17 24.476173423423422 30.732087837837842 1 0 0 -0 0 1 0 -1 0 
1 -17 42.921459459459456 33.648470720720724 1 0 0 -0 0 1 0 -1 0 
1 -17 43.039680180180184 25.324101351351349 1 0 0 -0 0 1 0 -1 0 
1 -17 43.11958108108108 16.772259009009012 1 0 0 -0 0 1 0 -1 0 
1 -17 46 12 0 -1 0 0 0 1 -1 0 0 
1 -17 46 37 0 0 -1 0 -1 0 -1 -0 -0 
1 -17 35 0 1 0 -0 0 -1 0 0 -0 -1 
Triangulations 0

TShapes 579
Ve
1.00000001332268e-07
-17 0 0
0 0

0101101
*
Ve
1.00000001332268e-07
17 0 0
0 0

0101101
*
Ed
 1e-07 1 1 0
1  1 0 0 34
0

0101000
+579 0 -578 0 *
Ve
1e-07
-17 0 19
0 0

0101101
*
Ed
 1e-07 1 1 0
1  2 0 0 19
0

0101000
+576 0 -579 0 *
Ve
1e-07
-15 0 19
0 0

0101101
*
Ed
 1e-07 1 1 0
1  3 0 0 2
2  1 2 0 0 2
2  2 3 0 0 2
0

0101000
+576 0 -574 0 *
Ve
1.5e-07
-15 0 2
0 0

0101101
*
Ed
 1e-07 1 1 0
1  4 0 0 17
2  3 4 0 0 17
2  4 3 0 0 17
0

0101000
+574 0 -572 0 *
Ve
1.50000001776357e-07
15 0 2
0 0

0101101
*
Ed
 1e-07 1 1 0
1  5 0 2 32
2  5 5 0 2 32
2  6 6 0 2 32
0

0101000
+572 0 -570 0 *
Ve
1e-07
15 0 19
0 0

0101101
*
Ed
 1e-07 1 1 0
1  6 0 0 17
2  7 7 0 0 17
2  8 8 0 0 17
0

0101000
+568 0 -570 0 *
Ve
1e-07
17 0 19
0 0

0101101
*
Ed
 1e-07 1 1 0
1  7 0 0 2
2  9 9 0 0 2
2  10 8 0 0 2
0

0101000
+568 0 -566 0 *
Ed
 1e-07 1 1 0
1  8 0 0 19
0

0101000
+578 0 -566 0 *
Wi

0101100
-577 0 -575 0 +573 0 +571 0 +569 0 -567 0 +565 0 -564 0 *
Fa
0  0 1 0

0111000
+563 0 *
Ve
1e-07
17 20 37
0 0

0101101
*
Ed
 1e-07 1 1 0
1  9 0 0 26.9072480941474
2  11 11 0 0 26.9072480941474
2  12 9 0 0 26.9072480941474
0

0101000
+561 0 -566 0 *
Ve
1e-07
17 46 37
0 0

0101101
*
Ed
 1e-07 1 1 0
1  10 0 0 26
2  13 11 0 0 26
0

0101000
+559 0 -561 0 *
Ve
1e-07
17 46 12
0 0

0101101
*
Ed
 1e-07 1 1 0
1  11 0 0 25
2  14 11 0 0 25
0

0101000
+557 0 -559 0 *
Ve
1e-07
17 35 0
0 0

0101101
*
Ed
 1e-07 1 1 0
1  12 0 0 16.2788205960997
2  15 11 0 0 16.2788205960997
2  16 12 0 0 16.2788205960997
0

0101000
+555 0 -557 0 *
Ed
 1e-07 1 1 0
1  13 0 0 35
0

0101000
+555 0 -578 0 *
Wi

0101100
+564 0 -560 0 -558 0 -556 0 -554 0 +553 0 *
Ve
1.00000000111022e-07
17 33 17
0 0

0101101
*
Ve
1e-07
17 33 13
0 0

0101101
*
Ed
 1e-07 1 1 0
1  14 0 0 3.14159265358979
2  17 13 0 0 3.14159265358979
2  18 14 0 0 3.14159265358979
2  19 11 0 0 3.14159265358979
0

0101000
+551 0 -550 0 *
Ed
 1e-07 1 1 0
1  15 0 13 17
2  20 15 0 13 17
2  21 16 0 13 17
0

0101000
+550 0 -551 0 *
Wi

0101100
-549 0 -548 0 *
Ve
1.00000000111022e-07
17 32 26
0 0

0101101
*
Ve
1.00000028642893e-07
17 33 22.2679491924311
0 0

0101101
*
Ed
 1e-07 1 1 0
1  16 0 0 2.61799387799148
2  22 17 0 0 2.61799387799148
2  23 18 0 0 2.61799387799148
2  24 11 0 0 2.61799387799148
0

0101000
+546 0 -545 0 *
Ve
1e-07
17 9 26
0 0

0101101
*
Ed
 1e-07 1 1 0
1  17 0 0 23
2  25 18 0 0 23
2  26 19 0 0 23
2  27 11 0 0 23
0

0101000
+543 0 -546 0 *
Ve
1.00000000111022e-07
17 9 22
0 0

0101101
*
Ed
 1e-07 1 1 0
1  18 0 0 3.14159265358979
2  28 20 0 0 3.14159265358979
2  29 18 0 0 3.14159265358979
2  30 11 0 0 3.14159265358979
0

0101000
+541 0 -543 0 *
Ve
1.5e-07
17 31 22
0 0

0101101
*
Ed
 1e-07 1 1 0
1  19 0 1 23
2  31 18 0 1 23
2  32 21 0 1 23
2  33 11 0 1 23
0

0101000
+539 0 -541 0 *
Ve
1e-07
17 31 24
0 0

0101101
*
Ed
 1e-07 1 1 0
1  20 0 22 24
2  34 22 0 22 24
2  35 16 0 22 24
0

0101000
+539 0 -537 0 *
Ve
1e-07
17 33 24
0 0

0101101
*
Ed
 1e-07 1 1 0
1  21 0 0 2
2  36 16 0 0 2
2  37 23 0 0 2
0

0101000
+535 0 -537 0 *
Ed
 1e-07 1 1 0
1  15 0 22.2679491924311 24
2  20 15 0 22.2679491924311 24
2  21 16 0 22.2679491924311 24
0

0101000
+545 0 -535 0 *
Wi

0101100
-544 0 -542 0 -540 0 -538 0 +536 0 -534 0 -533 0 *
Ve
1e-07
17 16 17
0 0

0101101
*
Ve
1.5e-07
17 31 17
0 0

0101101
*
Ed
 1e-07 1 1 0
1  22 0 0 15
2  38 14 0 0 15
2  39 24 0 0 15
2  40 11 0 0 15
0

0101000
+531 0 -530 0 *
Ve
1.00000000111022e-07
17 16 13
0 0

0101101
*
Ed
 1e-07 1 1 0
1  23 0 0 3.14159265358979
2  41 25 0 0 3.14159265358979
2  42 14 0 0 3.14159265358979
2  43 11 0 0 3.14159265358979
0

0101000
+528 0 -531 0 *
Ve
1.5e-07
17 31 13
0 0

0101101
*
Ed
 1e-07 1 1 0
1  24 0 2 17
2  44 14 0 2 17
2  45 26 0 2 17
2  46 11 0 2 17
0

0101000
+526 0 -528 0 *
Ed
 1e-07 1 1 0
1  20 0 13 17
2  34 22 0 13 17
2  35 16 0 13 17
0

0101000
+526 0 -530 0 *
Wi

0101100
-529 0 -527 0 -525 0 +524 0 *
Ve
1e-07
17 41.7 28
0 0

0101101
*
Ed
 1e-07 1 1 0
1  25 0 0 6.28318530717959
2  47 27 0 0 6.28318530717959
2  48 28 0 0 6.28318530717959
2  49 11 0 0 6.28318530717959
0

0101000
+522 0 -522 0 *
Wi

0101100
+521 0 *
Ve
1e-07
17 41.7 9
0 0

0101101
*
Ed
 1e-07 1 1 0
1  26 0 0 6.28318530717959
2  50 29 0 0 6.28318530717959
2  51 30 0 0 6.28318530717959
2  52 11 0 0 6.28318530717959
0

0101000
+519 0 -519 0 *
Wi

0101100
+518 0 *
Ve
1e-07
17 41.7 18.5
0 0

0101101
*
Ed
 1e-07 1 1 0
1  27 0 0 6.28318530717959
2  53 31 0 0 6.28318530717959
2  54 32 0 0 6.28318530717959
2  55 11 0 0 6.28318530717959
0

0101000
+516 0 -516 0 *
Wi

0101100
+515 0 *
Fa
0  0 10 0

0111000
+552 0 +547 0 +532 0 +523 0 +520 0 +517 0 +514 0 *
Ve
1.00000001776357e-07
15 41.7 18.5
0 0

0101101
*
Ed
 1e-07 1 1 0
1  28 0 0 2
3  56 57CN 31 0 0 2
0

0101000
+512 0 -516 0 *
Ed
 1.00000001776357e-07 1 1 0
1  29 0 0 6.28318530717959
2  58 31 0 0 6.28318530717959
2  59 33 0 0 6.28318530717959
2  60 7 0 0 6.28318530717959
0

0101000
+512 0 -512 0 *
Wi

0101100
+511 0 -511 0 -510 0 +515 0 *
Fa
0  1e-07 31 0

0101000
+509 0 *
Ve
1.00000001776357e-07
15 41.7 9
0 0

0101101
*
Ed
 1e-07 1 1 0
1  30 0 0 2
3  61 62CN 29 0 0 2
0

0101000
+507 0 -519 0 *
Ed
 1.00000001776357e-07 1 1 0
1  31 0 0 6.28318530717959
2  63 29 0 0 6.28318530717959
2  64 34 0 0 6.28318530717959
2  65 7 0 0 6.28318530717959
0

0101000
+507 0 -507 0 *
Wi

0101100
+506 0 -506 0 -505 0 +518 0 *
Fa
0  1e-07 29 0

0101000
+504 0 *
Ve
1.00000001776357e-07
15 41.7 28
0 0

0101101
*
Ed
 1e-07 1 1 0
1  32 0 0 2
3  66 67CN 27 0 0 2
0

0101000
+502 0 -522 0 *
Ed
 1.00000001776357e-07 1 1 0
1  33 0 0 6.28318530717959
2  68 27 0 0 6.28318530717959
2  69 35 0 0 6.28318530717959
2  70 7 0 0 6.28318530717959
0

0101000
+502 0 -502 0 *
Wi

0101100
+501 0 -501 0 -500 0 +521 0 *
Fa
0  1e-07 27 0

0101000
+499 0 *
Ve
1.50000001776357e-07
15 31 13
0 0

0101101
*
Ve
1.00000001776357e-07
15 16 13
0 0

0101101
*
Ed
 1.00000001776357e-07 1 1 0
1  34 0 2 17
2  71 36 0 2 17
2  72 26 0 2 17
2  73 7 0 2 17
0

0101000
+497 0 -496 0 *
Ed
 1.00000000111022e-07 1 1 0
1  35 0 0 2
2  74 25 0 0 2
4 G1 26 0 25 0
2  75 26 0 0 2
0

0101000
+496 0 -528 0 *
Ed
 1.5e-07 1 1 0
1  36 0 -9.5 -7.5
2  76 26 0 -9.5 -7.5
2  77 22 0 -9.5 -7.5
0

0101000
+526 0 -497 0 *
Wi

0101100
-495 0 -494 0 +525 0 -493 0 *
Fa
0  1e-07 26 0

0101000
+492 0 *
Ve
1.00000001776357e-07
15 16 17
0 0

0101101
*
Ed
 1e-07 1 1 0
1  37 0 0 2
2  78 25 0 0 2
4 G1 24 0 25 0
2  79 24 0 0 2
0

0101000
+490 0 -531 0 *
Ed
 1.00000001776357e-07 1 1 0
1  38 0 0 3.14159265358979
2  80 25 0 0 3.14159265358979
2  81 36 0 0 3.14159265358979
2  82 7 0 0 3.14159265358979
0

0101000
+496 0 -490 0 *
Wi

0101100
+494 0 -489 0 -488 0 +527 0 *
Fa
0  1e-07 25 0

0101000
+487 0 *
Ve
1.50000001776357e-07
15 31 17
0 0

0101101
*
Ed
 1.00000001776357e-07 1 1 0
1  39 0 0 15
2  83 36 0 0 15
2  84 24 0 0 15
2  85 7 0 0 15
0

0101000
+490 0 -485 0 *
Ed
 1.5e-07 1 1 0
1  40 0 7.5 9.5
2  86 24 0 7.5 9.5
2  87 22 0 7.5 9.5
0

0101000
+485 0 -530 0 *
Wi

0101100
-484 0 -483 0 +529 0 +489 0 *
Fa
0  1e-07 24 0

0101000
+482 0 *
Ve
1.5e-07
-15 33 24
0 0

0101101
*
Ed
 1e-07 1 1 0
1  41 0 0 32
2  88 15 0 0 32
2  89 23 0 0 32
0

0101000
+535 0 -480 0 *
Ve
1.5e-07
-15 31 24
0 0

0101101
*
Ed
 1.5e-07 1 1 0
1  42 0 2.52564658590919 4.52564658590919
2  90 4 0 2.52564658590919 4.52564658590919
2  91 23 0 2.52564658590919 4.52564658590919
0

0101000
+478 0 -480 0 *
Ed
 1e-07 1 1 0
1  43 0 0 32
2  92 22 0 0 32
2  93 23 0 0 32
0

0101000
+537 0 -478 0 *
Wi

0101100
-479 0 +477 0 +476 0 +534 0 *
Fa
0  1e-07 23 0

0101000
+475 0 *
Ve
1.50000001776357e-07
15 31 22
0 0

0101101
*
Ed
 1.5e-07 1 1 0
1  44 0 -9.5 -7.5
2  94 21 0 -9.5 -7.5
2  95 22 0 -9.5 -7.5
0

0101000
+539 0 -473 0 *
Ed
 1.5e-07 1 1 0
1  45 0 -7.20674469183673 -2.20674469183673
2  96 7 0 -7.20674469183673 -2.20674469183673
2  97 22 0 -7.20674469183673 -2.20674469183673
0

0101000
+473 0 -485 0 *
Ve
1.5e-07
15 31 2
0 0

0101101
*
Ed
 1.5e-07 1 1 0
1  45 0 1.79325530816327 12.7932553081633
2  96 7 0 1.79325530816327 12.7932553081633
2  97 22 0 1.79325530816327 12.7932553081633
0

0101000
+497 0 -470 0 *
Ve
1.5e-07
-15 31 2
0 0

0101101
*
Ed
 1.5e-07 1 1 0
1  46 0 -15 15
2  98 5 0 -15 15
2  99 22 0 -15 15
0

0101000
+468 0 -470 0 *
Ed
 1.5e-07 1 1 0
1  47 0 -9.20674469183673 12.7932553081633
2  100 4 0 -9.20674469183673 12.7932553081633
2  101 22 0 -9.20674469183673 12.7932553081633
0

0101000
+478 0 -468 0 *
Wi

0101100
+476 0 +536 0 -472 0 -471 0 -483 0 +524 0 -493 0 -469 0 +467 0 +466 0 
*
Ve
1e-07
-10.5 31 12
0 0

0101101
*
Ed
 1e-07 1 1 0
1  48 0 0 6.28318530717959
2  102 37 0 0 6.28318530717959
2  103 38 0 0 6.28318530717959
2  104 22 0 0 6.28318530717959
0

0101000
+464 0 -464 0 *
Wi

0101100
-463 0 *
Ve
1e-07
-12 31 16.5
0 0

0101101
*
Ve
1e-07
-12 31 19.5
0 0

0101101
*
Ed
 1e-07 1 1 0
1  49 0 0 3.14159265358979
2  105 39 0 0 3.14159265358979
2  106 40 0 0 3.14159265358979
2  107 22 0 0 3.14159265358979
0

0101000
+461 0 -460 0 *
Ve
1e-07
12 31 16.5
0 0

0101101
*
Ed
 1e-07 1 1 0
1  50 0 0 24
2  108 40 0 0 24
2  109 41 0 0 24
2  110 22 0 0 24
0

0101000
+458 0 -461 0 *
Ve
1e-07
12 31 19.5
0 0

0101101
*
Ed
 1e-07 1 1 0
1  51 0 0 24
2  111 40 0 0 24
2  112 42 0 0 24
2  113 22 0 0 24
0

0101000
+460 0 -456 0 *
Ed
 1e-07 1 1 0
1  52 0 0 3.14159265358979
2  114 43 0 0 3.14159265358979
2  115 40 0 0 3.14159265358979
2  116 22 0 0 3.14159265358979
0

0101000
+456 0 -458 0 *
Wi

0101100
+459 0 +457 0 +455 0 +454 0 *
Ve
1e-07
1.5 31 12
0 0

0101101
*
Ed
 1e-07 1 1 0
1  53 0 0 6.28318530717959
2  117 44 0 0 6.28318530717959
2  118 45 0 0 6.28318530717959
2  119 22 0 0 6.28318530717959
0

0101000
+452 0 -452 0 *
Wi

0101100
-451 0 *
Ve
1e-07
-12 31 4.5
0 0

0101101
*
Ve
1e-07
-12 31 7.5
0 0

0101101
*
Ed
 1e-07 1 1 0
1  54 0 0 3.14159265358979
2  120 46 0 0 3.14159265358979
2  121 47 0 0 3.14159265358979
2  122 22 0 0 3.14159265358979
0

0101000
+449 0 -448 0 *
Ve
1e-07
12 31 4.5
0 0

0101101
*
Ed
 1e-07 1 1 0
1  55 0 0 24
2  123 47 0 0 24
2  124 48 0 0 24
2  125 22 0 0 24
0

0101000
+446 0 -449 0 *
Ve
1e-07
12 31 7.5
0 0

0101101
*
Ed
 1e-07 1 1 0
1  56 0 0 24
2  126 47 0 0 24
2  127 49 0 0 24
2  128 22 0 0 24
0

0101000
+448 0 -444 0 *
Ed
 1e-07 1 1 0
1  57 0 0 3.14159265358979
2  129 50 0 0 3.14159265358979
2  130 47 0 0 3.14159265358979
2  131 22 0 0 3.14159265358979
0

0101000
+444 0 -446 0 *
Wi

0101100
+447 0 +445 0 +443 0 +442 0 *
Ve
1e-07
13.5 31 12
0 0

0101101
*
Ed
 1e-07 1 1 0
1  58 0 0 6.28318530717959
2  132 51 0 0 6.28318530717959
2  133 52 0 0 6.28318530717959
2  134 22 0 0 6.28318530717959
0

0101000
+440 0 -440 0 *
Wi

0101100
-439 0 *
Fa
0  1e-07 22 0

0101000
+465 0 +462 0 +453 0 +450 0 +441 0 +438 0 *
Ve
1e-07
13.5 33 12
0 0

0101101
*
Ed
 1e-07 1 1 0
1  59 0 0 2
3  135 136CN 51 0 0 2
0

0101000
+436 0 -440 0 *
Ed
 1e-07 1 1 0
1  60 0 0 6.28318530717959
2  137 51 0 0 6.28318530717959
2  138 53 0 0 6.28318530717959
2  139 15 0 0 6.28318530717959
0

0101000
+436 0 -436 0 *
Wi

0101100
+435 0 -435 0 -434 0 +439 0 *
Fa
0  1e-07 51 0

0101000
+433 0 *
Ve
1e-07
12 33 7.5
0 0

0101101
*
Ed
 1e-07 1 1 0
1  61 0 0 2
2  140 50 0 0 2
4 G1 49 0 50 0
2  141 49 0 0 2
0

0101000
+431 0 -444 0 *
Ve
1e-07
12 33 4.5
0 0

0101101
*
Ed
 1e-07 1 1 0
1  62 0 0 2
2  142 50 0 0 2
4 G1 50 0 48 0
2  143 48 0 0 2
0

0101000
+429 0 -446 0 *
Ed
 1e-07 1 1 0
1  63 0 0 3.14159265358979
2  144 50 0 0 3.14159265358979
2  145 54 0 0 3.14159265358979
2  146 15 0 0 3.14159265358979
0

0101000
+431 0 -429 0 *
Wi

0101100
+430 0 -428 0 -427 0 +442 0 *
Fa
0  1e-07 50 0

0101000
+426 0 *
Ve
1e-07
-12 33 7.5
0 0

0101101
*
Ed
 1e-07 1 1 0
1  64 0 0 2
2  147 46 0 0 2
4 G1 49 0 46 0
2  148 49 0 0 2
0

0101000
+424 0 -448 0 *
Ed
 1e-07 1 1 0
1  65 0 0 24
2  149 54 0 0 24
2  150 49 0 0 24
2  151 15 0 0 24
0

0101000
+424 0 -431 0 *
Wi

0101100
+423 0 -430 0 -422 0 +443 0 *
Fa
0  1e-07 49 0

0101000
+421 0 *
Ve
1e-07
-12 33 4.5
0 0

0101101
*
Ed
 1e-07 1 1 0
1  66 0 0 2
2  152 46 0 0 2
4 G1 48 0 46 0
2  153 48 0 0 2
0

0101000
+419 0 -449 0 *
Ed
 1e-07 1 1 0
1  67 0 0 24
2  154 54 0 0 24
2  155 48 0 0 24
2  156 15 0 0 24
0

0101000
+429 0 -419 0 *
Wi

0101100
+428 0 -418 0 -417 0 +445 0 *
Fa
0  1e-07 48 0

0101000
+416 0 *
Ed
 1e-07 1 1 0
1  68 0 0 3.14159265358979
2  157 46 0 0 3.14159265358979
2  158 54 0 0 3.14159265358979
2  159 15 0 0 3.14159265358979
0

0101000
+419 0 -424 0 *
Wi

0101100
+418 0 -423 0 -414 0 +447 0 *
Fa
0  1e-07 46 0

0101000
+413 0 *
Ve
1e-07
1.5 33 12
0 0

0101101
*
Ed
 1e-07 1 1 0
1  69 0 0 2
3  160 161CN 44 0 0 2
0

0101000
+411 0 -452 0 *
Ed
 1e-07 1 1 0
1  70 0 0 6.28318530717959
2  162 44 0 0 6.28318530717959
2  163 55 0 0 6.28318530717959
2  164 15 0 0 6.28318530717959
0

0101000
+411 0 -411 0 *
Wi

0101100
+410 0 -410 0 -409 0 +451 0 *
Fa
0  1e-07 44 0

0101000
+408 0 *
Ve
1e-07
12 33 19.5
0 0

0101101
*
Ed
 1e-07 1 1 0
1  71 0 0 2
2  165 43 0 0 2
4 G1 42 0 43 0
2  166 42 0 0 2
0

0101000
+406 0 -456 0 *
Ve
1e-07
12 33 16.5
0 0

0101101
*
Ed
 1e-07 1 1 0
1  72 0 0 2
2  167 43 0 0 2
4 G1 43 0 41 0
2  168 41 0 0 2
0

0101000
+404 0 -458 0 *
Ed
 1e-07 1 1 0
1  73 0 0 3.14159265358979
2  169 43 0 0 3.14159265358979
2  170 56 0 0 3.14159265358979
2  171 15 0 0 3.14159265358979
0

0101000
+406 0 -404 0 *
Wi

0101100
+405 0 -403 0 -402 0 +454 0 *
Fa
0  1e-07 43 0

0101000
+401 0 *
Ve
1e-07
-12 33 19.5
0 0

0101101
*
Ed
 1e-07 1 1 0
1  74 0 0 2
2  172 39 0 0 2
4 G1 42 0 39 0
2  173 42 0 0 2
0

0101000
+399 0 -460 0 *
Ed
 1e-07 1 1 0
1  75 0 0 24
2  174 56 0 0 24
2  175 42 0 0 24
2  176 15 0 0 24
0

0101000
+399 0 -406 0 *
Wi

0101100
+398 0 -405 0 -397 0 +455 0 *
Fa
0  1e-07 42 0

0101000
+396 0 *
Ve
1e-07
-12 33 16.5
0 0

0101101
*
Ed
 1e-07 1 1 0
1  76 0 0 2
2  177 39 0 0 2
4 G1 41 0 39 0
2  178 41 0 0 2
0

0101000
+394 0 -461 0 *
Ed
 1e-07 1 1 0
1  77 0 0 24
2  179 56 0 0 24
2  180 41 0 0 24
2  181 15 0 0 24
0

0101000
+404 0 -394 0 *
Wi

0101100
+403 0 -393 0 -392 0 +457 0 *
Fa
0  1e-07 41 0

0101000
+391 0 *
Ed
 1e-07 1 1 0
1  78 0 0 3.14159265358979
2  182 39 0 0 3.14159265358979
2  183 56 0 0 3.14159265358979
2  184 15 0 0 3.14159265358979
0

0101000
+394 0 -399 0 *
Wi

0101100
+393 0 -398 0 -389 0 +459 0 *
Fa
0  1e-07 39 0

0101000
+388 0 *
Ve
1e-07
-10.5 33 12
0 0

0101101
*
Ed
 1e-07 1 1 0
1  79 0 0 2
3  185 186CN 37 0 0 2
0

0101000
+386 0 -464 0 *
Ed
 1e-07 1 1 0
1  80 0 0 6.28318530717959
2  187 37 0 0 6.28318530717959
2  188 57 0 0 6.28318530717959
2  189 15 0 0 6.28318530717959
0

0101000
+386 0 -386 0 *
Wi

0101100
+385 0 -385 0 -384 0 +463 0 *
Fa
0  1e-07 37 0

0101000
+383 0 *
Ve
1.00000001776357e-07
15 9 22
0 0

0101101
*
Ed
 1.00000001776357e-07 1 1 0
1  81 0 1 23
2  190 58 0 1 23
2  191 21 0 1 23
2  192 7 0 1 23
0

0101000
+473 0 -381 0 *
Ed
 1.00000000111022e-07 1 1 0
1  82 0 0 2
2  193 20 0 0 2
4 G1 21 0 20 0
2  194 21 0 0 2
0

0101000
+381 0 -541 0 *
Wi

0101100
-380 0 -379 0 +538 0 -472 0 *
Fa
0  1e-07 21 0

0101000
+378 0 *
Ve
1.00000001776357e-07
15 9 26
0 0

0101101
*
Ed
 1e-07 1 1 0
1  83 0 0 2
2  195 20 0 0 2
4 G1 19 0 20 0
2  196 19 0 0 2
0

0101000
+376 0 -543 0 *
Ed
 1.00000001776357e-07 1 1 0
1  84 0 0 3.14159265358979
2  197 20 0 0 3.14159265358979
2  198 58 0 0 3.14159265358979
2  199 7 0 0 3.14159265358979
0

0101000
+381 0 -376 0 *
Wi

0101100
+379 0 -375 0 -374 0 +540 0 *
Fa
0  1e-07 20 0

0101000
+373 0 *
Ve
1.00000001776357e-07
15 32 26
0 0

0101101
*
Ed
 1.00000000111022e-07 1 1 0
1  85 0 0 2
2  200 17 0 0 2
4 G1 19 0 17 0
2  201 19 0 0 2
0

0101000
+371 0 -546 0 *
Ed
 1.00000001776357e-07 1 1 0
1  86 0 0 23
2  202 58 0 0 23
2  203 19 0 0 23
2  204 7 0 0 23
0

0101000
+376 0 -371 0 *
Wi

0101100
+375 0 -370 0 -369 0 +542 0 *
Fa
0  1e-07 19 0

0101000
+368 0 *
Ve
1.50000001776357e-07
15 33 22.2679491924311
0 0

0101101
*
Ed
 1.00000001776357e-07 1 1 0
1  87 0 0 2.61799387799149
2  205 17 0 0 2.61799387799149
2  206 58 0 0 2.61799387799149
2  207 7 0 0 2.61799387799149
0

0101000
+371 0 -366 0 *
Ed
 1e-07 1 1 0
1  88 0 -2 0
2  208 17 0 -2 0
2  209 15 0 -2 0
0

0101000
+545 0 -366 0 *
Wi

0101100
-365 0 +364 0 +544 0 +370 0 *
Fa
0  1e-07 17 0

0101000
+363 0 *
Ve
1.50000001776357e-07
15 33 17
0 0

0101101
*
Ed
 1.5e-07 1 1 0
1  89 0 -7.47469388426785 -2.20674469183673
2  210 7 0 -7.47469388426785 -2.20674469183673
2  211 15 0 -7.47469388426785 -2.20674469183673
0

0101000
+366 0 -361 0 *
Ed
 1.00000000111022e-07 1 1 0
1  90 0 0 2
2  212 13 0 0 2
4 G1 24 0 13 0
2  213 24 0 0 2
2  214 15 0 0 2
0

0101000
+361 0 -551 0 *
Ve
1.50000001776357e-07
15 33 13
0 0

0101101
*
Ed
 1e-07 1 1 0
1  91 0 0 2
2  215 13 0 0 2
4 G1 13 0 26 0
2  216 26 0 0 2
2  217 15 0 0 2
0

0101000
+358 0 -550 0 *
Ve
1.5e-07
15 33 2
0 0

0101101
*
Ed
 1.5e-07 1 1 0
1  89 0 1.79325530816327 12.7932553081633
2  210 7 0 1.79325530816327 12.7932553081633
2  211 15 0 1.79325530816327 12.7932553081633
0

0101000
+358 0 -356 0 *
Ve
1.5e-07
-15 33 2
0 0

0101101
*
Ed
 1.5e-07 1 1 0
1  92 0 -15 15
2  218 5 0 -15 15
2  219 15 0 -15 15
0

0101000
+354 0 -356 0 *
Ed
 1.5e-07 1 1 0
1  93 0 -9.20674469183673 12.7932553081633
2  220 4 0 -9.20674469183673 12.7932553081633
2  221 15 0 -9.20674469183673 12.7932553081633
0

0101000
+480 0 -354 0 *
Wi

0101100
+479 0 +533 0 -364 0 -360 0 -359 0 +548 0 +357 0 -355 0 +353 0 +352 0 
*
Wi

0101100
-384 0 *
Wi

0101100
+389 0 +392 0 +397 0 +402 0 *
Wi

0101100
-409 0 *
Wi

0101100
+414 0 +417 0 +422 0 +427 0 *
Wi

0101100
-434 0 *
Fa
0  1e-07 15 0

0101000
+351 0 +350 0 +349 0 +348 0 +347 0 +346 0 *
Ve
1.5e-07
-15 35 2
0 0

0101101
*
Ed
 1.5e-07 1 1 0
1  94 0 12.2756465859092 14.2756465859092
2  222 5 0 12.2756465859092 14.2756465859092
2  223 4 0 12.2756465859092 14.2756465859092
0

0101000
+354 0 -344 0 *
Ve
1.5e-07
15 35 2
0 0

0101101
*
Ed
 1e-07 1 1 0
1  95 0 2 32
2  224 5 0 2 32
2  225 59 0 2 32
0

0101000
+342 0 -344 0 *
Ed
 1.5e-07 1 1 0
1  96 0 12.2756465859092 14.2756465859092
2  226 5 0 12.2756465859092 14.2756465859092
2  227 7 0 12.2756465859092 14.2756465859092
0

0101000
+356 0 -342 0 *
Wi

0101100
-343 0 +341 0 +340 0 +353 0 *
Fa
0  1e-07 5 0

0101000
+339 0 *
Ve
2.12133034355964e-07
15 35 0
0 0

0101101
*
Ve
2.12133034355964e-07
-15 35 0
0 0

0101101
*
Ed
 1e-07 1 1 0
1  97 0 2 32
2  228 60 0 2 32
2  229 59 0 2 32
0

0101000
+337 0 -336 0 *
Ed
 1.5e-07 1 1 0
1  98 0 -8.79325530816327 -6.79325530816327
2  230 59 0 -8.79325530816327 -6.79325530816327
2  231 4 0 -8.79325530816327 -6.79325530816327
0

0101000
+336 0 -344 0 *
Ed
 1.5e-07 1 1 0
1  99 0 -8.79325530816327 -6.79325530816327
2  232 59 0 -8.79325530816327 -6.79325530816327
2  233 7 0 -8.79325530816327 -6.79325530816327
0

0101000
+337 0 -342 0 *
Wi

0101100
-335 0 -334 0 +341 0 +333 0 *
Fa
0  1e-07 59 0

0101000
+332 0 *
Ed
 1.00000001776357e-07 1 1 0
1  100 0 0 3.14159265358979
2  234 13 0 0 3.14159265358979
2  235 36 0 0 3.14159265358979
2  236 7 0 0 3.14159265358979
0

0101000
+361 0 -358 0 *
Wi

0101100
+359 0 -357 0 -330 0 +549 0 *
Fa
0  1e-07 13 0

0101000
+329 0 *
Ed
 1e-07 1 1 0
1  97 0 0 2
2  228 60 0 0 2
2  229 59 0 0 2
0

0101000
+555 0 -337 0 *
Ve
1e-07
15 46 12
0 0

0101101
*
Ed
 1e-07 1 1 0
1  101 0 0 2
2  237 12 0 0 2
0

0101000
+326 0 -557 0 *
Ed
 1e-07 1 1 0
1  102 0 0 16.2788205960997
2  238 7 0 0 16.2788205960997
2  239 12 0 0 16.2788205960997
0

0101000
+337 0 -326 0 *
Wi

0101100
-327 0 -325 0 -324 0 +554 0 *
Fa
0  1e-07 12 0

0101000
+323 0 *
Ve
1e-07
15 46 37
0 0

0101101
*
Ed
 1e-07 1 1 0
1  103 0 0 2
0

0101000
+321 0 -559 0 *
Ed
 1e-07 1 1 0
1  104 0 0 25
2  240 7 0 0 25
0

0101000
+326 0 -321 0 *
Wi

0101100
+325 0 -320 0 -319 0 +556 0 *
Fa
0  1e-07 61 0

0101000
+318 0 *
Ve
1e-07
15 20 37
0 0

0101101
*
Ed
 1e-07 1 1 0
1  105 0 0 2
2  241 9 0 0 2
0

0101000
+316 0 -561 0 *
Ed
 1e-07 1 1 0
1  106 0 0 26
2  242 7 0 0 26
0

0101000
+321 0 -316 0 *
Wi

0101100
+320 0 -315 0 -314 0 +558 0 *
Fa
0  1e-07 62 0

0101000
+313 0 *
Ed
 1e-07 1 1 0
1  107 0 0 26.9072480941474
2  243 7 0 0 26.9072480941474
2  244 9 0 0 26.9072480941474
0

0101000
+316 0 -568 0 *
Wi

0101100
+315 0 -565 0 -311 0 +560 0 *
Fa
0  1e-07 9 0

0101000
+310 0 *
Ed
 1.5e-07 1 1 0
1  96 0 -20.7243534140908 10.2756465859092
2  226 5 0 -20.7243534140908 10.2756465859092
2  227 7 0 -20.7243534140908 10.2756465859092
0

0101000
+570 0 -470 0 *
Wi

0101100
-333 0 +340 0 +355 0 +330 0 +360 0 +365 0 +369 0 +374 0 +380 0 -471 0 
+484 0 +488 0 +495 0 -469 0 +308 0 +567 0 +311 0 +314 0 +319 0 +324 0 
*
Wi

0101100
-505 0 *
Wi

0101100
-510 0 *
Wi

0101100
-500 0 *
Fa
0  1e-07 7 0

0101000
+307 0 +306 0 +305 0 +304 0 *
Ed
 1.5e-07 1 1 0
1  94 0 -20.7243534140908 10.2756465859092
2  222 5 0 -20.7243534140908 10.2756465859092
2  223 4 0 -20.7243534140908 10.2756465859092
0

0101000
+572 0 -468 0 *
Wi

0101100
-302 0 -467 0 +308 0 +569 0 *
Ve
1e-07
-11.4741379310345 6.75862068965517 2
0 0

0101101
*
Ed
 1e-07 1 1 0
1  108 0 0 6.28318530717959
2  245 63 0 0 6.28318530717959
2  246 64 0 0 6.28318530717959
2  247 5 0 0 6.28318530717959
0

0101000
+300 0 -300 0 *
Wi

0101100
-299 0 *
Ve
1e-07
-12.3793103448276 8.27586206896552 2
0 0

0101101
*
Ve
1e-07
-12.3793103448276 11.7241379310345 2
0 0

0101101
*
Ed
 1e-07 1 1 0
1  109 0 0 3.44827586206896
2  248 65 0 0 3.44827586206896
2  249 66 0 0 3.44827586206896
2  250 5 0 0 3.44827586206896
0

0101000
+297 0 -296 0 *
Ve
1e-07
-8.93103448275862 8.27586206896552 2
0 0

0101101
*
Ed
 1e-07 1 1 0
1  110 0 0 3.44827586206897
2  251 65 0 0 3.44827586206897
2  252 67 0 0 3.44827586206897
2  253 5 0 0 3.44827586206897
0

0101000
+294 0 -297 0 *
Ve
1e-07
-8.93103448275862 11.7241379310345 2
0 0

0101101
*
Ed
 1e-07 1 1 0
1  111 0 0 3.44827586206897
2  254 65 0 0 3.44827586206897
2  255 68 0 0 3.44827586206897
2  256 5 0 0 3.44827586206897
0

0101000
+296 0 -292 0 *
Ed
 1e-07 1 1 0
1  112 0 0 3.44827586206896
2  257 65 0 0 3.44827586206896
2  258 69 0 0 3.44827586206896
2  259 5 0 0 3.44827586206896
0

0101000
+292 0 -294 0 *
Wi

0101100
+295 0 +293 0 +291 0 +290 0 *
Ve
1e-07
1.07758620689655 6.75862068965517 2
0 0

0101101
*
Ed
 1e-07 1 1 0
1  113 0 0 6.28318530717959
2  260 70 0 0 6.28318530717959
2  261 71 0 0 6.28318530717959
2  262 5 0 0 6.28318530717959
0

0101000
+288 0 -288 0 *
Wi

0101100
-287 0 *
Ve
1e-07
-11.4741379310345 27.9310344827586 2
0 0

0101101
*
Ed
 1e-07 1 1 0
1  114 0 0 6.28318530717959
2  263 72 0 0 6.28318530717959
2  264 73 0 0 6.28318530717959
2  265 5 0 0 6.28318530717959
0

0101000
+285 0 -285 0 *
Wi

0101100
-284 0 *
Ve
1e-07
-9.48275862068965 26.5931034482759 2
0 0

0101101
*
Ve
1e-07
-9.48275862068965 28.9931034482759 2
0 0

0101101
*
Ed
 1e-07 1 1 0
1  115 0 0 3.14159265358979
2  266 74 0 0 3.14159265358979
2  267 75 0 0 3.14159265358979
2  268 5 0 0 3.14159265358979
0

0101000
+282 0 -281 0 *
Ve
1e-07
-3.75862068965517 26.5931034482759 2
0 0

0101101
*
Ed
 1e-07 1 1 0
1  116 0 0 5.72413793103448
2  269 75 0 0 5.72413793103448
2  270 76 0 0 5.72413793103448
2  271 5 0 0 5.72413793103448
0

0101000
+279 0 -282 0 *
Ve
1e-07
-3.75862068965517 28.9931034482759 2
0 0

0101101
*
Ed
 1e-07 1 1 0
1  117 0 0 5.72413793103448
2  272 75 0 0 5.72413793103448
2  273 77 0 0 5.72413793103448
2  274 5 0 0 5.72413793103448
0

0101000
+281 0 -277 0 *
Ed
 1e-07 1 1 0
1  118 0 0 3.14159265358979
2  275 78 0 0 3.14159265358979
2  276 75 0 0 3.14159265358979
2  277 5 0 0 3.14159265358979
0

0101000
+277 0 -279 0 *
Wi

0101100
+280 0 +278 0 +276 0 +275 0 *
Ve
1e-07
-14.7241379310345 12.551724137931 2
0 0

0101101
*
Ve
1e-07
-14.7241379310345 21.9310344827586 2
0 0

0101101
*
Ed
 1e-07 1 1 0
1  119 0 0 9.37931034482759
2  278 79 0 0 9.37931034482759
2  279 80 0 0 9.37931034482759
2  280 5 0 0 9.37931034482759
0

0101000
+273 0 -272 0 *
Ve
1e-07
4.44827586206896 12.551724137931 2
0 0

0101101
*
Ed
 1e-07 1 1 0
1  120 0 0 19.1724137931034
2  281 79 0 0 19.1724137931034
2  282 81 0 0 19.1724137931034
2  283 5 0 0 19.1724137931034
0

0101000
+270 0 -273 0 *
Ve
1e-07
-12.2413793103448 21.9310344827586 2
0 0

0101101
*
Ed
 1e-07 1 1 0
1  121 0 0 2.48275862068965
2  284 79 0 0 2.48275862068965
2  285 82 0 0 2.48275862068965
2  286 5 0 0 2.48275862068965
0

0101000
+272 0 -268 0 *
Ve
1e-07
4.44827586206896 21.9310344827586 2
0 0

0101101
*
Ed
 1e-07 1 1 0
1  122 0 0 9.37931034482759
2  287 79 0 0 9.37931034482759
2  288 83 0 0 9.37931034482759
2  289 5 0 0 9.37931034482759
0

0101000
+266 0 -270 0 *
Ve
1e-07
-12.2413793103448 23.5862068965517 2
0 0

0101101
*
Ed
 1e-07 1 1 0
1  123 0 0 1.6551724137931
2  290 79 0 0 1.6551724137931
2  291 84 0 0 1.6551724137931
2  292 5 0 0 1.6551724137931
0

0101000
+268 0 -264 0 *
Ve
1e-07
-7.13793103448276 21.9310344827586 2
0 0

0101101
*
Ed
 1e-07 1 1 0
1  124 0 0 11.5862068965517
2  293 79 0 0 11.5862068965517
2  294 85 0 0 11.5862068965517
2  295 5 0 0 11.5862068965517
0

0101000
+262 0 -266 0 *
Ve
1e-07
-7.13793103448276 23.5862068965517 2
0 0

0101101
*
Ed
 1e-07 1 1 0
1  125 0 0 5.10344827586207
2  296 79 0 0 5.10344827586207
2  297 86 0 0 5.10344827586207
2  298 5 0 0 5.10344827586207
0

0101000
+264 0 -260 0 *
Ed
 1e-07 1 1 0
1  126 0 0 1.6551724137931
2  299 79 0 0 1.6551724137931
2  300 87 0 0 1.6551724137931
2  301 5 0 0 1.6551724137931
0

0101000
+260 0 -262 0 *
Wi

0101100
+271 0 +269 0 +267 0 +265 0 +263 0 +261 0 +259 0 +258 0 *
Ve
1e-07
1.14655172413793 27.8620689655172 2
0 0

0101101
*
Ed
 1e-07 1 1 0
1  127 0 0 6.28318530717959
2  302 88 0 0 6.28318530717959
2  303 89 0 0 6.28318530717959
2  304 5 0 0 6.28318530717959
0

0101000
+256 0 -256 0 *
Wi

0101100
-255 0 *
Fa
0  1e-07 5 0

0101000
+301 0 +298 0 +289 0 +286 0 +283 0 +274 0 +257 0 +254 0 *
Ve
1e-07
1.14655172413793 27.8620689655172 0
0 0

0101101
*
Ed
 1e-07 1 1 0
1  128 0 0 2
3  305 306CN 88 0 0 2
0

0101000
+252 0 -256 0 *
Ed
 1e-07 1 1 0
1  129 0 0 6.28318530717959
2  307 88 0 0 6.28318530717959
2  308 90 0 0 6.28318530717959
2  309 60 0 0 6.28318530717959
0

0101000
+252 0 -252 0 *
Wi

0101100
+251 0 -251 0 -250 0 +255 0 *
Fa
0  1e-07 88 0

0101000
+249 0 *
Ve
1e-07
-7.13793103448276 23.5862068965517 0
0 0

0101101
*
Ed
 1e-07 1 1 0
1  130 0 0 2
2  310 86 0 0 2
2  311 87 0 0 2
0

0101000
+247 0 -260 0 *
Ve
1e-07
-7.13793103448276 21.9310344827586 0
0 0

0101101
*
Ed
 1e-07 1 1 0
1  131 0 0 2
2  312 87 0 0 2
2  313 85 0 0 2
0

0101000
+245 0 -262 0 *
Ed
 1e-07 1 1 0
1  132 0 0 1.6551724137931
2  314 91 0 0 1.6551724137931
2  315 87 0 0 1.6551724137931
2  316 60 0 0 1.6551724137931
0

0101000
+247 0 -245 0 *
Wi

0101100
+246 0 -244 0 -243 0 +258 0 *
Fa
0  1e-07 87 0

0101000
+242 0 *
Ve
1e-07
-12.2413793103448 23.5862068965517 0
0 0

0101101
*
Ed
 1e-07 1 1 0
1  133 0 0 2
2  317 84 0 0 2
2  318 86 0 0 2
0

0101000
+240 0 -264 0 *
Ed
 1e-07 1 1 0
1  134 0 0 5.10344827586207
2  319 91 0 0 5.10344827586207
2  320 86 0 0 5.10344827586207
2  321 60 0 0 5.10344827586207
0

0101000
+240 0 -247 0 *
Wi

0101100
+239 0 -246 0 -238 0 +259 0 *
Fa
0  1e-07 86 0

0101000
+237 0 *
Ve
1e-07
4.44827586206896 21.9310344827586 0
0 0

0101101
*
Ed
 1e-07 1 1 0
1  135 0 0 2
2  322 85 0 0 2
2  323 83 0 0 2
0

0101000
+235 0 -266 0 *
Ed
 1e-07 1 1 0
1  136 0 0 11.5862068965517
2  324 91 0 0 11.5862068965517
2  325 85 0 0 11.5862068965517
2  326 60 0 0 11.5862068965517
0

0101000
+245 0 -235 0 *
Wi

0101100
+244 0 -234 0 -233 0 +261 0 *
Fa
0  1e-07 85 0

0101000
+232 0 *
Ve
1e-07
-12.2413793103448 21.9310344827586 0
0 0

0101101
*
Ed
 1e-07 1 1 0
1  137 0 0 2
2  327 82 0 0 2
2  328 84 0 0 2
0

0101000
+230 0 -268 0 *
Ed
 1e-07 1 1 0
1  138 0 0 1.6551724137931
2  329 91 0 0 1.6551724137931
2  330 84 0 0 1.6551724137931
2  331 60 0 0 1.6551724137931
0

0101000
+230 0 -240 0 *
Wi

0101100
+229 0 -239 0 -228 0 +263 0 *
Fa
0  1e-07 84 0

0101000
+227 0 *
Ve
1e-07
4.44827586206896 12.551724137931 0
0 0

0101101
*
Ed
 1e-07 1 1 0
1  139 0 0 2
2  332 83 0 0 2
2  333 81 0 0 2
0

0101000
+225 0 -270 0 *
Ed
 1e-07 1 1 0
1  140 0 0 9.37931034482759
2  334 91 0 0 9.37931034482759
2  335 83 0 0 9.37931034482759
2  336 60 0 0 9.37931034482759
0

0101000
+235 0 -225 0 *
Wi

0101100
+234 0 -224 0 -223 0 +265 0 *
Fa
0  1e-07 83 0

0101000
+222 0 *
Ve
1e-07
-14.7241379310345 21.9310344827586 0
0 0

0101101
*
Ed
 1e-07 1 1 0
1  141 0 0 2
2  337 82 0 0 2
2  338 80 0 0 2
0

0101000
+220 0 -272 0 *
Ed
 1e-07 1 1 0
1  142 0 0 2.48275862068965
2  339 91 0 0 2.48275862068965
2  340 82 0 0 2.48275862068965
2  341 60 0 0 2.48275862068965
0

0101000
+220 0 -230 0 *
Wi

0101100
+219 0 -229 0 -218 0 +267 0 *
Fa
0  1e-07 82 0

0101000
+217 0 *
Ve
1e-07
-14.7241379310345 12.551724137931 0
0 0

0101101
*
Ed
 1e-07 1 1 0
1  143 0 0 2
2  342 81 0 0 2
2  343 80 0 0 2
0

0101000
+215 0 -273 0 *
Ed
 1e-07 1 1 0
1  144 0 0 19.1724137931034
2  344 91 0 0 19.1724137931034
2  345 81 0 0 19.1724137931034
2  346 60 0 0 19.1724137931034
0

0101000
+225 0 -215 0 *
Wi

0101100
+224 0 -214 0 -213 0 +269 0 *
Fa
0  1e-07 81 0

0101000
+212 0 *
Ed
 1e-07 1 1 0
1  145 0 0 9.37931034482759
2  347 91 0 0 9.37931034482759
2  348 80 0 0 9.37931034482759
2  349 60 0 0 9.37931034482759
0

0101000
+215 0 -220 0 *
Wi

0101100
+214 0 -219 0 -210 0 +271 0 *
Fa
0  1e-07 80 0

0101000
+209 0 *
Ve
1e-07
-3.75862068965517 28.9931034482759 0
0 0

0101101
*
Ed
 1e-07 1 1 0
1  146 0 0 2
2  350 78 0 0 2
4 G1 77 0 78 0
2  351 77 0 0 2
0

0101000
+207 0 -277 0 *
Ve
1e-07
-3.75862068965517 26.5931034482759 0
0 0

0101101
*
Ed
 1e-07 1 1 0
1  147 0 0 2
2  352 78 0 0 2
4 G1 78 0 76 0
2  353 76 0 0 2
0

0101000
+205 0 -279 0 *
Ed
 1e-07 1 1 0
1  148 0 0 3.14159265358979
2  354 78 0 0 3.14159265358979
2  355 92 0 0 3.14159265358979
2  356 60 0 0 3.14159265358979
0

0101000
+207 0 -205 0 *
Wi

0101100
+206 0 -204 0 -203 0 +275 0 *
Fa
0  1e-07 78 0

0101000
+202 0 *
Ve
1e-07
-9.48275862068965 28.9931034482759 0
0 0

0101101
*
Ed
 1e-07 1 1 0
1  149 0 0 2
2  357 74 0 0 2
4 G1 77 0 74 0
2  358 77 0 0 2
0

0101000
+200 0 -281 0 *
Ed
 1e-07 1 1 0
1  150 0 0 5.72413793103448
2  359 92 0 0 5.72413793103448
2  360 77 0 0 5.72413793103448
2  361 60 0 0 5.72413793103448
0

0101000
+200 0 -207 0 *
Wi

0101100
+199 0 -206 0 -198 0 +276 0 *
Fa
0  1e-07 77 0

0101000
+197 0 *
Ve
1e-07
-9.48275862068965 26.5931034482759 0
0 0

0101101
*
Ed
 1e-07 1 1 0
1  151 0 0 2
2  362 74 0 0 2
4 G1 76 0 74 0
2  363 76 0 0 2
0

0101000
+195 0 -282 0 *
Ed
 1e-07 1 1 0
1  152 0 0 5.72413793103448
2  364 92 0 0 5.72413793103448
2  365 76 0 0 5.72413793103448
2  366 60 0 0 5.72413793103448
0

0101000
+205 0 -195 0 *
Wi

0101100
+204 0 -194 0 -193 0 +278 0 *
Fa
0  1e-07 76 0

0101000
+192 0 *
Ed
 1e-07 1 1 0
1  153 0 0 3.14159265358979
2  367 74 0 0 3.14159265358979
2  368 92 0 0 3.14159265358979
2  369 60 0 0 3.14159265358979
0

0101000
+195 0 -200 0 *
Wi

0101100
+194 0 -199 0 -190 0 +280 0 *
Fa
0  1e-07 74 0

0101000
+189 0 *
Ve
1e-07
-11.4741379310345 27.9310344827586 0
0 0

0101101
*
Ed
 1e-07 1 1 0
1  154 0 0 2
3  370 371CN 72 0 0 2
0

0101000
+187 0 -285 0 *
Ed
 1e-07 1 1 0
1  155 0 0 6.28318530717959
2  372 72 0 0 6.28318530717959
2  373 93 0 0 6.28318530717959
2  374 60 0 0 6.28318530717959
0

0101000
+187 0 -187 0 *
Wi

0101100
+186 0 -186 0 -185 0 +284 0 *
Fa
0  1e-07 72 0

0101000
+184 0 *
Ve
1e-07
1.07758620689655 6.75862068965517 0
0 0

0101101
*
Ed
 1e-07 1 1 0
1  156 0 0 2
3  375 376CN 70 0 0 2
0

0101000
+182 0 -288 0 *
Ed
 1e-07 1 1 0
1  157 0 0 6.28318530717959
2  377 70 0 0 6.28318530717959
2  378 94 0 0 6.28318530717959
2  379 60 0 0 6.28318530717959
0

0101000
+182 0 -182 0 *
Wi

0101100
+181 0 -181 0 -180 0 +287 0 *
Fa
0  1e-07 70 0

0101000
+179 0 *
Ve
1e-07
-8.93103448275862 11.7241379310345 0
0 0

0101101
*
Ed
 1e-07 1 1 0
1  158 0 0 2
2  380 68 0 0 2
2  381 69 0 0 2
0

0101000
+177 0 -292 0 *
Ve
1e-07
-8.93103448275862 8.27586206896552 0
0 0

0101101
*
Ed
 1e-07 1 1 0
1  159 0 0 2
2  382 69 0 0 2
2  383 67 0 0 2
0

0101000
+175 0 -294 0 *
Ed
 1e-07 1 1 0
1  160 0 0 3.44827586206896
2  384 95 0 0 3.44827586206896
2  385 69 0 0 3.44827586206896
2  386 60 0 0 3.44827586206896
0

0101000
+177 0 -175 0 *
Wi

0101100
+176 0 -174 0 -173 0 +290 0 *
Fa
0  1e-07 69 0

0101000
+172 0 *
Ve
1e-07
-12.3793103448276 11.7241379310345 0
0 0

0101101
*
Ed
 1e-07 1 1 0
1  161 0 0 2
2  387 68 0 0 2
2  388 66 0 0 2
0

0101000
+170 0 -296 0 *
Ed
 1e-07 1 1 0
1  162 0 0 3.44827586206897
2  389 95 0 0 3.44827586206897
2  390 68 0 0 3.44827586206897
2  391 60 0 0 3.44827586206897
0

0101000
+170 0 -177 0 *
Wi

0101100
+169 0 -176 0 -168 0 +291 0 *
Fa
0  1e-07 68 0

0101000
+167 0 *
Ve
1e-07
-12.3793103448276 8.27586206896552 0
0 0

0101101
*
Ed
 1e-07 1 1 0
1  163 0 0 2
2  392 67 0 0 2
2  393 66 0 0 2
0

0101000
+165 0 -297 0 *
Ed
 1e-07 1 1 0
1  164 0 0 3.44827586206897
2  394 95 0 0 3.44827586206897
2  395 67 0 0 3.44827586206897
2  396 60 0 0 3.44827586206897
0

0101000
+175 0 -165 0 *
Wi

0101100
+174 0 -164 0 -163 0 +293 0 *
Fa
0  1e-07 67 0

0101000
+162 0 *
Ed
 1e-07 1 1 0
1  165 0 0 3.44827586206896
2  397 95 0 0 3.44827586206896
2  398 66 0 0 3.44827586206896
2  399 60 0 0 3.44827586206896
0

0101000
+165 0 -170 0 *
Wi

0101100
+164 0 -169 0 -160 0 +295 0 *
Fa
0  1e-07 66 0

0101000
+159 0 *
Ve
1e-07
-11.4741379310345 6.75862068965517 0
0 0

0101101
*
Ed
 1e-07 1 1 0
1  166 0 0 2
3  400 401CN 63 0 0 2
0

0101000
+157 0 -300 0 *
Ed
 1e-07 1 1 0
1  167 0 0 6.28318530717959
2  402 63 0 0 6.28318530717959
2  403 96 0 0 6.28318530717959
2  404 60 0 0 6.28318530717959
0

0101000
+157 0 -157 0 *
Wi

0101100
+156 0 -156 0 -155 0 +299 0 *
Fa
0  1e-07 63 0

0101000
+154 0 *
Ve
1e-07
-15 20 37
0 0

0101101
*
Ed
 1e-07 1 1 0
1  168 0 0 26.9072480941474
2  405 4 0 0 26.9072480941474
2  406 2 0 0 26.9072480941474
0

0101000
+152 0 -574 0 *
Ve
1e-07
-15 46 37
0 0

0101101
*
Ed
 1e-07 1 1 0
1  169 0 0 26
2  407 4 0 0 26
0

0101000
+150 0 -152 0 *
Ve
1e-07
-15 46 12
0 0

0101101
*
Ed
 1e-07 1 1 0
1  170 0 0 25
2  408 4 0 0 25
0

0101000
+148 0 -150 0 *
Ed
 1e-07 1 1 0
1  171 0 0 16.2788205960997
2  409 4 0 0 16.2788205960997
2  410 97 0 0 16.2788205960997
0

0101000
+336 0 -148 0 *
Wi

0101100
-334 0 +343 0 +352 0 +477 0 -466 0 +302 0 +571 0 +151 0 +149 0 +147 0 
+146 0 *
Ve
1e-07
-15 44.8195810810811 16.772259009009
0 0

0101101
*
Ed
 1e-07 1 1 0
1  172 0 0 6.28318530717959
2  411 98 0 0 6.28318530717959
2  412 99 0 0 6.28318530717959
2  413 4 0 0 6.28318530717959
0

0101000
+144 0 -144 0 *
Wi

0101100
-143 0 *
Ve
1e-07
-15 44.7396801801802 25.3241013513513
0 0

0101101
*
Ed
 1e-07 1 1 0
1  173 0 0 6.28318530717959
2  414 100 0 0 6.28318530717959
2  415 101 0 0 6.28318530717959
2  416 4 0 0 6.28318530717959
0

0101000
+141 0 -141 0 *
Wi

0101100
-140 0 *
Ve
1e-07
-15 44.6214594594595 33.6484707207207
0 0

0101101
*
Ed
 1e-07 1 1 0
1  174 0 0 6.28318530717959
2  417 102 0 0 6.28318530717959
2  418 103 0 0 6.28318530717959
2  419 4 0 0 6.28318530717959
0

0101000
+138 0 -138 0 *
Wi

0101100
-137 0 *
Ve
1e-07
-15 25.3261734234234 30.7320878378378
0 0

0101101
*
Ed
 1e-07 1 1 0
1  175 0 0 6.28318530717959
2  420 104 0 0 6.28318530717959
2  421 105 0 0 6.28318530717959
2  422 4 0 0 6.28318530717959
0

0101000
+135 0 -135 0 *
Wi

0101100
-134 0 *
Ve
1e-07
-15 27.0538265765766 31.9615833333333
0 0

0101101
*
Ed
 1e-07 1 1 0
1  176 0 0 6.28318530717959
2  423 106 0 0 6.28318530717959
2  424 107 0 0 6.28318530717959
2  425 4 0 0 6.28318530717959
0

0101000
+132 0 -132 0 *
Wi

0101100
-131 0 *
Ve
1e-07
-15 28.7150315315315 33.1437905405405
0 0

0101101
*
Ed
 1e-07 1 1 0
1  177 0 0 6.28318530717959
2  426 108 0 0 6.28318530717959
2  427 109 0 0 6.28318530717959
2  428 4 0 0 6.28318530717959
0

0101000
+129 0 -129 0 *
Wi

0101100
-128 0 *
Ve
1e-07
-15 20.2320945945946 23.2568693693694
0 0

0101101
*
Ed
 1e-07 1 1 0
1  178 0 0 6.28318530717959
2  429 110 0 0 6.28318530717959
2  430 111 0 0 6.28318530717959
2  431 4 0 0 6.28318530717959
0

0101000
+126 0 -126 0 *
Wi

0101100
-125 0 *
Ve
1e-07
-15 10.1519324324324 17.0303063063063
0 0

0101101
*
Ed
 1e-07 1 1 0
1  179 0 0 6.28318530717959
2  432 112 0 0 6.28318530717959
2  433 113 0 0 6.28318530717959
2  434 4 0 0 6.28318530717959
0

0101000
+123 0 -123 0 *
Wi

0101100
-122 0 *
Ve
1e-07
-15 5.10186936936937 13.4363963963964
0 0

0101101
*
Ed
 1e-07 1 1 0
1  180 0 0 6.28318530717959
2  435 114 0 0 6.28318530717959
2  436 115 0 0 6.28318530717959
2  437 4 0 0 6.28318530717959
0

0101000
+120 0 -120 0 *
Wi

0101100
-119 0 *
Ve
1e-07
-15 6.76307432432432 14.6186036036036
0 0

0101101
*
Ed
 1e-07 1 1 0
1  181 0 0 6.28318530717959
2  438 116 0 0 6.28318530717959
2  439 117 0 0 6.28318530717959
2  440 4 0 0 6.28318530717959
0

0101000
+117 0 -117 0 *
Wi

0101100
-116 0 *
Ve
1e-07
-15 8.49072747747748 15.8480990990991
0 0

0101101
*
Ed
 1e-07 1 1 0
1  182 0 0 6.28318530717959
2  441 118 0 0 6.28318530717959
2  442 119 0 0 6.28318530717959
2  443 4 0 0 6.28318530717959
0

0101000
+114 0 -114 0 *
Wi

0101100
-113 0 *
Ve
1e-07
-15 23.6649684684685 29.5498806306306
0 0

0101101
*
Ed
 1e-07 1 1 0
1  183 0 0 6.28318530717959
2  444 120 0 0 6.28318530717959
2  445 121 0 0 6.28318530717959
2  446 4 0 0 6.28318530717959
0

0101000
+111 0 -111 0 *
Wi

0101100
-110 0 *
Fa
0  1e-07 4 0

0101000
+145 0 +142 0 +139 0 +136 0 +133 0 +130 0 +127 0 +124 0 +121 0 +118 0 
+115 0 +112 0 +109 0 *
Ve
1e-07
-17 23.6649684684685 29.5498806306306
0 0

0101101
*
Ed
 1e-07 1 1 0
1  184 0 0 2
3  447 448CN 120 0 0 2
0

0101000
+107 0 -111 0 *
Ed
 1e-07 1 1 0
1  185 0 0 6.28318530717959
2  449 120 0 0 6.28318530717959
2  450 122 0 0 6.28318530717959
2  451 123 0 0 6.28318530717959
0

0101000
+107 0 -107 0 *
Wi

0101100
+106 0 -106 0 -105 0 +110 0 *
Fa
0  1e-07 120 0

0101000
+104 0 *
Ve
1e-07
-17 8.49072747747748 15.8480990990991
0 0

0101101
*
Ed
 1e-07 1 1 0
1  186 0 0 2
3  452 453CN 118 0 0 2
0

0101000
+102 0 -114 0 *
Ed
 1e-07 1 1 0
1  187 0 0 6.28318530717959
2  454 118 0 0 6.28318530717959
2  455 124 0 0 6.28318530717959
2  456 123 0 0 6.28318530717959
0

0101000
+102 0 -102 0 *
Wi

0101100
+101 0 -101 0 -100 0 +113 0 *
Fa
0  1e-07 118 0

0101000
+99 0 *
Ve
1e-07
-17 6.76307432432432 14.6186036036036
0 0

0101101
*
Ed
 1e-07 1 1 0
1  188 0 0 2
3  457 458CN 116 0 0 2
0

0101000
+97 0 -117 0 *
Ed
 1e-07 1 1 0
1  189 0 0 6.28318530717959
2  459 116 0 0 6.28318530717959
2  460 125 0 0 6.28318530717959
2  461 123 0 0 6.28318530717959
0

0101000
+97 0 -97 0 *
Wi

0101100
+96 0 -96 0 -95 0 +116 0 *
Fa
0  1e-07 116 0

0101000
+94 0 *
Ve
1e-07
-17 5.10186936936937 13.4363963963964
0 0

0101101
*
Ed
 1e-07 1 1 0
1  190 0 0 2
3  462 463CN 114 0 0 2
0

0101000
+92 0 -120 0 *
Ed
 1e-07 1 1 0
1  191 0 0 6.28318530717959
2  464 114 0 0 6.28318530717959
2  465 126 0 0 6.28318530717959
2  466 123 0 0 6.28318530717959
0

0101000
+92 0 -92 0 *
Wi

0101100
+91 0 -91 0 -90 0 +119 0 *
Fa
0  1e-07 114 0

0101000
+89 0 *
Ve
1e-07
-17 10.1519324324324 17.0303063063063
0 0

0101101
*
Ed
 1e-07 1 1 0
1  192 0 0 2
3  467 468CN 112 0 0 2
0

0101000
+87 0 -123 0 *
Ed
 1e-07 1 1 0
1  193 0 0 6.28318530717959
2  469 112 0 0 6.28318530717959
2  470 127 0 0 6.28318530717959
2  471 123 0 0 6.28318530717959
0

0101000
+87 0 -87 0 *
Wi

0101100
+86 0 -86 0 -85 0 +122 0 *
Fa
0  1e-07 112 0

0101000
+84 0 *
Ve
1e-07
-17 20.2320945945946 23.2568693693694
0 0

0101101
*
Ed
 1e-07 1 1 0
1  194 0 0 2
3  472 473CN 110 0 0 2
0

0101000
+82 0 -126 0 *
Ed
 1e-07 1 1 0
1  195 0 0 6.28318530717959
2  474 110 0 0 6.28318530717959
2  475 128 0 0 6.28318530717959
2  476 123 0 0 6.28318530717959
0

0101000
+82 0 -82 0 *
Wi

0101100
+81 0 -81 0 -80 0 +125 0 *
Fa
0  1e-07 110 0

0101000
+79 0 *
Ve
1e-07
-17 28.7150315315315 33.1437905405405
0 0

0101101
*
Ed
 1e-07 1 1 0
1  196 0 0 2
3  477 478CN 108 0 0 2
0

0101000
+77 0 -129 0 *
Ed
 1e-07 1 1 0
1  197 0 0 6.28318530717959
2  479 108 0 0 6.28318530717959
2  480 129 0 0 6.28318530717959
2  481 123 0 0 6.28318530717959
0

0101000
+77 0 -77 0 *
Wi

0101100
+76 0 -76 0 -75 0 +128 0 *
Fa
0  1e-07 108 0

0101000
+74 0 *
Ve
1e-07
-17 27.0538265765766 31.9615833333333
0 0

0101101
*
Ed
 1e-07 1 1 0
1  198 0 0 2
3  482 483CN 106 0 0 2
0

0101000
+72 0 -132 0 *
Ed
 1e-07 1 1 0
1  199 0 0 6.28318530717959
2  484 106 0 0 6.28318530717959
2  485 130 0 0 6.28318530717959
2  486 123 0 0 6.28318530717959
0

0101000
+72 0 -72 0 *
Wi

0101100
+71 0 -71 0 -70 0 +131 0 *
Fa
0  1e-07 106 0

0101000
+69 0 *
Ve
1e-07
-17 25.3261734234234 30.7320878378378
0 0

0101101
*
Ed
 1e-07 1 1 0
1  200 0 0 2
3  487 488CN 104 0 0 2
0

0101000
+67 0 -135 0 *
Ed
 1e-07 1 1 0
1  201 0 0 6.28318530717959
2  489 104 0 0 6.28318530717959
2  490 131 0 0 6.28318530717959
2  491 123 0 0 6.28318530717959
0

0101000
+67 0 -67 0 *
Wi

0101100
+66 0 -66 0 -65 0 +134 0 *
Fa
0  1e-07 104 0

0101000
+64 0 *
Ve
1e-07
-17 44.6214594594595 33.6484707207207
0 0

0101101
*
Ed
 1e-07 1 1 0
1  202 0 0 2
3  492 493CN 102 0 0 2
0

0101000
+62 0 -138 0 *
Ed
 1e-07 1 1 0
1  203 0 0 6.28318530717959
2  494 102 0 0 6.28318530717959
2  495 132 0 0 6.28318530717959
2  496 123 0 0 6.28318530717959
0

0101000
+62 0 -62 0 *
Wi

0101100
+61 0 -61 0 -60 0 +137 0 *
Fa
0  1e-07 102 0

0101000
+59 0 *
Ve
1e-07
-17 44.7396801801802 25.3241013513513
0 0

0101101
*
Ed
 1e-07 1 1 0
1  204 0 0 2
3  497 498CN 100 0 0 2
0

0101000
+57 0 -141 0 *
Ed
 1e-07 1 1 0
1  205 0 0 6.28318530717959
2  499 100 0 0 6.28318530717959
2  500 133 0 0 6.28318530717959
2  501 123 0 0 6.28318530717959
0

0101000
+57 0 -57 0 *
Wi

0101100
+56 0 -56 0 -55 0 +140 0 *
Fa
0  1e-07 100 0

0101000
+54 0 *
Ve
1e-07
-17 44.8195810810811 16.772259009009
0 0

0101101
*
Ed
 1e-07 1 1 0
1  206 0 0 2
3  502 503CN 98 0 0 2
0

0101000
+52 0 -144 0 *
Ed
 1e-07 1 1 0
1  207 0 0 6.28318530717959
2  504 98 0 0 6.28318530717959
2  505 134 0 0 6.28318530717959
2  506 123 0 0 6.28318530717959
0

0101000
+52 0 -52 0 *
Wi

0101100
+51 0 -51 0 -50 0 +143 0 *
Fa
0  1e-07 98 0

0101000
+49 0 *
Ve
1e-07
-17 35 0
0 0

0101101
*
Ed
 1e-07 1 1 0
1  97 0 32 34
2  228 60 0 32 34
2  229 59 0 32 34
0

0101000
+336 0 -47 0 *
Ve
1e-07
-17 46 12
0 0

0101101
*
Ed
 1e-07 1 1 0
1  208 0 0 2
2  507 97 0 0 2
0

0101000
+45 0 -148 0 *
Ed
 1e-07 1 1 0
1  209 0 0 16.2788205960997
2  508 123 0 0 16.2788205960997
2  509 97 0 0 16.2788205960997
0

0101000
+47 0 -45 0 *
Wi

0101100
-46 0 -44 0 -43 0 +146 0 *
Fa
0  1e-07 97 0

0101000
+42 0 *
Ve
1e-07
-17 46 37
0 0

0101101
*
Ed
 1e-07 1 1 0
1  210 0 0 2
0

0101000
+40 0 -150 0 *
Ed
 1e-07 1 1 0
1  211 0 0 25
2  510 123 0 0 25
0

0101000
+45 0 -40 0 *
Wi

0101100
+44 0 -39 0 -38 0 +147 0 *
Fa
0  1e-07 135 0

0101000
+37 0 *
Ve
1e-07
-17 20 37
0 0

0101101
*
Ed
 1e-07 1 1 0
1  212 0 0 2
2  511 2 0 0 2
0

0101000
+35 0 -152 0 *
Ed
 1e-07 1 1 0
1  213 0 0 26
2  512 123 0 0 26
0

0101000
+40 0 -35 0 *
Wi

0101100
+39 0 -34 0 -33 0 +149 0 *
Fa
0  1e-07 136 0

0101000
+32 0 *
Ed
 1e-07 1 1 0
1  214 0 0 26.9072480941474
2  513 123 0 0 26.9072480941474
2  514 2 0 0 26.9072480941474
0

0101000
+35 0 -576 0 *
Wi

0101100
+34 0 -573 0 -30 0 +151 0 *
Fa
0  1e-07 2 0

0101000
+29 0 *
Ed
 1e-07 1 1 0
1  215 0 0 35
0

0101000
+579 0 -47 0 *
Wi

0101100
+27 0 +43 0 +38 0 +33 0 +30 0 +575 0 *
Wi

0101100
-105 0 *
Wi

0101100
-50 0 *
Wi

0101100
-55 0 *
Wi

0101100
-60 0 *
Wi

0101100
-65 0 *
Wi

0101100
-70 0 *
Wi

0101100
-75 0 *
Wi

0101100
-80 0 *
Wi

0101100
-85 0 *
Wi

0101100
-90 0 *
Wi

0101100
-95 0 *
Wi

0101100
-100 0 *
Fa
0  0 137 0

0111000
+26 0 +25 0 +24 0 +23 0 +22 0 +21 0 +20 0 +19 0 +18 0 +17 0 
+16 0 +15 0 +14 0 *
Wi

0101100
+577 0 -553 0 +327 0 +335 0 +46 0 -27 0 *
Wi

0101100
-250 0 *
Wi

0101100
-155 0 *
Wi

0101100
+160 0 +168 0 +173 0 +163 0 *
Wi

0101100
-180 0 *
Wi

0101100
-185 0 *
Wi

0101100
+190 0 +198 0 +203 0 +193 0 *
Wi

0101100
+210 0 +218 0 +228 0 +238 0 +243 0 +233 0 +223 0 +213 0 *
Fa
0  0 60 0

0111000
+12 0 +11 0 +10 0 +9 0 +8 0 +7 0 +6 0 +5 0 *
Sh

0101100
-562 0 -513 0 +508 0 +503 0 +498 0 -491 0 -486 0 -481 0 -474 0 +437 0 
+432 0 -425 0 -420 0 -415 0 -412 0 +407 0 -400 0 -395 0 -390 0 -387 0 
+382 0 -377 0 -372 0 -367 0 -362 0 -345 0 +338 0 -331 0 -328 0 -322 0 
-317 0 -312 0 -309 0 -303 0 +253 0 +248 0 -241 0 -236 0 -231 0 -226 0 
-221 0 -216 0 -211 0 -208 0 -201 0 -196 0 -191 0 -188 0 +183 0 +178 0 
-171 0 -166 0 -161 0 -158 0 +153 0 +108 0 +103 0 +98 0 +93 0 +88 0 
+83 0 +78 0 +73 0 +68 0 +63 0 +58 0 +53 0 +48 0 -41 0 -36 0 
-31 0 -28 0 -13 0 -4 0 *
So

0100000
+3 0 *
Co

1100000
+2 0 *

+1 0 