DBRep_DrawableShape

CASCADE Topology V3, (c) Open Cascade
Locations 0
Curve2ds 322
1 0 0 1 0 
1 0 0 1 0 
1 1.6000000000000001 0 0 -1 
1 0 0 0 1 
1 0 -56 1 0 
1 0 0 1 0 
1 0 0 0 -1 
1 0 0 0 1 
1 0 0 0 1 
1 0 0 1 0 
1 0 0 1 0 
1 0 65 1 0 
1 1.6000000000000001 0 0 1 
1 0 0 1 0 
1 1.6000000000000001 0 0 1 
1 0 56 1 0 
1 1.6000000000000001 0 0 -1 
1 65 0 0 1 
2 3.5 3.5 1 0 -0 1 1.3999999999999999
1 0 2.6000000000000001 1 0 
2 61.5 3.5 1 0 -0 1 1.3999999999999999
1 0 2.6000000000000001 1 0 
2 3.5 52.5 1 0 -0 1 1.3999999999999999
1 0 2.6000000000000001 1 0 
2 61.5 52.5 1 0 -0 1 1.3999999999999999
1 0 2.6000000000000001 1 0 
1 0 0 0 1 
1 0 56 1 0 
1 0 -56 1 0 
1 0 65 1 0 
1 0 0 0 -1 
1 65 0 0 1 
2 3.5 3.5 1 0 -0 1 1.3999999999999999
1 0 1 1 0 
2 61.5 3.5 1 0 -0 1 1.3999999999999999
1 0 1 1 0 
2 3.5 52.5 1 0 -0 1 1.3999999999999999
1 0 1 1 0 
2 61.5 52.5 1 0 -0 1 1.3999999999999999
1 0 1 1 0 
1 6.2831853071795862 -0 0 1 
1 0 -0 0 1 
1 6.2831853071795862 -0 0 1 
1 0 -0 0 1 
1 6.2831853071795862 -0 0 1 
1 0 -0 0 1 
1 6.2831853071795862 -0 0 1 
1 0 -0 0 1 
1 0 4 1 0 
2 0 0 1 0 -0 1 10
1 6.2831853071795862 -0 0 1 
1 0 -0 0 1 
1 0 0 1 0 
2 0 0 1 0 -0 1 10
1 0 0 1 0 
1 0 0 1 0 
1 5 0 0 -1 
1 0 0 0 1 
1 0 -5.6000000000000014 1 0 
1 0 0 1 0 
1 0 0 0 -1 
1 0 0 0 1 
1 0 0 1 0 
1 0 5.8499999999999979 1 0 
1 5 0 0 -1 
1 5.8499999999999979 0 0 1 
1 0 -5.6000000000000014 1 0 
1 0 5.8499999999999979 1 0 
1 0 0 0 -1 
1 5.8499999999999979 0 0 1 
1 0 0 0 1 
1 0 0 1 0 
1 5 0 0 1 
1 0 0 1 0 
1 0 0 0 1 
1 0 5.6000000000000014 1 0 
1 5 0 0 1 
1 0 5.6000000000000014 1 0 
1 0 0 1 0 
1 0 0 1 0 
1 5 0 0 -1 
1 0 0 0 1 
1 0 -5.6000000000000014 1 0 
1 0 0 1 0 
1 0 0 0 -1 
1 0 0 0 1 
1 0 0 1 0 
1 0 5.8500000000000014 1 0 
1 5 0 0 -1 
1 5.8500000000000014 0 0 1 
1 0 -5.6000000000000014 1 0 
1 0 5.8500000000000014 1 0 
1 0 0 0 -1 
1 5.8500000000000014 0 0 1 
1 0 0 0 1 
1 0 0 1 0 
1 5 0 0 1 
1 0 0 1 0 
1 0 0 0 1 
1 0 5.6000000000000014 1 0 
1 5 0 0 1 
1 0 5.6000000000000014 1 0 
1 0 0 1 0 
1 0 0 1 0 
1 5 0 0 -1 
1 0 0 0 1 
1 0 -5.6000000000000014 1 0 
1 0 0 1 0 
1 0 0 0 -1 
1 0 0 0 1 
1 0 0 1 0 
1 0 5.8500000000000014 1 0 
1 5 0 0 -1 
1 5.8500000000000014 0 0 1 
1 0 -5.6000000000000014 1 0 
1 0 5.8500000000000014 1 0 
1 0 0 0 -1 
1 5.8500000000000014 0 0 1 
1 0 0 0 1 
1 0 0 1 0 
1 5 0 0 1 
1 0 0 1 0 
1 0 0 0 1 
1 0 5.6000000000000014 1 0 
1 5 0 0 1 
1 0 5.6000000000000014 1 0 
1 0 0 1 0 
1 0 0 1 0 
1 5 0 0 -1 
1 0 0 0 1 
1 0 -5.6000000000000014 1 0 
1 0 0 1 0 
1 0 0 0 -1 
1 0 0 0 1 
1 0 0 1 0 
1 0 5.8500000000000014 1 0 
1 5 0 0 -1 
1 5.8500000000000014 0 0 1 
1 0 -5.6000000000000014 1 0 
1 0 5.8500000000000014 1 0 
1 0 0 0 -1 
1 5.8500000000000014 0 0 1 
1 0 0 0 1 
1 0 0 1 0 
1 5 0 0 1 
1 0 0 1 0 
1 0 0 0 1 
1 0 5.6000000000000014 1 0 
1 5 0 0 1 
1 0 5.6000000000000014 1 0 
1 0 0 1 0 
1 0 0 1 0 
1 5 0 0 -1 
1 0 0 0 1 
1 0 -5.6000000000000014 1 0 
1 0 0 1 0 
1 0 0 0 -1 
1 0 0 0 1 
1 0 0 1 0 
1 0 5.8500000000000014 1 0 
1 5 0 0 -1 
1 5.8500000000000014 0 0 1 
1 0 -5.6000000000000014 1 0 
1 0 5.8500000000000014 1 0 
1 0 0 0 -1 
1 5.8500000000000014 0 0 1 
1 0 0 0 1 
1 0 0 1 0 
1 5 0 0 1 
1 0 0 1 0 
1 0 0 0 1 
1 0 5.6000000000000014 1 0 
1 5 0 0 1 
1 0 5.6000000000000014 1 0 
1 0 0 1 0 
1 0 0 1 0 
1 5 0 0 -1 
1 0 0 0 1 
1 0 -5.6000000000000014 1 0 
1 0 0 1 0 
1 0 0 0 -1 
1 0 0 0 1 
1 0 0 1 0 
1 0 5.8500000000000014 1 0 
1 5 0 0 -1 
1 5.8500000000000014 0 0 1 
1 0 -5.6000000000000014 1 0 
1 0 5.8500000000000014 1 0 
1 0 0 0 -1 
1 5.8500000000000014 0 0 1 
1 0 0 0 1 
1 0 0 1 0 
1 5 0 0 1 
1 0 0 1 0 
1 0 0 0 1 
1 0 5.6000000000000014 1 0 
1 5 0 0 1 
1 0 5.6000000000000014 1 0 
1 0 0 1 0 
1 0 0 1 0 
1 5 0 0 -1 
1 0 0 0 1 
1 0 -5.5999999999999996 1 0 
1 0 0 1 0 
1 0 0 0 -1 
1 0 0 0 1 
1 0 0 1 0 
1 0 5.8500000000000014 1 0 
1 5 0 0 -1 
1 5.8500000000000014 0 0 1 
1 0 -5.5999999999999996 1 0 
1 0 5.8500000000000014 1 0 
1 0 0 0 -1 
1 5.8500000000000014 0 0 1 
1 0 0 0 1 
1 0 0 1 0 
1 5 0 0 1 
1 0 0 1 0 
1 0 0 0 1 
1 0 5.5999999999999996 1 0 
1 5 0 0 1 
1 0 5.5999999999999996 1 0 
1 0 0 1 0 
1 0 0 1 0 
1 5 0 0 -1 
1 0 0 0 1 
1 0 -5.6000000000000005 1 0 
1 0 0 1 0 
1 0 0 0 -1 
1 0 0 0 1 
1 0 0 1 0 
1 0 5.8500000000000014 1 0 
1 5 0 0 -1 
1 5.8500000000000014 0 0 1 
1 0 -5.6000000000000005 1 0 
1 0 5.8500000000000014 1 0 
1 0 0 0 -1 
1 5.8500000000000014 0 0 1 
1 0 0 0 1 
1 0 0 1 0 
1 5 0 0 1 
1 0 0 1 0 
1 0 0 0 1 
1 0 5.6000000000000005 1 0 
1 5 0 0 1 
1 0 5.6000000000000005 1 0 
1 0 0 1 0 
1 0 0 1 0 
1 5 0 0 -1 
1 0 0 0 1 
1 0 -5.6000000000000005 1 0 
1 0 0 1 0 
1 0 0 0 -1 
1 0 0 0 1 
1 0 0 1 0 
1 0 5.8500000000000014 1 0 
1 5 0 0 -1 
1 5.8500000000000014 0 0 1 
1 0 -5.6000000000000005 1 0 
1 0 5.8500000000000014 1 0 
1 0 0 0 -1 
1 5.8500000000000014 0 0 1 
1 0 0 0 1 
1 0 0 1 0 
1 5 0 0 1 
1 0 0 1 0 
1 0 0 0 1 
1 0 5.6000000000000005 1 0 
1 5 0 0 1 
1 0 5.6000000000000005 1 0 
1 0 0 1 0 
1 0 0 1 0 
1 10 0 0 -1 
1 0 0 0 1 
1 0 -5 1 0 
1 0 0 1 0 
1 0 0 0 -1 
1 0 0 0 1 
1 0 0 0 1 
1 0 0 1 0 
1 0 0 1 0 
1 0 51 1 0 
1 10 0 0 1 
1 0 0 1 0 
1 10 0 0 1 
1 0 5 1 0 
1 10 0 0 -1 
1 51 0 0 1 
1 0 0 0 1 
1 0 5 1 0 
1 0 -5 1 0 
1 0 51 1 0 
1 0 0 0 -1 
1 51 0 0 1 
1 0 0 0 -1 
1 0 0 0 1 
1 1 1 0 1 
1 0 0 0 1 
1 0 0 1 0 
1 1 1 1 0 
1 0 0 0 -1 
1 49 0 0 1 
1 50 1 0 1 
1 0 0 0 1 
1 0 3 1 0 
1 1 4 1 0 
1 0 0 1 0 
1 0 0 1 0 
1 8 0 0 -1 
1 0 0 0 1 
1 0 -3 1 0 
1 0 0 1 0 
1 0 0 1 0 
1 0 49 1 0 
1 8 0 0 1 
1 0 0 1 0 
1 8 0 0 -1 
1 49 0 0 1 
1 0 -3 1 0 
1 0 49 1 0 
1 8 0 0 1 
1 0 3 1 0 
Curves 159
1 0 0 0 0 0 1 
1 0 0 1.6000000000000001 -0 1 0 
1 0 56 0 0 0 1 
1 0 0 0 -0 1 0 
1 0 0 0 1 0 -0 
1 65 0 0 0 0 1 
1 0 0 1.6000000000000001 1 0 -0 
1 0 56 1.6000000000000001 1 0 -0 
1 65 0 1.6000000000000001 -0 1 0 
2 3.5 3.5 1.6000000000000001 0 0 1 1 0 -0 -0 1 0 1.3999999999999999
2 61.5 3.5 1.6000000000000001 0 0 1 1 0 -0 -0 1 0 1.3999999999999999
2 3.5 52.5 1.6000000000000001 0 0 1 1 0 -0 -0 1 0 1.3999999999999999
2 61.5 52.5 1.6000000000000001 0 0 1 1 0 -0 -0 1 0 1.3999999999999999
1 0 56 0 1 0 -0 
1 65 56 0 0 0 1 
1 65 0 0 -0 1 0 
2 3.5 3.5 0 0 0 1 1 0 -0 -0 1 0 1.3999999999999999
2 61.5 3.5 0 0 0 1 1 0 -0 -0 1 0 1.3999999999999999
2 3.5 52.5 0 0 0 1 1 0 -0 -0 1 0 1.3999999999999999
2 61.5 52.5 0 0 0 1 1 0 -0 -0 1 0 1.3999999999999999
1 4.9000000000000004 3.4999999999999996 -1 0 0 1 
1 62.899999999999999 3.4999999999999996 -1 0 0 1 
1 4.9000000000000004 52.5 -1 0 0 1 
1 62.899999999999999 52.5 -1 0 0 1 
2 14.300000000000001 25.199999999999999 5.5999999999999996 0 0 1 1 0 -0 -0 1 0 10
1 24.300000000000004 25.199999999999996 1.6000000000000001 0 0 1 
2 14.300000000000001 25.199999999999999 1.6000000000000001 0 0 1 1 0 -0 -0 1 0 10
1 24.699999999999999 48.719999999999999 1.6000000000000001 0 0 1 
1 24.699999999999999 48.719999999999999 6.5999999999999996 -0 1 0 
1 24.699999999999999 54.32 1.6000000000000001 0 0 1 
1 24.699999999999999 48.719999999999999 1.6000000000000001 -0 1 0 
1 30.549999999999997 48.719999999999999 1.6000000000000001 0 0 1 
1 30.549999999999997 48.719999999999999 6.5999999999999996 -0 1 0 
1 30.549999999999997 54.32 1.6000000000000001 0 0 1 
1 30.549999999999997 48.719999999999999 1.6000000000000001 -0 1 0 
1 24.699999999999999 48.719999999999999 1.6000000000000001 1 0 -0 
1 24.699999999999999 48.719999999999999 6.5999999999999996 1 0 -0 
1 24.699999999999999 54.32 1.6000000000000001 1 0 -0 
1 24.699999999999999 54.32 6.5999999999999996 1 0 -0 
1 33.800000000000004 48.719999999999999 1.6000000000000001 0 0 1 
1 33.800000000000004 48.719999999999999 6.5999999999999996 -0 1 0 
1 33.800000000000004 54.32 1.6000000000000001 0 0 1 
1 33.800000000000004 48.719999999999999 1.6000000000000001 -0 1 0 
1 39.650000000000006 48.719999999999999 1.6000000000000001 0 0 1 
1 39.650000000000006 48.719999999999999 6.5999999999999996 -0 1 0 
1 39.650000000000006 54.32 1.6000000000000001 0 0 1 
1 39.650000000000006 48.719999999999999 1.6000000000000001 -0 1 0 
1 33.800000000000004 48.719999999999999 1.6000000000000001 1 0 -0 
1 33.800000000000004 48.719999999999999 6.5999999999999996 1 0 -0 
1 33.800000000000004 54.32 1.6000000000000001 1 0 -0 
1 33.800000000000004 54.32 6.5999999999999996 1 0 -0 
1 42.899999999999999 48.719999999999999 1.6000000000000001 0 0 1 
1 42.899999999999999 48.719999999999999 6.5999999999999996 -0 1 0 
1 42.899999999999999 54.32 1.6000000000000001 0 0 1 
1 42.899999999999999 48.719999999999999 1.6000000000000001 -0 1 0 
1 48.75 48.719999999999999 1.6000000000000001 0 0 1 
1 48.75 48.719999999999999 6.5999999999999996 -0 1 0 
1 48.75 54.32 1.6000000000000001 0 0 1 
1 48.75 48.719999999999999 1.6000000000000001 -0 1 0 
1 42.899999999999999 48.719999999999999 1.6000000000000001 1 0 -0 
1 42.899999999999999 48.719999999999999 6.5999999999999996 1 0 -0 
1 42.899999999999999 54.32 1.6000000000000001 1 0 -0 
1 42.899999999999999 54.32 6.5999999999999996 1 0 -0 
1 52 48.719999999999999 1.6000000000000001 0 0 1 
1 52 48.719999999999999 6.5999999999999996 -0 1 0 
1 52 54.32 1.6000000000000001 0 0 1 
1 52 48.719999999999999 1.6000000000000001 -0 1 0 
1 57.850000000000001 48.719999999999999 1.6000000000000001 0 0 1 
1 57.850000000000001 48.719999999999999 6.5999999999999996 -0 1 0 
1 57.850000000000001 54.32 1.6000000000000001 0 0 1 
1 57.850000000000001 48.719999999999999 1.6000000000000001 -0 1 0 
1 52 48.719999999999999 1.6000000000000001 1 0 -0 
1 52 48.719999999999999 6.5999999999999996 1 0 -0 
1 52 54.32 1.6000000000000001 1 0 -0 
1 52 54.32 6.5999999999999996 1 0 -0 
1 57.200000000000003 30.800000000000004 1.6000000000000001 0 0 1 
1 57.200000000000003 30.800000000000004 6.5999999999999996 -0 1 0 
1 57.200000000000003 36.400000000000006 1.6000000000000001 0 0 1 
1 57.200000000000003 30.800000000000004 1.6000000000000001 -0 1 0 
1 63.050000000000004 30.800000000000004 1.6000000000000001 0 0 1 
1 63.050000000000004 30.800000000000004 6.5999999999999996 -0 1 0 
1 63.050000000000004 36.400000000000006 1.6000000000000001 0 0 1 
1 63.050000000000004 30.800000000000004 1.6000000000000001 -0 1 0 
1 57.200000000000003 30.800000000000004 1.6000000000000001 1 0 -0 
1 57.200000000000003 30.800000000000004 6.5999999999999996 1 0 -0 
1 57.200000000000003 36.400000000000006 1.6000000000000001 1 0 -0 
1 57.200000000000003 36.400000000000006 6.5999999999999996 1 0 -0 
1 57.200000000000003 40.32 1.6000000000000001 0 0 1 
1 57.200000000000003 40.32 6.5999999999999996 -0 1 0 
1 57.200000000000003 45.920000000000002 1.6000000000000001 0 0 1 
1 57.200000000000003 40.32 1.6000000000000001 -0 1 0 
1 63.050000000000004 40.32 1.6000000000000001 0 0 1 
1 63.050000000000004 40.32 6.5999999999999996 -0 1 0 
1 63.050000000000004 45.920000000000002 1.6000000000000001 0 0 1 
1 63.050000000000004 40.32 1.6000000000000001 -0 1 0 
1 57.200000000000003 40.32 1.6000000000000001 1 0 -0 
1 57.200000000000003 40.32 6.5999999999999996 1 0 -0 
1 57.200000000000003 45.920000000000002 1.6000000000000001 1 0 -0 
1 57.200000000000003 45.920000000000002 6.5999999999999996 1 0 -0 
1 57.200000000000003 10.08 1.6000000000000001 0 0 1 
1 57.200000000000003 10.08 6.5999999999999996 -0 1 0 
1 57.200000000000003 15.68 1.6000000000000001 0 0 1 
1 57.200000000000003 10.08 1.6000000000000001 -0 1 0 
1 63.050000000000004 10.08 1.6000000000000001 0 0 1 
1 63.050000000000004 10.08 6.5999999999999996 -0 1 0 
1 63.050000000000004 15.68 1.6000000000000001 0 0 1 
1 63.050000000000004 10.08 1.6000000000000001 -0 1 0 
1 57.200000000000003 10.08 1.6000000000000001 1 0 -0 
1 57.200000000000003 10.08 6.5999999999999996 1 0 -0 
1 57.200000000000003 15.68 1.6000000000000001 1 0 -0 
1 57.200000000000003 15.68 6.5999999999999996 1 0 -0 
1 26 0 1.6000000000000001 0 0 1 
1 26 0 6.5999999999999996 -0 1 0 
1 26 5.6000000000000005 1.6000000000000001 0 0 1 
1 26 0 1.6000000000000001 -0 1 0 
1 31.850000000000001 0 1.6000000000000001 0 0 1 
1 31.850000000000001 0 6.5999999999999996 -0 1 0 
1 31.850000000000001 5.6000000000000005 1.6000000000000001 0 0 1 
1 31.850000000000001 0 1.6000000000000001 -0 1 0 
1 26 0 1.6000000000000001 1 0 -0 
1 26 0 6.5999999999999996 1 0 -0 
1 26 5.6000000000000005 1.6000000000000001 1 0 -0 
1 26 5.6000000000000005 6.5999999999999996 1 0 -0 
1 39 0 1.6000000000000001 0 0 1 
1 39 0 6.5999999999999996 -0 1 0 
1 39 5.6000000000000005 1.6000000000000001 0 0 1 
1 39 0 1.6000000000000001 -0 1 0 
1 44.850000000000001 0 1.6000000000000001 0 0 1 
1 44.850000000000001 0 6.5999999999999996 -0 1 0 
1 44.850000000000001 5.6000000000000005 1.6000000000000001 0 0 1 
1 44.850000000000001 0 1.6000000000000001 -0 1 0 
1 39 0 1.6000000000000001 1 0 -0 
1 39 0 6.5999999999999996 1 0 -0 
1 39 5.6000000000000005 1.6000000000000001 1 0 -0 
1 39 5.6000000000000005 6.5999999999999996 1 0 -0 
1 6.7999999999999998 47.600000000000001 -10 0 0 1 
1 6.7999999999999998 47.600000000000001 0 -0 1 0 
1 6.7999999999999998 52.600000000000001 -10 0 0 1 
1 6.7999999999999998 47.600000000000001 -10 -0 1 0 
1 6.7999999999999998 47.600000000000001 -10 1 0 -0 
1 57.799999999999997 47.600000000000001 -10 0 0 1 
1 6.7999999999999998 47.600000000000001 0 1 0 -0 
1 6.7999999999999998 52.600000000000001 0 1 0 -0 
1 57.799999999999997 47.600000000000001 0 -0 1 0 
1 6.7999999999999998 52.600000000000001 -10 1 0 -0 
1 57.799999999999997 52.600000000000001 -10 0 0 1 
1 57.799999999999997 47.600000000000001 -10 -0 1 0 
1 7.7999999999999998 48.600000000000001 -10 -0 1 0 
1 7.7999999999999998 48.600000000000001 -10 1 0 -0 
1 56.799999999999997 48.600000000000001 -10 -0 1 0 
1 7.7999999999999998 51.600000000000001 -10 1 0 -0 
1 7.7999999999999998 48.600000000000001 -10 0 0 1 
1 7.7999999999999998 48.600000000000001 -2 -0 1 0 
1 7.7999999999999998 51.600000000000001 -10 0 0 1 
1 56.799999999999997 48.600000000000001 -10 0 0 1 
1 7.7999999999999998 48.600000000000001 -2 1 0 -0 
1 56.799999999999997 48.600000000000001 -2 -0 1 0 
1 56.799999999999997 51.600000000000001 -10 0 0 1 
1 7.7999999999999998 51.600000000000001 -2 1 0 -0 
Polygon3D 0
PolygonOnTriangulations 0
Surfaces 79
1 0 0 0 1 0 -0 0 0 1 0 -1 0 
1 0 0 0 -0 1 0 0 0 1 1 0 -0 
1 0 0 1.6000000000000001 0 0 1 1 0 -0 -0 1 0 
1 0 56 0 -0 1 0 0 0 1 1 0 -0 
1 0 0 0 0 0 1 1 0 -0 -0 1 0 
1 65 0 0 1 0 -0 0 0 1 0 -1 0 
2 3.5 3.5 -1 0 0 1 1 0 -0 -0 1 0 1.3999999999999999
2 61.5 3.5 -1 0 0 1 1 0 -0 -0 1 0 1.3999999999999999
2 3.5 52.5 -1 0 0 1 1 0 -0 -0 1 0 1.3999999999999999
2 61.5 52.5 -1 0 0 1 1 0 -0 -0 1 0 1.3999999999999999
2 14.300000000000001 25.199999999999999 1.6000000000000001 0 0 1 1 0 -0 -0 1 0 10
1 14.300000000000001 25.199999999999999 5.5999999999999996 0 0 1 1 0 -0 -0 1 0 
1 14.300000000000001 25.199999999999999 1.6000000000000001 0 0 1 1 0 -0 -0 1 0 
1 24.699999999999999 48.719999999999999 1.6000000000000001 1 0 -0 0 0 1 0 -1 0 
1 24.699999999999999 48.719999999999999 1.6000000000000001 -0 1 0 0 0 1 1 0 -0 
1 24.699999999999999 48.719999999999999 6.5999999999999996 0 0 1 1 0 -0 -0 1 0 
1 24.699999999999999 54.32 1.6000000000000001 -0 1 0 0 0 1 1 0 -0 
1 24.699999999999999 48.719999999999999 1.6000000000000001 0 0 1 1 0 -0 -0 1 0 
1 30.549999999999997 48.719999999999999 1.6000000000000001 1 0 -0 0 0 1 0 -1 0 
1 33.800000000000004 48.719999999999999 1.6000000000000001 1 0 -0 0 0 1 0 -1 0 
1 33.800000000000004 48.719999999999999 1.6000000000000001 -0 1 0 0 0 1 1 0 -0 
1 33.800000000000004 48.719999999999999 6.5999999999999996 0 0 1 1 0 -0 -0 1 0 
1 33.800000000000004 54.32 1.6000000000000001 -0 1 0 0 0 1 1 0 -0 
1 33.800000000000004 48.719999999999999 1.6000000000000001 0 0 1 1 0 -0 -0 1 0 
1 39.650000000000006 48.719999999999999 1.6000000000000001 1 0 -0 0 0 1 0 -1 0 
1 42.899999999999999 48.719999999999999 1.6000000000000001 1 0 -0 0 0 1 0 -1 0 
1 42.899999999999999 48.719999999999999 1.6000000000000001 -0 1 0 0 0 1 1 0 -0 
1 42.899999999999999 48.719999999999999 6.5999999999999996 0 0 1 1 0 -0 -0 1 0 
1 42.899999999999999 54.32 1.6000000000000001 -0 1 0 0 0 1 1 0 -0 
1 42.899999999999999 48.719999999999999 1.6000000000000001 0 0 1 1 0 -0 -0 1 0 
1 48.75 48.719999999999999 1.6000000000000001 1 0 -0 0 0 1 0 -1 0 
1 52 48.719999999999999 1.6000000000000001 1 0 -0 0 0 1 0 -1 0 
1 52 48.719999999999999 1.6000000000000001 -0 1 0 0 0 1 1 0 -0 
1 52 48.719999999999999 6.5999999999999996 0 0 1 1 0 -0 -0 1 0 
1 52 54.32 1.6000000000000001 -0 1 0 0 0 1 1 0 -0 
1 52 48.719999999999999 1.6000000000000001 0 0 1 1 0 -0 -0 1 0 
1 57.850000000000001 48.719999999999999 1.6000000000000001 1 0 -0 0 0 1 0 -1 0 
1 57.200000000000003 30.800000000000004 1.6000000000000001 1 0 -0 0 0 1 0 -1 0 
1 57.200000000000003 30.800000000000004 1.6000000000000001 -0 1 0 0 0 1 1 0 -0 
1 57.200000000000003 30.800000000000004 6.5999999999999996 0 0 1 1 0 -0 -0 1 0 
1 57.200000000000003 36.400000000000006 1.6000000000000001 -0 1 0 0 0 1 1 0 -0 
1 57.200000000000003 30.800000000000004 1.6000000000000001 0 0 1 1 0 -0 -0 1 0 
1 63.050000000000004 30.800000000000004 1.6000000000000001 1 0 -0 0 0 1 0 -1 0 
1 57.200000000000003 40.32 1.6000000000000001 1 0 -0 0 0 1 0 -1 0 
1 57.200000000000003 40.32 1.6000000000000001 -0 1 0 0 0 1 1 0 -0 
1 57.200000000000003 40.32 6.5999999999999996 0 0 1 1 0 -0 -0 1 0 
1 57.200000000000003 45.920000000000002 1.6000000000000001 -0 1 0 0 0 1 1 0 -0 
1 57.200000000000003 40.32 1.6000000000000001 0 0 1 1 0 -0 -0 1 0 
1 63.050000000000004 40.32 1.6000000000000001 1 0 -0 0 0 1 0 -1 0 
1 57.200000000000003 10.08 1.6000000000000001 1 0 -0 0 0 1 0 -1 0 
1 57.200000000000003 10.08 1.6000000000000001 -0 1 0 0 0 1 1 0 -0 
1 57.200000000000003 10.08 6.5999999999999996 0 0 1 1 0 -0 -0 1 0 
1 57.200000000000003 15.68 1.6000000000000001 -0 1 0 0 0 1 1 0 -0 
1 57.200000000000003 10.08 1.6000000000000001 0 0 1 1 0 -0 -0 1 0 
1 63.050000000000004 10.08 1.6000000000000001 1 0 -0 0 0 1 0 -1 0 
1 26 0 1.6000000000000001 1 0 -0 0 0 1 0 -1 0 
1 26 0 1.6000000000000001 -0 1 0 0 0 1 1 0 -0 
1 26 0 6.5999999999999996 0 0 1 1 0 -0 -0 1 0 
1 26 5.6000000000000005 1.6000000000000001 -0 1 0 0 0 1 1 0 -0 
1 26 0 1.6000000000000001 0 0 1 1 0 -0 -0 1 0 
1 31.850000000000001 0 1.6000000000000001 1 0 -0 0 0 1 0 -1 0 
1 39 0 1.6000000000000001 1 0 -0 0 0 1 0 -1 0 
1 39 0 1.6000000000000001 -0 1 0 0 0 1 1 0 -0 
1 39 0 6.5999999999999996 0 0 1 1 0 -0 -0 1 0 
1 39 5.6000000000000005 1.6000000000000001 -0 1 0 0 0 1 1 0 -0 
1 39 0 1.6000000000000001 0 0 1 1 0 -0 -0 1 0 
1 44.850000000000001 0 1.6000000000000001 1 0 -0 0 0 1 0 -1 0 
1 6.7999999999999998 47.600000000000001 -10 1 0 -0 0 0 1 0 -1 0 
1 6.7999999999999998 47.600000000000001 -10 -0 1 0 0 0 1 1 0 -0 
1 6.7999999999999998 47.600000000000001 0 0 0 1 1 0 -0 -0 1 0 
1 6.7999999999999998 52.600000000000001 -10 -0 1 0 0 0 1 1 0 -0 
1 6.7999999999999998 47.600000000000001 -10 0 0 1 1 0 -0 -0 1 0 
1 57.799999999999997 47.600000000000001 -10 1 0 -0 0 0 1 0 -1 0 
1 7.7999999999999998 48.600000000000001 -10 1 0 -0 0 0 1 0 -1 0 
1 7.7999999999999998 48.600000000000001 -10 0 0 1 1 0 -0 -0 1 0 
1 7.7999999999999998 48.600000000000001 -10 -0 1 0 0 0 1 1 0 -0 
1 56.799999999999997 48.600000000000001 -10 1 0 -0 0 0 1 0 -1 0 
1 7.7999999999999998 51.600000000000001 -10 -0 1 0 0 0 1 1 0 -0 
1 7.7999999999999998 48.600000000000001 -2 0 0 1 1 0 -0 -0 1 0 
Triangulations 0

TShapes 457
Ve
1e-07
0 0 1.6
0 0

0101101
*
Ve
1e-07
0 0 0
0 0

0101101
*
Ed
 1e-07 1 1 0
1  1 0 0 1.6
2  1 1 0 0 1.6
2  2 2 0 0 1.6
0

0101000
-457 0 +456 0 *
Ve
1e-07
0 56 1.6
0 0

0101101
*
Ed
 1e-07 1 1 0
1  2 0 0 56
2  3 1 0 0 56
2  4 3 0 0 56
0

0101000
-454 0 +457 0 *
Ve
1e-07
0 56 0
0 0

0101101
*
Ed
 1e-07 1 1 0
1  3 0 0 1.6
2  5 1 0 0 1.6
2  6 4 0 0 1.6
0

0101000
-454 0 +452 0 *
Ed
 1e-07 1 1 0
1  4 0 0 56
2  7 1 0 0 56
2  8 5 0 0 56
0

0101000
-452 0 +456 0 *
Wi

0101100
-455 0 -453 0 +451 0 +450 0 *
Fa
0  1e-07 1 0

0111000
+449 0 *
Ve
1e-07
65 0 0
0 0

0101101
*
Ed
 1e-07 1 1 0
1  5 0 0 65
2  9 2 0 0 65
2  10 5 0 0 65
0

0101000
-447 0 +456 0 *
Ve
1e-07
65 0 1.6
0 0

0101101
*
Ed
 1e-07 1 1 0
1  6 0 0 1.6
2  11 6 0 0 1.6
2  12 2 0 0 1.6
0

0101000
-445 0 +447 0 *
Ed
 1e-07 1 1 0
1  7 0 0 65
2  13 2 0 0 65
2  14 3 0 0 65
0

0101000
-445 0 +457 0 *
Wi

0101100
-446 0 -444 0 +443 0 +455 0 *
Fa
0  1e-07 2 0

0111000
+442 0 *
Ve
1e-07
65 56 1.6
0 0

0101101
*
Ed
 1e-07 1 1 0
1  8 0 0 65
2  15 4 0 0 65
2  16 3 0 0 65
0

0101000
-440 0 +454 0 *
Ed
 1e-07 1 1 0
1  9 0 0 56
2  17 6 0 0 56
2  18 3 0 0 56
0

0101000
-440 0 +445 0 *
Wi

0101100
-453 0 -439 0 +443 0 +438 0 *
Ve
1.00000000444089e-07
4.9 3.5 1.6
0 0

0101101
*
Ed
 1e-07 1 1 0
1  10 0 0 6.28318530717959
2  19 3 0 0 6.28318530717959
2  20 7 0 0 6.28318530717959
0

0101100
+436 0 -436 0 *
Wi

0101100
-435 0 *
Ve
1.00000000444089e-07
62.9 3.5 1.6
0 0

0101101
*
Ed
 1e-07 1 1 0
1  11 0 0 6.28318530717959
2  21 3 0 0 6.28318530717959
2  22 8 0 0 6.28318530717959
0

0101100
+433 0 -433 0 *
Wi

0101100
-432 0 *
Ve
1e-07
4.9 52.5 1.6
0 0

0101101
*
Ed
 1e-07 1 1 0
1  12 0 0 6.28318530717959
2  23 3 0 0 6.28318530717959
2  24 9 0 0 6.28318530717959
0

0101100
+430 0 -430 0 *
Wi

0101100
-429 0 *
Ve
1e-07
62.9 52.5 1.6
0 0

0101101
*
Ed
 1e-07 1 1 0
1  13 0 0 6.28318530717959
2  25 3 0 0 6.28318530717959
2  26 10 0 0 6.28318530717959
0

0101100
+427 0 -427 0 *
Wi

0101100
-426 0 *
Fa
0  1e-07 3 0

0101000
+437 0 +434 0 +431 0 +428 0 +425 0 *
Ve
1e-07
65 56 0
0 0

0101101
*
Ed
 1e-07 1 1 0
1  14 0 0 65
2  27 4 0 0 65
2  28 5 0 0 65
0

0101000
-423 0 +452 0 *
Ed
 1e-07 1 1 0
1  15 0 0 1.6
2  29 6 0 0 1.6
2  30 4 0 0 1.6
0

0101000
-440 0 +423 0 *
Wi

0101100
-422 0 -421 0 +439 0 +451 0 *
Fa
0  1e-07 4 0

0111000
+420 0 *
Ed
 1e-07 1 1 0
1  16 0 0 56
2  31 6 0 0 56
2  32 5 0 0 56
0

0101000
-423 0 +447 0 *
Wi

0101100
-450 0 -422 0 +446 0 +418 0 *
Ve
1.00000000444089e-07
4.9 3.5 0
0 0

0101101
*
Ed
 1e-07 1 1 0
1  17 0 0 6.28318530717959
2  33 5 0 0 6.28318530717959
2  34 7 0 0 6.28318530717959
0

0101100
+416 0 -416 0 *
Wi

0101100
-415 0 *
Ve
1.00000000444089e-07
62.9 3.5 0
0 0

0101101
*
Ed
 1e-07 1 1 0
1  18 0 0 6.28318530717959
2  35 5 0 0 6.28318530717959
2  36 8 0 0 6.28318530717959
0

0101100
+413 0 -413 0 *
Wi

0101100
-412 0 *
Ve
1e-07
4.9 52.5 0
0 0

0101101
*
Ed
 1e-07 1 1 0
1  19 0 0 6.28318530717959
2  37 5 0 0 6.28318530717959
2  38 9 0 0 6.28318530717959
0

0101100
+410 0 -410 0 *
Wi

0101100
-409 0 *
Ve
1e-07
62.9 52.5 0
0 0

0101101
*
Ed
 1e-07 1 1 0
1  20 0 0 6.28318530717959
2  39 5 0 0 6.28318530717959
2  40 10 0 0 6.28318530717959
0

0101100
+407 0 -407 0 *
Wi

0101100
-406 0 *
Fa
0  1e-07 5 0

0101000
+417 0 +414 0 +411 0 +408 0 +405 0 *
Wi

0101100
-444 0 -438 0 +421 0 +418 0 *
Fa
0  1e-07 6 0

0111000
+403 0 *
Ed
 1e-07 1 1 0
1  21 0 1 2.6
3  41 42CN 7 0 1 2.6
0

0101000
+416 0 -436 0 *
Wi

0101100
-435 0 +401 0 +415 0 -401 0 *
Fa
0  1e-07 7 0

0101000
+400 0 *
Ed
 1e-07 1 1 0
1  22 0 1 2.6
3  43 44CN 8 0 1 2.6
0

0101000
+413 0 -433 0 *
Wi

0101100
-432 0 +398 0 +412 0 -398 0 *
Fa
0  1e-07 8 0

0101000
+397 0 *
Ed
 1e-07 1 1 0
1  23 0 1 2.6
3  45 46CN 9 0 1 2.6
0

0101000
+410 0 -430 0 *
Wi

0101100
-429 0 +395 0 +409 0 -395 0 *
Fa
0  1e-07 9 0

0101000
+394 0 *
Ed
 1e-07 1 1 0
1  24 0 1 2.6
3  47 48CN 10 0 1 2.6
0

0101000
+407 0 -427 0 *
Wi

0101100
-426 0 +392 0 +406 0 -392 0 *
Fa
0  1e-07 10 0

0101000
+391 0 *
Sh

0101100
-448 0 -441 0 +424 0 +419 0 -404 0 +402 0 -399 0 -396 0 -393 0 -390 0 
*
So

0100000
+389 0 *
Co

0100000
+388 0 *
Ve
1e-07
24.3 25.2 5.6
0 0

0101101
*
Ed
 1e-07 1 1 0
1  25 0 0 6.28318530717959
2  49 11 0 0 6.28318530717959
2  50 12 0 0 6.28318530717959
0

0101000
+386 0 -386 0 *
Ve
1e-07
24.3 25.2 1.6
0 0

0101101
*
Ed
 1e-07 1 1 0
1  26 0 0 4
3  51 52CN 11 0 0 4
0

0101000
-386 0 +384 0 *
Ed
 1e-07 1 1 0
1  27 0 0 6.28318530717959
2  53 11 0 0 6.28318530717959
2  54 13 0 0 6.28318530717959
0

0101000
+384 0 -384 0 *
Wi

0101100
-385 0 +383 0 +382 0 -383 0 *
Fa
0  1e-07 11 0

0111000
+381 0 *
Wi

0101100
+385 0 *
Fa
0  1e-07 12 0

0111000
+379 0 *
Wi

0101100
-382 0 *
Fa
0  1e-07 13 0

0111000
-377 0 *
Sh

0101100
+380 0 +378 0 -376 0 *
So

0100000
+375 0 *
Ve
1e-07
24.7 48.72 6.6
0 0

0101101
*
Ve
1e-07
24.7 48.72 1.6
0 0

0101101
*
Ed
 1e-07 1 1 0
1  28 0 0 5
2  55 14 0 0 5
2  56 15 0 0 5
0

0101000
-373 0 +372 0 *
Ve
1e-07
24.7 54.32 6.6
0 0

0101101
*
Ed
 1e-07 1 1 0
1  29 0 0 5.6
2  57 14 0 0 5.6
2  58 16 0 0 5.6
0

0101000
-370 0 +373 0 *
Ve
1e-07
24.7 54.32 1.6
0 0

0101101
*
Ed
 1e-07 1 1 0
1  30 0 0 5
2  59 14 0 0 5
2  60 17 0 0 5
0

0101000
-370 0 +368 0 *
Ed
 1e-07 1 1 0
1  31 0 0 5.6
2  61 14 0 0 5.6
2  62 18 0 0 5.6
0

0101000
-368 0 +372 0 *
Wi

0101100
-371 0 -369 0 +367 0 +366 0 *
Fa
0  1e-07 14 0

0111000
+365 0 *
Ve
1e-07
30.55 48.72 6.6
0 0

0101101
*
Ve
1e-07
30.55 48.72 1.6
0 0

0101101
*
Ed
 1e-07 1 1 0
1  32 0 0 5
2  63 19 0 0 5
2  64 15 0 0 5
0

0101000
-363 0 +362 0 *
Ve
1e-07
30.55 54.32 6.6
0 0

0101101
*
Ed
 1e-07 1 1 0
1  33 0 0 5.6
2  65 19 0 0 5.6
2  66 16 0 0 5.6
0

0101000
-360 0 +363 0 *
Ve
1e-07
30.55 54.32 1.6
0 0

0101101
*
Ed
 1e-07 1 1 0
1  34 0 0 5
2  67 19 0 0 5
2  68 17 0 0 5
0

0101000
-360 0 +358 0 *
Ed
 1e-07 1 1 0
1  35 0 0 5.6
2  69 19 0 0 5.6
2  70 18 0 0 5.6
0

0101000
-358 0 +362 0 *
Wi

0101100
-361 0 -359 0 +357 0 +356 0 *
Fa
0  1e-07 19 0

0111000
+355 0 *
Ed
 1e-07 1 1 0
1  36 0 0 5.85
2  71 15 0 0 5.85
2  72 18 0 0 5.85
0

0101000
-362 0 +372 0 *
Ed
 1e-07 1 1 0
1  37 0 0 5.85
2  73 15 0 0 5.85
2  74 16 0 0 5.85
0

0101000
-363 0 +373 0 *
Wi

0101100
-353 0 -361 0 +352 0 +371 0 *
Fa
0  1e-07 15 0

0111000
+351 0 *
Ed
 1e-07 1 1 0
1  38 0 0 5.85
2  75 17 0 0 5.85
2  76 18 0 0 5.85
0

0101000
-358 0 +368 0 *
Ed
 1e-07 1 1 0
1  39 0 0 5.85
2  77 17 0 0 5.85
2  78 16 0 0 5.85
0

0101000
-360 0 +370 0 *
Wi

0101100
-349 0 -357 0 +348 0 +367 0 *
Fa
0  1e-07 17 0

0111000
+347 0 *
Wi

0101100
-366 0 -349 0 +356 0 +353 0 *
Fa
0  1e-07 18 0

0111000
+345 0 *
Wi

0101100
-369 0 -348 0 +359 0 +352 0 *
Fa
0  1e-07 16 0

0111000
+343 0 *
Sh

0101100
-364 0 +354 0 -350 0 +346 0 -344 0 +342 0 *
So

0100000
+341 0 *
Ve
1e-07
33.8 48.72 6.6
0 0

0101101
*
Ve
1e-07
33.8 48.72 1.6
0 0

0101101
*
Ed
 1e-07 1 1 0
1  40 0 0 5
2  79 20 0 0 5
2  80 21 0 0 5
0

0101000
-339 0 +338 0 *
Ve
1e-07
33.8 54.32 6.6
0 0

0101101
*
Ed
 1e-07 1 1 0
1  41 0 0 5.6
2  81 20 0 0 5.6
2  82 22 0 0 5.6
0

0101000
-336 0 +339 0 *
Ve
1e-07
33.8 54.32 1.6
0 0

0101101
*
Ed
 1e-07 1 1 0
1  42 0 0 5
2  83 20 0 0 5
2  84 23 0 0 5
0

0101000
-336 0 +334 0 *
Ed
 1e-07 1 1 0
1  43 0 0 5.6
2  85 20 0 0 5.6
2  86 24 0 0 5.6
0

0101000
-334 0 +338 0 *
Wi

0101100
-337 0 -335 0 +333 0 +332 0 *
Fa
0  1e-07 20 0

0111000
+331 0 *
Ve
1e-07
39.65 48.72 6.6
0 0

0101101
*
Ve
1e-07
39.65 48.72 1.6
0 0

0101101
*
Ed
 1e-07 1 1 0
1  44 0 0 5
2  87 25 0 0 5
2  88 21 0 0 5
0

0101000
-329 0 +328 0 *
Ve
1e-07
39.65 54.32 6.6
0 0

0101101
*
Ed
 1e-07 1 1 0
1  45 0 0 5.6
2  89 25 0 0 5.6
2  90 22 0 0 5.6
0

0101000
-326 0 +329 0 *
Ve
1e-07
39.65 54.32 1.6
0 0

0101101
*
Ed
 1e-07 1 1 0
1  46 0 0 5
2  91 25 0 0 5
2  92 23 0 0 5
0

0101000
-326 0 +324 0 *
Ed
 1e-07 1 1 0
1  47 0 0 5.6
2  93 25 0 0 5.6
2  94 24 0 0 5.6
0

0101000
-324 0 +328 0 *
Wi

0101100
-327 0 -325 0 +323 0 +322 0 *
Fa
0  1e-07 25 0

0111000
+321 0 *
Ed
 1e-07 1 1 0
1  48 0 0 5.85
2  95 21 0 0 5.85
2  96 24 0 0 5.85
0

0101000
-328 0 +338 0 *
Ed
 1e-07 1 1 0
1  49 0 0 5.85
2  97 21 0 0 5.85
2  98 22 0 0 5.85
0

0101000
-329 0 +339 0 *
Wi

0101100
-319 0 -327 0 +318 0 +337 0 *
Fa
0  1e-07 21 0

0111000
+317 0 *
Ed
 1e-07 1 1 0
1  50 0 0 5.85
2  99 23 0 0 5.85
2  100 24 0 0 5.85
0

0101000
-324 0 +334 0 *
Ed
 1e-07 1 1 0
1  51 0 0 5.85
2  101 23 0 0 5.85
2  102 22 0 0 5.85
0

0101000
-326 0 +336 0 *
Wi

0101100
-315 0 -323 0 +314 0 +333 0 *
Fa
0  1e-07 23 0

0111000
+313 0 *
Wi

0101100
-332 0 -315 0 +322 0 +319 0 *
Fa
0  1e-07 24 0

0111000
+311 0 *
Wi

0101100
-335 0 -314 0 +325 0 +318 0 *
Fa
0  1e-07 22 0

0111000
+309 0 *
Sh

0101100
-330 0 +320 0 -316 0 +312 0 -310 0 +308 0 *
So

0100000
+307 0 *
Ve
1e-07
42.9 48.72 6.6
0 0

0101101
*
Ve
1e-07
42.9 48.72 1.6
0 0

0101101
*
Ed
 1e-07 1 1 0
1  52 0 0 5
2  103 26 0 0 5
2  104 27 0 0 5
0

0101000
-305 0 +304 0 *
Ve
1e-07
42.9 54.32 6.6
0 0

0101101
*
Ed
 1e-07 1 1 0
1  53 0 0 5.6
2  105 26 0 0 5.6
2  106 28 0 0 5.6
0

0101000
-302 0 +305 0 *
Ve
1e-07
42.9 54.32 1.6
0 0

0101101
*
Ed
 1e-07 1 1 0
1  54 0 0 5
2  107 26 0 0 5
2  108 29 0 0 5
0

0101000
-302 0 +300 0 *
Ed
 1e-07 1 1 0
1  55 0 0 5.6
2  109 26 0 0 5.6
2  110 30 0 0 5.6
0

0101000
-300 0 +304 0 *
Wi

0101100
-303 0 -301 0 +299 0 +298 0 *
Fa
0  1e-07 26 0

0111000
+297 0 *
Ve
1e-07
48.75 48.72 6.6
0 0

0101101
*
Ve
1e-07
48.75 48.72 1.6
0 0

0101101
*
Ed
 1e-07 1 1 0
1  56 0 0 5
2  111 31 0 0 5
2  112 27 0 0 5
0

0101000
-295 0 +294 0 *
Ve
1e-07
48.75 54.32 6.6
0 0

0101101
*
Ed
 1e-07 1 1 0
1  57 0 0 5.6
2  113 31 0 0 5.6
2  114 28 0 0 5.6
0

0101000
-292 0 +295 0 *
Ve
1e-07
48.75 54.32 1.6
0 0

0101101
*
Ed
 1e-07 1 1 0
1  58 0 0 5
2  115 31 0 0 5
2  116 29 0 0 5
0

0101000
-292 0 +290 0 *
Ed
 1e-07 1 1 0
1  59 0 0 5.6
2  117 31 0 0 5.6
2  118 30 0 0 5.6
0

0101000
-290 0 +294 0 *
Wi

0101100
-293 0 -291 0 +289 0 +288 0 *
Fa
0  1e-07 31 0

0111000
+287 0 *
Ed
 1e-07 1 1 0
1  60 0 0 5.85
2  119 27 0 0 5.85
2  120 30 0 0 5.85
0

0101000
-294 0 +304 0 *
Ed
 1e-07 1 1 0
1  61 0 0 5.85
2  121 27 0 0 5.85
2  122 28 0 0 5.85
0

0101000
-295 0 +305 0 *
Wi

0101100
-285 0 -293 0 +284 0 +303 0 *
Fa
0  1e-07 27 0

0111000
+283 0 *
Ed
 1e-07 1 1 0
1  62 0 0 5.85
2  123 29 0 0 5.85
2  124 30 0 0 5.85
0

0101000
-290 0 +300 0 *
Ed
 1e-07 1 1 0
1  63 0 0 5.85
2  125 29 0 0 5.85
2  126 28 0 0 5.85
0

0101000
-292 0 +302 0 *
Wi

0101100
-281 0 -289 0 +280 0 +299 0 *
Fa
0  1e-07 29 0

0111000
+279 0 *
Wi

0101100
-298 0 -281 0 +288 0 +285 0 *
Fa
0  1e-07 30 0

0111000
+277 0 *
Wi

0101100
-301 0 -280 0 +291 0 +284 0 *
Fa
0  1e-07 28 0

0111000
+275 0 *
Sh

0101100
-296 0 +286 0 -282 0 +278 0 -276 0 +274 0 *
So

0100000
+273 0 *
Ve
1e-07
52 48.72 6.6
0 0

0101101
*
Ve
1e-07
52 48.72 1.6
0 0

0101101
*
Ed
 1e-07 1 1 0
1  64 0 0 5
2  127 32 0 0 5
2  128 33 0 0 5
0

0101000
-271 0 +270 0 *
Ve
1e-07
52 54.32 6.6
0 0

0101101
*
Ed
 1e-07 1 1 0
1  65 0 0 5.6
2  129 32 0 0 5.6
2  130 34 0 0 5.6
0

0101000
-268 0 +271 0 *
Ve
1e-07
52 54.32 1.6
0 0

0101101
*
Ed
 1e-07 1 1 0
1  66 0 0 5
2  131 32 0 0 5
2  132 35 0 0 5
0

0101000
-268 0 +266 0 *
Ed
 1e-07 1 1 0
1  67 0 0 5.6
2  133 32 0 0 5.6
2  134 36 0 0 5.6
0

0101000
-266 0 +270 0 *
Wi

0101100
-269 0 -267 0 +265 0 +264 0 *
Fa
0  1e-07 32 0

0111000
+263 0 *
Ve
1e-07
57.85 48.72 6.6
0 0

0101101
*
Ve
1e-07
57.85 48.72 1.6
0 0

0101101
*
Ed
 1e-07 1 1 0
1  68 0 0 5
2  135 37 0 0 5
2  136 33 0 0 5
0

0101000
-261 0 +260 0 *
Ve
1e-07
57.85 54.32 6.6
0 0

0101101
*
Ed
 1e-07 1 1 0
1  69 0 0 5.6
2  137 37 0 0 5.6
2  138 34 0 0 5.6
0

0101000
-258 0 +261 0 *
Ve
1e-07
57.85 54.32 1.6
0 0

0101101
*
Ed
 1e-07 1 1 0
1  70 0 0 5
2  139 37 0 0 5
2  140 35 0 0 5
0

0101000
-258 0 +256 0 *
Ed
 1e-07 1 1 0
1  71 0 0 5.6
2  141 37 0 0 5.6
2  142 36 0 0 5.6
0

0101000
-256 0 +260 0 *
Wi

0101100
-259 0 -257 0 +255 0 +254 0 *
Fa
0  1e-07 37 0

0111000
+253 0 *
Ed
 1e-07 1 1 0
1  72 0 0 5.85
2  143 33 0 0 5.85
2  144 36 0 0 5.85
0

0101000
-260 0 +270 0 *
Ed
 1e-07 1 1 0
1  73 0 0 5.85
2  145 33 0 0 5.85
2  146 34 0 0 5.85
0

0101000
-261 0 +271 0 *
Wi

0101100
-251 0 -259 0 +250 0 +269 0 *
Fa
0  1e-07 33 0

0111000
+249 0 *
Ed
 1e-07 1 1 0
1  74 0 0 5.85
2  147 35 0 0 5.85
2  148 36 0 0 5.85
0

0101000
-256 0 +266 0 *
Ed
 1e-07 1 1 0
1  75 0 0 5.85
2  149 35 0 0 5.85
2  150 34 0 0 5.85
0

0101000
-258 0 +268 0 *
Wi

0101100
-247 0 -255 0 +246 0 +265 0 *
Fa
0  1e-07 35 0

0111000
+245 0 *
Wi

0101100
-264 0 -247 0 +254 0 +251 0 *
Fa
0  1e-07 36 0

0111000
+243 0 *
Wi

0101100
-267 0 -246 0 +257 0 +250 0 *
Fa
0  1e-07 34 0

0111000
+241 0 *
Sh

0101100
-262 0 +252 0 -248 0 +244 0 -242 0 +240 0 *
So

0100000
+239 0 *
Ve
1e-07
57.2 30.8 6.6
0 0

0101101
*
Ve
1e-07
57.2 30.8 1.6
0 0

0101101
*
Ed
 1e-07 1 1 0
1  76 0 0 5
2  151 38 0 0 5
2  152 39 0 0 5
0

0101000
-237 0 +236 0 *
Ve
1e-07
57.2 36.4 6.6
0 0

0101101
*
Ed
 1e-07 1 1 0
1  77 0 0 5.6
2  153 38 0 0 5.6
2  154 40 0 0 5.6
0

0101000
-234 0 +237 0 *
Ve
1e-07
57.2 36.4 1.6
0 0

0101101
*
Ed
 1e-07 1 1 0
1  78 0 0 5
2  155 38 0 0 5
2  156 41 0 0 5
0

0101000
-234 0 +232 0 *
Ed
 1e-07 1 1 0
1  79 0 0 5.6
2  157 38 0 0 5.6
2  158 42 0 0 5.6
0

0101000
-232 0 +236 0 *
Wi

0101100
-235 0 -233 0 +231 0 +230 0 *
Fa
0  1e-07 38 0

0111000
+229 0 *
Ve
1e-07
63.05 30.8 6.6
0 0

0101101
*
Ve
1e-07
63.05 30.8 1.6
0 0

0101101
*
Ed
 1e-07 1 1 0
1  80 0 0 5
2  159 43 0 0 5
2  160 39 0 0 5
0

0101000
-227 0 +226 0 *
Ve
1e-07
63.05 36.4 6.6
0 0

0101101
*
Ed
 1e-07 1 1 0
1  81 0 0 5.6
2  161 43 0 0 5.6
2  162 40 0 0 5.6
0

0101000
-224 0 +227 0 *
Ve
1e-07
63.05 36.4 1.6
0 0

0101101
*
Ed
 1e-07 1 1 0
1  82 0 0 5
2  163 43 0 0 5
2  164 41 0 0 5
0

0101000
-224 0 +222 0 *
Ed
 1e-07 1 1 0
1  83 0 0 5.6
2  165 43 0 0 5.6
2  166 42 0 0 5.6
0

0101000
-222 0 +226 0 *
Wi

0101100
-225 0 -223 0 +221 0 +220 0 *
Fa
0  1e-07 43 0

0111000
+219 0 *
Ed
 1e-07 1 1 0
1  84 0 0 5.85
2  167 39 0 0 5.85
2  168 42 0 0 5.85
0

0101000
-226 0 +236 0 *
Ed
 1e-07 1 1 0
1  85 0 0 5.85
2  169 39 0 0 5.85
2  170 40 0 0 5.85
0

0101000
-227 0 +237 0 *
Wi

0101100
-217 0 -225 0 +216 0 +235 0 *
Fa
0  1e-07 39 0

0111000
+215 0 *
Ed
 1e-07 1 1 0
1  86 0 0 5.85
2  171 41 0 0 5.85
2  172 42 0 0 5.85
0

0101000
-222 0 +232 0 *
Ed
 1e-07 1 1 0
1  87 0 0 5.85
2  173 41 0 0 5.85
2  174 40 0 0 5.85
0

0101000
-224 0 +234 0 *
Wi

0101100
-213 0 -221 0 +212 0 +231 0 *
Fa
0  1e-07 41 0

0111000
+211 0 *
Wi

0101100
-230 0 -213 0 +220 0 +217 0 *
Fa
0  1e-07 42 0

0111000
+209 0 *
Wi

0101100
-233 0 -212 0 +223 0 +216 0 *
Fa
0  1e-07 40 0

0111000
+207 0 *
Sh

0101100
-228 0 +218 0 -214 0 +210 0 -208 0 +206 0 *
So

0100000
+205 0 *
Ve
1e-07
57.2 40.32 6.6
0 0

0101101
*
Ve
1e-07
57.2 40.32 1.6
0 0

0101101
*
Ed
 1e-07 1 1 0
1  88 0 0 5
2  175 44 0 0 5
2  176 45 0 0 5
0

0101000
-203 0 +202 0 *
Ve
1e-07
57.2 45.92 6.6
0 0

0101101
*
Ed
 1e-07 1 1 0
1  89 0 0 5.6
2  177 44 0 0 5.6
2  178 46 0 0 5.6
0

0101000
-200 0 +203 0 *
Ve
1e-07
57.2 45.92 1.6
0 0

0101101
*
Ed
 1e-07 1 1 0
1  90 0 0 5
2  179 44 0 0 5
2  180 47 0 0 5
0

0101000
-200 0 +198 0 *
Ed
 1e-07 1 1 0
1  91 0 0 5.6
2  181 44 0 0 5.6
2  182 48 0 0 5.6
0

0101000
-198 0 +202 0 *
Wi

0101100
-201 0 -199 0 +197 0 +196 0 *
Fa
0  1e-07 44 0

0111000
+195 0 *
Ve
1e-07
63.05 40.32 6.6
0 0

0101101
*
Ve
1e-07
63.05 40.32 1.6
0 0

0101101
*
Ed
 1e-07 1 1 0
1  92 0 0 5
2  183 49 0 0 5
2  184 45 0 0 5
0

0101000
-193 0 +192 0 *
Ve
1e-07
63.05 45.92 6.6
0 0

0101101
*
Ed
 1e-07 1 1 0
1  93 0 0 5.6
2  185 49 0 0 5.6
2  186 46 0 0 5.6
0

0101000
-190 0 +193 0 *
Ve
1e-07
63.05 45.92 1.6
0 0

0101101
*
Ed
 1e-07 1 1 0
1  94 0 0 5
2  187 49 0 0 5
2  188 47 0 0 5
0

0101000
-190 0 +188 0 *
Ed
 1e-07 1 1 0
1  95 0 0 5.6
2  189 49 0 0 5.6
2  190 48 0 0 5.6
0

0101000
-188 0 +192 0 *
Wi

0101100
-191 0 -189 0 +187 0 +186 0 *
Fa
0  1e-07 49 0

0111000
+185 0 *
Ed
 1e-07 1 1 0
1  96 0 0 5.85
2  191 45 0 0 5.85
2  192 48 0 0 5.85
0

0101000
-192 0 +202 0 *
Ed
 1e-07 1 1 0
1  97 0 0 5.85
2  193 45 0 0 5.85
2  194 46 0 0 5.85
0

0101000
-193 0 +203 0 *
Wi

0101100
-183 0 -191 0 +182 0 +201 0 *
Fa
0  1e-07 45 0

0111000
+181 0 *
Ed
 1e-07 1 1 0
1  98 0 0 5.85
2  195 47 0 0 5.85
2  196 48 0 0 5.85
0

0101000
-188 0 +198 0 *
Ed
 1e-07 1 1 0
1  99 0 0 5.85
2  197 47 0 0 5.85
2  198 46 0 0 5.85
0

0101000
-190 0 +200 0 *
Wi

0101100
-179 0 -187 0 +178 0 +197 0 *
Fa
0  1e-07 47 0

0111000
+177 0 *
Wi

0101100
-196 0 -179 0 +186 0 +183 0 *
Fa
0  1e-07 48 0

0111000
+175 0 *
Wi

0101100
-199 0 -178 0 +189 0 +182 0 *
Fa
0  1e-07 46 0

0111000
+173 0 *
Sh

0101100
-194 0 +184 0 -180 0 +176 0 -174 0 +172 0 *
So

0100000
+171 0 *
Ve
1e-07
57.2 10.08 6.6
0 0

0101101
*
Ve
1e-07
57.2 10.08 1.6
0 0

0101101
*
Ed
 1e-07 1 1 0
1  100 0 0 5
2  199 50 0 0 5
2  200 51 0 0 5
0

0101000
-169 0 +168 0 *
Ve
1e-07
57.2 15.68 6.6
0 0

0101101
*
Ed
 1e-07 1 1 0
1  101 0 0 5.6
2  201 50 0 0 5.6
2  202 52 0 0 5.6
0

0101000
-166 0 +169 0 *
Ve
1e-07
57.2 15.68 1.6
0 0

0101101
*
Ed
 1e-07 1 1 0
1  102 0 0 5
2  203 50 0 0 5
2  204 53 0 0 5
0

0101000
-166 0 +164 0 *
Ed
 1e-07 1 1 0
1  103 0 0 5.6
2  205 50 0 0 5.6
2  206 54 0 0 5.6
0

0101000
-164 0 +168 0 *
Wi

0101100
-167 0 -165 0 +163 0 +162 0 *
Fa
0  1e-07 50 0

0111000
+161 0 *
Ve
1e-07
63.05 10.08 6.6
0 0

0101101
*
Ve
1e-07
63.05 10.08 1.6
0 0

0101101
*
Ed
 1e-07 1 1 0
1  104 0 0 5
2  207 55 0 0 5
2  208 51 0 0 5
0

0101000
-159 0 +158 0 *
Ve
1e-07
63.05 15.68 6.6
0 0

0101101
*
Ed
 1e-07 1 1 0
1  105 0 0 5.6
2  209 55 0 0 5.6
2  210 52 0 0 5.6
0

0101000
-156 0 +159 0 *
Ve
1e-07
63.05 15.68 1.6
0 0

0101101
*
Ed
 1e-07 1 1 0
1  106 0 0 5
2  211 55 0 0 5
2  212 53 0 0 5
0

0101000
-156 0 +154 0 *
Ed
 1e-07 1 1 0
1  107 0 0 5.6
2  213 55 0 0 5.6
2  214 54 0 0 5.6
0

0101000
-154 0 +158 0 *
Wi

0101100
-157 0 -155 0 +153 0 +152 0 *
Fa
0  1e-07 55 0

0111000
+151 0 *
Ed
 1e-07 1 1 0
1  108 0 0 5.85
2  215 51 0 0 5.85
2  216 54 0 0 5.85
0

0101000
-158 0 +168 0 *
Ed
 1e-07 1 1 0
1  109 0 0 5.85
2  217 51 0 0 5.85
2  218 52 0 0 5.85
0

0101000
-159 0 +169 0 *
Wi

0101100
-149 0 -157 0 +148 0 +167 0 *
Fa
0  1e-07 51 0

0111000
+147 0 *
Ed
 1e-07 1 1 0
1  110 0 0 5.85
2  219 53 0 0 5.85
2  220 54 0 0 5.85
0

0101000
-154 0 +164 0 *
Ed
 1e-07 1 1 0
1  111 0 0 5.85
2  221 53 0 0 5.85
2  222 52 0 0 5.85
0

0101000
-156 0 +166 0 *
Wi

0101100
-145 0 -153 0 +144 0 +163 0 *
Fa
0  1e-07 53 0

0111000
+143 0 *
Wi

0101100
-162 0 -145 0 +152 0 +149 0 *
Fa
0  1e-07 54 0

0111000
+141 0 *
Wi

0101100
-165 0 -144 0 +155 0 +148 0 *
Fa
0  1e-07 52 0

0111000
+139 0 *
Sh

0101100
-160 0 +150 0 -146 0 +142 0 -140 0 +138 0 *
So

0100000
+137 0 *
Ve
1e-07
26 0 6.6
0 0

0101101
*
Ve
1e-07
26 0 1.6
0 0

0101101
*
Ed
 1e-07 1 1 0
1  112 0 0 5
2  223 56 0 0 5
2  224 57 0 0 5
0

0101000
-135 0 +134 0 *
Ve
1e-07
26 5.6 6.6
0 0

0101101
*
Ed
 1e-07 1 1 0
1  113 0 0 5.6
2  225 56 0 0 5.6
2  226 58 0 0 5.6
0

0101000
-132 0 +135 0 *
Ve
1e-07
26 5.6 1.6
0 0

0101101
*
Ed
 1e-07 1 1 0
1  114 0 0 5
2  227 56 0 0 5
2  228 59 0 0 5
0

0101000
-132 0 +130 0 *
Ed
 1e-07 1 1 0
1  115 0 0 5.6
2  229 56 0 0 5.6
2  230 60 0 0 5.6
0

0101000
-130 0 +134 0 *
Wi

0101100
-133 0 -131 0 +129 0 +128 0 *
Fa
0  1e-07 56 0

0111000
+127 0 *
Ve
1e-07
31.85 0 6.6
0 0

0101101
*
Ve
1e-07
31.85 0 1.6
0 0

0101101
*
Ed
 1e-07 1 1 0
1  116 0 0 5
2  231 61 0 0 5
2  232 57 0 0 5
0

0101000
-125 0 +124 0 *
Ve
1e-07
31.85 5.6 6.6
0 0

0101101
*
Ed
 1e-07 1 1 0
1  117 0 0 5.6
2  233 61 0 0 5.6
2  234 58 0 0 5.6
0

0101000
-122 0 +125 0 *
Ve
1e-07
31.85 5.6 1.6
0 0

0101101
*
Ed
 1e-07 1 1 0
1  118 0 0 5
2  235 61 0 0 5
2  236 59 0 0 5
0

0101000
-122 0 +120 0 *
Ed
 1e-07 1 1 0
1  119 0 0 5.6
2  237 61 0 0 5.6
2  238 60 0 0 5.6
0

0101000
-120 0 +124 0 *
Wi

0101100
-123 0 -121 0 +119 0 +118 0 *
Fa
0  1e-07 61 0

0111000
+117 0 *
Ed
 1e-07 1 1 0
1  120 0 0 5.85
2  239 57 0 0 5.85
2  240 60 0 0 5.85
0

0101000
-124 0 +134 0 *
Ed
 1e-07 1 1 0
1  121 0 0 5.85
2  241 57 0 0 5.85
2  242 58 0 0 5.85
0

0101000
-125 0 +135 0 *
Wi

0101100
-115 0 -123 0 +114 0 +133 0 *
Fa
0  1e-07 57 0

0111000
+113 0 *
Ed
 1e-07 1 1 0
1  122 0 0 5.85
2  243 59 0 0 5.85
2  244 60 0 0 5.85
0

0101000
-120 0 +130 0 *
Ed
 1e-07 1 1 0
1  123 0 0 5.85
2  245 59 0 0 5.85
2  246 58 0 0 5.85
0

0101000
-122 0 +132 0 *
Wi

0101100
-111 0 -119 0 +110 0 +129 0 *
Fa
0  1e-07 59 0

0111000
+109 0 *
Wi

0101100
-128 0 -111 0 +118 0 +115 0 *
Fa
0  1e-07 60 0

0111000
+107 0 *
Wi

0101100
-131 0 -110 0 +121 0 +114 0 *
Fa
0  1e-07 58 0

0111000
+105 0 *
Sh

0101100
-126 0 +116 0 -112 0 +108 0 -106 0 +104 0 *
So

0100000
+103 0 *
Ve
1e-07
39 0 6.6
0 0

0101101
*
Ve
1e-07
39 0 1.6
0 0

0101101
*
Ed
 1e-07 1 1 0
1  124 0 0 5
2  247 62 0 0 5
2  248 63 0 0 5
0

0101000
-101 0 +100 0 *
Ve
1e-07
39 5.6 6.6
0 0

0101101
*
Ed
 1e-07 1 1 0
1  125 0 0 5.6
2  249 62 0 0 5.6
2  250 64 0 0 5.6
0

0101000
-98 0 +101 0 *
Ve
1e-07
39 5.6 1.6
0 0

0101101
*
Ed
 1e-07 1 1 0
1  126 0 0 5
2  251 62 0 0 5
2  252 65 0 0 5
0

0101000
-98 0 +96 0 *
Ed
 1e-07 1 1 0
1  127 0 0 5.6
2  253 62 0 0 5.6
2  254 66 0 0 5.6
0

0101000
-96 0 +100 0 *
Wi

0101100
-99 0 -97 0 +95 0 +94 0 *
Fa
0  1e-07 62 0

0111000
+93 0 *
Ve
1e-07
44.85 0 6.6
0 0

0101101
*
Ve
1e-07
44.85 0 1.6
0 0

0101101
*
Ed
 1e-07 1 1 0
1  128 0 0 5
2  255 67 0 0 5
2  256 63 0 0 5
0

0101000
-91 0 +90 0 *
Ve
1e-07
44.85 5.6 6.6
0 0

0101101
*
Ed
 1e-07 1 1 0
1  129 0 0 5.6
2  257 67 0 0 5.6
2  258 64 0 0 5.6
0

0101000
-88 0 +91 0 *
Ve
1e-07
44.85 5.6 1.6
0 0

0101101
*
Ed
 1e-07 1 1 0
1  130 0 0 5
2  259 67 0 0 5
2  260 65 0 0 5
0

0101000
-88 0 +86 0 *
Ed
 1e-07 1 1 0
1  131 0 0 5.6
2  261 67 0 0 5.6
2  262 66 0 0 5.6
0

0101000
-86 0 +90 0 *
Wi

0101100
-89 0 -87 0 +85 0 +84 0 *
Fa
0  1e-07 67 0

0111000
+83 0 *
Ed
 1e-07 1 1 0
1  132 0 0 5.85
2  263 63 0 0 5.85
2  264 66 0 0 5.85
0

0101000
-90 0 +100 0 *
Ed
 1e-07 1 1 0
1  133 0 0 5.85
2  265 63 0 0 5.85
2  266 64 0 0 5.85
0

0101000
-91 0 +101 0 *
Wi

0101100
-81 0 -89 0 +80 0 +99 0 *
Fa
0  1e-07 63 0

0111000
+79 0 *
Ed
 1e-07 1 1 0
1  134 0 0 5.85
2  267 65 0 0 5.85
2  268 66 0 0 5.85
0

0101000
-86 0 +96 0 *
Ed
 1e-07 1 1 0
1  135 0 0 5.85
2  269 65 0 0 5.85
2  270 64 0 0 5.85
0

0101000
-88 0 +98 0 *
Wi

0101100
-77 0 -85 0 +76 0 +95 0 *
Fa
0  1e-07 65 0

0111000
+75 0 *
Wi

0101100
-94 0 -77 0 +84 0 +81 0 *
Fa
0  1e-07 66 0

0111000
+73 0 *
Wi

0101100
-97 0 -76 0 +87 0 +80 0 *
Fa
0  1e-07 64 0

0111000
+71 0 *
Sh

0101100
-92 0 +82 0 -78 0 +74 0 -72 0 +70 0 *
So

0100000
+69 0 *
Ve
1e-07
6.8 47.6 0
0 0

0101101
*
Ve
1e-07
6.8 47.6 -10
0 0

0101101
*
Ed
 1e-07 1 1 0
1  136 0 0 10
2  271 68 0 0 10
2  272 69 0 0 10
0

0101000
-67 0 +66 0 *
Ve
1e-07
6.8 52.6 0
0 0

0101101
*
Ed
 1e-07 1 1 0
1  137 0 0 5
2  273 68 0 0 5
2  274 70 0 0 5
0

0101000
-64 0 +67 0 *
Ve
1e-07
6.8 52.6 -10
0 0

0101101
*
Ed
 1e-07 1 1 0
1  138 0 0 10
2  275 68 0 0 10
2  276 71 0 0 10
0

0101000
-64 0 +62 0 *
Ed
 1e-07 1 1 0
1  139 0 0 5
2  277 68 0 0 5
2  278 72 0 0 5
0

0101000
-62 0 +66 0 *
Wi

0101100
-65 0 -63 0 +61 0 +60 0 *
Fa
0  1e-07 68 0

0111000
+59 0 *
Ve
1e-07
57.8 47.6 -10
0 0

0101101
*
Ed
 1e-07 1 1 0
1  140 0 0 51
2  279 69 0 0 51
2  280 72 0 0 51
0

0101000
-57 0 +66 0 *
Ve
1e-07
57.8 47.6 0
0 0

0101101
*
Ed
 1e-07 1 1 0
1  141 0 0 10
2  281 73 0 0 10
2  282 69 0 0 10
0

0101000
-55 0 +57 0 *
Ed
 1e-07 1 1 0
1  142 0 0 51
2  283 69 0 0 51
2  284 70 0 0 51
0

0101000
-55 0 +67 0 *
Wi

0101100
-56 0 -54 0 +53 0 +65 0 *
Fa
0  1e-07 69 0

0111000
+52 0 *
Ve
1e-07
57.8 52.6 0
0 0

0101101
*
Ed
 1e-07 1 1 0
1  143 0 0 51
2  285 71 0 0 51
2  286 70 0 0 51
0

0101000
-50 0 +64 0 *
Ed
 1e-07 1 1 0
1  144 0 0 5
2  287 73 0 0 5
2  288 70 0 0 5
0

0101000
-50 0 +55 0 *
Wi

0101100
-63 0 -49 0 +48 0 +53 0 *
Fa
0  1e-07 70 0

0111000
+47 0 *
Ve
1e-07
57.8 52.6 -10
0 0

0101101
*
Ed
 1e-07 1 1 0
1  145 0 0 51
2  289 71 0 0 51
2  290 72 0 0 51
0

0101000
-45 0 +62 0 *
Ed
 1e-07 1 1 0
1  146 0 0 10
2  291 73 0 0 10
2  292 71 0 0 10
0

0101000
-50 0 +45 0 *
Wi

0101100
-44 0 -43 0 +49 0 +61 0 *
Fa
0  1e-07 71 0

0111000
+42 0 *
Ed
 1e-07 1 1 0
1  147 0 0 5
2  293 73 0 0 5
2  294 72 0 0 5
0

0101000
-45 0 +57 0 *
Wi

0101100
-60 0 -44 0 +56 0 +40 0 *
Ve
1e-07
7.8 51.6 -10
0 0

0101101
*
Ve
1e-07
7.8 48.6 -10
0 0

0101101
*
Ed
 1e-07 1 1 0
1  148 0 0 3
2  295 74 0 0 3
2  296 75 0 0 3
2  297 72 0 0 3
0

0101000
-38 0 +37 0 *
Ve
1e-07
56.8 48.6 -10
0 0

0101101
*
Ed
 1e-07 1 1 0
1  149 0 0 49
2  298 76 0 0 49
2  299 75 0 0 49
2  300 72 0 0 49
0

0101000
-35 0 +37 0 *
Ve
1e-07
56.8 51.6 -10
0 0

0101101
*
Ed
 1e-07 1 1 0
1  150 0 0 3
2  301 77 0 0 3
2  302 75 0 0 3
2  303 72 0 0 3
0

0101000
-33 0 +35 0 *
Ed
 1e-07 1 1 0
1  151 0 0 49
2  304 78 0 0 49
2  305 75 0 0 49
2  306 72 0 0 49
0

0101000
-33 0 +38 0 *
Wi

0101100
+36 0 -34 0 -32 0 +31 0 *
Fa
0  1e-07 72 0

0101000
+39 0 +30 0 *
Wi

0101100
-54 0 -48 0 +43 0 +40 0 *
Fa
0  1e-07 73 0

0111000
+28 0 *
Ve
1e-07
7.8 48.6 -2
0 0

0101101
*
Ed
 1e-07 1 1 0
1  152 0 0 8
2  307 74 0 0 8
2  308 76 0 0 8
0

0101000
-26 0 +37 0 *
Ve
1e-07
7.8 51.6 -2
0 0

0101101
*
Ed
 1e-07 1 1 0
1  153 0 0 3
2  309 74 0 0 3
2  310 79 0 0 3
0

0101000
-24 0 +26 0 *
Ed
 1e-07 1 1 0
1  154 0 0 8
2  311 74 0 0 8
2  312 78 0 0 8
0

0101000
-24 0 +38 0 *
Wi

0101100
-25 0 -23 0 +22 0 +36 0 *
Fa
0  1e-07 74 0

0111000
+21 0 *
Ve
1e-07
56.8 48.6 -2
0 0

0101101
*
Ed
 1e-07 1 1 0
1  155 0 0 8
2  313 77 0 0 8
2  314 76 0 0 8
0

0101000
-19 0 +35 0 *
Ed
 1e-07 1 1 0
1  156 0 0 49
2  315 76 0 0 49
2  316 79 0 0 49
0

0101000
-19 0 +26 0 *
Wi

0101100
-34 0 -18 0 +17 0 +25 0 *
Fa
0  1e-07 76 0

0111000
+16 0 *
Ve
1e-07
56.8 51.6 -2
0 0

0101101
*
Ed
 1e-07 1 1 0
1  157 0 0 3
2  317 77 0 0 3
2  318 79 0 0 3
0

0101000
-14 0 +19 0 *
Ed
 1e-07 1 1 0
1  158 0 0 8
2  319 77 0 0 8
2  320 78 0 0 8
0

0101000
-14 0 +33 0 *
Wi

0101100
-18 0 -13 0 +12 0 +32 0 *
Fa
0  1e-07 77 0

0111000
+11 0 *
Ed
 1e-07 1 1 0
1  159 0 0 49
2  321 78 0 0 49
2  322 79 0 0 49
0

0101000
-14 0 +24 0 *
Wi

0101100
-31 0 -12 0 +9 0 +22 0 *
Fa
0  1e-07 78 0

0111000
+8 0 *
Wi

0101100
-23 0 -9 0 +13 0 +17 0 *
Fa
0  1e-07 79 0

0111000
+6 0 *
Sh

0101100
-58 0 -51 0 +46 0 +41 0 -29 0 +27 0 +20 0 +15 0 -10 0 -7 0 
-5 0 *
So

0100000
+4 0 *
Co

0100000
+3 0 *
Co

1100000
+387 0 +374 0 +340 0 +306 0 +272 0 +238 0 +204 0 +170 0 +136 0 +102 0 
+68 0 +2 0 *

+1 0 