DBRep_DrawableShape

CASCADE Topology V3, (c) Open Cascade
Locations 2
1
              1              -0               0              -0 
              0               1               0              -0 
             -0               0               1               0 
2  1 -1 0
Curve2ds 110
1 0 0 0 1 
1 2 0 0 -1 
8 0 2
1 0 -22.232544722093877 1 0 
8 0 2
1 1 0 0 -1 
1 0 0 0 1 
1 0 0 0 -1 
1 0 0 0 1 
1 0 -3 1 0 
1 -4.7123889803846897 2 1 0 
2 3 3 0 -1 1 0 3
1 -3.6805784955608551 -7.170493955911418 1 0 
1 0 -2 1 0 
1 -1 22.232544722093877 1 0 
1 0 0 1 0 
1 3.6805784955608507 -7.170493955911418 0 1 
1 0 -2 1 0 
1 6.3611569911217059 22.232544722093877 0 1 
1 -4.7123889803846897 2 1 0 
2 20.142816127412786 3 0 -1 -1 -0 3
1 3.6805784955608507 7.170493955911418 -1 0 
1 0 -2 1 0 
1 6.3611569911217059 36.573532633916713 -1 0 
1 23.142816127412786 0 0 1 
1 -1.5707963267948966 2 1 0 
2 20.142816127412786 56.248899762922413 0 -1 1 0 3
1 -1.5707963267948966 2 1 0 
2 3 56.248899762922413 0 -1 -1 -0 3
1 0 59.248899762922413 1 0 
1 0 -2 1 0 
2 6.2450045135165055e-17 0 1 0 -0 1 1.6176019581247667
2 11.451632045543747 2.5938625213621727 1 0 -0 1 1.6176019581247667
1 0 -2 1 0 
2 0 0 1 0 -0 1 1.3157120719849815
2 6.5605930324733386 16.585385649212366 1 0 -0 1 1.3157120719849815
1 0 -2 1 0 
2 0 0 1 0 -0 1 1.3064731562812462
2 16.48335402414979 16.525723831204299 1 0 -0 1 1.3064731562812462
1 0 -2 1 0 
2 0 0 1 0 -0 1 1.321646235218275
2 6.5009734043458227 42.158720181867338 1 0 -0 1 1.321646235218275
1 0 -2 1 0 
2 3.3306690738754696e-16 0 1 0 -0 1 1.6328587739996765
2 11.427306044914381 56.163512090581456 1 0 -0 1 1.6328587739996765
1 0 -2 1 0 
2 0 0 1 0 -0 1 1.3123109738765049
2 16.519646457273147 42.105062303179821 1 0 -0 1 1.3123109738765049
1 -3.6805784955608551 -7.170493955911418 1 0 
1 0 0 1 0 
1 -1 22.232544722093877 1 0 
1 7.3611569911217059 0 0 -1 
1 0 0 0 -1 
1 -4.7123889803846897 0 1 0 
2 3 3 0 -1 1 0 3
1 0 0 1 0 
1 3.6805784955608507 -7.170493955911418 0 1 
1 0 0 1 0 
1 6.3611569911217059 22.232544722093877 0 1 
1 -4.7123889803846897 0 1 0 
2 20.142816127412786 3 0 -1 -1 -0 3
1 3.6805784955608507 7.170493955911418 -1 0 
1 0 -0 1 0 
1 6.3611569911217059 36.573532633916713 -1 0 
1 23.142816127412786 0 0 1 
1 -1.5707963267948966 0 1 0 
2 20.142816127412786 56.248899762922413 0 -1 1 0 3
1 -1.5707963267948966 0 1 0 
2 3 56.248899762922413 0 -1 -1 -0 3
1 0 59.248899762922413 1 0 
1 0 0 1 0 
2 6.2450045135165055e-17 0 1 0 -0 1 1.6176019581247667
2 11.451632045543747 2.5938625213621727 1 0 -0 1 1.6176019581247667
1 0 0 1 0 
2 0 0 1 0 -0 1 1.3157120719849815
2 6.5605930324733386 16.585385649212366 1 0 -0 1 1.3157120719849815
1 0 0 1 0 
2 0 0 1 0 -0 1 1.3064731562812462
2 16.48335402414979 16.525723831204299 1 0 -0 1 1.3064731562812462
1 0 0 1 0 
2 0 0 1 0 -0 1 1.321646235218275
2 6.5009734043458227 42.158720181867338 1 0 -0 1 1.321646235218275
1 0 0 1 0 
2 3.3306690738754696e-16 0 1 0 -0 1 1.6328587739996765
2 11.427306044914381 56.163512090581456 1 0 -0 1 1.6328587739996765
1 0 0 1 0 
2 0 0 1 0 -0 1 1.3123109738765049
2 16.519646457273147 42.105062303179821 1 0 -0 1 1.3123109738765049
1 1.5707963267948966 0 0 1 
1 1.5707963267948966 0 0 1 
1 0 -0 0 -1 
1 14.340987911822836 0 0 -1 
1 0 0 0 1 
8 -2 0
1 0 -36.573532633916713 -1 0 
8 -2 0
1 6.3611569911217059 0 0 1 
1 0 0 0 1 
1 0 0 0 1 
1 0 -56.248899762922413 1 0 
1 1.5707963267948966 0 0 1 
1 1.5707963267948966 0 0 1 
1 0 0 0 -1 
1 6.2831853071795862 0 0 -1 
1 0 0 0 -1 
1 6.2831853071795862 0 0 -1 
1 0 0 0 -1 
1 6.2831853071795862 0 0 -1 
1 0 0 0 -1 
1 6.2831853071795862 0 0 -1 
1 0 0 0 -1 
1 6.2831853071795862 0 0 -1 
1 0 0 0 -1 
1 6.2831853071795862 0 0 -1 
Curves 52
1 -11.490584168116705 -29.355377762901242 2 0 1 0 
1 -11.490584168116705 -7.1228330408073646 0 0 0 1 
1 -11.490584168116705 -29.355377762901242 0 0 1 0 
1 -11.490584168116705 -26.355377762901242 0 0 0 1 
8 4.7123889803846897 6.2831853071795862
2 -8.4905841681167047 -26.355377762901242 2 0 0 1 0 -1 0 1 0 -0 3
1 -12.490584168116705 -7.1228330408073646 2 1 0 0 
1 -11.490584168116705 -29.355377762901242 2 1 0 0 
1 -5.1294271769949988 -7.1228330408073646 2 0 1 0 
8 4.7123889803846897 6.2831853071795862
2 8.6522319592960812 -26.355377762901242 2 -0 -0 -1 0 -1 0 -1 0 0 3
1 -5.1294271769949988 7.2181548710154715 2 -1 0 0 
1 11.652231959296081 -29.355377762901242 2 0 1 0 
8 1.5707963267948966 3.1415926535897931
2 8.6522319592960812 26.893522000021171 2 0 0 1 0 -1 0 1 0 -0 3
8 1.5707963267948966 3.1415926535897931
2 -8.4905841681167047 26.893522000021171 2 -0 -0 -1 0 -1 0 -1 0 0 3
1 -11.490584168116705 29.893522000021171 2 1 0 0 
2 -0.038952122572958103 -26.761515241539069 2 0 0 1 1 0 0 0 1 0 1.6176019581247667
2 -4.9299911356433661 -12.769992113688875 2 0 0 1 1 0 0 0 1 0 1.3157120719849815
2 4.9927698560330853 -12.829653931696942 2 0 0 1 1 0 0 0 1 0 1.3064731562812457
2 -4.989610763770882 12.803342418966096 2 0 0 1 1 0 0 0 1 0 1.321646235218275
2 -0.0632781232023234 26.808134327680214 2 0 0 1 1 0 0 0 1 0 1.6328587739996765
2 5.0290622891564425 12.749684540278579 2 0 0 1 1 0 0 0 1 0 1.3123109738765053
1 -12.490584168116705 -7.1228330408073646 0 1 0 0 
1 -5.1294271769949988 -7.1228330408073646 0 0 0 1 
8 4.7123889803846897 6.2831853071795862
2 -8.4905841681167047 -26.355377762901242 0 0 0 1 0 -1 0 1 0 -0 3
1 -11.490584168116705 -29.355377762901242 0 1 0 0 
1 -5.1294271769949988 -7.1228330408073646 0 0 1 0 
8 4.7123889803846897 6.2831853071795862
2 8.6522319592960812 -26.355377762901242 0 -0 -0 -1 0 -1 0 -1 0 0 3
1 -5.1294271769949988 7.2181548710154715 0 -1 0 0 
1 11.652231959296081 -29.355377762901242 0 0 1 0 
8 1.5707963267948966 3.1415926535897931
2 8.6522319592960812 26.893522000021171 0 0 0 1 0 -1 0 1 0 -0 3
8 1.5707963267948966 3.1415926535897931
2 -8.4905841681167047 26.893522000021171 0 -0 -0 -1 0 -1 0 -1 0 0 3
1 -11.490584168116705 29.893522000021171 0 1 0 0 
2 -0.038952122572958103 -26.761515241539069 0 0 0 1 1 0 0 0 1 0 1.6176019581247667
2 -4.9299911356433661 -12.769992113688875 0 0 0 1 1 0 0 0 1 0 1.3157120719849815
2 4.9927698560330853 -12.829653931696942 0 0 0 1 1 0 0 0 1 0 1.3064731562812457
2 -4.989610763770882 12.803342418966096 0 0 0 1 1 0 0 0 1 0 1.321646235218275
2 -0.0632781232023234 26.808134327680214 0 0 0 1 1 0 0 0 1 0 1.6328587739996765
2 5.0290622891564425 12.749684540278579 0 0 0 1 1 0 0 0 1 0 1.3123109738765053
1 -8.4905841681167047 -29.355377762901242 0 0 0 1 
1 8.6522319592960812 -29.355377762901242 0 0 0 1 
1 -5.1294271769949988 7.2181548710154715 0 0 0 1 
1 11.652231959296081 -26.355377762901242 0 0 0 1 
1 -11.490584168116705 7.2181548710154715 0 0 0 -1 
1 11.652231959296081 26.893522000021171 0 0 0 1 
1 -11.490584168116705 26.893522000021171 0 0 0 1 
1 8.6522319592960812 29.893522000021171 0 0 0 1 
1 -8.4905841681167047 29.893522000021171 0 0 0 1 
1 1.5786498355518086 -26.761515241539069 0 0 0 1 
1 -3.6142790636583846 -12.769992113688875 0 0 0 1 
1 6.2992430123143315 -12.829653931696942 0 0 0 1 
1 -3.667964528552607 12.803342418966096 0 0 0 1 
1 1.5695806507973531 26.808134327680214 0 0 0 1 
1 6.3413732630329473 12.749684540278579 0 0 0 1 
Polygon3D 0
PolygonOnTriangulations 0
Surfaces 33
1 -11.490584168116705 -29.355377762901242 0 1 0 0 0 0 1 0 -1 0 
1 -11.490584168116705 -29.355377762901242 2 0 0 1 1 0 0 0 1 0 
1 -12.490584168116705 -7.1228330408073646 0 0 1 0 1 0 0 0 0 -1 
1 -11.490584168116705 -29.355377762901242 0 0 0 1 1 0 0 0 1 0 
2 -8.4905841681167047 -26.355377762901242 0 0 0 1 -1 -0 0 0 -1 0 3
1 -8.8100056725558495 0.047660915104053729 2 0 0 1 1 0 -0 -0 1 0 
1 -5.1294271769949988 -7.1228330408073646 0 -1 0 0 0 1 0 0 0 -1 
2 8.6522319592960812 -26.355377762901242 0 0 0 1 1 0 -0 0 -1 -0 3
1 -5.1294271769949988 7.2181548710154715 0 0 -1 0 -1 0 0 -0 -0 -1 
2 8.6522319592960812 26.893522000021171 0 0 0 1 1 0 -0 -0 1 0 3
2 -8.4905841681167047 26.893522000021171 0 0 0 1 -1 -0 0 -0 1 -0 3
2 -0.038952122572958103 -26.761515241539069 0 -0 -0 -1 1 0 0 0 1 0 1.6176019581247667
1 -0.038952122572958166 -26.761515241539069 2 0 0 1 1 0 -0 -0 1 0 
2 -4.9299911356433661 -12.769992113688875 0 -0 -0 -1 1 0 0 0 1 0 1.3157120719849815
1 -4.9299911356433661 -12.769992113688875 2 0 0 1 1 0 -0 -0 1 0 
2 4.9927698560330853 -12.829653931696942 0 -0 -0 -1 1 0 0 0 1 0 1.3064731562812457
1 4.9927698560330853 -12.829653931696942 2 0 0 1 1 0 -0 -0 1 0 
2 -4.989610763770882 12.803342418966096 0 -0 -0 -1 1 0 0 0 1 0 1.321646235218275
1 -4.989610763770882 12.803342418966096 2 0 0 1 1 0 -0 -0 1 0 
2 -0.0632781232023234 26.808134327680214 0 -0 -0 -1 1 0 0 0 1 0 1.6328587739996765
1 -0.063278123202323733 26.808134327680214 2 0 0 1 1 0 -0 -0 1 0 
2 5.0290622891564425 12.749684540278579 0 -0 -0 -1 1 0 0 0 1 0 1.3123109738765053
1 5.0290622891564425 12.749684540278579 2 0 0 1 1 0 -0 -0 1 0 
1 -8.8100056725558495 0.047660915104053729 0 0 0 1 1 0 -0 -0 1 0 
1 -0.038952122572958166 -26.761515241539069 0 0 0 1 1 0 -0 -0 1 0 
1 -4.9299911356433661 -12.769992113688875 0 0 0 1 1 0 -0 -0 1 0 
1 4.9927698560330853 -12.829653931696942 0 0 0 1 1 0 -0 -0 1 0 
1 -4.989610763770882 12.803342418966096 0 0 0 1 1 0 -0 -0 1 0 
1 -0.063278123202323733 26.808134327680214 0 0 0 1 1 0 -0 -0 1 0 
1 5.0290622891564425 12.749684540278579 0 0 0 1 1 0 -0 -0 1 0 
1 -11.490584168116705 -29.355377762901242 0 0 1 0 0 0 1 1 0 0 
1 11.652231959296081 -29.355377762901242 0 1 0 0 0 0 1 0 -1 0 
1 -11.490584168116705 29.893522000021171 0 0 1 0 0 0 1 1 0 0 
Triangulations 0

TShapes 145
Ve
1e-07
-11.4905841681167 -26.3553777629012 2
0 0

0101101
*
Ve
1.5e-07
-11.4905841681167 -7.12283304080736 2
0 0

0101101
*
Ed
 1e-07 1 1 0
1  1 0 3 22.2325447220939
2  1 2 0 3 22.2325447220939
2  2 1 0 3 22.2325447220939
0

0101000
+145 2 -144 2 *
Ve
1.5e-07
-11.4905841681167 -7.12283304080736 0
0 0

0101101
*
Ed
 1.5e-07 1 1 0
1  2 0 0 2
2  3 1 1 0 2
2  4 3 0 0 2
0

0101000
+142 0 -144 0 *
Ve
1e-07
-11.4905841681167 -26.3553777629012 0
0 0

0101101
*
Ed
 1e-07 1 1 0
1  3 0 3 22.2325447220939
2  5 4 0 3 22.2325447220939
2  6 1 0 3 22.2325447220939
0

0101000
+140 2 -142 2 *
Ed
 1e-07 1 1 0
1  4 0 0 2
2  7 5 0 0 2
4 G1 1 1 5 0
2  8 1 1 0 2
0

0101000
+140 0 -145 0 *
Wi

0101100
-143 1 +141 0 +139 1 -138 0 *
Fa
0  1e-07 1 1

0101000
+137 0 *
Ve
1e-07
-8.4905841681167 -29.3553777629012 2
0 0

0101101
*
Ed
 1e-07 1 1 0
1  5 0 4.71238898038469 6.28318530717959
2  9 5 0 4.71238898038469 6.28318530717959
2  10 2 1 4.71238898038469 6.28318530717959
0

0101000
+145 0 -135 0 *
Ve
1e-07
-5.129427176995 -7.12283304080736 2
0 0

0101101
*
Ed
 1e-07 1 1 0
1  6 0 1 7.36115699112171
2  11 6 0 1 7.36115699112171
2  12 3 0 1 7.36115699112171
2  13 2 1 1 7.36115699112171
0

0101000
+144 0 -133 0 *
Ve
1e-07
8.65223195929608 -29.3553777629012 2
0 0

0101101
*
Ed
 1e-07 1 1 0
1  7 0 3 20.1428161274128
2  14 2 0 3 20.1428161274128
0

0101000
+135 2 -131 2 *
Ve
1e-07
-5.129427176995 7.21815487101547 2
0 0

0101101
*
Ed
 1e-07 1 1 0
1  8 0 0 14.3409879118228
2  15 6 0 0 14.3409879118228
2  16 7 0 0 14.3409879118228
2  17 2 1 0 14.3409879118228
0

0101000
+133 0 -129 0 *
Ve
1e-07
11.6522319592961 -26.3553777629012 2
0 0

0101101
*
Ed
 1e-07 1 1 0
1  9 0 4.71238898038469 6.28318530717959
2  18 8 0 4.71238898038469 6.28318530717959
2  19 2 1 4.71238898038469 6.28318530717959
0

0101000
+127 0 -131 0 *
Ve
1.5e-07
-11.4905841681167 7.21815487101547 2
0 0

0101101
*
Ed
 1e-07 1 1 0
1  10 0 0 6.36115699112171
2  20 6 0 0 6.36115699112171
2  21 9 0 0 6.36115699112171
2  22 2 1 0 6.36115699112171
0

0101000
+129 0 -125 0 *
Ve
1e-07
11.6522319592961 26.8935220000212 2
0 0

0101101
*
Ed
 1e-07 1 1 0
1  11 0 3 56.2488997629224
2  23 2 0 3 56.2488997629224
0

0101000
+127 2 -123 2 *
Ve
1e-07
-11.4905841681167 26.8935220000212 2
0 0

0101101
*
Ed
 1e-07 1 1 0
1  1 0 36.5735326339167 56.2488997629224
2  1 2 0 36.5735326339167 56.2488997629224
2  2 1 0 36.5735326339167 56.2488997629224
0

0101000
+125 2 -121 2 *
Ve
1e-07
8.65223195929608 29.8935220000212 2
0 0

0101101
*
Ed
 1e-07 1 1 0
1  12 0 1.5707963267949 3.14159265358979
2  24 10 0 1.5707963267949 3.14159265358979
2  25 2 1 1.5707963267949 3.14159265358979
0

0101000
+123 0 -119 0 *
Ve
1e-07
-8.4905841681167 29.8935220000212 2
0 0

0101101
*
Ed
 1e-07 1 1 0
1  13 0 1.5707963267949 3.14159265358979
2  26 11 0 1.5707963267949 3.14159265358979
2  27 2 1 1.5707963267949 3.14159265358979
0

0101000
+121 0 -117 0 *
Ed
 1e-07 1 1 0
1  14 0 3 20.1428161274128
2  28 2 0 3 20.1428161274128
0

0101000
+117 2 -119 2 *
Wi

0101100
-143 1 +134 0 -132 0 +130 1 -128 0 -126 0 -124 0 +122 1 -120 1 +118 0 
-116 0 -115 1 *
Ve
1e-07
1.57864983555181 -26.7615152415391 2
0 0

0101101
*
Ed
 1e-07 1 1 0
1  15 0 0 6.28318530717959
2  29 12 0 0 6.28318530717959
2  30 13 0 0 6.28318530717959
2  31 2 1 0 6.28318530717959
0

0101000
+113 0 -113 0 *
Wi

0101100
-112 0 *
Ve
1e-07
-3.61427906365838 -12.7699921136889 2
0 0

0101101
*
Ed
 1e-07 1 1 0
1  16 0 0 6.28318530717959
2  32 14 0 0 6.28318530717959
2  33 15 0 0 6.28318530717959
2  34 2 1 0 6.28318530717959
0

0101000
+110 0 -110 0 *
Wi

0101100
-109 0 *
Ve
1e-07
6.29924301231433 -12.8296539316969 2
0 0

0101101
*
Ed
 1e-07 1 1 0
1  17 0 0 6.28318530717959
2  35 16 0 0 6.28318530717959
2  36 17 0 0 6.28318530717959
2  37 2 1 0 6.28318530717959
0

0101000
+107 0 -107 0 *
Wi

0101100
-106 0 *
Ve
1e-07
-3.66796452855261 12.8033424189661 2
0 0

0101101
*
Ed
 1e-07 1 1 0
1  18 0 0 6.28318530717959
2  38 18 0 0 6.28318530717959
2  39 19 0 0 6.28318530717959
2  40 2 1 0 6.28318530717959
0

0101000
+104 0 -104 0 *
Wi

0101100
-103 0 *
Ve
1e-07
1.56958065079735 26.8081343276802 2
0 0

0101101
*
Ed
 1e-07 1 1 0
1  19 0 0 6.28318530717959
2  41 20 0 0 6.28318530717959
2  42 21 0 0 6.28318530717959
2  43 2 1 0 6.28318530717959
0

0101000
+101 0 -101 0 *
Wi

0101100
-100 0 *
Ve
1e-07
6.34137326303295 12.7496845402786 2
0 0

0101101
*
Ed
 1e-07 1 1 0
1  20 0 0 6.28318530717959
2  44 22 0 0 6.28318530717959
2  45 23 0 0 6.28318530717959
2  46 2 1 0 6.28318530717959
0

0101000
+98 0 -98 0 *
Wi

0101100
-97 0 *
Fa
0  1e-07 2 1

0101000
+114 0 +111 0 +108 0 +105 0 +102 0 +99 0 +96 0 *
Ve
1e-07
-5.129427176995 -7.12283304080736 0
0 0

0101101
*
Ed
 1e-07 1 1 0
1  21 0 1 7.36115699112171
2  47 24 0 1 7.36115699112171
2  48 3 0 1 7.36115699112171
2  49 4 1 1 7.36115699112171
0

0101000
+142 0 -94 0 *
Ed
 1e-07 1 1 0
1  22 0 0 2
2  50 3 0 0 2
2  51 7 0 0 2
0

0101000
+94 0 -133 0 *
Wi

0101100
-93 0 -92 0 +132 0 +141 0 *
Fa
0  1e-07 3 0

0101000
+91 0 *
Ve
1e-07
-8.4905841681167 -29.3553777629012 0
0 0

0101101
*
Ed
 1e-07 1 1 0
1  23 0 4.71238898038469 6.28318530717959
2  52 5 0 4.71238898038469 6.28318530717959
2  53 4 1 4.71238898038469 6.28318530717959
0

0101000
+140 0 -89 0 *
Ve
1e-07
8.65223195929608 -29.3553777629012 0
0 0

0101101
*
Ed
 1e-07 1 1 0
1  24 0 3 20.1428161274128
2  54 4 0 3 20.1428161274128
0

0101000
+89 2 -87 2 *
Ve
1e-07
-5.129427176995 7.21815487101547 0
0 0

0101101
*
Ed
 1e-07 1 1 0
1  25 0 0 14.3409879118228
2  55 24 0 0 14.3409879118228
2  56 7 0 0 14.3409879118228
2  57 4 1 0 14.3409879118228
0

0101000
+94 0 -85 0 *
Ve
1e-07
11.6522319592961 -26.3553777629012 0
0 0

0101101
*
Ed
 1e-07 1 1 0
1  26 0 4.71238898038469 6.28318530717959
2  58 8 0 4.71238898038469 6.28318530717959
2  59 4 1 4.71238898038469 6.28318530717959
0

0101000
+83 0 -87 0 *
Ve
1.5e-07
-11.4905841681167 7.21815487101547 0
0 0

0101101
*
Ed
 1e-07 1 1 0
1  27 0 0 6.36115699112171
2  60 24 0 0 6.36115699112171
2  61 9 0 0 6.36115699112171
2  62 4 1 0 6.36115699112171
0

0101000
+85 0 -81 0 *
Ve
1e-07
11.6522319592961 26.8935220000212 0
0 0

0101101
*
Ed
 1e-07 1 1 0
1  28 0 3 56.2488997629224
2  63 4 0 3 56.2488997629224
0

0101000
+83 2 -79 2 *
Ve
1e-07
-11.4905841681167 26.8935220000212 0
0 0

0101101
*
Ed
 1e-07 1 1 0
1  3 0 36.5735326339167 56.2488997629224
2  5 4 0 36.5735326339167 56.2488997629224
2  6 1 0 36.5735326339167 56.2488997629224
0

0101000
+81 2 -77 2 *
Ve
1e-07
8.65223195929608 29.8935220000212 0
0 0

0101101
*
Ed
 1e-07 1 1 0
1  29 0 1.5707963267949 3.14159265358979
2  64 10 0 1.5707963267949 3.14159265358979
2  65 4 1 1.5707963267949 3.14159265358979
0

0101000
+79 0 -75 0 *
Ve
1e-07
-8.4905841681167 29.8935220000212 0
0 0

0101101
*
Ed
 1e-07 1 1 0
1  30 0 1.5707963267949 3.14159265358979
2  66 11 0 1.5707963267949 3.14159265358979
2  67 4 1 1.5707963267949 3.14159265358979
0

0101000
+77 0 -73 0 *
Ed
 1e-07 1 1 0
1  31 0 3 20.1428161274128
2  68 4 0 3 20.1428161274128
0

0101000
+73 2 -75 2 *
Wi

0101100
-139 1 +88 0 -93 0 +86 1 -84 0 -82 0 -80 0 +78 1 -76 1 +74 0 
-72 0 -71 1 *
Ve
1e-07
1.57864983555181 -26.7615152415391 0
0 0

0101101
*
Ed
 1e-07 1 1 0
1  32 0 0 6.28318530717959
2  69 12 0 0 6.28318530717959
2  70 25 0 0 6.28318530717959
2  71 4 1 0 6.28318530717959
0

0101000
+69 0 -69 0 *
Wi

0101100
-68 0 *
Ve
1e-07
-3.61427906365838 -12.7699921136889 0
0 0

0101101
*
Ed
 1e-07 1 1 0
1  33 0 0 6.28318530717959
2  72 14 0 0 6.28318530717959
2  73 26 0 0 6.28318530717959
2  74 4 1 0 6.28318530717959
0

0101000
+66 0 -66 0 *
Wi

0101100
-65 0 *
Ve
1e-07
6.29924301231433 -12.8296539316969 0
0 0

0101101
*
Ed
 1e-07 1 1 0
1  34 0 0 6.28318530717959
2  75 16 0 0 6.28318530717959
2  76 27 0 0 6.28318530717959
2  77 4 1 0 6.28318530717959
0

0101000
+63 0 -63 0 *
Wi

0101100
-62 0 *
Ve
1e-07
-3.66796452855261 12.8033424189661 0
0 0

0101101
*
Ed
 1e-07 1 1 0
1  35 0 0 6.28318530717959
2  78 18 0 0 6.28318530717959
2  79 28 0 0 6.28318530717959
2  80 4 1 0 6.28318530717959
0

0101000
+60 0 -60 0 *
Wi

0101100
-59 0 *
Ve
1e-07
1.56958065079735 26.8081343276802 0
0 0

0101101
*
Ed
 1e-07 1 1 0
1  36 0 0 6.28318530717959
2  81 20 0 0 6.28318530717959
2  82 29 0 0 6.28318530717959
2  83 4 1 0 6.28318530717959
0

0101000
+57 0 -57 0 *
Wi

0101100
-56 0 *
Ve
1e-07
6.34137326303295 12.7496845402786 0
0 0

0101101
*
Ed
 1e-07 1 1 0
1  37 0 0 6.28318530717959
2  84 22 0 0 6.28318530717959
2  85 30 0 0 6.28318530717959
2  86 4 1 0 6.28318530717959
0

0101000
+54 0 -54 0 *
Wi

0101100
-53 0 *
Fa
0  1e-07 4 1

0101000
+70 0 +67 0 +64 0 +61 0 +58 0 +55 0 +52 0 *
Ed
 1e-07 1 1 0
1  38 0 0 2
2  87 5 0 0 2
4 G1 5 0 31 1
0

0101000
+89 0 -135 0 *
Wi

0101100
+88 0 -138 0 +50 0 -134 0 *
Fa
0  1e-07 5 0

0101000
+49 0 *
Ed
 1e-07 1 1 0
1  39 0 0 2
2  88 8 0 0 2
4 G1 31 1 8 0
0

0101000
+87 0 -131 0 *
Wi

0101100
-86 1 +50 0 -47 0 +130 1 *
Fa
0  1e-07 31 0

0101000
+46 2 *
Ed
 1e-07 1 1 0
1  40 0 0 2
2  89 9 0 0 2
2  90 7 0 0 2
0

0101000
+85 0 -129 0 *
Wi

0101100
+92 0 -44 0 -84 0 +128 0 *
Fa
0  1e-07 7 0

0101000
+43 0 *
Ed
 1e-07 1 1 0
1  41 0 0 2
2  91 8 0 0 2
4 G1 8 0 32 1
0

0101000
+83 0 -127 0 *
Wi

0101100
+82 0 -41 0 +47 0 -126 0 *
Fa
0  1e-07 8 0

0101000
+40 0 *
Ed
 1.5e-07 1 1 0
1  42 0 -2 0
2  92 1 1 -2 0
2  93 9 0 -2 0
0

0101000
+125 0 -81 0 *
Wi

0101100
-80 0 +38 0 +124 0 +44 0 *
Fa
0  1e-07 9 0

0101000
+37 0 *
Ed
 1e-07 1 1 0
1  43 0 0 2
2  94 10 0 0 2
4 G1 10 0 32 1
0

0101000
+79 0 -123 0 *
Wi

0101100
-122 1 -41 0 +35 0 +78 1 *
Fa
0  1e-07 32 0

0101000
+34 2 *
Ed
 1e-07 1 1 0
1  44 0 0 2
2  95 11 0 0 2
4 G1 1 1 11 0
2  96 1 1 0 2
0

0101000
+77 0 -121 0 *
Wi

0101100
-120 1 +32 0 +76 1 +38 0 *
Fa
0  1e-07 1 1

0101000
+31 0 *
Ed
 1e-07 1 1 0
1  45 0 0 2
2  97 10 0 0 2
4 G1 33 1 10 0
0

0101000
+75 0 -119 0 *
Wi

0101100
+74 0 -35 0 +29 0 -118 0 *
Fa
0  1e-07 10 0

0101000
+28 0 *
Ed
 1e-07 1 1 0
1  46 0 0 2
2  98 11 0 0 2
4 G1 11 0 33 1
0

0101000
+73 0 -117 0 *
Wi

0101100
+72 0 -32 0 +26 0 -116 0 *
Fa
0  1e-07 11 0

0101000
+25 0 *
Wi

0101100
-71 1 +26 0 -29 0 +115 1 *
Fa
0  1e-07 33 0

0101000
+23 2 *
Ed
 1e-07 1 1 0
1  47 0 0 2
3  99 100CN 12 0 0 2
0

0101000
+69 0 -113 0 *
Wi

0101100
+21 0 -21 0 -68 0 +112 0 *
Fa
0  1e-07 12 0

0101000
+20 0 *
Ed
 1e-07 1 1 0
1  48 0 0 2
3  101 102CN 14 0 0 2
0

0101000
+66 0 -110 0 *
Wi

0101100
+18 0 -18 0 -65 0 +109 0 *
Fa
0  1e-07 14 0

0101000
+17 0 *
Ed
 1e-07 1 1 0
1  49 0 0 2
3  103 104CN 16 0 0 2
0

0101000
+63 0 -107 0 *
Wi

0101100
+15 0 -15 0 -62 0 +106 0 *
Fa
0  1e-07 16 0

0101000
+14 0 *
Ed
 1e-07 1 1 0
1  50 0 0 2
3  105 106CN 18 0 0 2
0

0101000
+60 0 -104 0 *
Wi

0101100
+12 0 -12 0 -59 0 +103 0 *
Fa
0  1e-07 18 0

0101000
+11 0 *
Ed
 1e-07 1 1 0
1  51 0 0 2
3  107 108CN 20 0 0 2
0

0101000
+57 0 -101 0 *
Wi

0101100
+9 0 -9 0 -56 0 +100 0 *
Fa
0  1e-07 20 0

0101000
+8 0 *
Ed
 1e-07 1 1 0
1  52 0 0 2
3  109 110CN 22 0 0 2
0

0101000
+54 0 -98 0 *
Wi

0101100
+6 0 -6 0 -53 0 +97 0 *
Fa
0  1e-07 22 0

0101000
+5 0 *
Sh

0101100
-136 0 +95 0 +90 0 -51 0 +48 0 -45 1 +42 0 -39 0 +36 0 +33 1 
-30 0 +27 0 -24 0 +22 1 +19 0 +16 0 +13 0 +10 0 +7 0 +4 0 
*
So

0100000
+3 0 *
Co

1100000
+2 0 *

+1 0 