DBRep_DrawableShape

CASCADE Topology V3, (c) Open Cascade
Locations 0
Curve2ds 168
1 0 0 1 0 
1 0 0 1 0 
1 1.6000000000000001 0 0 -1 
1 0 0 0 1 
1 0 -56 1 0 
1 0 0 1 0 
1 0 0 0 -1 
1 0 0 0 1 
1 0 0 0 1 
1 0 0 1 0 
1 0 0 1 0 
1 0 85 1 0 
1 1.6000000000000001 0 0 1 
1 0 0 1 0 
1 1.6000000000000001 0 0 1 
1 0 56 1 0 
1 1.6000000000000001 0 0 -1 
1 85 0 0 1 
2 3.5 3.5 1 0 -0 1 1.3999999999999999
1 0 2.6000000000000001 1 0 
2 61.5 3.5 1 0 -0 1 1.3999999999999999
1 0 2.6000000000000001 1 0 
2 3.5 52.5 1 0 -0 1 1.3999999999999999
1 0 2.6000000000000001 1 0 
2 61.5 52.5 1 0 -0 1 1.3999999999999999
1 0 2.6000000000000001 1 0 
1 0 0 0 1 
1 0 56 1 0 
1 0 -56 1 0 
1 0 85 1 0 
1 0 0 0 -1 
1 85 0 0 1 
2 3.5 3.5 1 0 -0 1 1.3999999999999999
1 0 1 1 0 
2 61.5 3.5 1 0 -0 1 1.3999999999999999
1 0 1 1 0 
2 3.5 52.5 1 0 -0 1 1.3999999999999999
1 0 1 1 0 
2 61.5 52.5 1 0 -0 1 1.3999999999999999
1 0 1 1 0 
1 6.2831853071795862 -0 0 1 
1 0 -0 0 1 
1 6.2831853071795862 -0 0 1 
1 0 -0 0 1 
1 6.2831853071795862 -0 0 1 
1 0 -0 0 1 
1 6.2831853071795862 -0 0 1 
1 0 -0 0 1 
1 0 0 1 0 
1 0 0 1 0 
1 8 0 0 -1 
1 0 0 0 1 
1 0 -3.9200000000000017 1 0 
1 0 0 1 0 
1 0 0 0 -1 
1 0 0 0 1 
1 0 0 1 0 
1 0 51 1 0 
1 8 0 0 -1 
1 51 0 0 1 
1 0 -3.9200000000000017 1 0 
1 0 51 1 0 
1 0 0 0 -1 
1 51 0 0 1 
1 0 0 0 1 
1 0 0 1 0 
1 8 0 0 1 
1 0 0 1 0 
1 0 0 0 1 
1 0 3.9200000000000017 1 0 
1 8 0 0 1 
1 0 3.9200000000000017 1 0 
1 0 0 1 0 
1 0 0 1 0 
1 15.000000000000002 0 0 -1 
1 0 0 0 1 
1 0 -14 1 0 
1 0 0 1 0 
1 0 0 0 -1 
1 0 0 0 1 
1 0 0 1 0 
1 0 17 1 0 
1 15.000000000000002 0 0 -1 
1 17 0 0 1 
1 0 -14 1 0 
1 0 17 1 0 
1 0 0 0 -1 
1 17 0 0 1 
1 0 0 0 1 
1 0 0 1 0 
1 15.000000000000002 0 0 1 
1 0 0 1 0 
1 0 0 0 1 
1 0 14 1 0 
1 15.000000000000002 0 0 1 
1 0 14 1 0 
1 0 0 1 0 
1 0 0 1 0 
1 3.2000000000000006 0 0 -1 
1 0 0 0 1 
1 0 -4.4800000000000004 1 0 
1 0 0 1 0 
1 0 0 0 -1 
1 0 0 0 1 
1 0 0 1 0 
1 0 7.6499999999999986 1 0 
1 3.2000000000000006 0 0 -1 
1 7.6499999999999986 0 0 1 
1 0 -4.4800000000000004 1 0 
1 0 7.6499999999999986 1 0 
1 0 0 0 -1 
1 7.6499999999999986 0 0 1 
1 0 0 0 1 
1 0 0 1 0 
1 3.2000000000000006 0 0 1 
1 0 0 1 0 
1 0 0 0 1 
1 0 4.4800000000000004 1 0 
1 3.2000000000000006 0 0 1 
1 0 4.4800000000000004 1 0 
1 0 0 1 0 
1 0 0 1 0 
1 3.2000000000000006 0 0 -1 
1 0 0 0 1 
1 0 -13.44 1 0 
1 0 0 1 0 
1 0 0 0 -1 
1 0 0 0 1 
1 0 0 1 0 
1 0 5.0999999999999979 1 0 
1 3.2000000000000006 0 0 -1 
1 5.0999999999999979 0 0 1 
1 0 -13.44 1 0 
1 0 5.0999999999999979 1 0 
1 0 0 0 -1 
1 5.0999999999999979 0 0 1 
1 0 0 0 1 
1 0 0 1 0 
1 3.2000000000000006 0 0 1 
1 0 0 1 0 
1 0 0 0 1 
1 0 13.44 1 0 
1 3.2000000000000006 0 0 1 
1 0 13.44 1 0 
1 0 0 1 0 
1 0 0 1 0 
1 3.2000000000000006 0 0 -1 
1 0 0 0 1 
1 0 -13.44 1 0 
1 0 0 1 0 
1 0 0 0 -1 
1 0 0 0 1 
1 0 0 1 0 
1 0 5.1000000000000014 1 0 
1 3.2000000000000006 0 0 -1 
1 5.1000000000000014 0 0 1 
1 0 -13.44 1 0 
1 0 5.1000000000000014 1 0 
1 0 0 0 -1 
1 5.1000000000000014 0 0 1 
1 0 0 0 1 
1 0 0 1 0 
1 3.2000000000000006 0 0 1 
1 0 0 1 0 
1 0 0 0 1 
1 0 13.44 1 0 
1 3.2000000000000006 0 0 1 
1 0 13.44 1 0 
Curves 108
1 0 0 0 0 0 1 
1 0 0 1.6000000000000001 -0 1 0 
1 0 56 0 0 0 1 
1 0 0 0 -0 1 0 
1 0 0 0 1 0 -0 
1 85 0 0 0 0 1 
1 0 0 1.6000000000000001 1 0 -0 
1 0 56 1.6000000000000001 1 0 -0 
1 85 0 1.6000000000000001 -0 1 0 
2 3.5 3.5 1.6000000000000001 0 0 1 1 0 -0 -0 1 0 1.3999999999999999
2 61.5 3.5 1.6000000000000001 0 0 1 1 0 -0 -0 1 0 1.3999999999999999
2 3.5 52.5 1.6000000000000001 0 0 1 1 0 -0 -0 1 0 1.3999999999999999
2 61.5 52.5 1.6000000000000001 0 0 1 1 0 -0 -0 1 0 1.3999999999999999
1 0 56 0 1 0 -0 
1 85 56 0 0 0 1 
1 85 0 0 -0 1 0 
2 3.5 3.5 0 0 0 1 1 0 -0 -0 1 0 1.3999999999999999
2 61.5 3.5 0 0 0 1 1 0 -0 -0 1 0 1.3999999999999999
2 3.5 52.5 0 0 0 1 1 0 -0 -0 1 0 1.3999999999999999
2 61.5 52.5 0 0 0 1 1 0 -0 -0 1 0 1.3999999999999999
1 4.9000000000000004 3.4999999999999996 -1 0 0 1 
1 62.899999999999999 3.4999999999999996 -1 0 0 1 
1 4.9000000000000004 52.5 -1 0 0 1 
1 62.899999999999999 52.5 -1 0 0 1 
1 6.7999999999999998 47.600000000000001 1.6000000000000001 0 0 1 
1 6.7999999999999998 47.600000000000001 9.5999999999999996 -0 1 0 
1 6.7999999999999998 51.520000000000003 1.6000000000000001 0 0 1 
1 6.7999999999999998 47.600000000000001 1.6000000000000001 -0 1 0 
1 57.799999999999997 47.600000000000001 1.6000000000000001 0 0 1 
1 57.799999999999997 47.600000000000001 9.5999999999999996 -0 1 0 
1 57.799999999999997 51.520000000000003 1.6000000000000001 0 0 1 
1 57.799999999999997 47.600000000000001 1.6000000000000001 -0 1 0 
1 6.7999999999999998 47.600000000000001 1.6000000000000001 1 0 -0 
1 6.7999999999999998 47.600000000000001 9.5999999999999996 1 0 -0 
1 6.7999999999999998 51.520000000000003 1.6000000000000001 1 0 -0 
1 6.7999999999999998 51.520000000000003 9.5999999999999996 1 0 -0 
1 68 2.7999999999999972 1.6000000000000001 0 0 1 
1 68 2.7999999999999972 15.1 -0 1 0 
1 68 19.039999999999999 1.6000000000000001 0 0 1 
1 68 2.7999999999999972 1.6000000000000001 -0 1 0 
1 85 2.7999999999999972 1.6000000000000001 0 0 1 
1 85 2.7999999999999972 15.1 -0 1 0 
1 85 19.039999999999999 1.6000000000000001 0 0 1 
1 85 2.7999999999999972 1.6000000000000001 -0 1 0 
1 68 2.7999999999999972 1.6000000000000001 1 0 -0 
1 68 2.7999999999999972 15.1 1 0 -0 
1 68 19.039999999999999 1.6000000000000001 1 0 -0 
1 68 19.039999999999999 15.1 1 0 -0 
1 68 21.280000000000001 1.6000000000000001 0 0 1 
1 68 21.280000000000001 16.600000000000001 -0 1 0 
1 68 35.280000000000001 1.6000000000000001 0 0 1 
1 68 21.280000000000001 1.6000000000000001 -0 1 0 
1 85 21.280000000000001 1.6000000000000001 0 0 1 
1 85 21.280000000000001 16.600000000000001 -0 1 0 
1 85 35.280000000000001 1.6000000000000001 0 0 1 
1 85 21.280000000000001 1.6000000000000001 -0 1 0 
1 68 21.280000000000001 1.6000000000000001 1 0 -0 
1 68 21.280000000000001 16.600000000000001 1 0 -0 
1 68 35.280000000000001 1.6000000000000001 1 0 -0 
1 68 35.280000000000001 16.600000000000001 1 0 -0 
1 68 39.199999999999996 1.6000000000000001 0 0 1 
1 68 39.199999999999996 16.600000000000001 -0 1 0 
1 68 53.200000000000003 1.6000000000000001 0 0 1 
1 68 39.199999999999996 1.6000000000000001 -0 1 0 
1 85 39.199999999999996 1.6000000000000001 0 0 1 
1 85 39.199999999999996 16.600000000000001 -0 1 0 
1 85 53.200000000000003 1.6000000000000001 0 0 1 
1 85 39.199999999999996 1.6000000000000001 -0 1 0 
1 68 39.199999999999996 1.6000000000000001 1 0 -0 
1 68 39.199999999999996 16.600000000000001 1 0 -0 
1 68 53.200000000000003 1.6000000000000001 1 0 -0 
1 68 53.200000000000003 16.600000000000001 1 0 -0 
1 17 0 1.6000000000000001 0 0 1 
1 17 0 4.8000000000000007 -0 1 0 
1 17 4.4800000000000004 1.6000000000000001 0 0 1 
1 17 0 1.6000000000000001 -0 1 0 
1 24.649999999999999 0 1.6000000000000001 0 0 1 
1 24.649999999999999 0 4.8000000000000007 -0 1 0 
1 24.649999999999999 4.4800000000000004 1.6000000000000001 0 0 1 
1 24.649999999999999 0 1.6000000000000001 -0 1 0 
1 17 0 1.6000000000000001 1 0 -0 
1 17 0 4.8000000000000007 1 0 -0 
1 17 4.4800000000000004 1.6000000000000001 1 0 -0 
1 17 4.4800000000000004 4.8000000000000007 1 0 -0 
1 28.900000000000002 11.200000000000001 1.6000000000000001 0 0 1 
1 28.900000000000002 11.200000000000001 4.8000000000000007 -0 1 0 
1 28.900000000000002 24.640000000000001 1.6000000000000001 0 0 1 
1 28.900000000000002 11.200000000000001 1.6000000000000001 -0 1 0 
1 34 11.200000000000001 1.6000000000000001 0 0 1 
1 34 11.200000000000001 4.8000000000000007 -0 1 0 
1 34 24.640000000000001 1.6000000000000001 0 0 1 
1 34 11.200000000000001 1.6000000000000001 -0 1 0 
1 28.900000000000002 11.200000000000001 1.6000000000000001 1 0 -0 
1 28.900000000000002 11.200000000000001 4.8000000000000007 1 0 -0 
1 28.900000000000002 24.640000000000001 1.6000000000000001 1 0 -0 
1 28.900000000000002 24.640000000000001 4.8000000000000007 1 0 -0 
1 39.949999999999996 11.200000000000001 1.6000000000000001 0 0 1 
1 39.949999999999996 11.200000000000001 4.8000000000000007 -0 1 0 
1 39.949999999999996 24.640000000000001 1.6000000000000001 0 0 1 
1 39.949999999999996 11.200000000000001 1.6000000000000001 -0 1 0 
1 45.049999999999997 11.200000000000001 1.6000000000000001 0 0 1 
1 45.049999999999997 11.200000000000001 4.8000000000000007 -0 1 0 
1 45.049999999999997 24.640000000000001 1.6000000000000001 0 0 1 
1 45.049999999999997 11.200000000000001 1.6000000000000001 -0 1 0 
1 39.949999999999996 11.200000000000001 1.6000000000000001 1 0 -0 
1 39.949999999999996 11.200000000000001 4.8000000000000007 1 0 -0 
1 39.949999999999996 24.640000000000001 1.6000000000000001 1 0 -0 
1 39.949999999999996 24.640000000000001 4.8000000000000007 1 0 -0 
Polygon3D 0
PolygonOnTriangulations 0
Surfaces 52
1 0 0 0 1 0 -0 0 0 1 0 -1 0 
1 0 0 0 -0 1 0 0 0 1 1 0 -0 
1 0 0 1.6000000000000001 0 0 1 1 0 -0 -0 1 0 
1 0 56 0 -0 1 0 0 0 1 1 0 -0 
1 0 0 0 0 0 1 1 0 -0 -0 1 0 
1 85 0 0 1 0 -0 0 0 1 0 -1 0 
2 3.5 3.5 -1 0 0 1 1 0 -0 -0 1 0 1.3999999999999999
2 61.5 3.5 -1 0 0 1 1 0 -0 -0 1 0 1.3999999999999999
2 3.5 52.5 -1 0 0 1 1 0 -0 -0 1 0 1.3999999999999999
2 61.5 52.5 -1 0 0 1 1 0 -0 -0 1 0 1.3999999999999999
1 6.7999999999999998 47.600000000000001 1.6000000000000001 1 0 -0 0 0 1 0 -1 0 
1 6.7999999999999998 47.600000000000001 1.6000000000000001 -0 1 0 0 0 1 1 0 -0 
1 6.7999999999999998 47.600000000000001 9.5999999999999996 0 0 1 1 0 -0 -0 1 0 
1 6.7999999999999998 51.520000000000003 1.6000000000000001 -0 1 0 0 0 1 1 0 -0 
1 6.7999999999999998 47.600000000000001 1.6000000000000001 0 0 1 1 0 -0 -0 1 0 
1 57.799999999999997 47.600000000000001 1.6000000000000001 1 0 -0 0 0 1 0 -1 0 
1 68 2.7999999999999972 1.6000000000000001 1 0 -0 0 0 1 0 -1 0 
1 85 2.7999999999999972 1.6000000000000001 1 0 -0 0 0 1 0 -1 0 
1 68 2.7999999999999972 1.6000000000000001 -0 1 0 0 0 1 1 0 -0 
1 68 19.039999999999999 1.6000000000000001 -0 1 0 0 0 1 1 0 -0 
1 68 2.7999999999999972 1.6000000000000001 0 0 1 1 0 -0 -0 1 0 
1 68 2.7999999999999972 15.1 0 0 1 1 0 -0 -0 1 0 
1 68 21.280000000000001 1.6000000000000001 1 0 -0 0 0 1 0 -1 0 
1 68 21.280000000000001 1.6000000000000001 -0 1 0 0 0 1 1 0 -0 
1 68 21.280000000000001 16.600000000000001 0 0 1 1 0 -0 -0 1 0 
1 68 35.280000000000001 1.6000000000000001 -0 1 0 0 0 1 1 0 -0 
1 68 21.280000000000001 1.6000000000000001 0 0 1 1 0 -0 -0 1 0 
1 85 21.280000000000001 1.6000000000000001 1 0 -0 0 0 1 0 -1 0 
1 68 39.199999999999996 1.6000000000000001 1 0 -0 0 0 1 0 -1 0 
1 85 39.199999999999996 1.6000000000000001 1 0 -0 0 0 1 0 -1 0 
1 68 39.199999999999996 1.6000000000000001 -0 1 0 0 0 1 1 0 -0 
1 68 53.200000000000003 1.6000000000000001 -0 1 0 0 0 1 1 0 -0 
1 68 39.199999999999996 1.6000000000000001 0 0 1 1 0 -0 -0 1 0 
1 68 39.199999999999996 16.600000000000001 0 0 1 1 0 -0 -0 1 0 
1 17 0 1.6000000000000001 1 0 -0 0 0 1 0 -1 0 
1 17 0 1.6000000000000001 -0 1 0 0 0 1 1 0 -0 
1 17 0 4.8000000000000007 0 0 1 1 0 -0 -0 1 0 
1 17 4.4800000000000004 1.6000000000000001 -0 1 0 0 0 1 1 0 -0 
1 17 0 1.6000000000000001 0 0 1 1 0 -0 -0 1 0 
1 24.649999999999999 0 1.6000000000000001 1 0 -0 0 0 1 0 -1 0 
1 28.900000000000002 11.200000000000001 1.6000000000000001 1 0 -0 0 0 1 0 -1 0 
1 28.900000000000002 11.200000000000001 1.6000000000000001 -0 1 0 0 0 1 1 0 -0 
1 28.900000000000002 11.200000000000001 4.8000000000000007 0 0 1 1 0 -0 -0 1 0 
1 28.900000000000002 24.640000000000001 1.6000000000000001 -0 1 0 0 0 1 1 0 -0 
1 28.900000000000002 11.200000000000001 1.6000000000000001 0 0 1 1 0 -0 -0 1 0 
1 34 11.200000000000001 1.6000000000000001 1 0 -0 0 0 1 0 -1 0 
1 39.949999999999996 11.200000000000001 1.6000000000000001 1 0 -0 0 0 1 0 -1 0 
1 39.949999999999996 11.200000000000001 1.6000000000000001 -0 1 0 0 0 1 1 0 -0 
1 39.949999999999996 11.200000000000001 4.8000000000000007 0 0 1 1 0 -0 -0 1 0 
1 39.949999999999996 24.640000000000001 1.6000000000000001 -0 1 0 0 0 1 1 0 -0 
1 39.949999999999996 11.200000000000001 1.6000000000000001 0 0 1 1 0 -0 -0 1 0 
1 45.049999999999997 11.200000000000001 1.6000000000000001 1 0 -0 0 0 1 0 -1 0 
Triangulations 0

TShapes 309
Ve
1e-07
0 0 1.6
0 0

0101101
*
Ve
1e-07
0 0 0
0 0

0101101
*
Ed
 1e-07 1 1 0
1  1 0 0 1.6
2  1 1 0 0 1.6
2  2 2 0 0 1.6
0

0101000
-309 0 +308 0 *
Ve
1e-07
0 56 1.6
0 0

0101101
*
Ed
 1e-07 1 1 0
1  2 0 0 56
2  3 1 0 0 56
2  4 3 0 0 56
0

0101000
-306 0 +309 0 *
Ve
1e-07
0 56 0
0 0

0101101
*
Ed
 1e-07 1 1 0
1  3 0 0 1.6
2  5 1 0 0 1.6
2  6 4 0 0 1.6
0

0101000
-306 0 +304 0 *
Ed
 1e-07 1 1 0
1  4 0 0 56
2  7 1 0 0 56
2  8 5 0 0 56
0

0101000
-304 0 +308 0 *
Wi

0101100
-307 0 -305 0 +303 0 +302 0 *
Fa
0  1e-07 1 0

0111000
+301 0 *
Ve
1e-07
85 0 0
0 0

0101101
*
Ed
 1e-07 1 1 0
1  5 0 0 85
2  9 2 0 0 85
2  10 5 0 0 85
0

0101000
-299 0 +308 0 *
Ve
1e-07
85 0 1.6
0 0

0101101
*
Ed
 1e-07 1 1 0
1  6 0 0 1.6
2  11 6 0 0 1.6
2  12 2 0 0 1.6
0

0101000
-297 0 +299 0 *
Ed
 1e-07 1 1 0
1  7 0 0 85
2  13 2 0 0 85
2  14 3 0 0 85
0

0101000
-297 0 +309 0 *
Wi

0101100
-298 0 -296 0 +295 0 +307 0 *
Fa
0  1e-07 2 0

0111000
+294 0 *
Ve
1e-07
85 56 1.6
0 0

0101101
*
Ed
 1e-07 1 1 0
1  8 0 0 85
2  15 4 0 0 85
2  16 3 0 0 85
0

0101000
-292 0 +306 0 *
Ed
 1e-07 1 1 0
1  9 0 0 56
2  17 6 0 0 56
2  18 3 0 0 56
0

0101000
-292 0 +297 0 *
Wi

0101100
-305 0 -291 0 +295 0 +290 0 *
Ve
1.00000000444089e-07
4.9 3.5 1.6
0 0

0101101
*
Ed
 1e-07 1 1 0
1  10 0 0 6.28318530717959
2  19 3 0 0 6.28318530717959
2  20 7 0 0 6.28318530717959
0

0101100
+288 0 -288 0 *
Wi

0101100
-287 0 *
Ve
1.00000000444089e-07
62.9 3.5 1.6
0 0

0101101
*
Ed
 1e-07 1 1 0
1  11 0 0 6.28318530717959
2  21 3 0 0 6.28318530717959
2  22 8 0 0 6.28318530717959
0

0101100
+285 0 -285 0 *
Wi

0101100
-284 0 *
Ve
1e-07
4.9 52.5 1.6
0 0

0101101
*
Ed
 1e-07 1 1 0
1  12 0 0 6.28318530717959
2  23 3 0 0 6.28318530717959
2  24 9 0 0 6.28318530717959
0

0101100
+282 0 -282 0 *
Wi

0101100
-281 0 *
Ve
1e-07
62.9 52.5 1.6
0 0

0101101
*
Ed
 1e-07 1 1 0
1  13 0 0 6.28318530717959
2  25 3 0 0 6.28318530717959
2  26 10 0 0 6.28318530717959
0

0101100
+279 0 -279 0 *
Wi

0101100
-278 0 *
Fa
0  1e-07 3 0

0101000
+289 0 +286 0 +283 0 +280 0 +277 0 *
Ve
1e-07
85 56 0
0 0

0101101
*
Ed
 1e-07 1 1 0
1  14 0 0 85
2  27 4 0 0 85
2  28 5 0 0 85
0

0101000
-275 0 +304 0 *
Ed
 1e-07 1 1 0
1  15 0 0 1.6
2  29 6 0 0 1.6
2  30 4 0 0 1.6
0

0101000
-292 0 +275 0 *
Wi

0101100
-274 0 -273 0 +291 0 +303 0 *
Fa
0  1e-07 4 0

0111000
+272 0 *
Ed
 1e-07 1 1 0
1  16 0 0 56
2  31 6 0 0 56
2  32 5 0 0 56
0

0101000
-275 0 +299 0 *
Wi

0101100
-302 0 -274 0 +298 0 +270 0 *
Ve
1.00000000444089e-07
4.9 3.5 0
0 0

0101101
*
Ed
 1e-07 1 1 0
1  17 0 0 6.28318530717959
2  33 5 0 0 6.28318530717959
2  34 7 0 0 6.28318530717959
0

0101100
+268 0 -268 0 *
Wi

0101100
-267 0 *
Ve
1.00000000444089e-07
62.9 3.5 0
0 0

0101101
*
Ed
 1e-07 1 1 0
1  18 0 0 6.28318530717959
2  35 5 0 0 6.28318530717959
2  36 8 0 0 6.28318530717959
0

0101100
+265 0 -265 0 *
Wi

0101100
-264 0 *
Ve
1e-07
4.9 52.5 0
0 0

0101101
*
Ed
 1e-07 1 1 0
1  19 0 0 6.28318530717959
2  37 5 0 0 6.28318530717959
2  38 9 0 0 6.28318530717959
0

0101100
+262 0 -262 0 *
Wi

0101100
-261 0 *
Ve
1e-07
62.9 52.5 0
0 0

0101101
*
Ed
 1e-07 1 1 0
1  20 0 0 6.28318530717959
2  39 5 0 0 6.28318530717959
2  40 10 0 0 6.28318530717959
0

0101100
+259 0 -259 0 *
Wi

0101100
-258 0 *
Fa
0  1e-07 5 0

0101000
+269 0 +266 0 +263 0 +260 0 +257 0 *
Wi

0101100
-296 0 -290 0 +273 0 +270 0 *
Fa
0  1e-07 6 0

0111000
+255 0 *
Ed
 1e-07 1 1 0
1  21 0 1 2.6
3  41 42CN 7 0 1 2.6
0

0101000
+268 0 -288 0 *
Wi

0101100
-287 0 +253 0 +267 0 -253 0 *
Fa
0  1e-07 7 0

0101000
+252 0 *
Ed
 1e-07 1 1 0
1  22 0 1 2.6
3  43 44CN 8 0 1 2.6
0

0101000
+265 0 -285 0 *
Wi

0101100
-284 0 +250 0 +264 0 -250 0 *
Fa
0  1e-07 8 0

0101000
+249 0 *
Ed
 1e-07 1 1 0
1  23 0 1 2.6
3  45 46CN 9 0 1 2.6
0

0101000
+262 0 -282 0 *
Wi

0101100
-281 0 +247 0 +261 0 -247 0 *
Fa
0  1e-07 9 0

0101000
+246 0 *
Ed
 1e-07 1 1 0
1  24 0 1 2.6
3  47 48CN 10 0 1 2.6
0

0101000
+259 0 -279 0 *
Wi

0101100
-278 0 +244 0 +258 0 -244 0 *
Fa
0  1e-07 10 0

0101000
+243 0 *
Sh

0101100
-300 0 -293 0 +276 0 +271 0 -256 0 +254 0 -251 0 -248 0 -245 0 -242 0 
*
So

0100000
+241 0 *
Ve
1e-07
6.8 47.6 9.6
0 0

0101101
*
Ve
1e-07
6.8 47.6 1.6
0 0

0101101
*
Ed
 1e-07 1 1 0
1  25 0 0 8
2  49 11 0 0 8
2  50 12 0 0 8
0

0101000
-239 0 +238 0 *
Ve
1e-07
6.8 51.52 9.6
0 0

0101101
*
Ed
 1e-07 1 1 0
1  26 0 0 3.92
2  51 11 0 0 3.92
2  52 13 0 0 3.92
0

0101000
-236 0 +239 0 *
Ve
1e-07
6.8 51.52 1.6
0 0

0101101
*
Ed
 1e-07 1 1 0
1  27 0 0 8
2  53 11 0 0 8
2  54 14 0 0 8
0

0101000
-236 0 +234 0 *
Ed
 1e-07 1 1 0
1  28 0 0 3.92
2  55 11 0 0 3.92
2  56 15 0 0 3.92
0

0101000
-234 0 +238 0 *
Wi

0101100
-237 0 -235 0 +233 0 +232 0 *
Fa
0  1e-07 11 0

0111000
+231 0 *
Ve
1e-07
57.8 47.6 9.6
0 0

0101101
*
Ve
1e-07
57.8 47.6 1.6
0 0

0101101
*
Ed
 1e-07 1 1 0
1  29 0 0 8
2  57 16 0 0 8
2  58 12 0 0 8
0

0101000
-229 0 +228 0 *
Ve
1e-07
57.8 51.52 9.6
0 0

0101101
*
Ed
 1e-07 1 1 0
1  30 0 0 3.92
2  59 16 0 0 3.92
2  60 13 0 0 3.92
0

0101000
-226 0 +229 0 *
Ve
1e-07
57.8 51.52 1.6
0 0

0101101
*
Ed
 1e-07 1 1 0
1  31 0 0 8
2  61 16 0 0 8
2  62 14 0 0 8
0

0101000
-226 0 +224 0 *
Ed
 1e-07 1 1 0
1  32 0 0 3.92
2  63 16 0 0 3.92
2  64 15 0 0 3.92
0

0101000
-224 0 +228 0 *
Wi

0101100
-227 0 -225 0 +223 0 +222 0 *
Fa
0  1e-07 16 0

0111000
+221 0 *
Ed
 1e-07 1 1 0
1  33 0 0 51
2  65 12 0 0 51
2  66 15 0 0 51
0

0101000
-228 0 +238 0 *
Ed
 1e-07 1 1 0
1  34 0 0 51
2  67 12 0 0 51
2  68 13 0 0 51
0

0101000
-229 0 +239 0 *
Wi

0101100
-219 0 -227 0 +218 0 +237 0 *
Fa
0  1e-07 12 0

0111000
+217 0 *
Ed
 1e-07 1 1 0
1  35 0 0 51
2  69 14 0 0 51
2  70 15 0 0 51
0

0101000
-224 0 +234 0 *
Ed
 1e-07 1 1 0
1  36 0 0 51
2  71 14 0 0 51
2  72 13 0 0 51
0

0101000
-226 0 +236 0 *
Wi

0101100
-215 0 -223 0 +214 0 +233 0 *
Fa
0  1e-07 14 0

0111000
+213 0 *
Wi

0101100
-232 0 -215 0 +222 0 +219 0 *
Fa
0  1e-07 15 0

0111000
+211 0 *
Wi

0101100
-235 0 -214 0 +225 0 +218 0 *
Fa
0  1e-07 13 0

0111000
+209 0 *
Sh

0101100
-230 0 +220 0 -216 0 +212 0 -210 0 +208 0 *
So

0100000
+207 0 *
Ve
1e-07
68 2.8 15.1
0 0

0101101
*
Ve
1e-07
68 2.8 1.6
0 0

0101101
*
Ed
 1e-07 1 1 0
1  37 0 0 13.5
0

0101000
-205 0 +204 0 *
Ve
1e-07
68 19.04 15.1
0 0

0101101
*
Ed
 1e-07 1 1 0
1  38 0 0 16.24
0

0101000
-202 0 +205 0 *
Ve
1e-07
68 19.04 1.6
0 0

0101101
*
Ed
 1e-07 1 1 0
1  39 0 0 13.5
0

0101000
-202 0 +200 0 *
Ed
 1e-07 1 1 0
1  40 0 0 16.24
0

0101000
-200 0 +204 0 *
Wi

0101100
-203 0 -201 0 +199 0 +198 0 *
Fa
0  1e-07 17 0

0111000
+197 0 *
Ve
1e-07
85 2.8 15.1
0 0

0101101
*
Ve
1e-07
85 2.8 1.6
0 0

0101101
*
Ed
 1e-07 1 1 0
1  41 0 0 13.5
0

0101000
-195 0 +194 0 *
Ve
1e-07
85 19.04 15.1
0 0

0101101
*
Ed
 1e-07 1 1 0
1  42 0 0 16.24
0

0101000
-192 0 +195 0 *
Ve
1e-07
85 19.04 1.6
0 0

0101101
*
Ed
 1e-07 1 1 0
1  43 0 0 13.5
0

0101000
-192 0 +190 0 *
Ed
 1e-07 1 1 0
1  44 0 0 16.24
0

0101000
-190 0 +194 0 *
Wi

0101100
-193 0 -191 0 +189 0 +188 0 *
Fa
0  1e-07 18 0

0111000
+187 0 *
Ed
 1e-07 1 1 0
1  45 0 0 17
0

0101000
-194 0 +204 0 *
Ed
 1e-07 1 1 0
1  46 0 0 17
0

0101000
-195 0 +205 0 *
Wi

0101100
-185 0 -193 0 +184 0 +203 0 *
Fa
0  1e-07 19 0

0111000
+183 0 *
Ed
 1e-07 1 1 0
1  47 0 0 17
0

0101000
-190 0 +200 0 *
Ed
 1e-07 1 1 0
1  48 0 0 17
0

0101000
-192 0 +202 0 *
Wi

0101100
-181 0 -189 0 +180 0 +199 0 *
Fa
0  1e-07 20 0

0111000
+179 0 *
Wi

0101100
-198 0 -181 0 +188 0 +185 0 *
Fa
0  1e-07 21 0

0111000
+177 0 *
Wi

0101100
-201 0 -180 0 +191 0 +184 0 *
Fa
0  1e-07 22 0

0111000
+175 0 *
Sh

0101100
-196 0 +186 0 -182 0 +178 0 -176 0 +174 0 *
So

0100000
+173 0 *
Ve
1e-07
68 21.28 16.6
0 0

0101101
*
Ve
1e-07
68 21.28 1.6
0 0

0101101
*
Ed
 1e-07 1 1 0
1  49 0 0 15
2  73 23 0 0 15
2  74 24 0 0 15
0

0101000
-171 0 +170 0 *
Ve
1e-07
68 35.28 16.6
0 0

0101101
*
Ed
 1e-07 1 1 0
1  50 0 0 14
2  75 23 0 0 14
2  76 25 0 0 14
0

0101000
-168 0 +171 0 *
Ve
1e-07
68 35.28 1.6
0 0

0101101
*
Ed
 1e-07 1 1 0
1  51 0 0 15
2  77 23 0 0 15
2  78 26 0 0 15
0

0101000
-168 0 +166 0 *
Ed
 1e-07 1 1 0
1  52 0 0 14
2  79 23 0 0 14
2  80 27 0 0 14
0

0101000
-166 0 +170 0 *
Wi

0101100
-169 0 -167 0 +165 0 +164 0 *
Fa
0  1e-07 23 0

0111000
+163 0 *
Ve
1e-07
85 21.28 16.6
0 0

0101101
*
Ve
1e-07
85 21.28 1.6
0 0

0101101
*
Ed
 1e-07 1 1 0
1  53 0 0 15
2  81 28 0 0 15
2  82 24 0 0 15
0

0101000
-161 0 +160 0 *
Ve
1e-07
85 35.28 16.6
0 0

0101101
*
Ed
 1e-07 1 1 0
1  54 0 0 14
2  83 28 0 0 14
2  84 25 0 0 14
0

0101000
-158 0 +161 0 *
Ve
1e-07
85 35.28 1.6
0 0

0101101
*
Ed
 1e-07 1 1 0
1  55 0 0 15
2  85 28 0 0 15
2  86 26 0 0 15
0

0101000
-158 0 +156 0 *
Ed
 1e-07 1 1 0
1  56 0 0 14
2  87 28 0 0 14
2  88 27 0 0 14
0

0101000
-156 0 +160 0 *
Wi

0101100
-159 0 -157 0 +155 0 +154 0 *
Fa
0  1e-07 28 0

0111000
+153 0 *
Ed
 1e-07 1 1 0
1  57 0 0 17
2  89 24 0 0 17
2  90 27 0 0 17
0

0101000
-160 0 +170 0 *
Ed
 1e-07 1 1 0
1  58 0 0 17
2  91 24 0 0 17
2  92 25 0 0 17
0

0101000
-161 0 +171 0 *
Wi

0101100
-151 0 -159 0 +150 0 +169 0 *
Fa
0  1e-07 24 0

0111000
+149 0 *
Ed
 1e-07 1 1 0
1  59 0 0 17
2  93 26 0 0 17
2  94 27 0 0 17
0

0101000
-156 0 +166 0 *
Ed
 1e-07 1 1 0
1  60 0 0 17
2  95 26 0 0 17
2  96 25 0 0 17
0

0101000
-158 0 +168 0 *
Wi

0101100
-147 0 -155 0 +146 0 +165 0 *
Fa
0  1e-07 26 0

0111000
+145 0 *
Wi

0101100
-164 0 -147 0 +154 0 +151 0 *
Fa
0  1e-07 27 0

0111000
+143 0 *
Wi

0101100
-167 0 -146 0 +157 0 +150 0 *
Fa
0  1e-07 25 0

0111000
+141 0 *
Sh

0101100
-162 0 +152 0 -148 0 +144 0 -142 0 +140 0 *
So

0100000
+139 0 *
Ve
1e-07
68 39.2 16.6
0 0

0101101
*
Ve
1e-07
68 39.2 1.6
0 0

0101101
*
Ed
 1e-07 1 1 0
1  61 0 0 15
0

0101000
-137 0 +136 0 *
Ve
1e-07
68 53.2 16.6
0 0

0101101
*
Ed
 1e-07 1 1 0
1  62 0 0 14
0

0101000
-134 0 +137 0 *
Ve
1e-07
68 53.2 1.6
0 0

0101101
*
Ed
 1e-07 1 1 0
1  63 0 0 15
0

0101000
-134 0 +132 0 *
Ed
 1e-07 1 1 0
1  64 0 0 14
0

0101000
-132 0 +136 0 *
Wi

0101100
-135 0 -133 0 +131 0 +130 0 *
Fa
0  1e-07 29 0

0111000
+129 0 *
Ve
1e-07
85 39.2 16.6
0 0

0101101
*
Ve
1e-07
85 39.2 1.6
0 0

0101101
*
Ed
 1e-07 1 1 0
1  65 0 0 15
0

0101000
-127 0 +126 0 *
Ve
1e-07
85 53.2 16.6
0 0

0101101
*
Ed
 1e-07 1 1 0
1  66 0 0 14
0

0101000
-124 0 +127 0 *
Ve
1e-07
85 53.2 1.6
0 0

0101101
*
Ed
 1e-07 1 1 0
1  67 0 0 15
0

0101000
-124 0 +122 0 *
Ed
 1e-07 1 1 0
1  68 0 0 14
0

0101000
-122 0 +126 0 *
Wi

0101100
-125 0 -123 0 +121 0 +120 0 *
Fa
0  1e-07 30 0

0111000
+119 0 *
Ed
 1e-07 1 1 0
1  69 0 0 17
0

0101000
-126 0 +136 0 *
Ed
 1e-07 1 1 0
1  70 0 0 17
0

0101000
-127 0 +137 0 *
Wi

0101100
-117 0 -125 0 +116 0 +135 0 *
Fa
0  1e-07 31 0

0111000
+115 0 *
Ed
 1e-07 1 1 0
1  71 0 0 17
0

0101000
-122 0 +132 0 *
Ed
 1e-07 1 1 0
1  72 0 0 17
0

0101000
-124 0 +134 0 *
Wi

0101100
-113 0 -121 0 +112 0 +131 0 *
Fa
0  1e-07 32 0

0111000
+111 0 *
Wi

0101100
-130 0 -113 0 +120 0 +117 0 *
Fa
0  1e-07 33 0

0111000
+109 0 *
Wi

0101100
-133 0 -112 0 +123 0 +116 0 *
Fa
0  1e-07 34 0

0111000
+107 0 *
Sh

0101100
-128 0 +118 0 -114 0 +110 0 -108 0 +106 0 *
So

0100000
+105 0 *
Ve
1e-07
17 0 4.8
0 0

0101101
*
Ve
1e-07
17 0 1.6
0 0

0101101
*
Ed
 1e-07 1 1 0
1  73 0 0 3.2
2  97 35 0 0 3.2
2  98 36 0 0 3.2
0

0101000
-103 0 +102 0 *
Ve
1e-07
17 4.48 4.8
0 0

0101101
*
Ed
 1e-07 1 1 0
1  74 0 0 4.48
2  99 35 0 0 4.48
2  100 37 0 0 4.48
0

0101000
-100 0 +103 0 *
Ve
1e-07
17 4.48 1.6
0 0

0101101
*
Ed
 1e-07 1 1 0
1  75 0 0 3.2
2  101 35 0 0 3.2
2  102 38 0 0 3.2
0

0101000
-100 0 +98 0 *
Ed
 1e-07 1 1 0
1  76 0 0 4.48
2  103 35 0 0 4.48
2  104 39 0 0 4.48
0

0101000
-98 0 +102 0 *
Wi

0101100
-101 0 -99 0 +97 0 +96 0 *
Fa
0  1e-07 35 0

0111000
+95 0 *
Ve
1e-07
24.65 0 4.8
0 0

0101101
*
Ve
1e-07
24.65 0 1.6
0 0

0101101
*
Ed
 1e-07 1 1 0
1  77 0 0 3.2
2  105 40 0 0 3.2
2  106 36 0 0 3.2
0

0101000
-93 0 +92 0 *
Ve
1e-07
24.65 4.48 4.8
0 0

0101101
*
Ed
 1e-07 1 1 0
1  78 0 0 4.48
2  107 40 0 0 4.48
2  108 37 0 0 4.48
0

0101000
-90 0 +93 0 *
Ve
1e-07
24.65 4.48 1.6
0 0

0101101
*
Ed
 1e-07 1 1 0
1  79 0 0 3.2
2  109 40 0 0 3.2
2  110 38 0 0 3.2
0

0101000
-90 0 +88 0 *
Ed
 1e-07 1 1 0
1  80 0 0 4.48
2  111 40 0 0 4.48
2  112 39 0 0 4.48
0

0101000
-88 0 +92 0 *
Wi

0101100
-91 0 -89 0 +87 0 +86 0 *
Fa
0  1e-07 40 0

0111000
+85 0 *
Ed
 1e-07 1 1 0
1  81 0 0 7.65
2  113 36 0 0 7.65
2  114 39 0 0 7.65
0

0101000
-92 0 +102 0 *
Ed
 1e-07 1 1 0
1  82 0 0 7.65
2  115 36 0 0 7.65
2  116 37 0 0 7.65
0

0101000
-93 0 +103 0 *
Wi

0101100
-83 0 -91 0 +82 0 +101 0 *
Fa
0  1e-07 36 0

0111000
+81 0 *
Ed
 1e-07 1 1 0
1  83 0 0 7.65
2  117 38 0 0 7.65
2  118 39 0 0 7.65
0

0101000
-88 0 +98 0 *
Ed
 1e-07 1 1 0
1  84 0 0 7.65
2  119 38 0 0 7.65
2  120 37 0 0 7.65
0

0101000
-90 0 +100 0 *
Wi

0101100
-79 0 -87 0 +78 0 +97 0 *
Fa
0  1e-07 38 0

0111000
+77 0 *
Wi

0101100
-96 0 -79 0 +86 0 +83 0 *
Fa
0  1e-07 39 0

0111000
+75 0 *
Wi

0101100
-99 0 -78 0 +89 0 +82 0 *
Fa
0  1e-07 37 0

0111000
+73 0 *
Sh

0101100
-94 0 +84 0 -80 0 +76 0 -74 0 +72 0 *
So

0100000
+71 0 *
Ve
1e-07
28.9 11.2 4.8
0 0

0101101
*
Ve
1e-07
28.9 11.2 1.6
0 0

0101101
*
Ed
 1e-07 1 1 0
1  85 0 0 3.2
2  121 41 0 0 3.2
2  122 42 0 0 3.2
0

0101000
-69 0 +68 0 *
Ve
1e-07
28.9 24.64 4.8
0 0

0101101
*
Ed
 1e-07 1 1 0
1  86 0 0 13.44
2  123 41 0 0 13.44
2  124 43 0 0 13.44
0

0101000
-66 0 +69 0 *
Ve
1e-07
28.9 24.64 1.6
0 0

0101101
*
Ed
 1e-07 1 1 0
1  87 0 0 3.2
2  125 41 0 0 3.2
2  126 44 0 0 3.2
0

0101000
-66 0 +64 0 *
Ed
 1e-07 1 1 0
1  88 0 0 13.44
2  127 41 0 0 13.44
2  128 45 0 0 13.44
0

0101000
-64 0 +68 0 *
Wi

0101100
-67 0 -65 0 +63 0 +62 0 *
Fa
0  1e-07 41 0

0111000
+61 0 *
Ve
1e-07
34 11.2 4.8
0 0

0101101
*
Ve
1e-07
34 11.2 1.6
0 0

0101101
*
Ed
 1e-07 1 1 0
1  89 0 0 3.2
2  129 46 0 0 3.2
2  130 42 0 0 3.2
0

0101000
-59 0 +58 0 *
Ve
1e-07
34 24.64 4.8
0 0

0101101
*
Ed
 1e-07 1 1 0
1  90 0 0 13.44
2  131 46 0 0 13.44
2  132 43 0 0 13.44
0

0101000
-56 0 +59 0 *
Ve
1e-07
34 24.64 1.6
0 0

0101101
*
Ed
 1e-07 1 1 0
1  91 0 0 3.2
2  133 46 0 0 3.2
2  134 44 0 0 3.2
0

0101000
-56 0 +54 0 *
Ed
 1e-07 1 1 0
1  92 0 0 13.44
2  135 46 0 0 13.44
2  136 45 0 0 13.44
0

0101000
-54 0 +58 0 *
Wi

0101100
-57 0 -55 0 +53 0 +52 0 *
Fa
0  1e-07 46 0

0111000
+51 0 *
Ed
 1e-07 1 1 0
1  93 0 0 5.1
2  137 42 0 0 5.1
2  138 45 0 0 5.1
0

0101000
-58 0 +68 0 *
Ed
 1e-07 1 1 0
1  94 0 0 5.1
2  139 42 0 0 5.1
2  140 43 0 0 5.1
0

0101000
-59 0 +69 0 *
Wi

0101100
-49 0 -57 0 +48 0 +67 0 *
Fa
0  1e-07 42 0

0111000
+47 0 *
Ed
 1e-07 1 1 0
1  95 0 0 5.1
2  141 44 0 0 5.1
2  142 45 0 0 5.1
0

0101000
-54 0 +64 0 *
Ed
 1e-07 1 1 0
1  96 0 0 5.1
2  143 44 0 0 5.1
2  144 43 0 0 5.1
0

0101000
-56 0 +66 0 *
Wi

0101100
-45 0 -53 0 +44 0 +63 0 *
Fa
0  1e-07 44 0

0111000
+43 0 *
Wi

0101100
-62 0 -45 0 +52 0 +49 0 *
Fa
0  1e-07 45 0

0111000
+41 0 *
Wi

0101100
-65 0 -44 0 +55 0 +48 0 *
Fa
0  1e-07 43 0

0111000
+39 0 *
Sh

0101100
-60 0 +50 0 -46 0 +42 0 -40 0 +38 0 *
So

0100000
+37 0 *
Ve
1e-07
39.95 11.2 4.8
0 0

0101101
*
Ve
1e-07
39.95 11.2 1.6
0 0

0101101
*
Ed
 1e-07 1 1 0
1  97 0 0 3.2
2  145 47 0 0 3.2
2  146 48 0 0 3.2
0

0101000
-35 0 +34 0 *
Ve
1e-07
39.95 24.64 4.8
0 0

0101101
*
Ed
 1e-07 1 1 0
1  98 0 0 13.44
2  147 47 0 0 13.44
2  148 49 0 0 13.44
0

0101000
-32 0 +35 0 *
Ve
1e-07
39.95 24.64 1.6
0 0

0101101
*
Ed
 1e-07 1 1 0
1  99 0 0 3.2
2  149 47 0 0 3.2
2  150 50 0 0 3.2
0

0101000
-32 0 +30 0 *
Ed
 1e-07 1 1 0
1  100 0 0 13.44
2  151 47 0 0 13.44
2  152 51 0 0 13.44
0

0101000
-30 0 +34 0 *
Wi

0101100
-33 0 -31 0 +29 0 +28 0 *
Fa
0  1e-07 47 0

0111000
+27 0 *
Ve
1e-07
45.05 11.2 4.8
0 0

0101101
*
Ve
1e-07
45.05 11.2 1.6
0 0

0101101
*
Ed
 1e-07 1 1 0
1  101 0 0 3.2
2  153 52 0 0 3.2
2  154 48 0 0 3.2
0

0101000
-25 0 +24 0 *
Ve
1e-07
45.05 24.64 4.8
0 0

0101101
*
Ed
 1e-07 1 1 0
1  102 0 0 13.44
2  155 52 0 0 13.44
2  156 49 0 0 13.44
0

0101000
-22 0 +25 0 *
Ve
1e-07
45.05 24.64 1.6
0 0

0101101
*
Ed
 1e-07 1 1 0
1  103 0 0 3.2
2  157 52 0 0 3.2
2  158 50 0 0 3.2
0

0101000
-22 0 +20 0 *
Ed
 1e-07 1 1 0
1  104 0 0 13.44
2  159 52 0 0 13.44
2  160 51 0 0 13.44
0

0101000
-20 0 +24 0 *
Wi

0101100
-23 0 -21 0 +19 0 +18 0 *
Fa
0  1e-07 52 0

0111000
+17 0 *
Ed
 1e-07 1 1 0
1  105 0 0 5.1
2  161 48 0 0 5.1
2  162 51 0 0 5.1
0

0101000
-24 0 +34 0 *
Ed
 1e-07 1 1 0
1  106 0 0 5.1
2  163 48 0 0 5.1
2  164 49 0 0 5.1
0

0101000
-25 0 +35 0 *
Wi

0101100
-15 0 -23 0 +14 0 +33 0 *
Fa
0  1e-07 48 0

0111000
+13 0 *
Ed
 1e-07 1 1 0
1  107 0 0 5.1
2  165 50 0 0 5.1
2  166 51 0 0 5.1
0

0101000
-20 0 +30 0 *
Ed
 1e-07 1 1 0
1  108 0 0 5.1
2  167 50 0 0 5.1
2  168 49 0 0 5.1
0

0101000
-22 0 +32 0 *
Wi

0101100
-11 0 -19 0 +10 0 +29 0 *
Fa
0  1e-07 50 0

0111000
+9 0 *
Wi

0101100
-28 0 -11 0 +18 0 +15 0 *
Fa
0  1e-07 51 0

0111000
+7 0 *
Wi

0101100
-31 0 -10 0 +21 0 +14 0 *
Fa
0  1e-07 49 0

0111000
+5 0 *
Sh

0101100
-26 0 +16 0 -12 0 +8 0 -6 0 +4 0 *
So

0100000
+3 0 *
Co

1100000
+240 0 +206 0 +172 0 +138 0 +104 0 +70 0 +36 0 +2 0 *

+1 0 