DBRep_DrawableShape

CASCADE Topology V3, (c) Open Cascade
Locations 0
Curve2ds 528
1 -17 -17.5 1 0 
1 0 0 1 0 
1 0 0 0 -1 
1 0 32 0 -1 
1 39 0 0 -1 
1 -19.804994310976596 27.1210029606228 0 -1 
1 0 0 1 0 
1 17 17.5 -1 0 
1 0 -0 1 0 
1 -19.804994310976596 27.1210029606228 0 -1 
1 0 -2 1 0 
1 39 0 0 -1 
1 1.7505904581955596 5.9026924893717521 0 -1 
1 0 0 1 0 
1 -7.137931034482758 6.0862068965517224 0 -1 
1 1.7505904581955596 4.2475200755786489 -1 0 
1 0 0 1 0 
1 -7.137931034482758 4.4310344827586192 1 0 
1 -9.835616438356162 4.2475200755786489 0 -1 
1 0 0 1 0 
1 4.4482758620689644 4.4310344827586192 0 -1 
1 -9.835616438356162 -5.1317902692489366 1 0 
1 0 -0 1 0 
1 4.4482758620689644 -4.9482758620689662 -1 0 
1 9.3367973547472829 -5.1317902692489366 0 1 
1 0 0 1 0 
1 -14.724137931034482 -4.9482758620689662 0 1 
1 9.3367973547472829 4.2475200755786489 -1 0 
1 0 0 1 0 
1 -14.724137931034482 4.4310344827586192 1 0 
1 6.854038734057629 4.2475200755786489 0 1 
1 0 0 1 0 
1 -12.241379310344827 4.4310344827586192 0 1 
1 6.854038734057629 5.9026924893717521 -1 0 
1 0 0 1 0 
1 -12.241379310344827 6.0862068965517224 1 0 
1 0 0 1 0 
2 3.0531133177191805e-16 -3.5527136788005009e-15 1 0 -0 1 1.25
2 -0.10344827586206762 10.362068965517242 1 0 -0 1 1.25
1 0 0 1 0 
2 -1.7763568394002505e-15 8.8817841970012523e-16 1 0 -0 1 1.25
2 -12.724137931034484 -10.741379310344827 1 0 -0 1 1.25
1 1.7241379310344822 -1.7241379310344822 0 1 
1 0 0 1 0 
1 -12.379310344827587 -9.2241379310344822 0 1 
1 1.7241379310344822 1.7241379310344822 -1 0 
1 0 0 1 0 
1 -12.379310344827587 -5.7758620689655178 1 0 
1 -1.724137931034484 1.7241379310344822 0 -1 
1 0 0 1 0 
1 -8.931034482758621 -5.7758620689655178 0 -1 
1 -1.724137931034484 -1.7241379310344822 1 0 
1 0 -0 1 0 
1 -8.931034482758621 -9.2241379310344822 -1 0 
1 0 0 1 0 
2 0 8.8817841970012523e-16 1 0 -0 1 1.25
2 -0.1724137931034484 -10.741379310344827 1 0 -0 1 1.25
1 0 0 1 0 
2 1.7763568394002505e-15 0 1 0 -0 1 1.25
2 -12.724137931034484 10.431034482758619 1 0 -0 1 1.25
1 0 0 1 0 
2 2.8620689655172393 0 -3.7007434154171886e-16 -1 1 -3.7007434154171886e-16 1.1999999999999993
2 -9.4827586206896548 10.293103448275861 3.7007434154171886e-16 -1 -1 -3.7007434154171886e-16 1.1999999999999993
1 2.8620689655172393 1.1999999999999993 -1 0 
1 0 0 1 0 
1 -9.4827586206896548 11.493103448275861 1 0 
1 0 0 1 0 
2 -2.8620689655172433 0 3.7007434154171886e-16 1 -1 3.7007434154171886e-16 1.1999999999999993
2 -3.7586206896551722 10.293103448275861 -3.7007434154171886e-16 1 1 3.7007434154171886e-16 1.1999999999999993
1 -2.8620689655172429 -1.1999999999999993 1 0 
1 0 -0 1 0 
1 -3.7586206896551726 9.0931034482758619 -1 0 
1 3.141592653589794 0 0 -1 
1 0 -0 0 -1 
1 0 0 0 -1 
1 5.7241379310344822 0 0 -1 
1 -2.8620689655172429 -1.1999999999999993 1 0 
1 0 -2 1 0 
1 -3.7586206896551726 9.0931034482758619 -1 0 
8 -22.310501480311402 12.689498519688598
1 -14.999999999999996 4.8105014803114017 0 1 
8 -22.310501480311402 12.689498519688598
1 -17.804994310976596 4.8105014803113981 0 -1 
8 -14.999999999999996 15
1 0 13.5 1 0 
8 -14.999999999999996 15
1 10 0 0 1 
8 -22.310501480311402 12.689498519688598
1 15 4.8105014803114017 0 1 
8 -22.310501480311402 12.689498519688598
1 -17.804994310976596 4.8105014803113981 0 -1 
1 -17 -17.5 1 0 
1 0 -2 1 0 
1 0 -2 1 0 
2 -1.7763568394002505e-15 8.8817841970012523e-16 1 0 -0 1 1.25
2 -12.724137931034484 -10.741379310344827 1 0 -0 1 1.25
1 1.7241379310344822 -1.7241379310344822 0 1 
1 0 -2 1 0 
1 -12.379310344827587 -9.2241379310344822 0 1 
1 -1.724137931034484 -1.7241379310344822 1 0 
1 0 -2 1 0 
1 -8.931034482758621 -9.2241379310344822 -1 0 
1 1.7241379310344822 1.7241379310344822 -1 0 
1 0 -2 1 0 
1 -12.379310344827587 -5.7758620689655178 1 0 
1 -1.724137931034484 1.7241379310344822 0 -1 
1 0 -2 1 0 
1 -8.931034482758621 -5.7758620689655178 0 -1 
1 0 -2 1 0 
2 0 8.8817841970012523e-16 1 0 -0 1 1.25
2 -0.1724137931034484 -10.741379310344827 1 0 -0 1 1.25
1 0 -2 1 0 
2 1.7763568394002505e-15 0 1 0 -0 1 1.25
2 -12.724137931034484 10.431034482758619 1 0 -0 1 1.25
1 0 -2 1 0 
2 2.8620689655172393 0 -3.7007434154171886e-16 -1 1 -3.7007434154171886e-16 1.1999999999999993
2 -9.4827586206896548 10.293103448275861 3.7007434154171886e-16 -1 -1 -3.7007434154171886e-16 1.1999999999999993
1 2.8620689655172393 1.1999999999999993 -1 0 
1 0 -2 1 0 
1 -9.4827586206896548 11.493103448275861 1 0 
1 0 -2 1 0 
2 -2.8620689655172433 0 3.7007434154171886e-16 1 -1 3.7007434154171886e-16 1.1999999999999993
2 -3.7586206896551722 10.293103448275861 -3.7007434154171886e-16 1 1 3.7007434154171886e-16 1.1999999999999993
1 9.3367973547472829 -5.1317902692489366 0 1 
1 0 -2 1 0 
1 -14.724137931034482 -4.9482758620689662 0 1 
1 -9.835616438356162 -5.1317902692489366 1 0 
1 0 -2 1 0 
1 4.4482758620689644 -4.9482758620689662 -1 0 
1 9.3367973547472829 4.2475200755786489 -1 0 
1 0 -2 1 0 
1 -14.724137931034482 4.4310344827586192 1 0 
1 -9.835616438356162 4.2475200755786489 0 -1 
1 0 -2 1 0 
1 4.4482758620689644 4.4310344827586192 0 -1 
1 6.854038734057629 4.2475200755786489 0 1 
1 0 -2 1 0 
1 -12.241379310344827 4.4310344827586192 0 1 
1 1.7505904581955596 4.2475200755786489 -1 0 
1 0 -2 1 0 
1 -7.137931034482758 4.4310344827586192 1 0 
1 6.854038734057629 5.9026924893717521 -1 0 
1 0 -2 1 0 
1 -12.241379310344827 6.0862068965517224 1 0 
1 1.7505904581955596 5.9026924893717521 0 -1 
1 0 -2 1 0 
1 -7.137931034482758 6.0862068965517224 0 -1 
1 0 -2 1 0 
2 3.0531133177191805e-16 -3.5527136788005009e-15 1 0 -0 1 1.25
2 -0.10344827586206762 10.362068965517242 1 0 -0 1 1.25
1 -12 17 0 -1 
1 0 -2 1 0 
8 -8.0975028445117019 15.902497155488298
1 -3.9024971554882981 -3.8789970393772002 -1 0 
8 -8.0975028445117019 15.902497155488298
1 -3.9024971554882981 15 1 0 
8 7.5 9.5
1 18.827298315946024 7.5 0 -1 
8 7.5 9.5
1 -11.768173624406128 7.5 0 1 
1 12 17 -1 0 
1 0 -2 1 0 
8 -9.5 -7.5
1 6.7130986266617878 7.5 -0 1 
8 -9.5 -7.5
1 -6.7205904205376825 7.5 0 -1 
8 -8.0975028445117019 15.902497155488298
1 -3.9024971554882981 -3.8789970393772002 -1 0 
8 -8.0975028445117019 15.902497155488298
1 -3.9024971554882981 -14.999999999999996 1 0 
1 0 -2 1 0 
2 0 0 0 1 -1 0 1.5
2 0 -12 0 1 -1 0 1.5
1 0 -2 1 0 
2 0 -12 -1 0 -0 -1 1.5
2 -6 -12 1 0 0 -1 1.5
1 -1.5 12 0 -1 
1 0 -2 1 0 
1 -4.5 12 0 -1 
1 1.5 -12 0 1 
1 0 -2 1 0 
1 -7.5 -12 0 1 
1 0 -2 1 0 
2 0 12 1 0 -0 1 1.5
2 -6 12 -1 0 0 1 1.5
1 0 -2 1 0 
2 0 8.5465008283713956e-17 0 1 -1 0 1.5
2 0 0 0 1 -1 0 1.5
1 0 -2 1 0 
2 0 -12 -1 0 -0 -1 1.5
2 6 -12 1 0 0 -1 1.5
1 -1.5 12 0 -1 
1 0 -2 1 0 
1 7.5 12 0 -1 
1 1.5 -12 0 1 
1 0 -2 1 0 
1 4.5 -12 0 1 
1 0 -2 1 0 
2 0 12 1 0 -0 1 1.5
2 6 12 -1 0 0 1 1.5
1 0 -2 1 0 
2 0 0 0 1 -1 0 1.5
2 0 12 0 1 -1 0 1.5
1 0 0 0 -1 
1 6.2831853071795862 0 0 -1 
1 0 0 1 0 
2 0 0 0 1 -1 0 1.5
2 0 12 0 1 -1 0 1.5
1 -12 17 0 -1 
1 0 0 1 0 
1 12 17 -1 0 
1 0 0 1 0 
8 -9.5 -7.5
1 4.1893070247275679 7.5 -0 1 
8 -9.5 -7.5
1 -8.259916263234313 7.5 0 -1 
8 -8.0975028445117019 15.902497155488298
1 -3.9024971554882981 -5.8789970393772002 -1 0 
8 -8.0975028445117019 15.902497155488298
1 -3.9024971554882981 15 1 0 
8 -14.999999999999996 15
1 0 15.5 1 0 
8 -14.999999999999996 15
1 10 0 0 1 
8 -8.0975028445117019 15.902497155488298
1 -3.9024971554882981 -5.8789970393772002 -1 0 
8 -8.0975028445117019 15.902497155488298
1 -3.9024971554882981 -14.999999999999996 1 0 
1 0 0 1 0 
2 0 0 0 1 -1 0 1.5
2 0 -12 0 1 -1 0 1.5
1 0 0 1 0 
2 0 -12 -1 0 -0 -1 1.5
2 -6 -12 1 0 0 -1 1.5
1 -1.5 12 0 -1 
1 0 0 1 0 
1 -4.5 12 0 -1 
1 1.5 -12 0 1 
1 0 0 1 0 
1 -7.5 -12 0 1 
1 0 0 1 0 
2 0 12 1 0 -0 1 1.5
2 -6 12 -1 0 0 1 1.5
1 0 0 1 0 
2 0 8.5465008283713956e-17 0 1 -1 0 1.5
2 0 0 0 1 -1 0 1.5
1 0 0 1 0 
2 0 -12 -1 0 -0 -1 1.5
2 6 -12 1 0 0 -1 1.5
1 -1.5 12 0 -1 
1 0 0 1 0 
1 7.5 12 0 -1 
1 1.5 -12 0 1 
1 0 0 1 0 
1 4.5 -12 0 1 
1 0 0 1 0 
2 0 12 1 0 -0 1 1.5
2 6 12 -1 0 0 1 1.5
1 17 17.5 -1 0 
1 0 -2 1 0 
1 -5.2650830849367978 -10.119851782941904 0.60992589147095166 0.79245845753160149 
1 0 0 1 0 
1 3.0100887739601987 -9.1988488223191105 -0.60992589147095166 0.79245845753160149 
1 -5.2650830849367978 -10.119851782941904 0.60992589147095166 0.79245845753160149 
1 0 -2 1 0 
1 3.0100887739601987 -9.1988488223191105 -0.60992589147095166 0.79245845753160149 
1 3.1415926535897931 0 0 -1 
1 0 0 0 -1 
1 0 0 0 -1 
1 22.461745257214545 0 0 -1 
1 0 0 1 0 
2 -6.8500000000000014 -8.899999999999995 -0.79245845753160149 0.60992589147095166 -0.60992589147095166 -0.79245845753160149 1.9999999999999998
2 4.5950056890234023 -7.9789970393772016 0.79245845753160149 0.60992589147095166 0.60992589147095166 -0.79245845753160149 1.9999999999999998
1 0 -2 1 0 
2 -6.8500000000000014 -8.899999999999995 -0.79245845753160149 0.60992589147095166 -0.60992589147095166 -0.79245845753160149 1.9999999999999998
2 4.5950056890234023 -7.9789970393772016 0.79245845753160149 0.60992589147095166 0.60992589147095166 -0.79245845753160149 1.9999999999999998
1 5.2650830849367978 10.119851782941907 -0.60992589147095166 -0.79245845753160149 
1 0 0 1 0 
1 -7.5200773959133969 11.040854743564701 0.60992589147095166 -0.79245845753160149 
1 5.2650830849367978 10.119851782941907 -0.60992589147095166 -0.79245845753160149 
1 0 -2 1 0 
1 -7.5200773959133969 11.040854743564701 0.60992589147095166 -0.79245845753160149 
8 -1 1
1 19.207387731456468 -1 0 -1 
8 -1 1
1 1 -1.6987949280605044 -1 0 
1 0 0 0 -1 
1 24 0 0 -1 
1 3.1415926535897931 0 0 -1 
1 0 0 0 -1 
1 3.1415926535897931 0 0 -1 
1 0 0 0 -1 
1 0 0 0 -1 
1 24 0 0 -1 
1 0 0 0 -1 
1 6.2831853071795862 0 0 -1 
1 0 0 0 -1 
1 24 0 0 -1 
1 3.1415926535897931 0 0 -1 
1 0 0 0 -1 
1 3.1415926535897931 0 0 -1 
1 0 0 0 -1 
1 0 0 0 -1 
1 24 0 0 -1 
1 0 0 0 -1 
1 6.2831853071795862 0 0 -1 
1 0 0 0 -1 
1 22.461745257214549 0 0 -1 
1 3.1415926535897931 0 0 -1 
1 0 0 0 -1 
1 0 0 1 0 
2 6.8499999999999996 8.9000000000000021 0.79245845753160149 -0.60992589147095166 0.60992589147095166 0.79245845753160149 1.9999999999999998
2 -9.1049943109765987 9.8210029606227955 -0.79245845753160149 -0.60992589147095166 -0.60992589147095166 0.79245845753160149 1.9999999999999998
1 0 -2 1 0 
2 6.8499999999999996 8.9000000000000021 0.79245845753160149 -0.60992589147095166 0.60992589147095166 0.79245845753160149 1.9999999999999998
2 -9.1049943109765987 9.8210029606227955 -0.79245845753160149 -0.60992589147095166 -0.60992589147095166 0.79245845753160149 1.9999999999999998
8 0.93949851968859832 2.9394985196885983
1 4.1950056890234038 -2.9394985196886019 0 -1 
8 0.93949851968859832 2.9394985196885983
1 31.999999999999996 -2.9394985196885983 0 1 
8 0.93949851968859832 2.9394985196885983
1 4.1950056890234038 -2.9394985196886019 0 -1 
8 0.93949851968859832 2.9394985196885983
1 2 -2.9394985196885983 0 1 
1 24 0 0 -1 
1 0 0 0 -1 
1 0 0 0 -1 
1 5.7241379310344822 0 0 -1 
1 3.141592653589794 0 0 -1 
1 0 0 0 -1 
1 0 0 0 -1 
1 6.2831853071795862 0 0 -1 
1 0 0 0 -1 
1 6.2831853071795862 0 0 -1 
1 3.4482758620689644 0 0 -1 
1 0 -0 0 -1 
1 3.4482758620689662 0 0 -1 
1 0 0 0 -1 
1 3.4482758620689662 0 0 -1 
1 0 0 0 -1 
1 0 0 0 -1 
1 3.4482758620689644 0 0 -1 
1 0 0 0 -1 
1 6.2831853071795862 0 0 -1 
1 0 0 0 -1 
1 6.2831853071795862 0 0 -1 
1 1.6551724137931032 0 0 -1 
1 0 0 0 -1 
1 5.1034482758620694 0 0 -1 
1 0 0 0 -1 
1 2.4827586206896548 0 0 -1 
1 0 0 0 -1 
1 0 0 0 -1 
1 9.3793103448275854 0 0 -1 
1 19.172413793103445 0 0 -1 
1 0 0 0 -1 
1 9.3793103448275854 0 0 -1 
1 0 -0 0 -1 
1 11.586206896551722 0 0 -1 
1 0 0 0 -1 
1 1.6551724137931032 0 0 -1 
1 0 0 0 -1 
1 -19.804994310976596 -11.8789970393772 0.70710678118654757 -0.70710678118654757 
1 -19.804994310976596 -11.8789970393772 0.70710678118654757 -0.70710678118654757 
1 -6.8049943109765962 -24.8789970393772 0.99726775445670901 -0.073871685515311772 
1 -6.8049943109765962 -24.8789970393772 0.99726775445670901 -0.073871685515311772 
1 0 0 0 -1 
1 20.195005689023404 -26.8789970393772 0.064382277997965046 0.99792530896845821 
1 20.195005689023404 -26.8789970393772 0.064382277997965046 0.99792530896845821 
1 31.89043743820395 0 0 -1 
1 0 0 0 -1 
1 22.195005689023404 4.1210029606227998 -0.65850460786851817 0.75257669470687794 
1 0 0 1 0 
1 22.195005689023404 4.1210029606227998 -0.65850460786851817 0.75257669470687794 
1 0 -2 1 0 
8 -9.9024971554882981 -7.9024971554882981
1 31.999999999999996 -9.9024971554882981 0 -1 
8 -9.9024971554882981 -7.9024971554882981
1 -9.9024971554882981 -7.8789970393772002 1 0 
8 7.9024971554882981 9.9024971554882981
1 2.0000000000000036 -9.9024971554882981 0 1 
8 7.9024971554882981 9.9024971554882981
1 -9.9024971554882981 27.1210029606228 -1 0 
1 1.1950056890234038 28.1210029606228 -0.99886813772443761 -0.047565149415449412 
1 0 -2 1 0 
1 0 -2 1 0 
2 -3.5527136788005009e-15 -7.1054273576010019e-15 0 -1 1 0 1.7000000000000028
2 -1.2721114280937122 -20.52494298532314 0 -1 1 0 1.7000000000000028
1 0 -2 1 0 
2 0 0 0 -1 1 0 1.7000000000000028
2 8.1774381214558325 -20.436654697034857 0 -1 1 0 1.7000000000000028
1 0 -2 1 0 
2 7.1054273576010019e-15 0 0 -1 1 0 1.7000000000000028
2 17.375636319654035 -20.306024066404223 0 -1 1 0 1.7000000000000028
1 0 -2 1 0 
2 0 -3.5527136788005009e-15 0 -1 1 0 0.85000000000000142
2 14.15311379713151 0.075507465127305551 0 -1 1 0 0.85000000000000142
1 0 -2 1 0 
2 0 0 0 -1 1 0 0.85000000000000142
2 15.511672355690074 -1.8335015438817024 0 -1 1 0 0.85000000000000142
1 0 -2 1 0 
2 7.1054273576010019e-15 0 0 -1 1 0 0.85000000000000142
2 16.817978661996378 -3.6690871294672895 0 -1 1 0 0.85000000000000142
1 0 -2 1 0 
2 0 0 0 -1 1 0 4.5
2 5.8932038872216026 9.3507326903525296 0 -1 1 0 4.5
1 0 -2 1 0 
2 -3.5527136788005009e-15 1.7763568394002505e-15 0 -1 1 0 0.84999999999999964
2 -0.98697629295857681 16.842624582244419 0 -1 1 0 0.84999999999999964
1 0 -2 1 0 
2 1.7763568394002505e-15 8.8817841970012523e-16 0 -1 1 0 0.84999999999999964
2 -4.95814746412975 22.422804762424601 0 -1 1 0 0.84999999999999964
1 0 -2 1 0 
2 0 0 0 -1 1 0 0.84999999999999964
2 -3.6518411578234442 20.587219176839014 0 -1 1 0 0.84999999999999964
1 0 -2 1 0 
2 0 0 0 -1 1 0 0.84999999999999964
2 -2.2932825992648844 18.678210167830006 0 -1 1 0 0.84999999999999964
1 0 -2 1 0 
2 0 3.5527136788005009e-15 0 -1 1 0 0.85000000000000142
2 12.846807490825206 1.9110930507128892 0 -1 1 0 0.85000000000000142
1 0 0 0 -1 
1 6.2831853071795862 0 0 -1 
1 0 0 1 0 
2 0 3.5527136788005009e-15 0 -1 1 0 0.85000000000000142
2 12.846807490825206 1.9110930507128892 0 -1 1 0 0.85000000000000142
1 0 0 0 -1 
1 6.2831853071795862 0 0 -1 
1 0 0 1 0 
2 0 0 0 -1 1 0 0.84999999999999964
2 -2.2932825992648844 18.678210167830006 0 -1 1 0 0.84999999999999964
1 0 0 0 -1 
1 6.2831853071795862 0 0 -1 
1 0 0 1 0 
2 0 0 0 -1 1 0 0.84999999999999964
2 -3.6518411578234442 20.587219176839014 0 -1 1 0 0.84999999999999964
1 0 0 0 -1 
1 6.2831853071795862 0 0 -1 
1 0 0 1 0 
2 1.7763568394002505e-15 8.8817841970012523e-16 0 -1 1 0 0.84999999999999964
2 -4.95814746412975 22.422804762424601 0 -1 1 0 0.84999999999999964
1 0 0 0 -1 
1 6.2831853071795862 0 0 -1 
1 0 0 1 0 
2 -3.5527136788005009e-15 1.7763568394002505e-15 0 -1 1 0 0.84999999999999964
2 -0.98697629295857681 16.842624582244419 0 -1 1 0 0.84999999999999964
1 0 0 0 -1 
1 6.2831853071795862 0 0 -1 
1 0 0 1 0 
2 0 0 0 -1 1 0 4.5
2 5.8932038872216026 9.3507326903525296 0 -1 1 0 4.5
1 0 0 0 -1 
1 6.2831853071795862 0 0 -1 
1 0 0 1 0 
2 7.1054273576010019e-15 0 0 -1 1 0 0.85000000000000142
2 16.817978661996378 -3.6690871294672895 0 -1 1 0 0.85000000000000142
1 0 0 0 -1 
1 6.2831853071795862 0 0 -1 
1 0 0 1 0 
2 0 0 0 -1 1 0 0.85000000000000142
2 15.511672355690074 -1.8335015438817024 0 -1 1 0 0.85000000000000142
1 0 0 0 -1 
1 6.2831853071795862 0 0 -1 
1 0 0 1 0 
2 0 -3.5527136788005009e-15 0 -1 1 0 0.85000000000000142
2 14.15311379713151 0.075507465127305551 0 -1 1 0 0.85000000000000142
1 0 0 0 -1 
1 6.2831853071795862 0 0 -1 
1 0 0 1 0 
2 7.1054273576010019e-15 0 0 -1 1 0 1.7000000000000028
2 17.375636319654035 -20.306024066404223 0 -1 1 0 1.7000000000000028
1 0 0 0 -1 
1 6.2831853071795862 0 0 -1 
1 0 0 1 0 
2 0 0 0 -1 1 0 1.7000000000000028
2 8.1774381214558325 -20.436654697034857 0 -1 1 0 1.7000000000000028
1 0 0 0 -1 
1 6.2831853071795862 0 0 -1 
1 0 0 1 0 
2 -3.5527136788005009e-15 -7.1054273576010019e-15 0 -1 1 0 1.7000000000000028
2 -1.2721114280937122 -20.52494298532314 0 -1 1 0 1.7000000000000028
8 -9.9024971554882981 -7.9024971554882981
1 2 -9.9024971554882981 0 -1 
8 -9.9024971554882981 -7.9024971554882981
1 -9.9024971554882981 -7.8789970393772002 1 0 
1 22.195005689023404 4.1210029606227998 -0.65850460786851817 0.75257669470687794 
1 0 0 1 0 
1 20.195005689023404 -26.8789970393772 0.064382277997965046 0.99792530896845821 
1 -6.8049943109765962 -24.8789970393772 0.99726775445670901 -0.073871685515311772 
1 -19.804994310976596 -11.8789970393772 0.70710678118654757 -0.70710678118654757 
8 7.9024971554882981 9.9024971554882981
1 32 -9.9024971554882981 0 1 
8 7.9024971554882981 9.9024971554882981
1 -9.9024971554882981 27.1210029606228 -1 0 
1 1.1950056890234038 28.1210029606228 -0.99886813772443761 -0.047565149415449412 
1 0 0 1 0 
1 0 0 1 0 
2 -3.5527136788005009e-15 -7.1054273576010019e-15 0 -1 1 0 1.7000000000000028
2 -2.8049943109765962 -21.3789970393772 0 -1 1 0 1.7000000000000028
1 0 0 1 0 
2 0 -7.1054273576010019e-15 0 -1 1 0 1.7000000000000028
2 6.6950056890234038 -21.3789970393772 0 -1 1 0 1.7000000000000028
1 0 0 1 0 
2 0 -7.1054273576010019e-15 0 -1 1 0 1.7000000000000028
2 15.695005689023404 -21.3789970393772 0 -1 1 0 1.7000000000000028
1 0 0 1 0 
2 10.150000000000002 13.399999999999999 0.79713552979444413 -0.60380041995623945 0.60380041995623945 0.79713552979444413 1.9999999999999996
2 -3.2049943109765948 21.521002960622798 -0.79713552979444413 -0.60380041995623945 -0.60380041995623945 0.79713552979444413 1.9999999999999996
1 -8.555728940411111 -14.607600839912479 0.60380041995623945 0.79713552979444413 
1 0 0 1 0 
1 15.500734629434518 -6.486597879289679 -0.60380041995623945 0.79713552979444413 
1 8.5557289404111145 14.607600839912477 -0.60380041995623945 -0.79713552979444413 
1 0 0 1 0 
1 -1.6107232513877072 22.728603800535275 0.60380041995623945 -0.79713552979444413 
1 0 0 1 0 
2 -10.149999999999995 -13.399999999999999 -0.79713552979444413 0.60380041995623945 -0.60380041995623945 -0.79713552979444413 2.0000000000000031
2 17.095005689023402 -5.2789970393771988 0.79713552979444413 0.60380041995623945 0.60380041995623945 -0.79713552979444413 2.0000000000000031
1 0 0 0 -1 
1 33.620380723602757 0 0 -1 
1 3.1415926535897931 0 0 -1 
1 0 0 0 -1 
1 0 -2 1 0 
2 -10.149999999999995 -13.399999999999999 -0.79713552979444413 0.60380041995623945 -0.60380041995623945 -0.79713552979444413 2.0000000000000031
2 17.095005689023402 -5.2789970393771988 0.79713552979444413 0.60380041995623945 0.60380041995623945 -0.79713552979444413 2.0000000000000031
1 3.1415926535897931 0 0 -1 
1 0 0 0 -1 
1 8.5557289404111145 14.607600839912477 -0.60380041995623945 -0.79713552979444413 
1 0 -2 1 0 
1 -1.6107232513877072 22.728603800535275 0.60380041995623945 -0.79713552979444413 
1 0 0 0 -1 
1 33.620380723602757 0 0 -1 
1 -8.555728940411111 -14.607600839912479 0.60380041995623945 0.79713552979444413 
1 0 -2 1 0 
1 15.500734629434518 -6.486597879289679 -0.60380041995623945 0.79713552979444413 
1 0 -2 1 0 
2 10.150000000000002 13.399999999999999 0.79713552979444413 -0.60380041995623945 0.60380041995623945 0.79713552979444413 1.9999999999999996
2 -3.2049943109765948 21.521002960622798 -0.79713552979444413 -0.60380041995623945 -0.60380041995623945 0.79713552979444413 1.9999999999999996
1 0 0 0 -1 
1 6.2831853071795862 0 0 -1 
1 0 -2 1 0 
2 0 -7.1054273576010019e-15 0 -1 1 0 1.7000000000000028
2 15.695005689023404 -21.3789970393772 0 -1 1 0 1.7000000000000028
1 0 0 0 -1 
1 6.2831853071795862 0 0 -1 
1 0 -2 1 0 
2 0 -7.1054273576010019e-15 0 -1 1 0 1.7000000000000028
2 6.6950056890234038 -21.3789970393772 0 -1 1 0 1.7000000000000028
1 0 0 0 -1 
1 6.2831853071795862 0 0 -1 
1 0 -2 1 0 
2 -3.5527136788005009e-15 -7.1054273576010019e-15 0 -1 1 0 1.7000000000000028
2 -2.8049943109765962 -21.3789970393772 0 -1 1 0 1.7000000000000028
1 -6.8049943109765962 -24.8789970393772 0.99726775445670901 -0.073871685515311772 
1 0 0 0 -1 
1 20.195005689023404 -26.8789970393772 0.064382277997965046 0.99792530896845821 
1 31.89043743820395 0 0 -1 
1 0 0 0 -1 
1 22.195005689023404 4.1210029606227998 -0.65850460786851817 0.75257669470687794 
1 0 -2 1 0 
1 -19.804994310976596 -11.8789970393772 0.70710678118654757 -0.70710678118654757 
1 1.1950056890234038 28.1210029606228 -0.99886813772443761 -0.047565149415449412 
1 0 -2 1 0 
1 1.1950056890234038 28.1210029606228 -0.99886813772443761 -0.047565149415449412 
1 0 0 1 0 
Curves 223
8 0 39
1 -17 0 0 0 1 0 
1 -17 0 0 1 0 0 
8 0 39
1 17 39 0 0 -1 0 
1 15 39 0 1 0 0 
1 15 0 0 0 1 0 
1 17 35 0 -1 0 0 
1 -15 0 0 0 1 0 
1 -17 39 0 1 0 0 
1 -7.137931034482758 23.586206896551722 0 0 -1 0 
1 -7.137931034482758 21.931034482758619 0 1 0 0 
1 4.4482758620689644 21.931034482758619 0 0 -1 0 
1 4.4482758620689644 12.551724137931034 0 -1 0 0 
1 -14.724137931034482 12.551724137931034 0 0 1 0 
1 -14.724137931034482 21.931034482758619 0 1 0 0 
1 -12.241379310344827 21.931034482758619 0 0 1 0 
1 -12.241379310344827 23.586206896551722 0 1 0 0 
2 -0.10344827586206762 27.862068965517242 0 0 0 1 1 0 0 0 1 0 1.25
2 -12.724137931034484 6.7586206896551726 0 0 0 1 1 0 0 0 1 0 1.25
1 -12.379310344827587 8.2758620689655178 0 0 1 0 
1 -12.379310344827587 11.724137931034482 0 1 0 0 
1 -8.931034482758621 11.724137931034482 0 0 -1 0 
1 -8.931034482758621 8.2758620689655178 0 -1 0 0 
2 -0.1724137931034484 6.7586206896551726 0 0 0 1 1 0 0 0 1 0 1.25
2 -12.724137931034484 27.931034482758619 0 0 0 1 1 0 0 0 1 0 1.25
2 -9.4827586206896548 27.793103448275861 0 0 -0 -1 3.7007434154171886e-16 -1 0 -1 -3.7007434154171886e-16 0 1.2
1 -9.4827586206896548 28.993103448275861 0 1 0 0 
2 -3.7586206896551722 27.793103448275861 0 0 0 -1 -3.7007434154171886e-16 1 0 1 3.7007434154171886e-16 0 1.2
1 -3.7586206896551726 26.593103448275862 0 -1 0 0 
1 -3.7586206896551726 26.593103448275862 0 0 0 1 
1 -9.4827586206896548 26.593103448275862 0 0 0 1 
1 -3.7586206896551726 26.593103448275862 2 -1 0 0 
1 -14.999999999999996 22.310501480311402 2 0 1 0 
1 0 31 2 1 0 0 
1 15 22.310501480311402 2 0 1 0 
1 -17 0 2 1 0 0 
2 -12.724137931034484 6.7586206896551726 2 0 0 1 1 0 0 0 1 0 1.25
1 -12.379310344827587 8.2758620689655178 2 0 1 0 
1 -8.931034482758621 8.2758620689655178 2 -1 0 0 
1 -12.379310344827587 11.724137931034482 2 1 0 0 
1 -8.931034482758621 11.724137931034482 2 0 -1 0 
2 -0.1724137931034484 6.7586206896551726 2 0 0 1 1 0 0 0 1 0 1.25
2 -12.724137931034484 27.931034482758619 2 0 0 1 1 0 0 0 1 0 1.25
2 -9.4827586206896548 27.793103448275861 2 0 -0 -1 3.7007434154171886e-16 -1 0 -1 -3.7007434154171886e-16 0 1.2
1 -9.4827586206896548 28.993103448275861 2 1 0 0 
2 -3.7586206896551722 27.793103448275861 2 0 0 -1 -3.7007434154171886e-16 1 0 1 3.7007434154171886e-16 0 1.2
1 -14.724137931034482 12.551724137931034 2 0 1 0 
1 4.4482758620689644 12.551724137931034 2 -1 0 0 
1 -14.724137931034482 21.931034482758619 2 1 0 0 
1 4.4482758620689644 21.931034482758619 2 0 -1 0 
1 -12.241379310344827 21.931034482758619 2 0 1 0 
1 -7.137931034482758 21.931034482758619 2 1 0 0 
1 -12.241379310344827 23.586206896551722 2 1 0 0 
1 -7.137931034482758 23.586206896551722 2 0 -1 0 
2 -0.10344827586206762 27.862068965517242 2 0 0 1 1 0 0 0 1 0 1.25
1 17 31 24 -1 0 0 
1 15 31 15.902497155488298 0 0 -1 
1 7.5 31 23.768173624406128 1 0 -0 
1 17 31 0 0 0 1 
1 7.5 31 18.720590420537683 -1 0 0 
1 -14.999999999999996 31 15.902497155488298 0 0 -1 
2 -12 31 12 0 -1 0 1 0 0 0 0 1 1.5
2 -12 31 18 0 1 0 0 0 -1 -1 0 -0 1.5
1 12 31 16.5 -1 0 0 
1 -12 31 19.5 1 0 0 
2 12 31 18 0 1 0 0 0 1 1 0 0 1.5
2 0 31 12 0 -1 0 1 0 0 0 0 1 1.5
2 -12 31 6 0 1 0 0 0 -1 -1 0 -0 1.5
1 12 31 4.5 -1 0 0 
1 -12 31 7.5 1 0 0 
2 12 31 6 0 1 0 0 0 1 1 0 0 1.5
2 12 31 12 0 -1 0 1 0 0 0 0 1 1.5
1 13.5 33 12 0 -1 0 
2 12 33 12 0 -1 0 1 0 0 0 0 1 1.5
1 17 33 24 -1 0 0 
1 17 33 0 0 0 1 
1 7.5 33 20.259916263234313 -1 0 0 
1 15 33 15.902497155488298 0 0 -1 
1 0 33 2 1 0 0 
1 -14.999999999999996 33 15.902497155488298 0 0 -1 
2 -12 33 12 0 -1 0 1 0 0 0 0 1 1.5
2 -12 33 18 0 1 0 0 0 -1 -1 0 -0 1.5
1 12 33 16.5 -1 0 0 
1 -12 33 19.5 1 0 0 
2 12 33 18 0 1 0 0 0 1 1 0 0 1.5
2 0 33 12 0 -1 0 1 0 0 0 0 1 1.5
2 -12 33 6 0 1 0 0 0 -1 -1 0 -0 1.5
1 12 33 4.5 -1 0 0 
1 -12 33 7.5 1 0 0 
2 12 33 6 0 1 0 0 0 1 1 0 0 1.5
1 17 35 2 -1 0 0 
1 15 36.31985178294191 22.815083084936795 0 -0.79245845753160149 -0.60992589147095166 
1 17 36.31985178294191 22.815083084936795 0 -0.79245845753160149 -0.60992589147095166 
1 15 36.31985178294191 22.815083084936795 1 0 0 
1 15 33.8801482170581 25.984916915063202 1 0 0 
2 15 35.100000000000001 24.399999999999999 -1 0 0 0 -0.60992589147095166 0.79245845753160149 0 0.79245845753160149 0.60992589147095166 2
2 17 35.100000000000001 24.399999999999999 -1 0 0 0 -0.60992589147095166 0.79245845753160149 0 0.79245845753160149 0.60992589147095166 2
1 15 16.080148217058099 12.284916915063199 0 0.79245845753160149 0.60992589147095166 
1 17 16.080148217058099 12.284916915063199 0 0.79245845753160149 0.60992589147095166 
1 16 31.301205071939496 24.000000000000004 1 0 -0 
1 12 33 7.5 0 -1 0 
1 12 33 4.5 0 -1 0 
1 -12 33 7.5 0 -1 0 
1 -12 33 4.5 0 -1 0 
1 1.5 33 12 0 -1 0 
1 12 33 19.5 0 -1 0 
1 12 33 16.5 0 -1 0 
1 -12 33 19.5 0 -1 0 
1 -12 33 16.5 0 -1 0 
1 -10.5 33 12 0 -1 0 
1 15 18.519851782941906 9.1150830849367939 1 0 0 
1 15 16.080148217058099 12.284916915063199 1 0 0 
2 15 17.300000000000004 10.699999999999998 -1 0 -0 0 0.60992589147095166 -0.79245845753160149 0 -0.79245845753160149 -0.60992589147095166 2
2 17 17.300000000000004 10.699999999999998 -1 0 -0 0 0.60992589147095166 -0.79245845753160149 0 -0.79245845753160149 -0.60992589147095166 2
1 -14.999999999999996 30.060501480311402 24 0 1 0 
1 15 30.060501480311402 24 0 1 0 
1 17 33 24 0 -1 0 
1 -3.7586206896551726 28.993103448275861 0 0 0 1 
1 -9.4827586206896548 28.993103448275861 0 0 0 1 
1 -11.474137931034484 27.931034482758619 0 0 0 1 
1 1.0775862068965516 6.7586206896551726 0 0 0 1 
1 -8.931034482758621 8.2758620689655178 0 0 0 1 
1 -12.379310344827587 8.2758620689655178 0 0 0 1 
1 -8.931034482758621 11.724137931034482 0 0 0 1 
1 -12.379310344827587 11.724137931034482 0 0 0 1 
1 -11.474137931034484 6.7586206896551726 0 0 0 1 
1 1.1465517241379324 27.862068965517242 0 0 0 1 
1 -12.241379310344827 23.586206896551722 0 0 0 1 
1 -7.137931034482758 23.586206896551722 0 0 0 1 
1 -12.241379310344827 21.931034482758619 0 0 0 1 
1 -14.724137931034482 21.931034482758619 0 0 0 1 
1 -14.724137931034482 12.551724137931034 0 0 0 1 
1 4.4482758620689644 12.551724137931034 0 0 0 1 
1 4.4482758620689644 21.931034482758619 0 0 0 1 
1 -7.137931034482758 21.931034482758619 0 0 0 1 
1 -17 52 13 1 0 0 
1 -17 39 0 0 0.70710678118654757 0.70710678118654757 
1 -15 39 0 0 0.70710678118654757 0.70710678118654757 
1 -17 54 40 1 0 0 
1 -17 52 13 0 0.073871685515311772 0.99726775445670901 
1 -15 52 13 0 0.073871685515311772 0.99726775445670901 
1 -17 23 42 1 0 0 
1 -17 54 40 0 -0.99792530896845821 0.064382277997965046 
1 -15 54 40 0 -0.99792530896845821 0.064382277997965046 
1 -17 -1 21 1 0 0 
1 -17 23 42 0 -0.75257669470687782 -0.65850460786851805 
1 -15 23 42 0 -0.75257669470687782 -0.65850460786851805 
1 -14.999999999999996 35 9.9024971554882981 -0 0 1 
1 -14.999999999999996 0 9.9024971554882981 0 0 -1 
1 -15 -1 21 0 0.047565149415449405 -0.9988681377244375 
2 -15 47.64594594594594 18.532882882882884 1 0 0 0 1 0 0 0 1 1.7
2 -15 47.557657657657657 27.982432432432429 1 0 0 0 1 0 0 0 1 1.7
2 -15 47.427027027027023 37.180630630630631 1 0 0 0 1 0 0 0 1 1.7
2 -15 27.045495495495494 33.958108108108107 1 0 0 0 1 0 0 0 1 0.84999999999999998
2 -15 28.954504504504502 35.31666666666667 1 0 0 0 1 0 0 0 1 0.84999999999999998
2 -15 30.790090090090089 36.622972972972974 1 0 0 0 1 0 0 0 1 0.84999999999999998
2 -15 17.77027027027027 25.698198198198199 1 0 0 0 1 0 0 0 1 4.5
2 -15 10.278378378378379 18.818018018018019 1 0 0 0 1 0 0 0 1 0.84999999999999998
2 -15 4.6981981981981988 14.846846846846846 1 0 0 0 1 0 0 0 1 0.84999999999999998
2 -15 6.5337837837837842 16.153153153153152 1 0 0 0 1 0 0 0 1 0.84999999999999998
2 -15 8.4427927927927939 17.511711711711712 1 0 0 0 1 0 0 0 1 0.84999999999999998
2 -15 25.209909909909911 32.651801801801803 1 0 0 0 1 0 0 0 1 0.84999999999999998
1 -17 26.059909909909912 32.651801801801803 1 0 0 
2 -17 25.209909909909911 32.651801801801803 1 0 0 0 1 0 0 0 1 0.84999999999999998
1 -17 9.2927927927927936 17.511711711711712 1 0 0 
2 -17 8.4427927927927939 17.511711711711712 1 0 0 0 1 0 0 0 1 0.84999999999999998
1 -17 7.3837837837837839 16.153153153153152 1 0 0 
2 -17 6.5337837837837842 16.153153153153152 1 0 0 0 1 0 0 0 1 0.84999999999999998
1 -17 5.5481981981981985 14.846846846846846 1 0 0 
2 -17 4.6981981981981988 14.846846846846846 1 0 0 0 1 0 0 0 1 0.84999999999999998
1 -17 11.128378378378379 18.818018018018019 1 0 0 
2 -17 10.278378378378379 18.818018018018019 1 0 0 0 1 0 0 0 1 0.84999999999999998
1 -17 22.27027027027027 25.698198198198199 1 0 0 
2 -17 17.77027027027027 25.698198198198199 1 0 0 0 1 0 0 0 1 4.5
1 -17 31.640090090090091 36.622972972972974 1 0 0 
2 -17 30.790090090090089 36.622972972972974 1 0 0 0 1 0 0 0 1 0.84999999999999998
1 -17 29.804504504504504 35.31666666666667 1 0 0 
2 -17 28.954504504504502 35.31666666666667 1 0 0 0 1 0 0 0 1 0.84999999999999998
1 -17 27.895495495495496 33.958108108108107 1 0 0 
2 -17 27.045495495495494 33.958108108108107 1 0 0 0 1 0 0 0 1 0.84999999999999998
1 -17 49.127027027027026 37.180630630630631 1 0 0 
2 -17 47.427027027027023 37.180630630630631 1 0 0 0 1 0 0 0 1 1.7
1 -17 49.25765765765766 27.982432432432429 1 0 0 
2 -17 47.557657657657657 27.982432432432429 1 0 0 0 1 0 0 0 1 1.7
1 -17 49.345945945945942 18.532882882882884 1 0 0 
2 -17 47.64594594594594 18.532882882882884 1 0 0 0 1 0 0 0 1 1.7
1 15 35 9.9024971554882981 -0 0 1 
1 15 23 42 0 -0.75257669470687782 -0.65850460786851805 
1 15 54 40 0 -0.99792530896845821 0.064382277997965046 
1 15 52 13 0 0.073871685515311772 0.99726775445670901 
1 15 39 0 0 0.70710678118654757 0.70710678118654757 
1 15 0 9.9024971554882981 0 0 -1 
1 15 -1 21 0 0.047565149415449405 -0.9988681377244375 
2 15 48.5 17 1 0 0 0 1 0 0 0 1 1.7
2 15 48.5 26.5 1 0 0 0 1 0 0 0 1 1.7
2 15 48.5 35.5 1 0 0 0 1 0 0 0 1 1.7
2 15 5.6000000000000014 16.600000000000001 -1 0 -0 0 0.60380041995623945 -0.79713552979444413 0 -0.79713552979444413 -0.60380041995623945 2
1 15 33.607600839912479 35.305728940411115 0 -0.79713552979444413 -0.60380041995623945 
1 15 4.392399160087523 18.194271059588889 0 0.79713552979444413 0.60380041995623945 
2 15 32.399999999999999 36.899999999999999 -1 0 0 0 -0.60380041995623945 0.79713552979444413 0 0.79713552979444413 0.60380041995623945 2
1 15 31.192399160087518 38.49427105958889 1 0 0 
1 15 33.607600839912479 35.305728940411115 1 0 0 
2 17 32.399999999999999 36.899999999999999 -1 0 0 0 -0.60380041995623945 0.79713552979444413 0 0.79713552979444413 0.60380041995623945 2
1 15 4.392399160087523 18.194271059588889 1 0 0 
1 17 4.392399160087523 18.194271059588889 0 0.79713552979444413 0.60380041995623945 
1 15 6.8076008399124799 15.005728940411112 1 0 0 
1 17 33.607600839912479 35.305728940411115 0 -0.79713552979444413 -0.60380041995623945 
2 17 5.6000000000000014 16.600000000000001 -1 0 -0 0 0.60380041995623945 -0.79713552979444413 0 -0.79713552979444413 -0.60380041995623945 2
1 15 50.200000000000003 35.5 1 0 0 
2 17 48.5 35.5 1 0 0 0 1 0 0 0 1 1.7
1 15 50.200000000000003 26.5 1 0 0 
2 17 48.5 26.5 1 0 0 0 1 0 0 0 1 1.7
1 15 50.200000000000003 17 1 0 0 
2 17 48.5 17 1 0 0 0 1 0 0 0 1 1.7
1 15 52 13 1 0 0 
1 15 54 40 1 0 0 
1 17 52 13 0 0.073871685515311772 0.99726775445670901 
1 15 23 42 1 0 0 
1 17 54 40 0 -0.99792530896845821 0.064382277997965046 
1 15 -1 21 1 0 0 
1 17 23 42 0 -0.75257669470687782 -0.65850460786851805 
1 17 39 0 0 0.70710678118654757 0.70710678118654757 
1 17 -1 21 0 0.047565149415449405 -0.9988681377244375 
1 -17 -1 21 0 0.047565149415449405 -0.9988681377244375 
Polygon3D 0
PolygonOnTriangulations 0
Surfaces 139
1 0 17.5 0 0 0 1 1 0 -0 -0 1 0 
1 0 17.5 0 0 0 1 1 0 -0 -0 1 0 
1 -17 0 0 0 1 0 1 0 0 0 0 -1 
1 -17 0 0 0 0 1 0 1 0 -1 0 0 
1 15 0 0 0 0 1 0 1 0 -1 0 0 
1 15 27.1210029606228 19.804994310976596 1 0 0 -0 0 1 0 -1 0 
1 17 35 0 0 -1 0 -1 0 0 -0 -0 -1 
1 -14.999999999999996 27.1210029606228 19.804994310976596 1 0 0 -0 0 1 0 -1 0 
1 -5.3873405762871984 17.68351440717997 0 -0 -0 -1 -1 0 0 0 1 -0 
1 -7.137931034482758 23.586206896551722 0 1 0 -0 0 -1 0 0 -0 -1 
1 -7.137931034482758 21.931034482758619 0 0 1 0 1 0 0 0 0 -1 
1 4.4482758620689644 21.931034482758619 0 1 0 -0 0 -1 0 0 -0 -1 
1 4.4482758620689644 12.551724137931034 0 0 -1 0 -1 0 0 -0 -0 -1 
1 -14.724137931034482 12.551724137931034 0 -1 0 0 0 1 0 0 0 -1 
1 -14.724137931034482 21.931034482758619 0 0 1 0 1 0 0 0 0 -1 
1 -12.241379310344827 21.931034482758619 0 -1 0 0 0 1 0 0 0 -1 
1 -12.241379310344827 23.586206896551722 0 0 1 0 1 0 0 0 0 -1 
2 -0.10344827586206762 27.862068965517242 0 -0 -0 -1 1 0 0 0 1 0 1.25
1 -0.10344827586206792 27.862068965517246 0 0 0 1 1 0 -0 -0 1 0 
2 -12.724137931034484 6.7586206896551726 0 -0 -0 -1 1 0 0 0 1 0 1.25
1 -12.724137931034482 6.7586206896551717 0 0 0 1 1 0 -0 -0 1 0 
1 -10.655172413793105 10 0 -0 -0 -1 -1 0 0 0 1 -0 
1 -12.379310344827587 8.2758620689655178 0 -1 0 0 0 1 0 0 0 -1 
1 -12.379310344827587 11.724137931034482 0 0 1 0 1 0 0 0 0 -1 
1 -8.931034482758621 11.724137931034482 0 1 0 -0 0 -1 0 0 -0 -1 
1 -8.931034482758621 8.2758620689655178 0 0 -1 0 -1 0 0 -0 -0 -1 
2 -0.1724137931034484 6.7586206896551726 0 -0 -0 -1 1 0 0 0 1 0 1.25
1 -0.1724137931034484 6.7586206896551717 0 0 0 1 1 0 -0 -0 1 0 
2 -12.724137931034484 27.931034482758619 0 -0 -0 -1 1 0 0 0 1 0 1.25
1 -12.724137931034486 27.931034482758619 0 0 0 1 1 0 -0 -0 1 0 
2 -9.4827586206896548 27.793103448275861 0 0 -0 -1 3.7007434154171886e-16 -1 0 -1 -3.7007434154171886e-16 0 1.2
1 -6.6206896551724155 27.793103448275861 0 -0 -0 -1 -1 0 0 0 1 -0 
1 -9.4827586206896548 28.993103448275861 0 0 1 0 1 0 0 0 0 -1 
2 -3.7586206896551722 27.793103448275861 0 0 0 -1 -3.7007434154171886e-16 1 0 1 3.7007434154171886e-16 0 1.2
1 -3.7586206896551726 26.593103448275862 0 0 -1 0 -1 0 0 -0 -0 -1 
1 -6.6206896551724155 27.793103448275861 2 -0 -0 -1 -1 0 0 0 1 -0 
1 0 17.5 2 0 0 1 1 0 -0 -0 1 0 
1 0 31 12 -0 -1 -0 0 0 -1 1 -0 0 
1 -12.724137931034482 6.7586206896551717 2 0 0 1 1 0 -0 -0 1 0 
1 -10.655172413793105 10 2 -0 -0 -1 -1 0 0 0 1 -0 
1 -0.1724137931034484 6.7586206896551717 2 0 0 1 1 0 -0 -0 1 0 
1 -12.724137931034486 27.931034482758619 2 0 0 1 1 0 -0 -0 1 0 
1 -5.3873405762871984 17.68351440717997 2 -0 -0 -1 -1 0 0 0 1 -0 
1 -0.10344827586206792 27.862068965517246 2 0 0 1 1 0 -0 -0 1 0 
1 17 33 24 -0 -0 -1 -1 0 0 0 1 -0 
1 15 16.080148217058099 12.284916915063199 0 -0.60992589147095166 0.79245845753160149 0 0.79245845753160149 0.60992589147095166 -1 0 0 
1 17 33 0 -1 0 0 0 0 1 0 1 -0 
1 15 36.31985178294191 22.815083084936795 0 0.60992589147095166 -0.79245845753160149 0 -0.79245845753160149 -0.60992589147095166 -1 0 -0 
2 -12 33 12 -0 1 -0 1 0 0 0 0 1 1.5
1 -12 31 12 -0 -1 -0 0 0 -1 1 -0 0 
2 -12 33 18 0 1 0 0 0 -1 -1 0 -0 1.5
1 0 31 18 0 1 0 0 -0 1 1 0 -0 
1 12 33 16.5 -0 -0 -1 -1 0 0 0 1 -0 
1 -12 33 19.5 -0 0 1 1 0 0 0 1 -0 
2 12 33 18 0 1 0 0 0 1 1 0 0 1.5
2 0 33 12 -0 1 -0 1 0 0 0 0 1 1.5
1 -8.5465008283713956e-17 31.000000000000007 12 -0 -1 -0 0 0 -1 1 -0 0 
2 -12 33 6 0 1 0 0 0 -1 -1 0 -0 1.5
1 0 31 6 0 1 0 0 -0 1 1 0 -0 
1 12 33 4.5 -0 -0 -1 -1 0 0 0 1 -0 
1 -12 33 7.5 -0 0 1 1 0 0 0 1 -0 
2 12 33 6 0 1 0 0 0 1 1 0 0 1.5
2 12 33 12 -0 1 -0 1 0 0 0 0 1 1.5
1 12 31 12 -0 -1 -0 0 0 -1 1 -0 0 
1 12 33 12 -0 -1 -0 0 0 -1 1 -0 0 
1 0 33 12 -0 -1 -0 0 0 -1 1 -0 0 
1 -12 33 12 -0 -1 -0 0 0 -1 1 -0 0 
1 0 33 18 0 1 0 0 -0 1 1 0 -0 
1 -8.5465008283713956e-17 33.000000000000007 12 -0 -1 -0 0 0 -1 1 -0 0 
1 0 33 6 0 1 0 0 -0 1 1 0 -0 
1 15.000000000000002 26.200000000000006 17.549999999999997 -1 -0 -0 0 0 -1 0 -1 0 
1 17 26.200000000000006 17.549999999999997 -1 -0 -0 0 0 -1 0 -1 0 
1 17 27.1210029606228 19.804994310976596 1 0 0 -0 0 1 0 -1 0 
2 15 35.100000000000001 24.399999999999999 -1 0 0 0 -0.60992589147095166 0.79245845753160149 0 0.79245845753160149 0.60992589147095166 2
2 15 17.300000000000004 10.699999999999998 -1 0 -0 0 0.60992589147095166 -0.79245845753160149 0 -0.79245845753160149 -0.60992589147095166 2
1 -17 39 0 0 -0.70710678118654757 0.70710678118654757 0 0.70710678118654757 0.70710678118654757 -1 0 0 
1 -16.999999999999996 27.1210029606228 19.804994310976596 1 0 0 -0 0 1 0 -1 0 
1 -17 52 13 0 -0.99726775445670901 0.073871685515311772 0 0.073871685515311772 0.99726775445670901 -1 0 0 
1 -17 54 40 0 -0.064382277997965046 -0.99792530896845821 0 -0.99792530896845821 0.064382277997965046 -1 -0 0 
1 -17 23 42 0 0.65850460786851817 -0.75257669470687794 0 -0.75257669470687794 -0.65850460786851817 -1 0 -0 
1 -17 -1 21 -0 0.99886813772443761 0.047565149415449412 0 0.047565149415449412 -0.99886813772443761 -1 0 -0 
2 -17 47.64594594594594 18.532882882882884 -1 -0 -0 0 1 0 0 0 1 1.7
1 -15 47.645945945945932 18.532882882882888 1 0 0 -0 0 1 0 -1 0 
2 -17 47.557657657657657 27.982432432432429 -1 -0 -0 0 1 0 0 0 1 1.7
1 -15 47.557657657657657 27.982432432432429 1 0 0 -0 0 1 0 -1 0 
2 -17 47.427027027027023 37.180630630630631 -1 -0 -0 0 1 0 0 0 1 1.7
1 -15 47.427027027027023 37.180630630630624 1 0 0 -0 0 1 0 -1 0 
2 -17 27.045495495495494 33.958108108108107 -1 -0 -0 0 1 0 0 0 1 0.84999999999999998
1 -15 27.045495495495491 33.958108108108107 1 0 0 -0 0 1 0 -1 0 
2 -17 28.954504504504502 35.31666666666667 -1 -0 -0 0 1 0 0 0 1 0.84999999999999998
1 -15 28.954504504504502 35.31666666666667 1 0 0 -0 0 1 0 -1 0 
2 -17 30.790090090090089 36.622972972972974 -1 -0 -0 0 1 0 0 0 1 0.84999999999999998
1 -15 30.790090090090089 36.622972972972967 1 0 0 -0 0 1 0 -1 0 
2 -17 17.77027027027027 25.698198198198199 -1 -0 -0 0 1 0 0 0 1 4.5
1 -15 17.77027027027027 25.698198198198199 1 0 0 -0 0 1 0 -1 0 
2 -17 10.278378378378379 18.818018018018019 -1 -0 -0 0 1 0 0 0 1 0.84999999999999998
1 -15 10.278378378378381 18.818018018018023 1 0 0 -0 0 1 0 -1 0 
2 -17 4.6981981981981988 14.846846846846846 -1 -0 -0 0 1 0 0 0 1 0.84999999999999998
1 -15 4.6981981981981997 14.846846846846844 1 0 0 -0 0 1 0 -1 0 
2 -17 6.5337837837837842 16.153153153153152 -1 -0 -0 0 1 0 0 0 1 0.84999999999999998
1 -15 6.5337837837837842 16.153153153153152 1 0 0 -0 0 1 0 -1 0 
2 -17 8.4427927927927939 17.511711711711712 -1 -0 -0 0 1 0 0 0 1 0.84999999999999998
1 -15 8.4427927927927939 17.511711711711712 1 0 0 -0 0 1 0 -1 0 
2 -17 25.209909909909911 32.651801801801803 -1 -0 -0 0 1 0 0 0 1 0.84999999999999998
1 -15 25.209909909909914 32.651801801801803 1 0 0 -0 0 1 0 -1 0 
1 -17 25.209909909909914 32.651801801801803 1 0 0 -0 0 1 0 -1 0 
1 -17 8.4427927927927939 17.511711711711712 1 0 0 -0 0 1 0 -1 0 
1 -17 6.5337837837837842 16.153153153153152 1 0 0 -0 0 1 0 -1 0 
1 -17 4.6981981981981997 14.846846846846844 1 0 0 -0 0 1 0 -1 0 
1 -17 10.278378378378381 18.818018018018023 1 0 0 -0 0 1 0 -1 0 
1 -17 17.77027027027027 25.698198198198199 1 0 0 -0 0 1 0 -1 0 
1 -17 30.790090090090089 36.622972972972967 1 0 0 -0 0 1 0 -1 0 
1 -17 28.954504504504502 35.31666666666667 1 0 0 -0 0 1 0 -1 0 
1 -17 27.045495495495491 33.958108108108107 1 0 0 -0 0 1 0 -1 0 
1 -17 47.427027027027023 37.180630630630624 1 0 0 -0 0 1 0 -1 0 
1 -17 47.557657657657657 27.982432432432429 1 0 0 -0 0 1 0 -1 0 
1 -17 47.645945945945932 18.532882882882888 1 0 0 -0 0 1 0 -1 0 
1 15 23 42 0 0.65850460786851817 -0.75257669470687794 0 -0.75257669470687794 -0.65850460786851817 -1 0 -0 
1 15 -1 21 -0 0.99886813772443761 0.047565149415449412 0 0.047565149415449412 -0.99886813772443761 -1 0 -0 
2 15 48.5 17 -1 -0 -0 0 1 0 0 0 1 1.7
1 15.000000000000002 48.499999999999993 17.000000000000004 1 0 0 -0 0 1 0 -1 0 
2 15 48.5 26.5 -1 -0 -0 0 1 0 0 0 1 1.7
1 15.000000000000002 48.499999999999993 26.5 1 0 0 -0 0 1 0 -1 0 
2 15 48.5 35.5 -1 -0 -0 0 1 0 0 0 1 1.7
1 15.000000000000002 48.499999999999993 35.5 1 0 0 -0 0 1 0 -1 0 
2 15 5.6000000000000014 16.600000000000001 -1 0 -0 0 0.60380041995623945 -0.79713552979444413 0 -0.79713552979444413 -0.60380041995623945 2
1 15.000000000000002 19 26.750000000000004 -1 -0 -0 0 0 -1 0 -1 0 
1 15 33.607600839912479 35.305728940411115 0 0.60380041995623945 -0.79713552979444413 0 -0.79713552979444402 -0.60380041995623934 -1 0 -0 
1 15 4.392399160087523 18.194271059588889 0 -0.60380041995623945 0.79713552979444413 0 0.79713552979444402 0.60380041995623934 -1 0 0 
2 15 32.399999999999999 36.899999999999999 -1 0 0 0 -0.60380041995623945 0.79713552979444413 0 0.79713552979444413 0.60380041995623945 2
1 17 19 26.750000000000004 -1 -0 -0 0 0 -1 0 -1 0 
1 17 48.499999999999993 35.5 1 0 0 -0 0 1 0 -1 0 
1 17 48.499999999999993 26.5 1 0 0 -0 0 1 0 -1 0 
1 17 48.499999999999993 17.000000000000004 1 0 0 -0 0 1 0 -1 0 
1 15 52 13 0 -0.99726775445670901 0.073871685515311772 0 0.073871685515311772 0.99726775445670901 -1 0 0 
1 15 54 40 0 -0.064382277997965046 -0.99792530896845821 0 -0.99792530896845821 0.064382277997965046 -1 -0 0 
1 15 39 0 0 -0.70710678118654757 0.70710678118654757 0 0.70710678118654757 0.70710678118654757 -1 0 0 
1 17 0 0 -1 0 0 0 1 0 0 0 -1 
1 -17 35 0 1 0 -0 0 -1 0 0 -0 -1 
Triangulations 0

TShapes 603
Ve
1.00000003552714e-07
-17 0 0
0 0

0101101
*
Ve
1e-07
-17 39 0
0 0

0101101
*
Ed
 1e-07 1 1 0
1  1 0 0 39
0

0101000
+603 0 -602 0 *
Ve
1.50000003552714e-07
-15 0 0
0 0

0101101
*
Ed
 1e-07 1 1 0
1  2 0 0 2
2  1 2 0 0 2
2  2 3 0 0 2
2  3 4 0 0 2
0

0101000
+603 0 -600 0 *
Ve
2.12133034355964e-07
15 0 0
0 0

0101101
*
Ed
 1e-07 1 1 0
1  2 0 2 32
2  1 2 0 2 32
2  2 3 0 2 32
0

0101000
+600 0 -598 0 *
Ve
1e-07
17 0 0
0 0

0101101
*
Ed
 1e-07 1 1 0
1  2 0 32 34
2  1 2 0 32 34
2  2 3 0 32 34
2  4 5 0 32 34
0

0101000
+598 0 -596 0 *
Ve
1e-07
17 39 0
0 0

0101101
*
Ed
 1e-07 1 1 0
1  3 0 0 39
0

0101000
+594 0 -596 0 *
Ve
1e-07
15 39 0
0 0

0101101
*
Ed
 1e-07 1 1 0
1  4 0 0 2
2  5 5 0 0 2
0

0101000
+592 0 -594 0 *
Ve
1.5e-07
15 35 0
0 0

0101101
*
Ed
 1e-07 1 1 0
1  5 0 35 39
2  6 6 0 35 39
2  7 5 0 35 39
0

0101000
+590 0 -592 0 *
Ve
1.50000003552714e-07
-15 35 0
0 0

0101101
*
Ed
 1e-07 1 1 0
1  6 0 2 32
2  8 2 0 2 32
2  9 7 0 2 32
0

0101000
+590 0 -588 0 *
Ve
1e-07
-15 39 0
0 0

0101101
*
Ed
 1e-07 1 1 0
1  7 0 35 39
2  10 8 0 35 39
2  11 4 0 35 39
0

0101000
+588 0 -586 0 *
Ed
 1e-07 1 1 0
1  8 0 0 2
2  12 4 0 0 2
0

0101000
+602 0 -586 0 *
Wi

0101100
-601 0 +599 0 +597 0 +595 0 -593 0 -591 0 -589 0 +587 0 +585 0 -584 0 
*
Ve
1e-07
-7.13793103448276 23.5862068965517 0
0 0

0101101
*
Ve
1e-07
-7.13793103448276 21.9310344827586 0
0 0

0101101
*
Ed
 1e-07 1 1 0
1  9 0 0 1.6551724137931
2  13 9 0 0 1.6551724137931
2  14 10 0 0 1.6551724137931
2  15 2 0 0 1.6551724137931
0

0101000
+582 0 -581 0 *
Ve
1e-07
4.44827586206896 21.9310344827586 0
0 0

0101101
*
Ed
 1e-07 1 1 0
1  10 0 0 11.5862068965517
2  16 9 0 0 11.5862068965517
2  17 11 0 0 11.5862068965517
2  18 2 0 0 11.5862068965517
0

0101000
+581 0 -579 0 *
Ve
1e-07
4.44827586206896 12.551724137931 0
0 0

0101101
*
Ed
 1e-07 1 1 0
1  11 0 0 9.37931034482759
2  19 9 0 0 9.37931034482759
2  20 12 0 0 9.37931034482759
2  21 2 0 0 9.37931034482759
0

0101000
+579 0 -577 0 *
Ve
1e-07
-14.7241379310345 12.551724137931 0
0 0

0101101
*
Ed
 1e-07 1 1 0
1  12 0 0 19.1724137931034
2  22 9 0 0 19.1724137931034
2  23 13 0 0 19.1724137931034
2  24 2 0 0 19.1724137931034
0

0101000
+577 0 -575 0 *
Ve
1e-07
-14.7241379310345 21.9310344827586 0
0 0

0101101
*
Ed
 1e-07 1 1 0
1  13 0 0 9.37931034482759
2  25 9 0 0 9.37931034482759
2  26 14 0 0 9.37931034482759
2  27 2 0 0 9.37931034482759
0

0101000
+575 0 -573 0 *
Ve
1e-07
-12.2413793103448 21.9310344827586 0
0 0

0101101
*
Ed
 1e-07 1 1 0
1  14 0 0 2.48275862068965
2  28 9 0 0 2.48275862068965
2  29 15 0 0 2.48275862068965
2  30 2 0 0 2.48275862068965
0

0101000
+573 0 -571 0 *
Ve
1e-07
-12.2413793103448 23.5862068965517 0
0 0

0101101
*
Ed
 1e-07 1 1 0
1  15 0 0 1.6551724137931
2  31 9 0 0 1.6551724137931
2  32 16 0 0 1.6551724137931
2  33 2 0 0 1.6551724137931
0

0101000
+571 0 -569 0 *
Ed
 1e-07 1 1 0
1  16 0 0 5.10344827586207
2  34 9 0 0 5.10344827586207
2  35 17 0 0 5.10344827586207
2  36 2 0 0 5.10344827586207
0

0101000
+569 0 -582 0 *
Wi

0101100
+580 0 +578 0 +576 0 +574 0 +572 0 +570 0 +568 0 +567 0 *
Ve
1e-07
1.14655172413793 27.8620689655172 0
0 0

0101101
*
Ed
 1e-07 1 1 0
1  17 0 0 6.28318530717959
2  37 18 0 0 6.28318530717959
2  38 19 0 0 6.28318530717959
2  39 2 0 0 6.28318530717959
0

0101000
+565 0 -565 0 *
Wi

0101100
-564 0 *
Ve
1e-07
-11.4741379310345 6.75862068965517 0
0 0

0101101
*
Ed
 1e-07 1 1 0
1  18 0 0 6.28318530717959
2  40 20 0 0 6.28318530717959
2  41 21 0 0 6.28318530717959
2  42 2 0 0 6.28318530717959
0

0101000
+562 0 -562 0 *
Wi

0101100
-561 0 *
Ve
1e-07
-12.3793103448276 8.27586206896552 0
0 0

0101101
*
Ve
1e-07
-12.3793103448276 11.7241379310345 0
0 0

0101101
*
Ed
 1e-07 1 1 0
1  19 0 0 3.44827586206896
2  43 22 0 0 3.44827586206896
2  44 23 0 0 3.44827586206896
2  45 2 0 0 3.44827586206896
0

0101000
+559 0 -558 0 *
Ve
1e-07
-8.93103448275862 11.7241379310345 0
0 0

0101101
*
Ed
 1e-07 1 1 0
1  20 0 0 3.44827586206897
2  46 22 0 0 3.44827586206897
2  47 24 0 0 3.44827586206897
2  48 2 0 0 3.44827586206897
0

0101000
+558 0 -556 0 *
Ve
1e-07
-8.93103448275862 8.27586206896552 0
0 0

0101101
*
Ed
 1e-07 1 1 0
1  21 0 0 3.44827586206896
2  49 22 0 0 3.44827586206896
2  50 25 0 0 3.44827586206896
2  51 2 0 0 3.44827586206896
0

0101000
+556 0 -554 0 *
Ed
 1e-07 1 1 0
1  22 0 0 3.44827586206897
2  52 22 0 0 3.44827586206897
2  53 26 0 0 3.44827586206897
2  54 2 0 0 3.44827586206897
0

0101000
+554 0 -559 0 *
Wi

0101100
+557 0 +555 0 +553 0 +552 0 *
Ve
1e-07
1.07758620689655 6.75862068965517 0
0 0

0101101
*
Ed
 1e-07 1 1 0
1  23 0 0 6.28318530717959
2  55 27 0 0 6.28318530717959
2  56 28 0 0 6.28318530717959
2  57 2 0 0 6.28318530717959
0

0101000
+550 0 -550 0 *
Wi

0101100
-549 0 *
Ve
1e-07
-11.4741379310345 27.9310344827586 0
0 0

0101101
*
Ed
 1e-07 1 1 0
1  24 0 0 6.28318530717959
2  58 29 0 0 6.28318530717959
2  59 30 0 0 6.28318530717959
2  60 2 0 0 6.28318530717959
0

0101000
+547 0 -547 0 *
Wi

0101100
-546 0 *
Ve
1e-07
-9.48275862068965 26.5931034482759 0
0 0

0101101
*
Ve
1e-07
-9.48275862068965 28.9931034482759 0
0 0

0101101
*
Ed
 1e-07 1 1 0
1  25 0 0 3.14159265358979
2  61 31 0 0 3.14159265358979
2  62 32 0 0 3.14159265358979
2  63 2 0 0 3.14159265358979
0

0101000
+544 0 -543 0 *
Ve
1e-07
-3.75862068965517 28.9931034482759 0
0 0

0101101
*
Ed
 1e-07 1 1 0
1  26 0 0 5.72413793103448
2  64 32 0 0 5.72413793103448
2  65 33 0 0 5.72413793103448
2  66 2 0 0 5.72413793103448
0

0101000
+543 0 -541 0 *
Ve
1e-07
-3.75862068965517 26.5931034482759 0
0 0

0101101
*
Ed
 1e-07 1 1 0
1  27 0 0 3.14159265358979
2  67 34 0 0 3.14159265358979
2  68 32 0 0 3.14159265358979
2  69 2 0 0 3.14159265358979
0

0101000
+541 0 -539 0 *
Ed
 1e-07 1 1 0
1  28 0 0 5.72413793103448
2  70 32 0 0 5.72413793103448
2  71 35 0 0 5.72413793103448
2  72 2 0 0 5.72413793103448
0

0101000
+539 0 -544 0 *
Wi

0101100
+542 0 +540 0 +538 0 +537 0 *
Fa
0  0 1 0

0111000
+583 0 +566 0 +563 0 +560 0 +551 0 +548 0 +545 0 +536 0 *
Ve
1e-07
-3.75862068965517 26.5931034482759 2
0 0

0101101
*
Ed
 1e-07 1 1 0
1  29 0 0 2
2  73 34 0 0 2
4 G1 34 0 35 0
2  74 35 0 0 2
0

0101000
+539 0 -534 0 *
Ve
1e-07
-9.48275862068965 26.5931034482759 2
0 0

0101101
*
Ed
 1e-07 1 1 0
1  30 0 0 2
2  75 31 0 0 2
4 G1 35 0 31 0
2  76 35 0 0 2
0

0101000
+544 0 -532 0 *
Ed
 1e-07 1 1 0
1  31 0 0 5.72413793103448
2  77 36 0 0 5.72413793103448
2  78 35 0 0 5.72413793103448
2  79 37 0 0 5.72413793103448
0

0101000
+534 0 -532 0 *
Wi

0101100
+533 0 -531 0 -537 0 +530 0 *
Fa
0  1e-07 35 0

0101000
+529 0 *
Ve
1.5e-07
-15 0 2
0 0

0101101
*
Ve
1.5e-07
-15 31 2
0 0

0101101
*
Ed
 1.5e-07 1 1 0
1  32 0 -22.3105014803114 8.6894985196886
2  80 37 0 -22.3105014803114 8.6894985196886
2  81 8 0 -22.3105014803114 8.6894985196886
0

0101000
+527 0 -526 0 *
Ve
1.5e-07
15 31 2
0 0

0101101
*
Ed
 1.5e-07 1 1 0
1  33 0 -15 15
2  82 37 0 -15 15
2  83 38 0 -15 15
0

0101000
+526 0 -524 0 *
Ve
1.5e-07
15 0 2
0 0

0101101
*
Ed
 1.5e-07 1 1 0
1  34 0 -22.3105014803114 8.6894985196886
2  84 37 0 -22.3105014803114 8.6894985196886
2  85 6 0 -22.3105014803114 8.6894985196886
0

0101000
+522 0 -524 0 *
Ed
 1e-07 1 1 0
1  35 0 2 32
2  86 37 0 2 32
2  87 3 0 2 32
0

0101000
+527 0 -522 0 *
Wi

0101100
-525 0 -523 0 +521 0 +520 0 *
Ve
1e-07
-11.4741379310345 6.75862068965517 2
0 0

0101101
*
Ed
 1e-07 1 1 0
1  36 0 0 6.28318530717959
2  88 20 0 0 6.28318530717959
2  89 39 0 0 6.28318530717959
2  90 37 0 0 6.28318530717959
0

0101000
+518 0 -518 0 *
Wi

0101100
-517 0 *
Ve
1e-07
-12.3793103448276 8.27586206896552 2
0 0

0101101
*
Ve
1e-07
-12.3793103448276 11.7241379310345 2
0 0

0101101
*
Ed
 1e-07 1 1 0
1  37 0 0 3.44827586206896
2  91 40 0 0 3.44827586206896
2  92 23 0 0 3.44827586206896
2  93 37 0 0 3.44827586206896
0

0101000
+515 0 -514 0 *
Ve
1e-07
-8.93103448275862 8.27586206896552 2
0 0

0101101
*
Ed
 1e-07 1 1 0
1  38 0 0 3.44827586206897
2  94 40 0 0 3.44827586206897
2  95 26 0 0 3.44827586206897
2  96 37 0 0 3.44827586206897
0

0101000
+512 0 -515 0 *
Ve
1e-07
-8.93103448275862 11.7241379310345 2
0 0

0101101
*
Ed
 1e-07 1 1 0
1  39 0 0 3.44827586206897
2  97 40 0 0 3.44827586206897
2  98 24 0 0 3.44827586206897
2  99 37 0 0 3.44827586206897
0

0101000
+514 0 -510 0 *
Ed
 1e-07 1 1 0
1  40 0 0 3.44827586206896
2  100 40 0 0 3.44827586206896
2  101 25 0 0 3.44827586206896
2  102 37 0 0 3.44827586206896
0

0101000
+510 0 -512 0 *
Wi

0101100
+513 0 +511 0 +509 0 +508 0 *
Ve
1e-07
1.07758620689655 6.75862068965517 2
0 0

0101101
*
Ed
 1e-07 1 1 0
1  41 0 0 6.28318530717959
2  103 27 0 0 6.28318530717959
2  104 41 0 0 6.28318530717959
2  105 37 0 0 6.28318530717959
0

0101000
+506 0 -506 0 *
Wi

0101100
-505 0 *
Ve
1e-07
-11.4741379310345 27.9310344827586 2
0 0

0101101
*
Ed
 1e-07 1 1 0
1  42 0 0 6.28318530717959
2  106 29 0 0 6.28318530717959
2  107 42 0 0 6.28318530717959
2  108 37 0 0 6.28318530717959
0

0101000
+503 0 -503 0 *
Wi

0101100
-502 0 *
Ve
1e-07
-9.48275862068965 28.9931034482759 2
0 0

0101101
*
Ed
 1e-07 1 1 0
1  43 0 0 3.14159265358979
2  109 31 0 0 3.14159265358979
2  110 36 0 0 3.14159265358979
2  111 37 0 0 3.14159265358979
0

0101000
+532 0 -500 0 *
Ve
1e-07
-3.75862068965517 28.9931034482759 2
0 0

0101101
*
Ed
 1e-07 1 1 0
1  44 0 0 5.72413793103448
2  112 36 0 0 5.72413793103448
2  113 33 0 0 5.72413793103448
2  114 37 0 0 5.72413793103448
0

0101000
+500 0 -498 0 *
Ed
 1e-07 1 1 0
1  45 0 0 3.14159265358979
2  115 34 0 0 3.14159265358979
2  116 36 0 0 3.14159265358979
2  117 37 0 0 3.14159265358979
0

0101000
+498 0 -534 0 *
Wi

0101100
+499 0 +530 0 +497 0 +496 0 *
Ve
1e-07
-14.7241379310345 12.551724137931 2
0 0

0101101
*
Ve
1e-07
-14.7241379310345 21.9310344827586 2
0 0

0101101
*
Ed
 1e-07 1 1 0
1  46 0 0 9.37931034482759
2  118 43 0 0 9.37931034482759
2  119 14 0 0 9.37931034482759
2  120 37 0 0 9.37931034482759
0

0101000
+494 0 -493 0 *
Ve
1e-07
4.44827586206896 12.551724137931 2
0 0

0101101
*
Ed
 1e-07 1 1 0
1  47 0 0 19.1724137931034
2  121 43 0 0 19.1724137931034
2  122 13 0 0 19.1724137931034
2  123 37 0 0 19.1724137931034
0

0101000
+491 0 -494 0 *
Ve
1e-07
-12.2413793103448 21.9310344827586 2
0 0

0101101
*
Ed
 1e-07 1 1 0
1  48 0 0 2.48275862068965
2  124 43 0 0 2.48275862068965
2  125 15 0 0 2.48275862068965
2  126 37 0 0 2.48275862068965
0

0101000
+493 0 -489 0 *
Ve
1e-07
4.44827586206896 21.9310344827586 2
0 0

0101101
*
Ed
 1e-07 1 1 0
1  49 0 0 9.37931034482759
2  127 43 0 0 9.37931034482759
2  128 12 0 0 9.37931034482759
2  129 37 0 0 9.37931034482759
0

0101000
+487 0 -491 0 *
Ve
1e-07
-12.2413793103448 23.5862068965517 2
0 0

0101101
*
Ed
 1e-07 1 1 0
1  50 0 0 1.6551724137931
2  130 43 0 0 1.6551724137931
2  131 16 0 0 1.6551724137931
2  132 37 0 0 1.6551724137931
0

0101000
+489 0 -485 0 *
Ve
1e-07
-7.13793103448276 21.9310344827586 2
0 0

0101101
*
Ed
 1e-07 1 1 0
1  51 0 0 11.5862068965517
2  133 43 0 0 11.5862068965517
2  134 11 0 0 11.5862068965517
2  135 37 0 0 11.5862068965517
0

0101000
+483 0 -487 0 *
Ve
1e-07
-7.13793103448276 23.5862068965517 2
0 0

0101101
*
Ed
 1e-07 1 1 0
1  52 0 0 5.10344827586207
2  136 43 0 0 5.10344827586207
2  137 17 0 0 5.10344827586207
2  138 37 0 0 5.10344827586207
0

0101000
+485 0 -481 0 *
Ed
 1e-07 1 1 0
1  53 0 0 1.6551724137931
2  139 43 0 0 1.6551724137931
2  140 10 0 0 1.6551724137931
2  141 37 0 0 1.6551724137931
0

0101000
+481 0 -483 0 *
Wi

0101100
+492 0 +490 0 +488 0 +486 0 +484 0 +482 0 +480 0 +479 0 *
Ve
1e-07
1.14655172413793 27.8620689655172 2
0 0

0101101
*
Ed
 1e-07 1 1 0
1  54 0 0 6.28318530717959
2  142 18 0 0 6.28318530717959
2  143 44 0 0 6.28318530717959
2  144 37 0 0 6.28318530717959
0

0101000
+477 0 -477 0 *
Wi

0101100
-476 0 *
Fa
0  1e-07 37 0

0101000
+519 0 +516 0 +507 0 +504 0 +501 0 +495 0 +478 0 +475 0 *
Ve
1.5e-07
15 31 24
0 0

0101101
*
Ve
1.5e-07
-15 31 24
0 0

0101101
*
Ed
 1e-07 1 1 0
1  55 0 2 32
2  145 38 0 2 32
2  146 45 0 2 32
0

0101000
+473 0 -472 0 *
Ve
1.50000003552714e-07
15 31 23.7681736244061
0 0

0101101
*
Ed
 1.5e-07 1 1 0
1  56 0 -8.0975028445117 -7.86567646891783
2  147 6 0 -8.0975028445117 -7.86567646891783
2  148 38 0 -8.0975028445117 -7.86567646891783
0

0101000
+473 0 -470 0 *
Ve
1.50000003552714e-07
17 31 23.7681736244061
0 0

0101101
*
Ed
 1.5e-07 1 1 0
1  57 0 7.5 9.5
2  149 46 0 7.5 9.5
2  150 38 0 7.5 9.5
0

0101000
+470 0 -468 0 *
Ve
1.5e-07
17 31 18.7205904205377
0 0

0101101
*
Ed
 1e-07 1 1 0
1  58 0 18.7205904205377 23.7681736244061
2  151 38 0 18.7205904205377 23.7681736244061
2  152 47 0 18.7205904205377 23.7681736244061
0

0101000
+466 0 -468 0 *
Ve
1.50000003552714e-07
15 31 18.7205904205377
0 0

0101101
*
Ed
 1.5e-07 1 1 0
1  59 0 -9.5 -7.5
2  153 48 0 -9.5 -7.5
2  154 38 0 -9.5 -7.5
0

0101000
+466 0 -464 0 *
Ed
 1.5e-07 1 1 0
1  56 0 -2.81809326504939 13.9024971554883
2  147 6 0 -2.81809326504939 13.9024971554883
2  148 38 0 -2.81809326504939 13.9024971554883
0

0101000
+464 0 -524 0 *
Ed
 1.5e-07 1 1 0
1  60 0 -8.0975028445117 13.9024971554883
2  155 8 0 -8.0975028445117 13.9024971554883
2  156 38 0 -8.0975028445117 13.9024971554883
0

0101000
+472 0 -526 0 *
Wi

0101100
+471 0 -469 0 -467 0 +465 0 -463 0 -462 0 +523 0 +461 0 *
Ve
1e-07
-10.5 31 12
0 0

0101101
*
Ed
 1e-07 1 1 0
1  61 0 0 6.28318530717959
2  157 49 0 0 6.28318530717959
2  158 50 0 0 6.28318530717959
2  159 38 0 0 6.28318530717959
0

0101000
+459 0 -459 0 *
Wi

0101100
-458 0 *
Ve
1e-07
-12 31 16.5
0 0

0101101
*
Ve
1e-07
-12 31 19.5
0 0

0101101
*
Ed
 1e-07 1 1 0
1  62 0 0 3.14159265358979
2  160 51 0 0 3.14159265358979
2  161 52 0 0 3.14159265358979
2  162 38 0 0 3.14159265358979
0

0101000
+456 0 -455 0 *
Ve
1e-07
12 31 16.5
0 0

0101101
*
Ed
 1e-07 1 1 0
1  63 0 0 24
2  163 52 0 0 24
2  164 53 0 0 24
2  165 38 0 0 24
0

0101000
+453 0 -456 0 *
Ve
1e-07
12 31 19.5
0 0

0101101
*
Ed
 1e-07 1 1 0
1  64 0 0 24
2  166 52 0 0 24
2  167 54 0 0 24
2  168 38 0 0 24
0

0101000
+455 0 -451 0 *
Ed
 1e-07 1 1 0
1  65 0 0 3.14159265358979
2  169 55 0 0 3.14159265358979
2  170 52 0 0 3.14159265358979
2  171 38 0 0 3.14159265358979
0

0101000
+451 0 -453 0 *
Wi

0101100
+454 0 +452 0 +450 0 +449 0 *
Ve
1e-07
1.5 31 12
0 0

0101101
*
Ed
 1e-07 1 1 0
1  66 0 0 6.28318530717959
2  172 56 0 0 6.28318530717959
2  173 57 0 0 6.28318530717959
2  174 38 0 0 6.28318530717959
0

0101000
+447 0 -447 0 *
Wi

0101100
-446 0 *
Ve
1e-07
-12 31 4.5
0 0

0101101
*
Ve
1e-07
-12 31 7.5
0 0

0101101
*
Ed
 1e-07 1 1 0
1  67 0 0 3.14159265358979
2  175 58 0 0 3.14159265358979
2  176 59 0 0 3.14159265358979
2  177 38 0 0 3.14159265358979
0

0101000
+444 0 -443 0 *
Ve
1e-07
12 31 4.5
0 0

0101101
*
Ed
 1e-07 1 1 0
1  68 0 0 24
2  178 59 0 0 24
2  179 60 0 0 24
2  180 38 0 0 24
0

0101000
+441 0 -444 0 *
Ve
1e-07
12 31 7.5
0 0

0101101
*
Ed
 1e-07 1 1 0
1  69 0 0 24
2  181 59 0 0 24
2  182 61 0 0 24
2  183 38 0 0 24
0

0101000
+443 0 -439 0 *
Ed
 1e-07 1 1 0
1  70 0 0 3.14159265358979
2  184 62 0 0 3.14159265358979
2  185 59 0 0 3.14159265358979
2  186 38 0 0 3.14159265358979
0

0101000
+439 0 -441 0 *
Wi

0101100
+442 0 +440 0 +438 0 +437 0 *
Ve
1e-07
13.5 31 12
0 0

0101101
*
Ed
 1e-07 1 1 0
1  71 0 0 6.28318530717959
2  187 63 0 0 6.28318530717959
2  188 64 0 0 6.28318530717959
2  189 38 0 0 6.28318530717959
0

0101000
+435 0 -435 0 *
Wi

0101100
-434 0 *
Fa
0  1e-07 38 0

0101000
+460 0 +457 0 +448 0 +445 0 +436 0 +433 0 *
Ve
1e-07
13.5 33 12
0 0

0101101
*
Ed
 1e-07 1 1 0
1  72 0 0 2
3  190 191CN 63 0 0 2
0

0101000
+431 0 -435 0 *
Ed
 1e-07 1 1 0
1  73 0 0 6.28318530717959
2  192 63 0 0 6.28318530717959
2  193 65 0 0 6.28318530717959
2  194 66 0 0 6.28318530717959
0

0101000
+431 0 -431 0 *
Wi

0101100
+430 0 -430 0 -429 0 +434 0 *
Fa
0  1e-07 63 0

0101000
+428 0 *
Ve
1e-07
17 33 24
0 0

0101101
*
Ve
1.5e-07
-15 33 24
0 0

0101101
*
Ed
 1e-07 1 1 0
1  74 0 0 32
2  195 66 0 0 32
2  196 45 0 0 32
0

0101000
+426 0 -425 0 *
Ve
1.50000003552714e-07
17 33 20.2599162632343
0 0

0101101
*
Ed
 1e-07 1 1 0
1  75 0 20.2599162632343 24
2  197 66 0 20.2599162632343 24
2  198 47 0 20.2599162632343 24
0

0101000
+423 0 -426 0 *
Ve
1.5e-07
15 33 20.2599162632343
0 0

0101101
*
Ed
 1.5e-07 1 1 0
1  76 0 -9.5 -7.5
2  199 48 0 -9.5 -7.5
2  200 66 0 -9.5 -7.5
0

0101000
+423 0 -421 0 *
Ve
1.5e-07
15 33 2
0 0

0101101
*
Ed
 1.5e-07 1 1 0
1  77 0 -4.35741910774601 13.9024971554883
2  201 6 0 -4.35741910774601 13.9024971554883
2  202 66 0 -4.35741910774601 13.9024971554883
0

0101000
+421 0 -419 0 *
Ve
1.5e-07
-15 33 2
0 0

0101101
*
Ed
 1.5e-07 1 1 0
1  78 0 -15 15
2  203 37 0 -15 15
2  204 66 0 -15 15
0

0101000
+417 0 -419 0 *
Ed
 1.5e-07 1 1 0
1  79 0 -8.0975028445117 13.9024971554883
2  205 8 0 -8.0975028445117 13.9024971554883
2  206 66 0 -8.0975028445117 13.9024971554883
0

0101000
+425 0 -417 0 *
Wi

0101100
+424 0 +422 0 -420 0 -418 0 +416 0 +415 0 *
Ve
1e-07
-10.5 33 12
0 0

0101101
*
Ed
 1e-07 1 1 0
1  80 0 0 6.28318530717959
2  207 49 0 0 6.28318530717959
2  208 67 0 0 6.28318530717959
2  209 66 0 0 6.28318530717959
0

0101000
+413 0 -413 0 *
Wi

0101100
-412 0 *
Ve
1e-07
-12 33 16.5
0 0

0101101
*
Ve
1e-07
-12 33 19.5
0 0

0101101
*
Ed
 1e-07 1 1 0
1  81 0 0 3.14159265358979
2  210 51 0 0 3.14159265358979
2  211 68 0 0 3.14159265358979
2  212 66 0 0 3.14159265358979
0

0101000
+410 0 -409 0 *
Ve
1e-07
12 33 16.5
0 0

0101101
*
Ed
 1e-07 1 1 0
1  82 0 0 24
2  213 68 0 0 24
2  214 53 0 0 24
2  215 66 0 0 24
0

0101000
+407 0 -410 0 *
Ve
1e-07
12 33 19.5
0 0

0101101
*
Ed
 1e-07 1 1 0
1  83 0 0 24
2  216 68 0 0 24
2  217 54 0 0 24
2  218 66 0 0 24
0

0101000
+409 0 -405 0 *
Ed
 1e-07 1 1 0
1  84 0 0 3.14159265358979
2  219 55 0 0 3.14159265358979
2  220 68 0 0 3.14159265358979
2  221 66 0 0 3.14159265358979
0

0101000
+405 0 -407 0 *
Wi

0101100
+408 0 +406 0 +404 0 +403 0 *
Ve
1e-07
1.5 33 12
0 0

0101101
*
Ed
 1e-07 1 1 0
1  85 0 0 6.28318530717959
2  222 56 0 0 6.28318530717959
2  223 69 0 0 6.28318530717959
2  224 66 0 0 6.28318530717959
0

0101000
+401 0 -401 0 *
Wi

0101100
-400 0 *
Ve
1e-07
-12 33 4.5
0 0

0101101
*
Ve
1e-07
-12 33 7.5
0 0

0101101
*
Ed
 1e-07 1 1 0
1  86 0 0 3.14159265358979
2  225 58 0 0 3.14159265358979
2  226 70 0 0 3.14159265358979
2  227 66 0 0 3.14159265358979
0

0101000
+398 0 -397 0 *
Ve
1e-07
12 33 4.5
0 0

0101101
*
Ed
 1e-07 1 1 0
1  87 0 0 24
2  228 70 0 0 24
2  229 60 0 0 24
2  230 66 0 0 24
0

0101000
+395 0 -398 0 *
Ve
1e-07
12 33 7.5
0 0

0101101
*
Ed
 1e-07 1 1 0
1  88 0 0 24
2  231 70 0 0 24
2  232 61 0 0 24
2  233 66 0 0 24
0

0101000
+397 0 -393 0 *
Ed
 1e-07 1 1 0
1  89 0 0 3.14159265358979
2  234 62 0 0 3.14159265358979
2  235 70 0 0 3.14159265358979
2  236 66 0 0 3.14159265358979
0

0101000
+393 0 -395 0 *
Wi

0101100
+396 0 +394 0 +392 0 +391 0 *
Wi

0101100
-429 0 *
Fa
0  1e-07 66 0

0101000
+414 0 +411 0 +402 0 +399 0 +390 0 +389 0 *
Ve
1.5e-07
-15 35 2
0 0

0101101
*
Ed
 1.5e-07 1 1 0
1  32 0 10.6894985196886 12.6894985196886
2  80 37 0 10.6894985196886 12.6894985196886
2  81 8 0 10.6894985196886 12.6894985196886
0

0101000
+417 0 -387 0 *
Ve
1.5e-07
15 35 2
0 0

0101101
*
Ed
 1e-07 1 1 0
1  90 0 2 32
2  237 37 0 2 32
2  238 7 0 2 32
0

0101000
+385 0 -387 0 *
Ed
 1.5e-07 1 1 0
1  34 0 10.6894985196886 12.6894985196886
2  84 37 0 10.6894985196886 12.6894985196886
2  85 6 0 10.6894985196886 12.6894985196886
0

0101000
+419 0 -385 0 *
Wi

0101100
-386 0 +384 0 +383 0 +416 0 *
Fa
0  1e-07 37 0

0101000
+382 0 *
Ve
1e-07
15 36.3198517829419 22.8150830849368
0 0

0101101
*
Ed
 1e-07 1 1 0
1  91 0 0 4.18930702472757
2  239 71 0 0 4.18930702472757
2  240 48 0 0 4.18930702472757
2  241 6 0 0 4.18930702472757
0

0101000
+380 0 -421 0 *
Ve
1e-07
17 36.3198517829419 22.8150830849368
0 0

0101101
*
Ed
 1e-07 1 1 0
1  92 0 0 4.18930702472757
2  242 72 0 0 4.18930702472757
2  243 48 0 0 4.18930702472757
2  244 73 0 0 4.18930702472757
0

0101000
+378 0 -423 0 *
Ed
 1e-07 1 1 0
1  93 0 0 2
2  245 74 0 0 2
4 G1 74 0 48 0
2  246 48 0 0 2
0

0101000
+380 0 -378 0 *
Wi

0101100
-379 0 +420 0 +377 0 +376 0 *
Fa
0  1e-07 48 0

0101000
+375 0 *
Ve
1.00000000111022e-07
15 33.8801482170581 25.9849169150632
0 0

0101101
*
Ve
1.00000000111022e-07
17 33.8801482170581 25.9849169150632
0 0

0101101
*
Ed
 1.00000000111022e-07 1 1 0
1  94 0 0 2
2  247 74 0 0 2
4 G1 46 0 74 0
2  248 46 0 0 2
0

0101000
+373 0 -372 0 *
Ed
 1e-07 1 1 0
1  95 0 0 3.14159265358979
2  249 74 0 0 3.14159265358979
2  250 71 0 0 3.14159265358979
2  251 6 0 0 3.14159265358979
0

0101000
+373 0 -380 0 *
Ed
 1e-07 1 1 0
1  96 0 0 3.14159265358979
2  252 74 0 0 3.14159265358979
2  253 72 0 0 3.14159265358979
2  254 73 0 0 3.14159265358979
0

0101000
+372 0 -378 0 *
Wi

0101100
+371 0 -376 0 -370 0 +369 0 *
Fa
0  1e-07 74 0

0101000
+368 0 *
Ve
1.50000005024296e-07
15 31.3012050719395 24
0 0

0101101
*
Ed
 1e-07 1 1 0
1  97 0 19.2073877314565 22.4617452572145
2  255 71 0 19.2073877314565 22.4617452572145
2  256 46 0 19.2073877314565 22.4617452572145
2  257 6 0 19.2073877314565 22.4617452572145
0

0101000
+366 0 -373 0 *
Ve
1.50000003552714e-07
17 31.3012050719395 24
0 0

0101101
*
Ed
 1e-07 1 1 0
1  98 0 19.2073877314565 22.4617452572145
2  258 72 0 19.2073877314565 22.4617452572145
2  259 46 0 19.2073877314565 22.4617452572145
2  260 73 0 19.2073877314565 22.4617452572145
0

0101000
+364 0 -372 0 *
Ed
 1.5e-07 1 1 0
1  99 0 -1 1
2  261 46 0 -1 1
2  262 45 0 -1 1
0

0101000
+366 0 -364 0 *
Wi

0101100
-365 0 -371 0 +363 0 +362 0 *
Fa
0  1e-07 46 0

0101000
+361 0 *
Ed
 1e-07 1 1 0
1  100 0 0 2
2  263 62 0 0 2
4 G1 61 0 62 0
2  264 61 0 0 2
0

0101000
+393 0 -439 0 *
Ed
 1e-07 1 1 0
1  101 0 0 2
2  265 62 0 0 2
4 G1 62 0 60 0
2  266 60 0 0 2
0

0101000
+395 0 -441 0 *
Wi

0101100
+359 0 -358 0 -391 0 +437 0 *
Fa
0  1e-07 62 0

0101000
+357 0 *
Ed
 1e-07 1 1 0
1  102 0 0 2
2  267 58 0 0 2
4 G1 61 0 58 0
2  268 61 0 0 2
0

0101000
+397 0 -443 0 *
Wi

0101100
+355 0 -359 0 -392 0 +438 0 *
Fa
0  1e-07 61 0

0101000
+354 0 *
Ed
 1e-07 1 1 0
1  103 0 0 2
2  269 58 0 0 2
4 G1 60 0 58 0
2  270 60 0 0 2
0

0101000
+398 0 -444 0 *
Wi

0101100
+358 0 -352 0 -394 0 +440 0 *
Fa
0  1e-07 60 0

0101000
+351 0 *
Wi

0101100
+352 0 -355 0 -396 0 +442 0 *
Fa
0  1e-07 58 0

0101000
+349 0 *
Ed
 1e-07 1 1 0
1  104 0 0 2
3  271 272CN 56 0 0 2
0

0101000
+401 0 -447 0 *
Wi

0101100
+347 0 -347 0 -400 0 +446 0 *
Fa
0  1e-07 56 0

0101000
+346 0 *
Ed
 1e-07 1 1 0
1  105 0 0 2
2  273 55 0 0 2
4 G1 54 0 55 0
2  274 54 0 0 2
0

0101000
+405 0 -451 0 *
Ed
 1e-07 1 1 0
1  106 0 0 2
2  275 55 0 0 2
4 G1 55 0 53 0
2  276 53 0 0 2
0

0101000
+407 0 -453 0 *
Wi

0101100
+344 0 -343 0 -403 0 +449 0 *
Fa
0  1e-07 55 0

0101000
+342 0 *
Ed
 1e-07 1 1 0
1  107 0 0 2
2  277 51 0 0 2
4 G1 54 0 51 0
2  278 54 0 0 2
0

0101000
+409 0 -455 0 *
Wi

0101100
+340 0 -344 0 -404 0 +450 0 *
Fa
0  1e-07 54 0

0101000
+339 0 *
Ed
 1e-07 1 1 0
1  108 0 0 2
2  279 51 0 0 2
4 G1 53 0 51 0
2  280 53 0 0 2
0

0101000
+410 0 -456 0 *
Wi

0101100
+343 0 -337 0 -406 0 +452 0 *
Fa
0  1e-07 53 0

0101000
+336 0 *
Wi

0101100
+337 0 -340 0 -408 0 +454 0 *
Fa
0  1e-07 51 0

0101000
+334 0 *
Ed
 1e-07 1 1 0
1  109 0 0 2
3  281 282CN 49 0 0 2
0

0101000
+413 0 -459 0 *
Wi

0101100
+332 0 -332 0 -412 0 +458 0 *
Fa
0  1e-07 49 0

0101000
+331 0 *
Ve
1.00000000111022e-07
15 18.5198517829419 9.11508308493679
0 0

0101101
*
Ed
 1e-07 1 1 0
1  91 0 6.71309862666179 22.4617452572145
2  239 71 0 6.71309862666179 22.4617452572145
2  240 48 0 6.71309862666179 22.4617452572145
2  241 6 0 6.71309862666179 22.4617452572145
0

0101000
+464 0 -329 0 *
Ve
1.00000000111022e-07
17 18.5198517829419 9.11508308493679
0 0

0101101
*
Ed
 1.00000000111022e-07 1 1 0
1  110 0 0 2
2  283 75 0 0 2
4 G1 48 0 75 0
2  284 48 0 0 2
0

0101000
+329 0 -327 0 *
Ed
 1e-07 1 1 0
1  92 0 6.71309862666179 22.4617452572145
2  242 72 0 6.71309862666179 22.4617452572145
2  243 48 0 6.71309862666179 22.4617452572145
2  244 73 0 6.71309862666179 22.4617452572145
0

0101000
+466 0 -327 0 *
Wi

0101100
-328 0 -326 0 +325 0 -463 0 *
Fa
0  1e-07 48 0

0101000
+324 0 *
Ve
1e-07
15 16.0801482170581 12.2849169150632
0 0

0101101
*
Ve
1e-07
17 16.0801482170581 12.2849169150632
0 0

0101101
*
Ed
 1e-07 1 1 0
1  111 0 0 2
2  285 75 0 0 2
4 G1 46 0 75 0
2  286 46 0 0 2
0

0101000
+322 0 -321 0 *
Ed
 1e-07 1 1 0
1  112 0 0 3.14159265358979
2  287 75 0 0 3.14159265358979
2  288 71 0 0 3.14159265358979
2  289 6 0 0 3.14159265358979
0

0101000
+329 0 -322 0 *
Ed
 1e-07 1 1 0
1  113 0 0 3.14159265358979
2  290 75 0 0 3.14159265358979
2  291 72 0 0 3.14159265358979
2  292 73 0 0 3.14159265358979
0

0101000
+327 0 -321 0 *
Wi

0101100
+326 0 -320 0 -319 0 +318 0 *
Fa
0  1e-07 75 0

0101000
+317 0 *
Ed
 1e-07 1 1 0
1  97 0 0 18.827298315946
2  255 71 0 0 18.827298315946
2  256 46 0 0 18.827298315946
2  257 6 0 0 18.827298315946
0

0101000
+322 0 -470 0 *
Ed
 1e-07 1 1 0
1  98 0 0 18.827298315946
2  258 72 0 0 18.827298315946
2  259 46 0 0 18.827298315946
2  260 73 0 0 18.827298315946
0

0101000
+321 0 -468 0 *
Wi

0101100
-315 0 -467 0 +314 0 +320 0 *
Fa
0  1e-07 46 0

0101000
+313 0 *
Ed
 1.5e-07 1 1 0
1  114 0 0.939498519688598 2.9394985196886
2  293 8 0 0.939498519688598 2.9394985196886
2  294 45 0 0.939498519688598 2.9394985196886
0

0101000
+472 0 -425 0 *
Ed
 1.5e-07 1 1 0
1  115 0 0.939498519688598 1.24070359162809
2  295 6 0 0.939498519688598 1.24070359162809
2  296 45 0 0.939498519688598 1.24070359162809
0

0101000
+473 0 -366 0 *
Ed
 1e-07 1 1 0
1  116 0 0 1.6987949280605
2  297 47 0 0 1.6987949280605
2  298 45 0 0 1.6987949280605
0

0101000
+426 0 -364 0 *
Wi

0101100
-424 0 +311 0 +471 0 -310 0 -362 0 +309 0 *
Fa
0  1e-07 45 0

0101000
+308 0 *
Ed
 1e-07 1 1 0
1  117 0 0 2
2  299 34 0 0 2
4 G1 33 0 34 0
2  300 33 0 0 2
0

0101000
+541 0 -498 0 *
Wi

0101100
+306 0 -533 0 -538 0 +496 0 *
Fa
0  1e-07 34 0

0101000
+305 0 *
Ed
 1e-07 1 1 0
1  118 0 0 2
2  301 31 0 0 2
4 G1 33 0 31 0
2  302 33 0 0 2
0

0101000
+543 0 -500 0 *
Wi

0101100
+303 0 -306 0 -540 0 +497 0 *
Fa
0  1e-07 33 0

0101000
+302 0 *
Wi

0101100
+531 0 -303 0 -542 0 +499 0 *
Fa
0  1e-07 31 0

0101000
+300 0 *
Ed
 1e-07 1 1 0
1  119 0 0 2
3  303 304CN 29 0 0 2
0

0101000
+547 0 -503 0 *
Wi

0101100
+298 0 -298 0 -546 0 +502 0 *
Fa
0  1e-07 29 0

0101000
+297 0 *
Ed
 1e-07 1 1 0
1  120 0 0 2
3  305 306CN 27 0 0 2
0

0101000
+550 0 -506 0 *
Wi

0101100
+295 0 -295 0 -549 0 +505 0 *
Fa
0  1e-07 27 0

0101000
+294 0 *
Ed
 1e-07 1 1 0
1  121 0 0 2
2  307 25 0 0 2
2  308 26 0 0 2
0

0101000
+554 0 -512 0 *
Ed
 1e-07 1 1 0
1  122 0 0 2
2  309 26 0 0 2
2  310 23 0 0 2
0

0101000
+559 0 -515 0 *
Wi

0101100
+292 0 -291 0 -552 0 +511 0 *
Fa
0  1e-07 26 0

0101000
+290 0 *
Ed
 1e-07 1 1 0
1  123 0 0 2
2  311 24 0 0 2
2  312 25 0 0 2
0

0101000
+556 0 -510 0 *
Wi

0101100
+288 0 -292 0 -553 0 +508 0 *
Fa
0  1e-07 25 0

0101000
+287 0 *
Ed
 1e-07 1 1 0
1  124 0 0 2
2  313 24 0 0 2
2  314 23 0 0 2
0

0101000
+558 0 -514 0 *
Wi

0101100
+285 0 -288 0 -555 0 +509 0 *
Fa
0  1e-07 24 0

0101000
+284 0 *
Wi

0101100
+291 0 -285 0 -557 0 +513 0 *
Fa
0  1e-07 23 0

0101000
+282 0 *
Ed
 1e-07 1 1 0
1  125 0 0 2
3  315 316CN 20 0 0 2
0

0101000
+562 0 -518 0 *
Wi

0101100
+280 0 -280 0 -561 0 +517 0 *
Fa
0  1e-07 20 0

0101000
+279 0 *
Ed
 1e-07 1 1 0
1  126 0 0 2
3  317 318CN 18 0 0 2
0

0101000
+565 0 -477 0 *
Wi

0101100
+277 0 -277 0 -564 0 +476 0 *
Fa
0  1e-07 18 0

0101000
+276 0 *
Ed
 1e-07 1 1 0
1  127 0 0 2
2  319 16 0 0 2
2  320 17 0 0 2
0

0101000
+569 0 -485 0 *
Ed
 1e-07 1 1 0
1  128 0 0 2
2  321 17 0 0 2
2  322 10 0 0 2
0

0101000
+582 0 -481 0 *
Wi

0101100
+274 0 -273 0 -567 0 +480 0 *
Fa
0  1e-07 17 0

0101000
+272 0 *
Ed
 1e-07 1 1 0
1  129 0 0 2
2  323 15 0 0 2
2  324 16 0 0 2
0

0101000
+571 0 -489 0 *
Wi

0101100
+270 0 -274 0 -568 0 +484 0 *
Fa
0  1e-07 16 0

0101000
+269 0 *
Ed
 1e-07 1 1 0
1  130 0 0 2
2  325 15 0 0 2
2  326 14 0 0 2
0

0101000
+573 0 -493 0 *
Wi

0101100
+267 0 -270 0 -570 0 +488 0 *
Fa
0  1e-07 15 0

0101000
+266 0 *
Ed
 1e-07 1 1 0
1  131 0 0 2
2  327 13 0 0 2
2  328 14 0 0 2
0

0101000
+575 0 -494 0 *
Wi

0101100
+264 0 -267 0 -572 0 +492 0 *
Fa
0  1e-07 14 0

0101000
+263 0 *
Ed
 1e-07 1 1 0
1  132 0 0 2
2  329 12 0 0 2
2  330 13 0 0 2
0

0101000
+577 0 -491 0 *
Wi

0101100
+261 0 -264 0 -574 0 +490 0 *
Fa
0  1e-07 13 0

0101000
+260 0 *
Ed
 1e-07 1 1 0
1  133 0 0 2
2  331 11 0 0 2
2  332 12 0 0 2
0

0101000
+579 0 -487 0 *
Wi

0101100
+258 0 -261 0 -576 0 +486 0 *
Fa
0  1e-07 12 0

0101000
+257 0 *
Ed
 1e-07 1 1 0
1  134 0 0 2
2  333 10 0 0 2
2  334 11 0 0 2
0

0101000
+581 0 -483 0 *
Wi

0101100
+255 0 -258 0 -578 0 +482 0 *
Fa
0  1e-07 11 0

0101000
+254 0 *
Wi

0101100
+273 0 -255 0 -580 0 +479 0 *
Fa
0  1e-07 10 0

0101000
+252 0 *
Ve
1e-07
-17 52 13
0 0

0101101
*
Ve
1e-07
-15 52 13
0 0

0101101
*
Ed
 1e-07 1 1 0
1  135 0 0 2
0

0101000
+250 0 -249 0 *
Ed
 1e-07 1 1 0
1  136 0 0 18.3847763108502
2  335 77 0 0 18.3847763108502
0

0101000
+602 0 -250 0 *
Ed
 1e-07 1 1 0
1  137 0 0 18.3847763108502
2  336 8 0 0 18.3847763108502
0

0101000
+586 0 -249 0 *
Wi

0101100
+584 0 -248 0 -247 0 +246 0 *
Fa
0  1e-07 76 0

0101000
+245 0 *
Ve
1e-07
-17 54 40
0 0

0101101
*
Ve
1e-07
-15 54 40
0 0

0101101
*
Ed
 1e-07 1 1 0
1  138 0 0 2
0

0101000
+243 0 -242 0 *
Ed
 1e-07 1 1 0
1  139 0 0 27.0739727413618
2  337 77 0 0 27.0739727413618
0

0101000
+250 0 -243 0 *
Ed
 1e-07 1 1 0
1  140 0 0 27.0739727413618
2  338 8 0 0 27.0739727413618
0

0101000
+249 0 -242 0 *
Wi

0101100
+248 0 -241 0 -240 0 +239 0 *
Fa
0  1e-07 78 0

0101000
+238 0 *
Ve
1e-07
-17 23 42
0 0

0101101
*
Ve
1e-07
-15 23 42
0 0

0101101
*
Ed
 1e-07 1 1 0
1  141 0 0 2
2  339 80 0 0 2
0

0101000
+236 0 -235 0 *
Ed
 1e-07 1 1 0
1  142 0 0 31.0644491340181
2  340 77 0 0 31.0644491340181
0

0101000
+243 0 -236 0 *
Ed
 1e-07 1 1 0
1  143 0 0 31.0644491340181
2  341 8 0 0 31.0644491340181
0

0101000
+242 0 -235 0 *
Wi

0101100
+241 0 -234 0 -233 0 +232 0 *
Fa
0  1e-07 79 0

0101000
+231 0 *
Ve
1e-07
-17 -1 21
0 0

0101101
*
Ve
1e-07
-15 -1 21
0 0

0101101
*
Ed
 1e-07 1 1 0
1  144 0 0 2
2  342 80 0 0 2
2  343 81 0 0 2
0

0101000
+229 0 -228 0 *
Ed
 1e-07 1 1 0
1  145 0 0 31.8904374382039
2  344 77 0 0 31.8904374382039
2  345 80 0 0 31.8904374382039
0

0101000
+236 0 -229 0 *
Ed
 1e-07 1 1 0
1  146 0 0 31.8904374382039
2  346 8 0 0 31.8904374382039
2  347 80 0 0 31.8904374382039
0

0101000
+235 0 -228 0 *
Wi

0101100
+234 0 -227 0 -226 0 +225 0 *
Fa
0  1e-07 80 0

0101000
+224 0 *
Ed
 1.5e-07 1 1 0
1  147 0 -9.9024971554883 -7.9024971554883
2  348 7 0 -9.9024971554883 -7.9024971554883
2  349 8 0 -9.9024971554883 -7.9024971554883
0

0101000
+588 0 -387 0 *
Ed
 1.5e-07 1 1 0
1  148 0 7.9024971554883 9.9024971554883
2  350 3 0 7.9024971554883 9.9024971554883
2  351 8 0 7.9024971554883 9.9024971554883
0

0101000
+527 0 -600 0 *
Ed
 1e-07 1 1 0
1  149 0 0 21.0237960416286
2  352 8 0 0 21.0237960416286
2  353 81 0 0 21.0237960416286
0

0101000
+228 0 -600 0 *
Wi

0101100
+225 0 +232 0 +239 0 +246 0 +585 0 -222 0 +386 0 +415 0 +311 0 -461 0 
+525 0 -221 0 +220 0 *
Ve
1.00000003552714e-07
-15 49.3459459459459 18.5328828828829
0 0

0101101
*
Ed
 1.00000003552714e-07 1 1 0
1  150 0 0 6.28318530717959
2  354 82 0 0 6.28318530717959
2  355 83 0 0 6.28318530717959
2  356 8 0 0 6.28318530717959
0

0101000
+218 0 -218 0 *
Wi

0101100
-217 0 *
Ve
1.00000003552714e-07
-15 49.2576576576577 27.9824324324324
0 0

0101101
*
Ed
 1.00000003552714e-07 1 1 0
1  151 0 0 6.28318530717959
2  357 84 0 0 6.28318530717959
2  358 85 0 0 6.28318530717959
2  359 8 0 0 6.28318530717959
0

0101000
+215 0 -215 0 *
Wi

0101100
-214 0 *
Ve
1.00000003552714e-07
-15 49.127027027027 37.1806306306306
0 0

0101101
*
Ed
 1.00000003552714e-07 1 1 0
1  152 0 0 6.28318530717959
2  360 86 0 0 6.28318530717959
2  361 87 0 0 6.28318530717959
2  362 8 0 0 6.28318530717959
0

0101000
+212 0 -212 0 *
Wi

0101100
-211 0 *
Ve
1.00000003552714e-07
-15 27.8954954954955 33.9581081081081
0 0

0101101
*
Ed
 1.00000003552714e-07 1 1 0
1  153 0 0 6.28318530717959
2  363 88 0 0 6.28318530717959
2  364 89 0 0 6.28318530717959
2  365 8 0 0 6.28318530717959
0

0101000
+209 0 -209 0 *
Wi

0101100
-208 0 *
Ve
1.00000003552714e-07
-15 29.8045045045045 35.3166666666667
0 0

0101101
*
Ed
 1.00000003552714e-07 1 1 0
1  154 0 0 6.28318530717959
2  366 90 0 0 6.28318530717959
2  367 91 0 0 6.28318530717959
2  368 8 0 0 6.28318530717959
0

0101000
+206 0 -206 0 *
Wi

0101100
-205 0 *
Ve
1.00000003552714e-07
-15 31.6400900900901 36.622972972973
0 0

0101101
*
Ed
 1.00000003552714e-07 1 1 0
1  155 0 0 6.28318530717959
2  369 92 0 0 6.28318530717959
2  370 93 0 0 6.28318530717959
2  371 8 0 0 6.28318530717959
0

0101000
+203 0 -203 0 *
Wi

0101100
-202 0 *
Ve
1.00000003552714e-07
-15 22.2702702702703 25.6981981981982
0 0

0101101
*
Ed
 1.00000003552714e-07 1 1 0
1  156 0 0 6.28318530717959
2  372 94 0 0 6.28318530717959
2  373 95 0 0 6.28318530717959
2  374 8 0 0 6.28318530717959
0

0101000
+200 0 -200 0 *
Wi

0101100
-199 0 *
Ve
1.00000003552714e-07
-15 11.1283783783784 18.818018018018
0 0

0101101
*
Ed
 1.00000003552714e-07 1 1 0
1  157 0 0 6.28318530717959
2  375 96 0 0 6.28318530717959
2  376 97 0 0 6.28318530717959
2  377 8 0 0 6.28318530717959
0

0101000
+197 0 -197 0 *
Wi

0101100
-196 0 *
Ve
1.00000003552714e-07
-15 5.5481981981982 14.8468468468468
0 0

0101101
*
Ed
 1.00000003552714e-07 1 1 0
1  158 0 0 6.28318530717959
2  378 98 0 0 6.28318530717959
2  379 99 0 0 6.28318530717959
2  380 8 0 0 6.28318530717959
0

0101000
+194 0 -194 0 *
Wi

0101100
-193 0 *
Ve
1.00000003552714e-07
-15 7.38378378378378 16.1531531531532
0 0

0101101
*
Ed
 1.00000003552714e-07 1 1 0
1  159 0 0 6.28318530717959
2  381 100 0 0 6.28318530717959
2  382 101 0 0 6.28318530717959
2  383 8 0 0 6.28318530717959
0

0101000
+191 0 -191 0 *
Wi

0101100
-190 0 *
Ve
1.00000003552714e-07
-15 9.29279279279279 17.5117117117117
0 0

0101101
*
Ed
 1.00000003552714e-07 1 1 0
1  160 0 0 6.28318530717959
2  384 102 0 0 6.28318530717959
2  385 103 0 0 6.28318530717959
2  386 8 0 0 6.28318530717959
0

0101000
+188 0 -188 0 *
Wi

0101100
-187 0 *
Ve
1.00000003552714e-07
-15 26.0599099099099 32.6518018018018
0 0

0101101
*
Ed
 1.00000003552714e-07 1 1 0
1  161 0 0 6.28318530717959
2  387 104 0 0 6.28318530717959
2  388 105 0 0 6.28318530717959
2  389 8 0 0 6.28318530717959
0

0101000
+185 0 -185 0 *
Wi

0101100
-184 0 *
Fa
0  1e-07 8 0

0101000
+219 0 +216 0 +213 0 +210 0 +207 0 +204 0 +201 0 +198 0 +195 0 +192 0 
+189 0 +186 0 +183 0 *
Ve
1.00000003552714e-07
-17 26.0599099099099 32.6518018018018
0 0

0101101
*
Ed
 1e-07 1 1 0
1  162 0 0 2
3  390 391CN 104 0 0 2
0

0101000
+181 0 -185 0 *
Ed
 1.00000003552714e-07 1 1 0
1  163 0 0 6.28318530717959
2  392 104 0 0 6.28318530717959
2  393 106 0 0 6.28318530717959
2  394 77 0 0 6.28318530717959
0

0101000
+181 0 -181 0 *
Wi

0101100
+180 0 -180 0 -179 0 +184 0 *
Fa
0  1e-07 104 0

0101000
+178 0 *
Ve
1.00000003552714e-07
-17 9.29279279279279 17.5117117117117
0 0

0101101
*
Ed
 1e-07 1 1 0
1  164 0 0 2
3  395 396CN 102 0 0 2
0

0101000
+176 0 -188 0 *
Ed
 1.00000003552714e-07 1 1 0
1  165 0 0 6.28318530717959
2  397 102 0 0 6.28318530717959
2  398 107 0 0 6.28318530717959
2  399 77 0 0 6.28318530717959
0

0101000
+176 0 -176 0 *
Wi

0101100
+175 0 -175 0 -174 0 +187 0 *
Fa
0  1e-07 102 0

0101000
+173 0 *
Ve
1.00000003552714e-07
-17 7.38378378378378 16.1531531531532
0 0

0101101
*
Ed
 1e-07 1 1 0
1  166 0 0 2
3  400 401CN 100 0 0 2
0

0101000
+171 0 -191 0 *
Ed
 1.00000003552714e-07 1 1 0
1  167 0 0 6.28318530717959
2  402 100 0 0 6.28318530717959
2  403 108 0 0 6.28318530717959
2  404 77 0 0 6.28318530717959
0

0101000
+171 0 -171 0 *
Wi

0101100
+170 0 -170 0 -169 0 +190 0 *
Fa
0  1e-07 100 0

0101000
+168 0 *
Ve
1.00000003552714e-07
-17 5.5481981981982 14.8468468468468
0 0

0101101
*
Ed
 1e-07 1 1 0
1  168 0 0 2
3  405 406CN 98 0 0 2
0

0101000
+166 0 -194 0 *
Ed
 1.00000003552714e-07 1 1 0
1  169 0 0 6.28318530717959
2  407 98 0 0 6.28318530717959
2  408 109 0 0 6.28318530717959
2  409 77 0 0 6.28318530717959
0

0101000
+166 0 -166 0 *
Wi

0101100
+165 0 -165 0 -164 0 +193 0 *
Fa
0  1e-07 98 0

0101000
+163 0 *
Ve
1.00000003552714e-07
-17 11.1283783783784 18.818018018018
0 0

0101101
*
Ed
 1e-07 1 1 0
1  170 0 0 2
3  410 411CN 96 0 0 2
0

0101000
+161 0 -197 0 *
Ed
 1.00000003552714e-07 1 1 0
1  171 0 0 6.28318530717959
2  412 96 0 0 6.28318530717959
2  413 110 0 0 6.28318530717959
2  414 77 0 0 6.28318530717959
0

0101000
+161 0 -161 0 *
Wi

0101100
+160 0 -160 0 -159 0 +196 0 *
Fa
0  1e-07 96 0

0101000
+158 0 *
Ve
1.00000003552714e-07
-17 22.2702702702703 25.6981981981982
0 0

0101101
*
Ed
 1e-07 1 1 0
1  172 0 0 2
3  415 416CN 94 0 0 2
0

0101000
+156 0 -200 0 *
Ed
 1.00000003552714e-07 1 1 0
1  173 0 0 6.28318530717959
2  417 94 0 0 6.28318530717959
2  418 111 0 0 6.28318530717959
2  419 77 0 0 6.28318530717959
0

0101000
+156 0 -156 0 *
Wi

0101100
+155 0 -155 0 -154 0 +199 0 *
Fa
0  1e-07 94 0

0101000
+153 0 *
Ve
1.00000003552714e-07
-17 31.6400900900901 36.622972972973
0 0

0101101
*
Ed
 1e-07 1 1 0
1  174 0 0 2
3  420 421CN 92 0 0 2
0

0101000
+151 0 -203 0 *
Ed
 1.00000003552714e-07 1 1 0
1  175 0 0 6.28318530717959
2  422 92 0 0 6.28318530717959
2  423 112 0 0 6.28318530717959
2  424 77 0 0 6.28318530717959
0

0101000
+151 0 -151 0 *
Wi

0101100
+150 0 -150 0 -149 0 +202 0 *
Fa
0  1e-07 92 0

0101000
+148 0 *
Ve
1.00000003552714e-07
-17 29.8045045045045 35.3166666666667
0 0

0101101
*
Ed
 1e-07 1 1 0
1  176 0 0 2
3  425 426CN 90 0 0 2
0

0101000
+146 0 -206 0 *
Ed
 1.00000003552714e-07 1 1 0
1  177 0 0 6.28318530717959
2  427 90 0 0 6.28318530717959
2  428 113 0 0 6.28318530717959
2  429 77 0 0 6.28318530717959
0

0101000
+146 0 -146 0 *
Wi

0101100
+145 0 -145 0 -144 0 +205 0 *
Fa
0  1e-07 90 0

0101000
+143 0 *
Ve
1.00000003552714e-07
-17 27.8954954954955 33.9581081081081
0 0

0101101
*
Ed
 1e-07 1 1 0
1  178 0 0 2
3  430 431CN 88 0 0 2
0

0101000
+141 0 -209 0 *
Ed
 1.00000003552714e-07 1 1 0
1  179 0 0 6.28318530717959
2  432 88 0 0 6.28318530717959
2  433 114 0 0 6.28318530717959
2  434 77 0 0 6.28318530717959
0

0101000
+141 0 -141 0 *
Wi

0101100
+140 0 -140 0 -139 0 +208 0 *
Fa
0  1e-07 88 0

0101000
+138 0 *
Ve
1.00000003552714e-07
-17 49.127027027027 37.1806306306306
0 0

0101101
*
Ed
 1e-07 1 1 0
1  180 0 0 2
3  435 436CN 86 0 0 2
0

0101000
+136 0 -212 0 *
Ed
 1.00000003552714e-07 1 1 0
1  181 0 0 6.28318530717959
2  437 86 0 0 6.28318530717959
2  438 115 0 0 6.28318530717959
2  439 77 0 0 6.28318530717959
0

0101000
+136 0 -136 0 *
Wi

0101100
+135 0 -135 0 -134 0 +211 0 *
Fa
0  1e-07 86 0

0101000
+133 0 *
Ve
1.00000003552714e-07
-17 49.2576576576577 27.9824324324324
0 0

0101101
*
Ed
 1e-07 1 1 0
1  182 0 0 2
3  440 441CN 84 0 0 2
0

0101000
+131 0 -215 0 *
Ed
 1.00000003552714e-07 1 1 0
1  183 0 0 6.28318530717959
2  442 84 0 0 6.28318530717959
2  443 116 0 0 6.28318530717959
2  444 77 0 0 6.28318530717959
0

0101000
+131 0 -131 0 *
Wi

0101100
+130 0 -130 0 -129 0 +214 0 *
Fa
0  1e-07 84 0

0101000
+128 0 *
Ve
1.00000003552714e-07
-17 49.3459459459459 18.5328828828829
0 0

0101101
*
Ed
 1e-07 1 1 0
1  184 0 0 2
3  445 446CN 82 0 0 2
0

0101000
+126 0 -218 0 *
Ed
 1.00000003552714e-07 1 1 0
1  185 0 0 6.28318530717959
2  447 82 0 0 6.28318530717959
2  448 117 0 0 6.28318530717959
2  449 77 0 0 6.28318530717959
0

0101000
+126 0 -126 0 *
Wi

0101100
+125 0 -125 0 -124 0 +217 0 *
Fa
0  1e-07 82 0

0101000
+123 0 *
Ed
 1.5e-07 1 1 0
1  186 0 -9.9024971554883 -7.9024971554883
2  450 7 0 -9.9024971554883 -7.9024971554883
2  451 6 0 -9.9024971554883 -7.9024971554883
0

0101000
+590 0 -385 0 *
Wi

0101100
-587 0 -222 0 +384 0 +121 0 *
Fa
0  1e-07 7 0

0101000
+120 0 *
Ve
1e-07
15 23 42
0 0

0101101
*
Ve
1e-07
15 -1 21
0 0

0101101
*
Ed
 1e-07 1 1 0
1  187 0 0 31.8904374382039
2  452 6 0 0 31.8904374382039
2  453 118 0 0 31.8904374382039
0

0101000
+118 0 -117 0 *
Ve
1e-07
15 54 40
0 0

0101101
*
Ed
 1e-07 1 1 0
1  188 0 0 31.0644491340181
2  454 6 0 0 31.0644491340181
0

0101000
+115 0 -118 0 *
Ve
1e-07
15 52 13
0 0

0101101
*
Ed
 1e-07 1 1 0
1  189 0 0 27.0739727413618
2  455 6 0 0 27.0739727413618
0

0101000
+113 0 -115 0 *
Ed
 1e-07 1 1 0
1  190 0 0 18.3847763108502
2  456 6 0 0 18.3847763108502
0

0101000
+592 0 -113 0 *
Ed
 1.5e-07 1 1 0
1  191 0 7.9024971554883 9.9024971554883
2  457 3 0 7.9024971554883 9.9024971554883
2  458 6 0 7.9024971554883 9.9024971554883
0

0101000
+522 0 -598 0 *
Ed
 1e-07 1 1 0
1  192 0 0 21.0237960416286
2  459 6 0 0 21.0237960416286
2  460 119 0 0 21.0237960416286
0

0101000
+117 0 -598 0 *
Wi

0101100
+116 0 +114 0 +112 0 +111 0 +589 0 -121 0 +383 0 +418 0 +379 0 +370 0 
+365 0 +310 0 -469 0 +315 0 +319 0 +328 0 -462 0 +521 0 -110 0 +109 0 
*
Ve
1e-07
15 50.2 17
0 0

0101101
*
Ed
 1e-07 1 1 0
1  193 0 0 6.28318530717959
2  461 120 0 0 6.28318530717959
2  462 121 0 0 6.28318530717959
2  463 6 0 0 6.28318530717959
0

0101000
+107 0 -107 0 *
Wi

0101100
-106 0 *
Ve
1e-07
15 50.2 26.5
0 0

0101101
*
Ed
 1e-07 1 1 0
1  194 0 0 6.28318530717959
2  464 122 0 0 6.28318530717959
2  465 123 0 0 6.28318530717959
2  466 6 0 0 6.28318530717959
0

0101000
+104 0 -104 0 *
Wi

0101100
-103 0 *
Ve
1e-07
15 50.2 35.5
0 0

0101101
*
Ed
 1e-07 1 1 0
1  195 0 0 6.28318530717959
2  467 124 0 0 6.28318530717959
2  468 125 0 0 6.28318530717959
2  469 6 0 0 6.28318530717959
0

0101000
+101 0 -101 0 *
Wi

0101100
-100 0 *
Ve
1.00000000111022e-07
15 6.80760083991248 15.0057289404111
0 0

0101101
*
Ve
1e-07
15 4.39239916008752 18.1942710595889
0 0

0101101
*
Ed
 1e-07 1 1 0
1  196 0 0 3.14159265358979
2  470 126 0 0 3.14159265358979
2  471 127 0 0 3.14159265358979
2  472 6 0 0 3.14159265358979
0

0101000
+98 0 -97 0 *
Ve
1e-07
15 33.6076008399125 35.3057289404111
0 0

0101101
*
Ed
 1e-07 1 1 0
1  197 0 0 33.6203807236028
2  473 127 0 0 33.6203807236028
2  474 128 0 0 33.6203807236028
2  475 6 0 0 33.6203807236028
0

0101000
+95 0 -98 0 *
Ve
1.00000000111022e-07
15 31.1923991600875 38.4942710595889
0 0

0101101
*
Ed
 1e-07 1 1 0
1  198 0 0 33.6203807236028
2  476 127 0 0 33.6203807236028
2  477 129 0 0 33.6203807236028
2  478 6 0 0 33.6203807236028
0

0101000
+97 0 -93 0 *
Ed
 1e-07 1 1 0
1  199 0 0 3.14159265358979
2  479 130 0 0 3.14159265358979
2  480 127 0 0 3.14159265358979
2  481 6 0 0 3.14159265358979
0

0101000
+93 0 -95 0 *
Wi

0101100
+96 0 +94 0 +92 0 +91 0 *
Fa
0  1e-07 6 0

0101000
+108 0 +105 0 +102 0 +99 0 +90 0 *
Ve
1.00000000111022e-07
17 31.1923991600875 38.4942710595889
0 0

0101101
*
Ed
 1.00000000111022e-07 1 1 0
1  200 0 0 2
2  482 130 0 0 2
4 G1 129 0 130 0
2  483 129 0 0 2
0

0101000
+93 0 -88 0 *
Ve
1e-07
17 33.6076008399125 35.3057289404111
0 0

0101101
*
Ed
 1e-07 1 1 0
1  201 0 0 2
2  484 130 0 0 2
4 G1 130 0 128 0
2  485 128 0 0 2
0

0101000
+95 0 -86 0 *
Ed
 1e-07 1 1 0
1  202 0 0 3.14159265358979
2  486 130 0 0 3.14159265358979
2  487 131 0 0 3.14159265358979
2  488 73 0 0 3.14159265358979
0

0101000
+88 0 -86 0 *
Wi

0101100
+87 0 -85 0 -91 0 +84 0 *
Fa
0  1e-07 130 0

0101000
+83 0 *
Ve
1e-07
17 4.39239916008752 18.1942710595889
0 0

0101101
*
Ed
 1e-07 1 1 0
1  203 0 0 2
2  489 126 0 0 2
4 G1 129 0 126 0
2  490 129 0 0 2
0

0101000
+97 0 -81 0 *
Ed
 1e-07 1 1 0
1  204 0 0 33.6203807236028
2  491 131 0 0 33.6203807236028
2  492 129 0 0 33.6203807236028
2  493 73 0 0 33.6203807236028
0

0101000
+81 0 -88 0 *
Wi

0101100
+80 0 -87 0 -92 0 +79 0 *
Fa
0  1e-07 129 0

0101000
+78 0 *
Ve
1.00000000111022e-07
17 6.80760083991248 15.0057289404111
0 0

0101101
*
Ed
 1.00000000111022e-07 1 1 0
1  205 0 0 2
2  494 126 0 0 2
4 G1 128 0 126 0
2  495 128 0 0 2
0

0101000
+98 0 -76 0 *
Ed
 1e-07 1 1 0
1  206 0 0 33.6203807236028
2  496 131 0 0 33.6203807236028
2  497 128 0 0 33.6203807236028
2  498 73 0 0 33.6203807236028
0

0101000
+86 0 -76 0 *
Wi

0101100
+85 0 -75 0 -94 0 +74 0 *
Fa
0  1e-07 128 0

0101000
+73 0 *
Ed
 1e-07 1 1 0
1  207 0 0 3.14159265358979
2  499 126 0 0 3.14159265358979
2  500 131 0 0 3.14159265358979
2  501 73 0 0 3.14159265358979
0

0101000
+76 0 -81 0 *
Wi

0101100
+75 0 -80 0 -96 0 +71 0 *
Fa
0  1e-07 126 0

0101000
+70 0 *
Ve
1e-07
17 50.2 35.5
0 0

0101101
*
Ed
 1e-07 1 1 0
1  208 0 0 2
3  502 503CN 124 0 0 2
0

0101000
+101 0 -68 0 *
Ed
 1e-07 1 1 0
1  209 0 0 6.28318530717959
2  504 124 0 0 6.28318530717959
2  505 132 0 0 6.28318530717959
2  506 73 0 0 6.28318530717959
0

0101000
+68 0 -68 0 *
Wi

0101100
+67 0 -67 0 -100 0 +66 0 *
Fa
0  1e-07 124 0

0101000
+65 0 *
Ve
1e-07
17 50.2 26.5
0 0

0101101
*
Ed
 1e-07 1 1 0
1  210 0 0 2
3  507 508CN 122 0 0 2
0

0101000
+104 0 -63 0 *
Ed
 1e-07 1 1 0
1  211 0 0 6.28318530717959
2  509 122 0 0 6.28318530717959
2  510 133 0 0 6.28318530717959
2  511 73 0 0 6.28318530717959
0

0101000
+63 0 -63 0 *
Wi

0101100
+62 0 -62 0 -103 0 +61 0 *
Fa
0  1e-07 122 0

0101000
+60 0 *
Ve
1e-07
17 50.2 17
0 0

0101101
*
Ed
 1e-07 1 1 0
1  212 0 0 2
3  512 513CN 120 0 0 2
0

0101000
+107 0 -58 0 *
Ed
 1e-07 1 1 0
1  213 0 0 6.28318530717959
2  514 120 0 0 6.28318530717959
2  515 134 0 0 6.28318530717959
2  516 73 0 0 6.28318530717959
0

0101000
+58 0 -58 0 *
Wi

0101100
+57 0 -57 0 -106 0 +56 0 *
Fa
0  1e-07 120 0

0101000
+55 0 *
Ve
1e-07
17 52 13
0 0

0101101
*
Ed
 1e-07 1 1 0
1  214 0 0 2
0

0101000
+113 0 -53 0 *
Ve
1e-07
17 54 40
0 0

0101101
*
Ed
 1e-07 1 1 0
1  215 0 0 2
0

0101000
+115 0 -51 0 *
Ed
 1e-07 1 1 0
1  216 0 0 27.0739727413618
2  517 73 0 0 27.0739727413618
0

0101000
+53 0 -51 0 *
Wi

0101100
+52 0 -50 0 -112 0 +49 0 *
Fa
0  1e-07 135 0

0101000
+48 0 *
Ve
1e-07
17 23 42
0 0

0101101
*
Ed
 1e-07 1 1 0
1  217 0 0 2
2  518 118 0 0 2
0

0101000
+118 0 -46 0 *
Ed
 1e-07 1 1 0
1  218 0 0 31.0644491340181
2  519 73 0 0 31.0644491340181
0

0101000
+51 0 -46 0 *
Wi

0101100
+50 0 -45 0 -114 0 +44 0 *
Fa
0  1e-07 136 0

0101000
+43 0 *
Ve
1e-07
17 -1 21
0 0

0101101
*
Ed
 1e-07 1 1 0
1  219 0 0 2
2  520 118 0 0 2
2  521 119 0 0 2
0

0101000
+117 0 -41 0 *
Ed
 1e-07 1 1 0
1  220 0 0 31.8904374382039
2  522 73 0 0 31.8904374382039
2  523 118 0 0 31.8904374382039
0

0101000
+46 0 -41 0 *
Wi

0101100
+45 0 -40 0 -116 0 +39 0 *
Fa
0  1e-07 118 0

0101000
+38 0 *
Ed
 1e-07 1 1 0
1  221 0 0 18.3847763108502
2  524 73 0 0 18.3847763108502
0

0101000
+594 0 -53 0 *
Wi

0101100
+591 0 -52 0 -111 0 +36 0 *
Fa
0  1e-07 137 0

0101000
+35 0 *
Ed
 1e-07 1 1 0
1  222 0 0 21.0237960416286
2  525 73 0 0 21.0237960416286
2  526 119 0 0 21.0237960416286
0

0101000
+41 0 -596 0 *
Wi

0101100
-33 0 -39 0 -44 0 -49 0 -36 0 +593 0 *
Wi

0101100
-84 0 -79 0 -71 0 -74 0 *
Wi

0101100
-377 0 -369 0 -363 0 -309 0 -422 0 *
Wi

0101100
-314 0 -318 0 -325 0 +465 0 *
Wi

0101100
+56 0 *
Wi

0101100
+61 0 *
Wi

0101100
+66 0 *
Fa
0  0 138 0

0111000
+32 0 +31 0 +30 0 +29 0 +28 0 +27 0 +26 0 *
Wi

0101100
+40 0 -595 0 -109 0 +33 0 *
Fa
0  1e-07 119 0

0101000
+24 0 *
Wi

0101100
-597 0 +110 0 +520 0 -221 0 *
Fa
0  1e-07 3 0

0101000
+22 0 *
Ed
 1e-07 1 1 0
1  223 0 0 21.0237960416286
2  527 77 0 0 21.0237960416286
2  528 81 0 0 21.0237960416286
0

0101000
+229 0 -603 0 *
Wi

0101100
+227 0 -599 0 -20 0 +220 0 *
Fa
0  1e-07 81 0

0101000
+19 0 *
Wi

0101100
+247 0 +240 0 +233 0 +226 0 +20 0 +601 0 *
Wi

0101100
-174 0 *
Wi

0101100
-179 0 *
Wi

0101100
-124 0 *
Wi

0101100
-129 0 *
Wi

0101100
-134 0 *
Wi

0101100
-139 0 *
Wi

0101100
-144 0 *
Wi

0101100
-149 0 *
Wi

0101100
-154 0 *
Wi

0101100
-159 0 *
Wi

0101100
-164 0 *
Wi

0101100
-169 0 *
Fa
0  0 139 0

0111000
+17 0 +16 0 +15 0 +14 0 +13 0 +12 0 +11 0 +10 0 +9 0 +8 0 
+7 0 +6 0 +5 0 *
Sh

0101100
-535 0 -528 0 +474 0 +432 0 +427 0 -388 0 +381 0 -374 0 -367 0 -360 0 
-356 0 -353 0 -350 0 -348 0 +345 0 -341 0 -338 0 -335 0 -333 0 +330 0 
-323 0 -316 0 -312 0 -307 0 -304 0 -301 0 -299 0 +296 0 +293 0 -289 0 
-286 0 -283 0 -281 0 +278 0 +275 0 -271 0 -268 0 -265 0 -262 0 -259 0 
-256 0 -253 0 -251 0 -244 0 -237 0 -230 0 -223 0 +182 0 +177 0 +172 0 
+167 0 +162 0 +157 0 +152 0 +147 0 +142 0 +137 0 +132 0 +127 0 +122 0 
-119 0 -89 0 -82 0 -77 0 -72 0 -69 0 +64 0 +59 0 +54 0 -47 0 
-42 0 -37 0 -34 0 -25 0 -23 0 -21 0 -18 0 -4 0 *
So

0100000
+3 0 *
Co

1100000
+2 0 *

+1 0 