DBRep_DrawableShape

CASCADE Topology V3, (c) Open Cascade
Locations 0
Curve2ds 168
1 0 0 1 0 
1 0 0 1 0 
1 1.6000000000000001 0 0 -1 
1 0 0 0 1 
1 0 -30 1 0 
1 0 0 1 0 
1 0 0 0 -1 
1 0 0 0 1 
1 0 0 0 1 
1 0 0 1 0 
1 0 0 1 0 
1 0 65 1 0 
1 1.6000000000000001 0 0 1 
1 0 0 1 0 
1 1.6000000000000001 0 0 1 
1 0 30 1 0 
1 1.6000000000000001 0 0 -1 
1 65 0 0 1 
2 3.5 3.5 1 0 -0 1 1.3999999999999999
1 0 2.6000000000000001 1 0 
2 61.5 3.5 1 0 -0 1 1.3999999999999999
1 0 2.6000000000000001 1 0 
2 3.5 26.5 1 0 -0 1 1.3999999999999999
1 0 2.6000000000000001 1 0 
2 61.5 26.5 1 0 -0 1 1.3999999999999999
1 0 2.6000000000000001 1 0 
1 0 0 0 1 
1 0 30 1 0 
1 0 -30 1 0 
1 0 65 1 0 
1 0 0 0 -1 
1 65 0 0 1 
2 3.5 3.5 1 0 -0 1 1.3999999999999999
1 0 1 1 0 
2 61.5 3.5 1 0 -0 1 1.3999999999999999
1 0 1 1 0 
2 3.5 26.5 1 0 -0 1 1.3999999999999999
1 0 1 1 0 
2 61.5 26.5 1 0 -0 1 1.3999999999999999
1 0 1 1 0 
1 6.2831853071795862 -0 0 1 
1 0 -0 0 1 
1 6.2831853071795862 -0 0 1 
1 0 -0 0 1 
1 6.2831853071795862 -0 0 1 
1 0 -0 0 1 
1 6.2831853071795862 -0 0 1 
1 0 -0 0 1 
1 0 0 1 0 
1 0 0 1 0 
1 8 0 0 -1 
1 0 0 0 1 
1 0 -2.1000000000000014 1 0 
1 0 0 1 0 
1 0 0 0 -1 
1 0 0 0 1 
1 0 0 1 0 
1 0 50.799999999999997 1 0 
1 8 0 0 -1 
1 50.799999999999997 0 0 1 
1 0 -2.1000000000000014 1 0 
1 0 50.799999999999997 1 0 
1 0 0 0 -1 
1 50.799999999999997 0 0 1 
1 0 0 0 1 
1 0 0 1 0 
1 8 0 0 1 
1 0 0 1 0 
1 0 0 0 1 
1 0 2.1000000000000014 1 0 
1 8 0 0 1 
1 0 2.1000000000000014 1 0 
1 0 0 1 0 
1 0 0 1 0 
1 3.9999999999999996 0 0 -1 
1 0 0 0 1 
1 0 -5.1000000000000005 1 0 
1 0 0 1 0 
1 0 0 0 -1 
1 0 0 0 1 
1 0 0 1 0 
1 0 11.050000000000001 1 0 
1 3.9999999999999996 0 0 -1 
1 11.050000000000001 0 0 1 
1 0 -5.1000000000000005 1 0 
1 0 11.050000000000001 1 0 
1 0 0 0 -1 
1 11.050000000000001 0 0 1 
1 0 0 0 1 
1 0 0 1 0 
1 3.9999999999999996 0 0 1 
1 0 0 1 0 
1 0 0 0 1 
1 0 5.1000000000000005 1 0 
1 3.9999999999999996 0 0 1 
1 0 5.1000000000000005 1 0 
1 0 0 1 0 
1 0 0 1 0 
1 3.9999999999999996 0 0 -1 
1 0 0 0 1 
1 0 -5.1000000000000005 1 0 
1 0 0 1 0 
1 0 0 0 -1 
1 0 0 0 1 
1 0 0 1 0 
1 0 11.049999999999997 1 0 
1 3.9999999999999996 0 0 -1 
1 11.049999999999997 0 0 1 
1 0 -5.1000000000000005 1 0 
1 0 11.049999999999997 1 0 
1 0 0 0 -1 
1 11.049999999999997 0 0 1 
1 0 0 0 1 
1 0 0 1 0 
1 3.9999999999999996 0 0 1 
1 0 0 1 0 
1 0 0 0 1 
1 0 5.1000000000000005 1 0 
1 3.9999999999999996 0 0 1 
1 0 5.1000000000000005 1 0 
1 0 0 1 0 
1 0 0 1 0 
1 3.9999999999999996 0 0 -1 
1 0 0 0 1 
1 0 -5.1000000000000005 1 0 
1 0 0 1 0 
1 0 0 0 -1 
1 0 0 0 1 
1 0 0 1 0 
1 0 11.049999999999997 1 0 
1 3.9999999999999996 0 0 -1 
1 11.049999999999997 0 0 1 
1 0 -5.1000000000000005 1 0 
1 0 11.049999999999997 1 0 
1 0 0 0 -1 
1 11.049999999999997 0 0 1 
1 0 0 0 1 
1 0 0 1 0 
1 3.9999999999999996 0 0 1 
1 0 0 1 0 
1 0 0 0 1 
1 0 5.1000000000000005 1 0 
1 3.9999999999999996 0 0 1 
1 0 5.1000000000000005 1 0 
1 0 0 1 0 
1 0 0 1 0 
1 3.2000000000000006 0 0 -1 
1 0 0 0 1 
1 0 -7.1999999999999993 1 0 
1 0 0 1 0 
1 0 0 0 -1 
1 0 0 0 1 
1 0 0 1 0 
1 0 3.8999999999999986 1 0 
1 3.2000000000000006 0 0 -1 
1 3.8999999999999986 0 0 1 
1 0 -7.1999999999999993 1 0 
1 0 3.8999999999999986 1 0 
1 0 0 0 -1 
1 3.8999999999999986 0 0 1 
1 0 0 0 1 
1 0 0 1 0 
1 3.2000000000000006 0 0 1 
1 0 0 1 0 
1 0 0 0 1 
1 0 7.1999999999999993 1 0 
1 3.2000000000000006 0 0 1 
1 0 7.1999999999999993 1 0 
Curves 84
1 0 0 0 0 0 1 
1 0 0 1.6000000000000001 -0 1 0 
1 0 30 0 0 0 1 
1 0 0 0 -0 1 0 
1 0 0 0 1 0 -0 
1 65 0 0 0 0 1 
1 0 0 1.6000000000000001 1 0 -0 
1 0 30 1.6000000000000001 1 0 -0 
1 65 0 1.6000000000000001 -0 1 0 
2 3.5 3.5 1.6000000000000001 0 0 1 1 0 -0 -0 1 0 1.3999999999999999
2 61.5 3.5 1.6000000000000001 0 0 1 1 0 -0 -0 1 0 1.3999999999999999
2 3.5 26.5 1.6000000000000001 0 0 1 1 0 -0 -0 1 0 1.3999999999999999
2 61.5 26.5 1.6000000000000001 0 0 1 1 0 -0 -0 1 0 1.3999999999999999
1 0 30 0 1 0 -0 
1 65 30 0 0 0 1 
1 65 0 0 -0 1 0 
2 3.5 3.5 0 0 0 1 1 0 -0 -0 1 0 1.3999999999999999
2 61.5 3.5 0 0 0 1 1 0 -0 -0 1 0 1.3999999999999999
2 3.5 26.5 0 0 0 1 1 0 -0 -0 1 0 1.3999999999999999
2 61.5 26.5 0 0 0 1 1 0 -0 -0 1 0 1.3999999999999999
1 4.9000000000000004 3.4999999999999996 -1 0 0 1 
1 62.899999999999999 3.4999999999999996 -1 0 0 1 
1 4.9000000000000004 26.5 -1 0 0 1 
1 62.899999999999999 26.5 -1 0 0 1 
1 7.0999999999999996 25.5 1.6000000000000001 0 0 1 
1 7.0999999999999996 25.5 9.5999999999999996 -0 1 0 
1 7.0999999999999996 27.600000000000001 1.6000000000000001 0 0 1 
1 7.0999999999999996 25.5 1.6000000000000001 -0 1 0 
1 57.899999999999999 25.5 1.6000000000000001 0 0 1 
1 57.899999999999999 25.5 9.5999999999999996 -0 1 0 
1 57.899999999999999 27.600000000000001 1.6000000000000001 0 0 1 
1 57.899999999999999 25.5 1.6000000000000001 -0 1 0 
1 7.0999999999999996 25.5 1.6000000000000001 1 0 -0 
1 7.0999999999999996 25.5 9.5999999999999996 1 0 -0 
1 7.0999999999999996 27.600000000000001 1.6000000000000001 1 0 -0 
1 7.0999999999999996 27.600000000000001 9.5999999999999996 1 0 -0 
1 6.5 0 1.6000000000000001 0 0 1 
1 6.5 0 5.5999999999999996 -0 1 0 
1 6.5 5.1000000000000005 1.6000000000000001 0 0 1 
1 6.5 0 1.6000000000000001 -0 1 0 
1 17.550000000000001 0 1.6000000000000001 0 0 1 
1 17.550000000000001 0 5.5999999999999996 -0 1 0 
1 17.550000000000001 5.1000000000000005 1.6000000000000001 0 0 1 
1 17.550000000000001 0 1.6000000000000001 -0 1 0 
1 6.5 0 1.6000000000000001 1 0 -0 
1 6.5 0 5.5999999999999996 1 0 -0 
1 6.5 5.1000000000000005 1.6000000000000001 1 0 -0 
1 6.5 5.1000000000000005 5.5999999999999996 1 0 -0 
1 32.5 0 1.6000000000000001 0 0 1 
1 32.5 0 5.5999999999999996 -0 1 0 
1 32.5 5.1000000000000005 1.6000000000000001 0 0 1 
1 32.5 0 1.6000000000000001 -0 1 0 
1 43.549999999999997 0 1.6000000000000001 0 0 1 
1 43.549999999999997 0 5.5999999999999996 -0 1 0 
1 43.549999999999997 5.1000000000000005 1.6000000000000001 0 0 1 
1 43.549999999999997 0 1.6000000000000001 -0 1 0 
1 32.5 0 1.6000000000000001 1 0 -0 
1 32.5 0 5.5999999999999996 1 0 -0 
1 32.5 5.1000000000000005 1.6000000000000001 1 0 -0 
1 32.5 5.1000000000000005 5.5999999999999996 1 0 -0 
1 48.75 0 1.6000000000000001 0 0 1 
1 48.75 0 5.5999999999999996 -0 1 0 
1 48.75 5.1000000000000005 1.6000000000000001 0 0 1 
1 48.75 0 1.6000000000000001 -0 1 0 
1 59.799999999999997 0 1.6000000000000001 0 0 1 
1 59.799999999999997 0 5.5999999999999996 -0 1 0 
1 59.799999999999997 5.1000000000000005 1.6000000000000001 0 0 1 
1 59.799999999999997 0 1.6000000000000001 -0 1 0 
1 48.75 0 1.6000000000000001 1 0 -0 
1 48.75 0 5.5999999999999996 1 0 -0 
1 48.75 5.1000000000000005 1.6000000000000001 1 0 -0 
1 48.75 5.1000000000000005 5.5999999999999996 1 0 -0 
1 42.25 6 1.6000000000000001 0 0 1 
1 42.25 6 4.8000000000000007 -0 1 0 
1 42.25 13.199999999999999 1.6000000000000001 0 0 1 
1 42.25 6 1.6000000000000001 -0 1 0 
1 46.149999999999999 6 1.6000000000000001 0 0 1 
1 46.149999999999999 6 4.8000000000000007 -0 1 0 
1 46.149999999999999 13.199999999999999 1.6000000000000001 0 0 1 
1 46.149999999999999 6 1.6000000000000001 -0 1 0 
1 42.25 6 1.6000000000000001 1 0 -0 
1 42.25 6 4.8000000000000007 1 0 -0 
1 42.25 13.199999999999999 1.6000000000000001 1 0 -0 
1 42.25 13.199999999999999 4.8000000000000007 1 0 -0 
Polygon3D 0
PolygonOnTriangulations 0
Surfaces 40
1 0 0 0 1 0 -0 0 0 1 0 -1 0 
1 0 0 0 -0 1 0 0 0 1 1 0 -0 
1 0 0 1.6000000000000001 0 0 1 1 0 -0 -0 1 0 
1 0 30 0 -0 1 0 0 0 1 1 0 -0 
1 0 0 0 0 0 1 1 0 -0 -0 1 0 
1 65 0 0 1 0 -0 0 0 1 0 -1 0 
2 3.5 3.5 -1 0 0 1 1 0 -0 -0 1 0 1.3999999999999999
2 61.5 3.5 -1 0 0 1 1 0 -0 -0 1 0 1.3999999999999999
2 3.5 26.5 -1 0 0 1 1 0 -0 -0 1 0 1.3999999999999999
2 61.5 26.5 -1 0 0 1 1 0 -0 -0 1 0 1.3999999999999999
1 7.0999999999999996 25.5 1.6000000000000001 1 0 -0 0 0 1 0 -1 0 
1 7.0999999999999996 25.5 1.6000000000000001 -0 1 0 0 0 1 1 0 -0 
1 7.0999999999999996 25.5 9.5999999999999996 0 0 1 1 0 -0 -0 1 0 
1 7.0999999999999996 27.600000000000001 1.6000000000000001 -0 1 0 0 0 1 1 0 -0 
1 7.0999999999999996 25.5 1.6000000000000001 0 0 1 1 0 -0 -0 1 0 
1 57.899999999999999 25.5 1.6000000000000001 1 0 -0 0 0 1 0 -1 0 
1 6.5 0 1.6000000000000001 1 0 -0 0 0 1 0 -1 0 
1 6.5 0 1.6000000000000001 -0 1 0 0 0 1 1 0 -0 
1 6.5 0 5.5999999999999996 0 0 1 1 0 -0 -0 1 0 
1 6.5 5.1000000000000005 1.6000000000000001 -0 1 0 0 0 1 1 0 -0 
1 6.5 0 1.6000000000000001 0 0 1 1 0 -0 -0 1 0 
1 17.550000000000001 0 1.6000000000000001 1 0 -0 0 0 1 0 -1 0 
1 32.5 0 1.6000000000000001 1 0 -0 0 0 1 0 -1 0 
1 32.5 0 1.6000000000000001 -0 1 0 0 0 1 1 0 -0 
1 32.5 0 5.5999999999999996 0 0 1 1 0 -0 -0 1 0 
1 32.5 5.1000000000000005 1.6000000000000001 -0 1 0 0 0 1 1 0 -0 
1 32.5 0 1.6000000000000001 0 0 1 1 0 -0 -0 1 0 
1 43.549999999999997 0 1.6000000000000001 1 0 -0 0 0 1 0 -1 0 
1 48.75 0 1.6000000000000001 1 0 -0 0 0 1 0 -1 0 
1 48.75 0 1.6000000000000001 -0 1 0 0 0 1 1 0 -0 
1 48.75 0 5.5999999999999996 0 0 1 1 0 -0 -0 1 0 
1 48.75 5.1000000000000005 1.6000000000000001 -0 1 0 0 0 1 1 0 -0 
1 48.75 0 1.6000000000000001 0 0 1 1 0 -0 -0 1 0 
1 59.799999999999997 0 1.6000000000000001 1 0 -0 0 0 1 0 -1 0 
1 42.25 6 1.6000000000000001 1 0 -0 0 0 1 0 -1 0 
1 42.25 6 1.6000000000000001 -0 1 0 0 0 1 1 0 -0 
1 42.25 6 4.8000000000000007 0 0 1 1 0 -0 -0 1 0 
1 42.25 13.199999999999999 1.6000000000000001 -0 1 0 0 0 1 1 0 -0 
1 42.25 6 1.6000000000000001 0 0 1 1 0 -0 -0 1 0 
1 46.149999999999999 6 1.6000000000000001 1 0 -0 0 0 1 0 -1 0 
Triangulations 0

TShapes 241
Ve
1e-07
0 0 1.6
0 0

0101101
*
Ve
1e-07
0 0 0
0 0

0101101
*
Ed
 1e-07 1 1 0
1  1 0 0 1.6
2  1 1 0 0 1.6
2  2 2 0 0 1.6
0

0101000
-241 0 +240 0 *
Ve
1e-07
0 30 1.6
0 0

0101101
*
Ed
 1e-07 1 1 0
1  2 0 0 30
2  3 1 0 0 30
2  4 3 0 0 30
0

0101000
-238 0 +241 0 *
Ve
1e-07
0 30 0
0 0

0101101
*
Ed
 1e-07 1 1 0
1  3 0 0 1.6
2  5 1 0 0 1.6
2  6 4 0 0 1.6
0

0101000
-238 0 +236 0 *
Ed
 1e-07 1 1 0
1  4 0 0 30
2  7 1 0 0 30
2  8 5 0 0 30
0

0101000
-236 0 +240 0 *
Wi

0101100
-239 0 -237 0 +235 0 +234 0 *
Fa
0  1e-07 1 0

0111000
+233 0 *
Ve
1e-07
65 0 0
0 0

0101101
*
Ed
 1e-07 1 1 0
1  5 0 0 65
2  9 2 0 0 65
2  10 5 0 0 65
0

0101000
-231 0 +240 0 *
Ve
1e-07
65 0 1.6
0 0

0101101
*
Ed
 1e-07 1 1 0
1  6 0 0 1.6
2  11 6 0 0 1.6
2  12 2 0 0 1.6
0

0101000
-229 0 +231 0 *
Ed
 1e-07 1 1 0
1  7 0 0 65
2  13 2 0 0 65
2  14 3 0 0 65
0

0101000
-229 0 +241 0 *
Wi

0101100
-230 0 -228 0 +227 0 +239 0 *
Fa
0  1e-07 2 0

0111000
+226 0 *
Ve
1e-07
65 30 1.6
0 0

0101101
*
Ed
 1e-07 1 1 0
1  8 0 0 65
2  15 4 0 0 65
2  16 3 0 0 65
0

0101000
-224 0 +238 0 *
Ed
 1e-07 1 1 0
1  9 0 0 30
2  17 6 0 0 30
2  18 3 0 0 30
0

0101000
-224 0 +229 0 *
Wi

0101100
-237 0 -223 0 +227 0 +222 0 *
Ve
1.00000000444089e-07
4.9 3.5 1.6
0 0

0101101
*
Ed
 1e-07 1 1 0
1  10 0 0 6.28318530717959
2  19 3 0 0 6.28318530717959
2  20 7 0 0 6.28318530717959
0

0101100
+220 0 -220 0 *
Wi

0101100
-219 0 *
Ve
1.00000000444089e-07
62.9 3.5 1.6
0 0

0101101
*
Ed
 1e-07 1 1 0
1  11 0 0 6.28318530717959
2  21 3 0 0 6.28318530717959
2  22 8 0 0 6.28318530717959
0

0101100
+217 0 -217 0 *
Wi

0101100
-216 0 *
Ve
1e-07
4.9 26.5 1.6
0 0

0101101
*
Ed
 1e-07 1 1 0
1  12 0 0 6.28318530717959
2  23 3 0 0 6.28318530717959
2  24 9 0 0 6.28318530717959
0

0101100
+214 0 -214 0 *
Wi

0101100
-213 0 *
Ve
1e-07
62.9 26.5 1.6
0 0

0101101
*
Ed
 1e-07 1 1 0
1  13 0 0 6.28318530717959
2  25 3 0 0 6.28318530717959
2  26 10 0 0 6.28318530717959
0

0101100
+211 0 -211 0 *
Wi

0101100
-210 0 *
Fa
0  1e-07 3 0

0101000
+221 0 +218 0 +215 0 +212 0 +209 0 *
Ve
1e-07
65 30 0
0 0

0101101
*
Ed
 1e-07 1 1 0
1  14 0 0 65
2  27 4 0 0 65
2  28 5 0 0 65
0

0101000
-207 0 +236 0 *
Ed
 1e-07 1 1 0
1  15 0 0 1.6
2  29 6 0 0 1.6
2  30 4 0 0 1.6
0

0101000
-224 0 +207 0 *
Wi

0101100
-206 0 -205 0 +223 0 +235 0 *
Fa
0  1e-07 4 0

0111000
+204 0 *
Ed
 1e-07 1 1 0
1  16 0 0 30
2  31 6 0 0 30
2  32 5 0 0 30
0

0101000
-207 0 +231 0 *
Wi

0101100
-234 0 -206 0 +230 0 +202 0 *
Ve
1.00000000444089e-07
4.9 3.5 0
0 0

0101101
*
Ed
 1e-07 1 1 0
1  17 0 0 6.28318530717959
2  33 5 0 0 6.28318530717959
2  34 7 0 0 6.28318530717959
0

0101100
+200 0 -200 0 *
Wi

0101100
-199 0 *
Ve
1.00000000444089e-07
62.9 3.5 0
0 0

0101101
*
Ed
 1e-07 1 1 0
1  18 0 0 6.28318530717959
2  35 5 0 0 6.28318530717959
2  36 8 0 0 6.28318530717959
0

0101100
+197 0 -197 0 *
Wi

0101100
-196 0 *
Ve
1e-07
4.9 26.5 0
0 0

0101101
*
Ed
 1e-07 1 1 0
1  19 0 0 6.28318530717959
2  37 5 0 0 6.28318530717959
2  38 9 0 0 6.28318530717959
0

0101100
+194 0 -194 0 *
Wi

0101100
-193 0 *
Ve
1e-07
62.9 26.5 0
0 0

0101101
*
Ed
 1e-07 1 1 0
1  20 0 0 6.28318530717959
2  39 5 0 0 6.28318530717959
2  40 10 0 0 6.28318530717959
0

0101100
+191 0 -191 0 *
Wi

0101100
-190 0 *
Fa
0  1e-07 5 0

0101000
+201 0 +198 0 +195 0 +192 0 +189 0 *
Wi

0101100
-228 0 -222 0 +205 0 +202 0 *
Fa
0  1e-07 6 0

0111000
+187 0 *
Ed
 1e-07 1 1 0
1  21 0 1 2.6
3  41 42CN 7 0 1 2.6
0

0101000
+200 0 -220 0 *
Wi

0101100
-219 0 +185 0 +199 0 -185 0 *
Fa
0  1e-07 7 0

0101000
+184 0 *
Ed
 1e-07 1 1 0
1  22 0 1 2.6
3  43 44CN 8 0 1 2.6
0

0101000
+197 0 -217 0 *
Wi

0101100
-216 0 +182 0 +196 0 -182 0 *
Fa
0  1e-07 8 0

0101000
+181 0 *
Ed
 1e-07 1 1 0
1  23 0 1 2.6
3  45 46CN 9 0 1 2.6
0

0101000
+194 0 -214 0 *
Wi

0101100
-213 0 +179 0 +193 0 -179 0 *
Fa
0  1e-07 9 0

0101000
+178 0 *
Ed
 1e-07 1 1 0
1  24 0 1 2.6
3  47 48CN 10 0 1 2.6
0

0101000
+191 0 -211 0 *
Wi

0101100
-210 0 +176 0 +190 0 -176 0 *
Fa
0  1e-07 10 0

0101000
+175 0 *
Sh

0101100
-232 0 -225 0 +208 0 +203 0 -188 0 +186 0 -183 0 -180 0 -177 0 -174 0 
*
So

0100000
+173 0 *
Ve
1e-07
7.1 25.5 9.6
0 0

0101101
*
Ve
1e-07
7.1 25.5 1.6
0 0

0101101
*
Ed
 1e-07 1 1 0
1  25 0 0 8
2  49 11 0 0 8
2  50 12 0 0 8
0

0101000
-171 0 +170 0 *
Ve
1e-07
7.1 27.6 9.6
0 0

0101101
*
Ed
 1e-07 1 1 0
1  26 0 0 2.1
2  51 11 0 0 2.1
2  52 13 0 0 2.1
0

0101000
-168 0 +171 0 *
Ve
1e-07
7.1 27.6 1.6
0 0

0101101
*
Ed
 1e-07 1 1 0
1  27 0 0 8
2  53 11 0 0 8
2  54 14 0 0 8
0

0101000
-168 0 +166 0 *
Ed
 1e-07 1 1 0
1  28 0 0 2.1
2  55 11 0 0 2.1
2  56 15 0 0 2.1
0

0101000
-166 0 +170 0 *
Wi

0101100
-169 0 -167 0 +165 0 +164 0 *
Fa
0  1e-07 11 0

0111000
+163 0 *
Ve
1e-07
57.9 25.5 9.6
0 0

0101101
*
Ve
1e-07
57.9 25.5 1.6
0 0

0101101
*
Ed
 1e-07 1 1 0
1  29 0 0 8
2  57 16 0 0 8
2  58 12 0 0 8
0

0101000
-161 0 +160 0 *
Ve
1e-07
57.9 27.6 9.6
0 0

0101101
*
Ed
 1e-07 1 1 0
1  30 0 0 2.1
2  59 16 0 0 2.1
2  60 13 0 0 2.1
0

0101000
-158 0 +161 0 *
Ve
1e-07
57.9 27.6 1.6
0 0

0101101
*
Ed
 1e-07 1 1 0
1  31 0 0 8
2  61 16 0 0 8
2  62 14 0 0 8
0

0101000
-158 0 +156 0 *
Ed
 1e-07 1 1 0
1  32 0 0 2.1
2  63 16 0 0 2.1
2  64 15 0 0 2.1
0

0101000
-156 0 +160 0 *
Wi

0101100
-159 0 -157 0 +155 0 +154 0 *
Fa
0  1e-07 16 0

0111000
+153 0 *
Ed
 1e-07 1 1 0
1  33 0 0 50.8
2  65 12 0 0 50.8
2  66 15 0 0 50.8
0

0101000
-160 0 +170 0 *
Ed
 1e-07 1 1 0
1  34 0 0 50.8
2  67 12 0 0 50.8
2  68 13 0 0 50.8
0

0101000
-161 0 +171 0 *
Wi

0101100
-151 0 -159 0 +150 0 +169 0 *
Fa
0  1e-07 12 0

0111000
+149 0 *
Ed
 1e-07 1 1 0
1  35 0 0 50.8
2  69 14 0 0 50.8
2  70 15 0 0 50.8
0

0101000
-156 0 +166 0 *
Ed
 1e-07 1 1 0
1  36 0 0 50.8
2  71 14 0 0 50.8
2  72 13 0 0 50.8
0

0101000
-158 0 +168 0 *
Wi

0101100
-147 0 -155 0 +146 0 +165 0 *
Fa
0  1e-07 14 0

0111000
+145 0 *
Wi

0101100
-164 0 -147 0 +154 0 +151 0 *
Fa
0  1e-07 15 0

0111000
+143 0 *
Wi

0101100
-167 0 -146 0 +157 0 +150 0 *
Fa
0  1e-07 13 0

0111000
+141 0 *
Sh

0101100
-162 0 +152 0 -148 0 +144 0 -142 0 +140 0 *
So

0100000
+139 0 *
Ve
1e-07
6.5 0 5.6
0 0

0101101
*
Ve
1e-07
6.5 0 1.6
0 0

0101101
*
Ed
 1e-07 1 1 0
1  37 0 0 4
2  73 17 0 0 4
2  74 18 0 0 4
0

0101000
-137 0 +136 0 *
Ve
1e-07
6.5 5.1 5.6
0 0

0101101
*
Ed
 1e-07 1 1 0
1  38 0 0 5.1
2  75 17 0 0 5.1
2  76 19 0 0 5.1
0

0101000
-134 0 +137 0 *
Ve
1e-07
6.5 5.1 1.6
0 0

0101101
*
Ed
 1e-07 1 1 0
1  39 0 0 4
2  77 17 0 0 4
2  78 20 0 0 4
0

0101000
-134 0 +132 0 *
Ed
 1e-07 1 1 0
1  40 0 0 5.1
2  79 17 0 0 5.1
2  80 21 0 0 5.1
0

0101000
-132 0 +136 0 *
Wi

0101100
-135 0 -133 0 +131 0 +130 0 *
Fa
0  1e-07 17 0

0111000
+129 0 *
Ve
1e-07
17.55 0 5.6
0 0

0101101
*
Ve
1e-07
17.55 0 1.6
0 0

0101101
*
Ed
 1e-07 1 1 0
1  41 0 0 4
2  81 22 0 0 4
2  82 18 0 0 4
0

0101000
-127 0 +126 0 *
Ve
1e-07
17.55 5.1 5.6
0 0

0101101
*
Ed
 1e-07 1 1 0
1  42 0 0 5.1
2  83 22 0 0 5.1
2  84 19 0 0 5.1
0

0101000
-124 0 +127 0 *
Ve
1e-07
17.55 5.1 1.6
0 0

0101101
*
Ed
 1e-07 1 1 0
1  43 0 0 4
2  85 22 0 0 4
2  86 20 0 0 4
0

0101000
-124 0 +122 0 *
Ed
 1e-07 1 1 0
1  44 0 0 5.1
2  87 22 0 0 5.1
2  88 21 0 0 5.1
0

0101000
-122 0 +126 0 *
Wi

0101100
-125 0 -123 0 +121 0 +120 0 *
Fa
0  1e-07 22 0

0111000
+119 0 *
Ed
 1e-07 1 1 0
1  45 0 0 11.05
2  89 18 0 0 11.05
2  90 21 0 0 11.05
0

0101000
-126 0 +136 0 *
Ed
 1e-07 1 1 0
1  46 0 0 11.05
2  91 18 0 0 11.05
2  92 19 0 0 11.05
0

0101000
-127 0 +137 0 *
Wi

0101100
-117 0 -125 0 +116 0 +135 0 *
Fa
0  1e-07 18 0

0111000
+115 0 *
Ed
 1e-07 1 1 0
1  47 0 0 11.05
2  93 20 0 0 11.05
2  94 21 0 0 11.05
0

0101000
-122 0 +132 0 *
Ed
 1e-07 1 1 0
1  48 0 0 11.05
2  95 20 0 0 11.05
2  96 19 0 0 11.05
0

0101000
-124 0 +134 0 *
Wi

0101100
-113 0 -121 0 +112 0 +131 0 *
Fa
0  1e-07 20 0

0111000
+111 0 *
Wi

0101100
-130 0 -113 0 +120 0 +117 0 *
Fa
0  1e-07 21 0

0111000
+109 0 *
Wi

0101100
-133 0 -112 0 +123 0 +116 0 *
Fa
0  1e-07 19 0

0111000
+107 0 *
Sh

0101100
-128 0 +118 0 -114 0 +110 0 -108 0 +106 0 *
So

0100000
+105 0 *
Ve
1e-07
32.5 0 5.6
0 0

0101101
*
Ve
1e-07
32.5 0 1.6
0 0

0101101
*
Ed
 1e-07 1 1 0
1  49 0 0 4
2  97 23 0 0 4
2  98 24 0 0 4
0

0101000
-103 0 +102 0 *
Ve
1e-07
32.5 5.1 5.6
0 0

0101101
*
Ed
 1e-07 1 1 0
1  50 0 0 5.1
2  99 23 0 0 5.1
2  100 25 0 0 5.1
0

0101000
-100 0 +103 0 *
Ve
1e-07
32.5 5.1 1.6
0 0

0101101
*
Ed
 1e-07 1 1 0
1  51 0 0 4
2  101 23 0 0 4
2  102 26 0 0 4
0

0101000
-100 0 +98 0 *
Ed
 1e-07 1 1 0
1  52 0 0 5.1
2  103 23 0 0 5.1
2  104 27 0 0 5.1
0

0101000
-98 0 +102 0 *
Wi

0101100
-101 0 -99 0 +97 0 +96 0 *
Fa
0  1e-07 23 0

0111000
+95 0 *
Ve
1e-07
43.55 0 5.6
0 0

0101101
*
Ve
1e-07
43.55 0 1.6
0 0

0101101
*
Ed
 1e-07 1 1 0
1  53 0 0 4
2  105 28 0 0 4
2  106 24 0 0 4
0

0101000
-93 0 +92 0 *
Ve
1e-07
43.55 5.1 5.6
0 0

0101101
*
Ed
 1e-07 1 1 0
1  54 0 0 5.1
2  107 28 0 0 5.1
2  108 25 0 0 5.1
0

0101000
-90 0 +93 0 *
Ve
1e-07
43.55 5.1 1.6
0 0

0101101
*
Ed
 1e-07 1 1 0
1  55 0 0 4
2  109 28 0 0 4
2  110 26 0 0 4
0

0101000
-90 0 +88 0 *
Ed
 1e-07 1 1 0
1  56 0 0 5.1
2  111 28 0 0 5.1
2  112 27 0 0 5.1
0

0101000
-88 0 +92 0 *
Wi

0101100
-91 0 -89 0 +87 0 +86 0 *
Fa
0  1e-07 28 0

0111000
+85 0 *
Ed
 1e-07 1 1 0
1  57 0 0 11.05
2  113 24 0 0 11.05
2  114 27 0 0 11.05
0

0101000
-92 0 +102 0 *
Ed
 1e-07 1 1 0
1  58 0 0 11.05
2  115 24 0 0 11.05
2  116 25 0 0 11.05
0

0101000
-93 0 +103 0 *
Wi

0101100
-83 0 -91 0 +82 0 +101 0 *
Fa
0  1e-07 24 0

0111000
+81 0 *
Ed
 1e-07 1 1 0
1  59 0 0 11.05
2  117 26 0 0 11.05
2  118 27 0 0 11.05
0

0101000
-88 0 +98 0 *
Ed
 1e-07 1 1 0
1  60 0 0 11.05
2  119 26 0 0 11.05
2  120 25 0 0 11.05
0

0101000
-90 0 +100 0 *
Wi

0101100
-79 0 -87 0 +78 0 +97 0 *
Fa
0  1e-07 26 0

0111000
+77 0 *
Wi

0101100
-96 0 -79 0 +86 0 +83 0 *
Fa
0  1e-07 27 0

0111000
+75 0 *
Wi

0101100
-99 0 -78 0 +89 0 +82 0 *
Fa
0  1e-07 25 0

0111000
+73 0 *
Sh

0101100
-94 0 +84 0 -80 0 +76 0 -74 0 +72 0 *
So

0100000
+71 0 *
Ve
1e-07
48.75 0 5.6
0 0

0101101
*
Ve
1e-07
48.75 0 1.6
0 0

0101101
*
Ed
 1e-07 1 1 0
1  61 0 0 4
2  121 29 0 0 4
2  122 30 0 0 4
0

0101000
-69 0 +68 0 *
Ve
1e-07
48.75 5.1 5.6
0 0

0101101
*
Ed
 1e-07 1 1 0
1  62 0 0 5.1
2  123 29 0 0 5.1
2  124 31 0 0 5.1
0

0101000
-66 0 +69 0 *
Ve
1e-07
48.75 5.1 1.6
0 0

0101101
*
Ed
 1e-07 1 1 0
1  63 0 0 4
2  125 29 0 0 4
2  126 32 0 0 4
0

0101000
-66 0 +64 0 *
Ed
 1e-07 1 1 0
1  64 0 0 5.1
2  127 29 0 0 5.1
2  128 33 0 0 5.1
0

0101000
-64 0 +68 0 *
Wi

0101100
-67 0 -65 0 +63 0 +62 0 *
Fa
0  1e-07 29 0

0111000
+61 0 *
Ve
1e-07
59.8 0 5.6
0 0

0101101
*
Ve
1e-07
59.8 0 1.6
0 0

0101101
*
Ed
 1e-07 1 1 0
1  65 0 0 4
2  129 34 0 0 4
2  130 30 0 0 4
0

0101000
-59 0 +58 0 *
Ve
1e-07
59.8 5.1 5.6
0 0

0101101
*
Ed
 1e-07 1 1 0
1  66 0 0 5.1
2  131 34 0 0 5.1
2  132 31 0 0 5.1
0

0101000
-56 0 +59 0 *
Ve
1e-07
59.8 5.1 1.6
0 0

0101101
*
Ed
 1e-07 1 1 0
1  67 0 0 4
2  133 34 0 0 4
2  134 32 0 0 4
0

0101000
-56 0 +54 0 *
Ed
 1e-07 1 1 0
1  68 0 0 5.1
2  135 34 0 0 5.1
2  136 33 0 0 5.1
0

0101000
-54 0 +58 0 *
Wi

0101100
-57 0 -55 0 +53 0 +52 0 *
Fa
0  1e-07 34 0

0111000
+51 0 *
Ed
 1e-07 1 1 0
1  69 0 0 11.05
2  137 30 0 0 11.05
2  138 33 0 0 11.05
0

0101000
-58 0 +68 0 *
Ed
 1e-07 1 1 0
1  70 0 0 11.05
2  139 30 0 0 11.05
2  140 31 0 0 11.05
0

0101000
-59 0 +69 0 *
Wi

0101100
-49 0 -57 0 +48 0 +67 0 *
Fa
0  1e-07 30 0

0111000
+47 0 *
Ed
 1e-07 1 1 0
1  71 0 0 11.05
2  141 32 0 0 11.05
2  142 33 0 0 11.05
0

0101000
-54 0 +64 0 *
Ed
 1e-07 1 1 0
1  72 0 0 11.05
2  143 32 0 0 11.05
2  144 31 0 0 11.05
0

0101000
-56 0 +66 0 *
Wi

0101100
-45 0 -53 0 +44 0 +63 0 *
Fa
0  1e-07 32 0

0111000
+43 0 *
Wi

0101100
-62 0 -45 0 +52 0 +49 0 *
Fa
0  1e-07 33 0

0111000
+41 0 *
Wi

0101100
-65 0 -44 0 +55 0 +48 0 *
Fa
0  1e-07 31 0

0111000
+39 0 *
Sh

0101100
-60 0 +50 0 -46 0 +42 0 -40 0 +38 0 *
So

0100000
+37 0 *
Ve
1e-07
42.25 6 4.8
0 0

0101101
*
Ve
1e-07
42.25 6 1.6
0 0

0101101
*
Ed
 1e-07 1 1 0
1  73 0 0 3.2
2  145 35 0 0 3.2
2  146 36 0 0 3.2
0

0101000
-35 0 +34 0 *
Ve
1e-07
42.25 13.2 4.8
0 0

0101101
*
Ed
 1e-07 1 1 0
1  74 0 0 7.2
2  147 35 0 0 7.2
2  148 37 0 0 7.2
0

0101000
-32 0 +35 0 *
Ve
1e-07
42.25 13.2 1.6
0 0

0101101
*
Ed
 1e-07 1 1 0
1  75 0 0 3.2
2  149 35 0 0 3.2
2  150 38 0 0 3.2
0

0101000
-32 0 +30 0 *
Ed
 1e-07 1 1 0
1  76 0 0 7.2
2  151 35 0 0 7.2
2  152 39 0 0 7.2
0

0101000
-30 0 +34 0 *
Wi

0101100
-33 0 -31 0 +29 0 +28 0 *
Fa
0  1e-07 35 0

0111000
+27 0 *
Ve
1e-07
46.15 6 4.8
0 0

0101101
*
Ve
1e-07
46.15 6 1.6
0 0

0101101
*
Ed
 1e-07 1 1 0
1  77 0 0 3.2
2  153 40 0 0 3.2
2  154 36 0 0 3.2
0

0101000
-25 0 +24 0 *
Ve
1e-07
46.15 13.2 4.8
0 0

0101101
*
Ed
 1e-07 1 1 0
1  78 0 0 7.2
2  155 40 0 0 7.2
2  156 37 0 0 7.2
0

0101000
-22 0 +25 0 *
Ve
1e-07
46.15 13.2 1.6
0 0

0101101
*
Ed
 1e-07 1 1 0
1  79 0 0 3.2
2  157 40 0 0 3.2
2  158 38 0 0 3.2
0

0101000
-22 0 +20 0 *
Ed
 1e-07 1 1 0
1  80 0 0 7.2
2  159 40 0 0 7.2
2  160 39 0 0 7.2
0

0101000
-20 0 +24 0 *
Wi

0101100
-23 0 -21 0 +19 0 +18 0 *
Fa
0  1e-07 40 0

0111000
+17 0 *
Ed
 1e-07 1 1 0
1  81 0 0 3.9
2  161 36 0 0 3.9
2  162 39 0 0 3.9
0

0101000
-24 0 +34 0 *
Ed
 1e-07 1 1 0
1  82 0 0 3.9
2  163 36 0 0 3.9
2  164 37 0 0 3.9
0

0101000
-25 0 +35 0 *
Wi

0101100
-15 0 -23 0 +14 0 +33 0 *
Fa
0  1e-07 36 0

0111000
+13 0 *
Ed
 1e-07 1 1 0
1  83 0 0 3.9
2  165 38 0 0 3.9
2  166 39 0 0 3.9
0

0101000
-20 0 +30 0 *
Ed
 1e-07 1 1 0
1  84 0 0 3.9
2  167 38 0 0 3.9
2  168 37 0 0 3.9
0

0101000
-22 0 +32 0 *
Wi

0101100
-11 0 -19 0 +10 0 +29 0 *
Fa
0  1e-07 38 0

0111000
+9 0 *
Wi

0101100
-28 0 -11 0 +18 0 +15 0 *
Fa
0  1e-07 39 0

0111000
+7 0 *
Wi

0101100
-31 0 -10 0 +21 0 +14 0 *
Fa
0  1e-07 37 0

0111000
+5 0 *
Sh

0101100
-26 0 +16 0 -12 0 +8 0 -6 0 +4 0 *
So

0100000
+3 0 *
Co

1100000
+172 0 +138 0 +104 0 +70 0 +36 0 +2 0 *

+1 0 