<?xml version="1.0" encoding="UTF-8" standalone="no"?>
<svg
   xmlns:svg="http://www.w3.org/2000/svg"
   xmlns="http://www.w3.org/2000/svg"
   width="420.0"
   height="420"

><g transform="translate(0,55)">
    <g transform="scale(3.2887790433579447, -3.2887790433579447)   translate(43.55794359265107,-44.370990661825445)" stroke-width="0.3040642094882024"  fill="none">
       <!-- hidden lines -->
       <g  stroke="rgb(160,160,160)" fill="none" stroke-dasharray="0.3040642094882024,0.3040642094882024" >

       </g>

       <!-- solid lines -->
       <g  stroke="rgb(0,0,0)" fill="none">
			<path d="M9.192388155425117,21.637159394584735 L9.190631108700114,21.96679404193455 L9.18536023312986,22.29435018471961 L9.176576322488838,22.619778494189717 L9.16428069960168,22.94302996203845 L9.148475216143964,23.26405590778375 L9.129162252363365,23.582807986099063 L9.106344716721178,23.89923819409381 L9.08002604545436,24.213298878542595 L9.050210202057983,24.52494274306156 L9.016901676688395,24.834122855231037 L8.980105485486995,25.140792653663375 L8.939827169824841,25.444905955014924 L8.896072795468108,25.74641696094114 L8.848848951664628,26.045280264993593 L8.798162750151583,26.341450859457986 L8.74402182408448,26.634884142132172 L8.686434326887646,26.92553592304312 L8.625408931026321,27.213362431101757 L8.560954826700662,27.49832032069466 L8.4930817204617,27.78036667821179 L8.421799833749574,28.059459028509167 L8.347119901354226,28.33555534130545 L8.269053169798784,28.608614037511472 L8.18761139564587,28.87859399549194 L8.102806843727105,29.14545455725829 L8.014652285296066,29.409155534591505 L7.923160996104993,29.669657215094368 L7.828346754405523,29.926920368171963 L7.730223838873691,30.180906250939742 L7.6288070264596435,30.431576614058024 L7.5241115901622955,30.678893707492144 L7.4161532967292665,30.9228202861975 L7.304948404282435,31.163319615728604 L7.190513659869552,31.400355477771072 L7.072866296942209,31.63389217559594 L6.95202403276053,31.863894539435513 L6.8280050657250015,32.090327931779846 L6.700828072635872,32.313158252592935 L6.570512205880515,32.5323519444481 L6.437077090549135,32.74787599758159 L6.300542821479279,32.959697954863756 L6.160929960229645,33.16778591668701 L6.018259531983606,33.37210854576969 L5.872553022382892,33.5726350718754 L5.72383237429187,33.76933529644692 L5.572119984493124,33.962179597153956 L5.41743870031452,34.15113893235413 L5.259811816188471,34.33618484546663 L5.099263070143941,34.5172894692576 L4.9358166402315575,34.69442553003683 L4.769497140882425,34.86756635176514 L4.6003296192014,35.03668586007164 L4.428339551195005,35.20175858618044 L4.253552837934826,35.36275967074617 L4.075995801656983,35.519664867597726 L3.8956951817980467,35.67245054738958 L3.7126781309681505,35.82109370116035 L3.526972210861949,35.96557194379784 L3.3386053881079434,36.10586351741014 L3.1476060300567923,36.24194729460229 L2.9540029005092414,36.373802781658 L2.7578251553844737,36.501410121625945 L2.559102338329307,36.62475009731008 L2.357864376269198,36.74380413416365 " />
			<path d="M2.357864376269042,36.74380413416374 L2.154141574900546,36.858554303086905 L1.9479646141283595,36.96898332312622 L1.7393645434443883,37.07507456407745 L1.52837277725199,37.17681204898994 L1.31502109013506,37.27418045657269 L1.0993416120729176,37.367165123501664 L0.8813668236016223,37.45575204662804 L0.6611295509225386,37.53992788508705 L0.43866296095884394,37.61967996230706 L0.2140005563606895,37.69499626791857 L-0.01282382954016903,37.765865459562995 L-0.24177603782554336,37.83227686460075 L-0.4728215891350107,37.89422048171852 L-0.7059256888583985,37.95168698243542 L-0.941053232375717,38.00466771250781 L-1.178168810343772,38.05315469323263 L-1.417236714028709,38.097140622648915 L-1.6582209406835897,38.1366188766375 L-1.9010851989702893,38.17158350991855 L-2.1457929144248364,38.202029256946894 L-2.392307234965388,38.22795153270502 L-2.6405910364420233,38.24934643339355 L-2.8906069282274984,38.266210737019136 L-3.1423172588481396,38.27854190387969 L-3.395684121654025,38.28633807694683 L-3.650669360527562,38.289598082145574 L-3.907234575629694,38.288321428531134 L-4.165341129182746,38.28250830836284 L-4.424950151289142,38.272159597075216 L-4.68602254578507,38.25727685314611 L-4.94851899612822,38.23786231786202 L-5.212399971318709,38.21391891498053 L-5.477625731852301,38.185450250290074 L-5.744156335705036,38.152460611066815 L-6.011951644348352,38.11495496542908 L-6.280971328793799,38.072938961589145 L-6.551174875666427,38.026418927002645 L-6.8225215933059635,37.97540186741568 L-7.094970617894829,37.919895465809745 L-7.368480919612062,37.85990808124478 L-7.6430113088122775,37.79544874760024 L-7.918520442228658,37.72652717221467 L-8.194966829199117,37.6531537344238 L-8.472308837914627,37.575339483997496 L-8.750504701688817,37.493096139475625 L-9.029512525247897,37.406436086403374 L-9.309290291039897,37.31537237546596 L-9.589795865562401,37.21991872052331 L-9.87098700570766,37.12008949654474 L-10.152821365124277,37.01589973744419 L-10.435256500594381,36.90736513381612 L-10.718249878425468,36.79450203057263 L-11.001758880855752,36.67732742448193 L-11.285740812472296,36.555858961608685 L-11.570152906640775,36.43011493465661 L-11.854952331945949,36.30011428021365 L-12.140096198641942,36.16587657590017 L-12.425541565111281,36.02742203742068 L-12.711245444331713,35.884771515519404 L-12.99716481034994,35.73794649284022 L-13.283256604761121,35.58696908069149 L-13.569477743193357,35.43186201571614 L-13.855785121796,35.27264865646763 L-14.142135623730958,35.10935297989222 L-14.428486125665914,34.941999577718164 L-14.714793504268558,34.77061365275225 L-15.001014642700794,34.59522101508438 L-15.287106437111978,34.415848078200625 L-15.573025803130198,34.23252185500551 L-15.858729682350635,34.04526995375391 L-16.14417504881997,33.8541205738934 L-16.429318915515964,33.65910250181747 L-16.714118340821138,33.46024510653045 L-16.998530434989615,33.25757833522461 L-17.28251236660616,33.051132708770254 L-17.566021369036445,32.84093931711934 L-17.84901474686753,32.62702981462351 L-18.13144988233764,32.409436415267024 L-18.413284241754255,32.18819188781545 L-18.694475381899515,31.963329550880808 L-18.97498095642202,31.73488326790394 L-19.25475872221402,31.502887442054785 L-19.533766545773094,31.267377011051344 L-19.811962409547288,31.028387441898268 L-20.089304418262795,30.7859547255456 L-20.365750805233258,30.540115371468673 L-20.641259938649636,30.290906402169952 L-20.915790327849848,30.038365347603545 L-21.18930062956708,29.782530239523354 L-21.461749654155945,29.523439605755613 L-21.733096371795483,29.261132464396766 L-22.003299918668116,28.99564831793746 L-22.272319603113562,28.727027147313613 L-22.540114911756877,28.455309405885473 L-22.806645515609613,28.18053601334543 L-23.071871276143202,27.902748349555715 L-23.335752251333695,27.621988248316697 L-23.598248701676837,27.33829799106691 L-23.859321096172767,27.051720300515612 L-24.118930118279167,26.762298334208865 L-24.377036671832222,26.470075678030234 L-24.633601886934354,26.17509633963686 L-24.88858712580789,25.877404741832073 L-25.14195398861377,25.57704571587552 L-25.393664319234414,25.27406449473169 L-25.64368021101989,24.968506706258047 L-25.891964012496523,24.6604183663336 L-26.13847833303707,24.349845871929098 L-26.38318604849162,24.036835994119837 L-26.626050306778318,23.72143587104206 L-26.8670345334332,23.403693000794178 L-27.10610243711814,23.08365523428369 L-27.3432180150862,22.761370768021045 L-27.578345558603516,22.43688813686142 L-27.811449658326907,22.110256206695517 L-28.04249520963637,21.781524167090573 L-28.271447417921742,21.450741523882577 L-28.498271803822604,21.117958091720887 L-28.722934208420753,20.783223986566313 L-28.945400798384448,20.44658961814384 L-29.165638071063533,20.108105682351113 L-29.38361285953483,19.767823153623823 L-29.59929233759697,19.425793277259135 L-29.8126440247139,19.082067561698345 L-30.023635790906305,18.736697770769894 L-30.232235861590272,18.389735915893937 L-30.43841282236246,18.04123424824958 L-30.642135623730955,17.691245250906086 L-30.843373585791216,17.339821630919094 L-31.042096402846376,16.987016311393134 L-31.23827414797114,16.632882423511607 L-31.431877277518698,16.277473298535416 L-31.62287663556986,15.920842459771489 L-31.811243458323858,15.563043614512361 L-31.996949378430052,15.204130645948034 L-32.17996642925995,14.844157605051388 L-32.3602670491189,14.483178702438295 L-32.537824085396736,14.121248300203705 L-32.71261079865691,13.758420903734912 L-32.884600866663305,13.39475115350324 L-33.05376838834433,13.030293816835387 L-33.22008788769345,12.665103779665678 L-33.38353431760585,12.29923603827044 L-33.544083063650376,11.932745690985747 L-33.70170994777642,11.565687929909856 L-33.85639123195503,11.198118032591442 L-34.008103621753776,10.830091353705006 L-34.156824269844776,10.46166331671468 L-34.302530779445505,10.092889405527655 L-34.44520120769154,9.723825156138492 L-34.58481406894117,9.35452614826563 L-34.721348338011026,8.985047996981262 L-34.85478345334241,8.615446344335924 L-34.98509932009777,8.245776850979006 L-35.11227631318689,7.876095187776452 L-35.23629528022242,7.50645702742694 L-35.35713754440411,7.136918036077791 L-35.47478490733145,6.767533864941832 L-35.58921965174433,6.398360141916536 L-35.700424544191165,6.029452463206652 L-35.808382837624194,5.660866384951655 L-35.91307827392154,5.292657414859154 L-36.014495086335586,4.924881003845669 L-36.112618001867425,4.557592537685922 L-36.2074322435669,4.190847328671916 L-36.29892353275797,3.8247006072831295 L-36.387078091189004,3.459207513869016 L-36.471882643107776,3.094423090345048 L-36.55332441726069,2.73040227190363 L-36.63139114881613,2.367199878741049 L-36.706071081211476,2.0048706078017426 L-36.7773529679236,1.6434690245411687 L-36.84522607416256,1.2830495547084286 L-36.90968017848823,0.9236664761499478 L-36.970705574349545,0.5653739106354427 L-37.028293071546386,0.20822581570737775 L-37.082433997613485,-0.14772402344484625 L-37.13312019912653,-0.5024220020847388 L-37.18034404293001,-0.8558147040013946 L-37.22409841728674,-1.2078489095537979 L-37.264376732948904,-1.5584716036854562 L-37.30117292415029,-1.9076299839083433 L-37.334481449519885,-2.255271468254705 L-37.36429729291626,-2.601343703195706 L-37.390615964183084,-2.945794571525724 L-37.41343349982526,-3.288572200210993 L-37.432746463605866,-3.629624968201451 L-37.44855194706358,-3.9689015142047275 L-37.460847569950744,-4.306350744420964 L-37.46963148059176,-4.6419218402373215 L-37.47490235616201,-4.9755642658810935 L-37.47665940288702,-5.307227776030217 L-37.47490235616201,-5.636862423380016 L-37.46963148059176,-5.964418566165092 L-37.460847569950744,-6.289846875635185 L-37.44855194706358,-6.613098343483907 L-37.432746463605866,-6.934124289229221 L-37.41343349982527,-7.2528763675445145 L-37.390615964183084,-7.569306575539274 L-37.36429729291626,-7.883367259988068 L-37.334481449519885,-8.195011124507039 L-37.30117292415029,-8.504191236676517 L-37.264376732948904,-8.810861035108845 L-37.22409841728674,-9.114974336460405 L-37.18034404293001,-9.416485342386634 L-37.13312019912653,-9.71534864643908 L-37.082433997613485,-10.011519240903459 L-37.028293071546386,-10.304952523577652 L-36.970705574349545,-10.595604304488612 L-36.90968017848822,-10.88343081254724 L-36.84522607416257,-11.16838870214013 L-36.777352967923605,-11.450435059657268 L-36.706071081211476,-11.729527409954661 L-36.63139114881613,-12.005623722750931 L-36.55332441726068,-12.278682418956942 L-36.471882643107776,-12.548662376937427 L-36.387078091189004,-12.815522938703781 L-36.29892353275797,-13.07922391603699 L-36.2074322435669,-13.339725596539838 L-36.112618001867425,-13.596988749617443 L-36.014495086335586,-13.850974632385237 L-35.91307827392154,-14.101644995503511 L-35.808382837624194,-14.34896208893762 L-35.700424544191165,-14.59288866764299 L-35.58921965174433,-14.833387997174102 L-35.47478490733144,-15.070423859216566 L-35.357137544404104,-15.303960557041423 L-35.23629528022242,-15.533962920881011 L-35.11227631318689,-15.760396313225352 L-34.98509932009776,-15.983226634038436 L-34.85478345334241,-16.20242032589359 L-34.721348338011026,-16.417944379027077 L-34.584814068941164,-16.62976633630926 L-34.44520120769153,-16.837854298132505 L-34.302530779445505,-17.04217692721518 L-34.15682426984478,-17.242703453320892 L-34.00810362175377,-17.439403677892415 L-33.85639123195503,-17.632247978599437 L-33.701709947776415,-17.82120731379962 L-33.544083063650376,-18.006253226912122 L-33.38353431760585,-18.187357850703073 L-33.22008788769345,-18.364493911482306 L-33.05376838834433,-18.537634733210616 L-32.884600866663305,-18.70675424151711 L-32.71261079865691,-18.871826967625907 L-32.53782408539674,-19.032828052191647 L-32.360267049118896,-19.189733249043194 L-32.17996642925995,-19.342518928835048 L-31.99694937843005,-19.491162082605825 L-31.811243458323847,-19.635640325243322 L-31.62287663556985,-19.775931898855617 L-31.43187727751869,-19.912015676047773 L-31.238274147971136,-20.04387116310349 L-31.042096402846372,-20.171478503071427 L-30.843373585791213,-20.294818478755552 L-30.642135623731026,-20.41387251560917 " />
			<path d="M-30.64213562373095,-20.413872515609214 L-30.489574804934367,-20.500339586073743 L-30.335629179916253,-20.584378392832043 L-30.18031178954846,-20.665981816881498 L-30.023635790906297,-20.74514294552292 L-29.865614456154006,-20.821855072946178 L-29.706261171420437,-20.896111700798215 L-29.545589435665143,-20.96790653873356 L-29.383612859534832,-21.03723350494713 L-29.220345164210407,-21.104086726689523 L-29.055800180244646,-21.1684605407644 L-28.889991846390583,-21.2303494940083 L-28.722934208420753,-21.289748343752535 L-28.554641417937365,-21.34665205826731 L-28.3851277311735,-21.40105581718798 L-28.214407507785467,-21.452955011923386 L-28.04249520963637,-21.502345246046225 L-27.869405399571026,-21.54922233566552 L-27.69515274018233,-21.59358230978099 L-27.519751992569226,-21.635421410619493 L-27.3432180150862,-21.674736093953285 L-27.16556576208468,-21.711523029400333 L-26.986810282646204,-21.745779100706365 L-26.806966719307617,-21.77750140600888 L-26.626050306778318,-21.80668725808298 L-26.44407637064973,-21.83333418456897 L-26.26106032609704,-21.85743992818184 L-26.077017676573384,-21.87900244690244 L-25.891964012496523,-21.898019914150495 L-25.70591500992815,-21.914490718939312 L-25.518886429245985,-21.928413466012252 L-25.330894113808696,-21.93978697596095 L-25.14195398861377,-21.948610285325167 L-24.952082058948527,-21.95488264667447 L-24.761294409034264,-21.95860352867151 L-24.56960720066376,-21.959772616117043 L-24.377036671832222,-21.958389809976616 L-24.183599135361682,-21.95445522738897 L-23.98931097751919,-21.947969201656136 L-23.794188656628695,-21.938932282215163 L-23.598248701676845,-21.92734523459159 L-23.401507710912803,-21.9132090403346 L-23.20398235044219,-21.896524896933883 L-23.00568935281529,-21.87729421771818 L-22.80664551560961,-21.85551863173555 L-22.606867700006966,-21.8311999836154 L-22.406372829365125,-21.8043403334122 L-22.205177887784245,-21.774941956430986 L-22.003299918668116,-21.743007343034627 L-21.800756023280393,-21.708539198432824 L-21.597563359295933,-21.671540442453 L-21.393739139347396,-21.632014209292926 L-21.189300629567086,-21.589963847255227 L-20.984265148124365,-21.54539291846376 L-20.77865006375859,-21.498305198561845 L-20.572472794307803,-21.44870467639241 L-20.36575080523325,-21.39659555366014 L-20.158501608139865,-21.341982244575533 L-19.950742759292837,-21.284869375480923 L-19.742491858130432,-21.22526178445863 L-19.53376654577309,-21.163164520921107 L-19.324584503529053,-21.098582845183188 L-19.11496345139655,-21.03152222801649 L-18.904921146562753,-20.961988350185997 L-18.694475381899515,-20.889987101968792 L-18.48364398445614,-20.815524582655144 L-18.272444813949217,-20.73860710003178 L-18.060895761249743,-20.659241169847576 L-17.84901474686753,-20.577433515261603 L-17.63681971943317,-20.49319106627358 L-17.42432865417756,-20.40652095913685 L-17.211559551409263,-20.31743053575385 L-16.998530434989622,-20.225927343054174 L-16.785259350805987,-20.132019132355268 L-16.571764365243,-20.03571385870582 L-16.358063563652195,-19.937019680211847 L-16.144175048819967,-19.835944957345653 L-15.930116939434068,-19.732498252237576 L-15.71590736854876,-19.626688327950703 L-15.50156448204873,-19.518524147738532 L-15.287106437111978,-19.408014874285705 L-15.072551400671648,-19.295169868931794 L-14.857917547877122,-19.1799986908783 L-14.428486125665916,-18.942717037913113 L-13.998957677479103,-18.696250315053206 L-13.569477743193351,-18.440682034197735 L-13.14019184624706,-18.17609879118507 L-12.71124544433171,-17.90259023645099 L-12.282783880105494,-17.620249044651835 L-11.854952331945949,-17.329170883262954 L-11.427895764758254,-17.029454380163124 L-11.001758880855764,-16.721201090215743 L-10.576686070929703,-16.40451546085847 L-10.152821365124282,-16.079504796712513 L-9.730308384234036,-15.746279223224006 L-9.309290291039893,-15.40495164934943 L-8.889909741800412,-15.055637729297997 L-8.472308837914618,-14.698455823343751 L-8.056629077772918,-14.333526957720855 L-7.643011308812257,-13.960974783615425 L-7.231595679791907,-13.580925535268063 L-6.822521593305961,-13.193507987201096 L-6.415927658548616,-12.798853410585027 L-6.011951644348363,-12.397095528759115 L-5.610730432486932,-11.988370471921089 L-5.21239997131871,-11.572816731001202 L-4.817095229706492,-11.150575110736517 L-4.424950151289137,-10.721788681961092 L-4.036097609096565,-10.28660273312841 L-3.6506693605275693,-9.845164721082357 L-3.268796002705555,-9.397624221093428 L-2.890606928227516,-8.944132876177209 L-2.5162302813211426,-8.484844345712245 L-2.145792914424847,-8.019914253374607 L-1.779420345205546,-7.549500134406911 L-1.4172367140287143,-7.07376138223967 L-1.0593647418951004,-6.592859194482983 L-0.7059256888583985,-6.106956518306914 L-0.3570393129379035,-5.616217995229075 L-0.012823829540160148,-5.120809905328061 L0.32660412859673293,-4.620900110901724 L0.6611295509225386,-4.116657999589332 L0.9906390880446612,-3.608254426976801 L1.3150210901350512,-3.095861658704642 L1.6341656447611594,-2.579653312098147 L1.947964614128356,-2.0598042973394435 L2.2563116717209084,-1.536490758201575 L2.5591023383293034,-1.009890012364588 L2.8562340174515874,-0.4801804913338401 L3.1476060300567887,0.05245832001909534 L3.4331196486986677,0.5878459442724306 L3.712678130968147,1.1258009726064833 L3.98618675227317,1.6661411262716017 L4.253552837934826,2.208683318350798 L4.514685794588949,2.7532437157963567 L4.7694971408824145,3.299637801719104 L5.017900537453823,3.847680437909392 L5.259811816188456,4.397185927568749 L5.495149008737496,4.947968078230691 L5.723832374291863,5.4998402648494995 L5.945784426601314,6.052615493035592 L6.16092996022963,6.606106462416026 L6.369196076036918,7.1601256300986735 L6.570512205880515,7.714485274218607 L6.764810136526041,8.26899755754507 L6.952024032760519,8.823474591127573 L7.132090459699768,9.377728497959557 L7.30494840428242,9.931571476637957 L7.470539295943368,10.48481586499705 L7.628807026459636,11.037274203695343 L7.779697968961845,11.588759299733592 L7.923160996104993,12.13908428988259 L8.059147497392228,12.688062703999252 L8.18761139564587,13.235508528209472 L8.308509162620034,13.781236267936404 L8.421799833749574,14.32506101075279 L8.527445022030392,14.86679848903599 L8.625408931026321,15.406265142404571 L8.715658366998298,15.943278179915307 L8.798162750151583,16.477655641999352 L8.872894124997313,17.009216462116726 L8.939827169824841,17.537780528108314 L8.998939205281658,18.063168743224416 L9.050210202057986,18.585203086809223 L9.093622787673414,19.103706674620724 L9.129162252363361,19.61850381876551 L9.156816554063258,20.12942008722823 L9.176576322488838,20.636282362975493 L9.188434862311137,21.13891890261427 L9.192388155425117,21.6371593945845 " />
			<path d="M23.33452377915607,13.472193585307473 L23.332766732431065,13.801828232657288 L23.32749585686081,14.12938437544235 L23.31871194621979,14.454812684912454 L23.30641632333263,14.778064152761193 L23.290610839874915,15.09909009850649 L23.271297876094316,15.4178421768218 L23.24848034045213,15.734272384816553 L23.22216166918531,16.048333069265336 L23.192345825788934,16.359976933784296 L23.159037300419346,16.669157045953778 L23.122241109217946,16.975826844386113 L23.081962793555793,17.279940145737665 L23.03820841919906,17.58145115166388 L22.99098457539558,17.880314455716334 L22.940298373882534,18.176485050180727 L22.88615744781543,18.46991833285491 L22.828569950618597,18.76057011376586 L22.767544554757272,19.048396621824498 L22.703090450431613,19.3333545114174 L22.63521734419265,19.61540086893453 L22.563935457480525,19.894493219231904 L22.489255525085177,20.17058953202819 L22.411188793529735,20.44364822823421 L22.32974701937682,20.71362818621468 L22.244942467458056,20.98048874798103 L22.156787909027017,21.244189725314246 L22.065296619835944,21.504691405817105 L21.970482378136474,21.7619545588947 L21.872359462604642,22.015940441662483 L21.770942650190594,22.266610804780765 L21.666247213893246,22.51392789821488 L21.558288920460217,22.75785447692024 L21.447084028013386,22.998353806451345 L21.332649283600503,23.23538966849381 L21.21500192067316,23.468926366318676 L21.09415965649148,23.698928730158254 L20.970140689455953,23.925362122502584 L20.842963696366823,24.148192443315676 L20.712647829611466,24.36738613517084 L20.579212714280086,24.582910188304325 L20.44267844521023,24.794732145586494 L20.303065583960596,25.00282010740975 L20.160395155714557,25.20714273649243 L20.014688646113843,25.40766926259814 L19.86596799802282,25.60436948716966 L19.714255608224075,25.797213787876693 L19.55957432404547,25.986173123076867 L19.40194743991942,26.171219036189374 L19.241398693874892,26.35232365998034 L19.07795226396251,26.52945972075957 L18.911632764613376,26.70260054248788 L18.74246524293235,26.87172005079438 L18.570475174925956,27.036792776903177 L18.395688461665777,27.197793861468913 L18.218131425387934,27.354699058320463 L18.037830805528998,27.507484738112318 L17.8548137546991,27.656127891883088 L17.6691078345929,27.80060613452058 L17.480741011838894,27.940897708132884 L17.289741653787743,28.07698148532503 L17.096138524240192,28.20883697238074 L16.899960779115425,28.336444312348686 L16.701237962060258,28.459784288032814 L16.50000000000015,28.57883832488639 " />
			<path d="M-16.5,-28.578838324886476 L-16.347439181203416,-28.665305395351005 L-16.193493556185302,-28.749344202109306 L-16.038176165817507,-28.830947626158757 L-15.881500167175348,-28.91010875480018 L-15.723478832423057,-28.98682088222344 L-15.564125547689486,-29.061077510075474 L-15.403453811934192,-29.132872348010817 L-15.241477235803881,-29.202199314224394 L-15.078209540479458,-29.269052535966782 L-14.913664556513696,-29.333426350041663 L-14.747856222659632,-29.39531530328556 L-14.580798584689802,-29.454714153029794 L-14.412505794206414,-29.511617867544572 L-14.24299210744255,-29.566021626465243 L-14.072271884054514,-29.617920821200645 L-13.900359585905418,-29.667311055323488 L-13.727269775840075,-29.71418814494278 L-13.553017116451379,-29.75854811905825 L-13.377616368838273,-29.800387219896752 L-13.201082391355248,-29.839701903230548 L-13.023430138353728,-29.876488838677595 L-12.84467465891525,-29.910744909983624 L-12.664831095576664,-29.942467215286143 L-12.483914683047368,-29.97165306736024 L-12.301940746918778,-29.99829999384623 L-12.11892470236609,-30.0224057374591 L-11.93488205284243,-30.0439682561797 L-11.74982838876557,-30.062985723427758 L-11.5637793861972,-30.07945652821657 L-11.376750805515034,-30.093379275289514 L-11.188758490077744,-30.104752785238208 L-10.99981836488282,-30.113576094602426 L-10.809946435217576,-30.119848455951733 L-10.619158785303313,-30.123569337948773 L-10.427471576932811,-30.124738425394302 L-10.23490104810127,-30.123355619253875 L-10.041463511630731,-30.119421036666232 L-9.847175353788236,-30.1129350109334 L-9.652053032897744,-30.103898091492425 L-9.456113077945895,-30.09231104386885 L-9.259372087181854,-30.078174849611862 L-9.06184672671124,-30.061490706211146 L-8.863553729084337,-30.04226002699544 L-8.664509891878659,-30.020484441012808 L-8.464732076276013,-29.99616579289266 L-8.264237205634176,-29.96930614268946 L-8.063042264053292,-29.93990776570825 L-7.861164294937165,-29.907973152311886 L-7.65862039954944,-29.873505007710083 L-7.4554277355649825,-29.83650625173026 L-7.251603515616443,-29.79698001857019 L-7.047165005836137,-29.75492965653249 L-6.842129524393416,-29.710358727741024 L-6.63651444002764,-29.663271007839104 L-6.430337170576852,-29.61367048566967 L-6.2236151815023,-29.561561362937404 L-6.016365984408914,-29.506948053852792 L-5.808607135561887,-29.449835184758182 L-5.600356234399481,-29.39022759373589 L-5.3916309220421414,-29.32813033019837 L-5.182448879798102,-29.26354865446045 L-4.972827827665601,-29.196488037293754 L-4.762785522831802,-29.126954159463256 L-4.552339758168564,-29.054952911246055 L-4.341508360725189,-28.980490391932406 L-4.1303091902182665,-28.903572909309037 L-3.9187601375187904,-28.82420697912484 L-3.706879123136581,-28.742399324538866 L-3.4946840957022176,-28.658156875550844 L-3.2821930304466105,-28.571486768414108 L-3.06942392767831,-28.48239634503111 L-2.8563948112586712,-28.390893152331433 L-2.6431237270750345,-28.29698494163253 L-2.429628741512046,-28.20067966798308 L-2.2159279399212424,-28.10198548948911 L-2.002039425089015,-28.000910766622912 L-1.7879813157031177,-27.897464061514835 L-1.5737717448178086,-27.79165413722796 L-1.3594288583177794,-27.683489957015794 L-1.1449708133810277,-27.572980683562967 L-0.9304157769406971,-27.460135678209053 L-0.7157819241461714,-27.344964500155562 L-0.2863505019349657,-27.107682847190375 L0.1431779462518476,-26.86121612433047 L0.5726578805375991,-26.605647843474994 L1.0019437774838909,-26.34106460046233 L1.4308901793992395,-26.067556045728253 L1.8593517436254559,-25.785214853929098 L2.2871832917850017,-25.494136692540216 L2.714239858972696,-25.194420189440383 L3.140376742875188,-24.886166899493006 L3.5654495528012466,-24.56948127013573 L3.9893142586066697,-24.244470605989775 L4.411827239496916,-23.911245032501267 L4.8328453326910585,-23.56991745862669 L5.252225881930539,-23.220603538575258 L5.669826785816334,-22.863421632621012 L6.085506545958032,-22.498492766998115 L6.499124314918694,-22.125940592892686 L6.910539943939044,-21.745891344545324 L7.31961403042499,-21.358473796478357 L7.726207965182335,-20.963819219862287 L8.130183979382588,-20.562061338036376 L8.53140519124402,-20.15333628119835 L8.92973565241224,-19.737782540278463 L9.325040394024459,-19.315540920013778 L9.717185472441814,-18.886754491238353 L10.106038014634386,-18.45156854240567 L10.491466263203382,-18.010130530359618 L10.873339621025396,-17.56259003037069 L11.251528695503435,-17.10909868545447 L11.625905342409808,-16.649810154989506 L11.996342709306104,-16.184880062651867 L12.362715278525405,-15.714465943684171 L12.724898909702237,-15.238727191516931 L13.08277088183585,-14.757825003760244 L13.436209934872553,-14.271922327584175 L13.785096310793048,-13.781183804506336 L14.12931179419079,-13.285775714605322 L14.468739752327684,-12.785865920178985 L14.80326517465349,-12.281623808866593 L15.132774711775612,-11.773220236254062 L15.457156713866002,-11.260827467981903 L15.77630126849211,-10.744619121375408 L16.090100237859307,-10.224770106616704 L16.39844729545186,-9.701456567478836 L16.701237962060254,-9.174855821641849 L16.99836964118254,-8.645146300611101 L17.28974165378774,-8.112507489258165 L17.57525527242962,-7.57711986500483 L17.854813754699098,-7.0391648366707775 L18.12832237600412,-6.498824683005659 L18.395688461665777,-5.956282490926463 L18.6568214183199,-5.411722093480904 L18.911632764613366,-4.865328007558157 L19.160036161184774,-4.317285371367869 L19.401947439919407,-3.7677798817085115 L19.637284632468447,-3.2169977310465705 L19.865967998022814,-2.6651255444277617 L20.087920050332265,-2.1123503162416686 L20.30306558396058,-1.5588593468612353 L20.51133169976787,-1.0048401791785873 L20.712647829611466,-0.45048053505865415 L20.906945760256992,0.10403174826781024 L21.09415965649147,0.6585087818503114 L21.27422608343072,1.2127626886822973 L21.44708402801337,1.7666056673606971 L21.61267491967432,2.319850055719789 L21.770942650190587,2.872308394418083 L21.921833592692796,3.423793490456332 L22.065296619835944,3.974118480605329 L22.20128312112318,4.523096894721991 L22.32974701937682,5.07054271893221 L22.450644786350985,5.616270458659144 L22.563935457480525,6.160095201475529 L22.669580645761343,6.70183267975873 L22.767544554757272,7.24129933312731 L22.85779399072925,7.778312370638047 L22.940298373882534,8.312689832722091 L23.015029748728264,8.844250652839463 L23.081962793555793,9.372814718831053 L23.14107482901261,9.898202933947154 L23.192345825788937,10.420237277531962 L23.235758411404365,10.938740865343465 L23.271297876094312,11.45353800948825 L23.29895217779421,11.964454277950969 L23.31871194621979,12.471316553698234 L23.330570486042088,12.973953093337009 L23.33452377915607,13.47219358530724 " />
			<path d="M5.65685424949238,19.595917942265423 L5.65685424949238,20.616538668425086 " />
			<path d="M5.637114867629934,20.605142130993165 L5.656854249492381,20.616538668425086 " />
			<path d="M5.637114867629933,20.605142130993258 L5.625560176605646,20.8627382313065 L5.611357452588674,21.11863336856132 L5.594508598141779,21.372793263660466 L5.575015870296983,21.62518386995559 L5.552881880253231,21.875771377808007 L5.528109593026603,22.124522219117786 L5.500702327053126,22.371403071820403 L5.47066375374424,22.616380864350525 L5.437997896994993,22.859422780072176 L5.402709132644993,23.100496261674785 L5.364802187892263,23.339569015534483 L5.324282140659957,23.576609016040067 L5.281154418916163,23.811584509883104 L5.23542479994677,24.044464020311523 L5.187099409581567,24.27521635134611 L5.136184721373642,24.503810591959507 L5.082687555732182,24.730216120216944 L5.026615079008849,24.954402607378334 L4.9679748025377855,25.176340021960954 L4.9067745816294135,25.39599863376246 L4.843022614518151,25.613349017843447 L4.776727441264203,25.828362058469132 L4.707897942609556,26.04100895300966 L4.636543338788336,26.25126121579838 L4.562673188291672,26.459090681947792 L4.486297386587278,26.664469511122427 L4.407426164793893,26.867370191268172 L4.326070088310722,27.06776554229787 L4.2422400554021245,27.265628719732184 L4.155947295737715,27.460933218295693 L4.0672033688880695,27.653652875467422 L3.9760201627762193,27.84376187498554 L3.882409892085178,28.03123475030565 L3.7863850966216965,28.216046388012195 L3.687958639636463,28.398172031182625 L3.5871437061009637,28.577587282703732 L3.4839538009412543,28.75426810853989 L3.378402747228872,28.92819084095256 L3.270504684329154,29.099332181670732 L3.1602740660071404,29.267669205011963 L3.0477256584913803,29.433179360953417 L2.9328745384958914,29.595840478152624 L2.815736091200513,29.755630766917477 L2.696326008189967,29.912528822125168 L2.574660285351804,30.066513626089503 L2.4507552207336865,30.217564551376448 L2.3246274123601083,30.365661363567305 L2.196293756008977,30.510784223969225 L2.0657714429482787,30.65291369227284 L1.9330779576331807,30.792030729156366 L1.7982310753638924,30.928116698836078 L1.661248859904486,31.06115337156274 L1.522149661063132,31.191122926063578 L1.3809521122340076,31.318007951929637 L1.2376751279012073,31.441791451947978 L1.0923379011050027,31.562456844378595 L0.9449599008707938,31.679987965175705 L0.795560869601081,31.794369070152996 L0.6441608204308267,31.905584837092704 L0.49078003454654073,32.01362036779813 L0.33543905846945066,32.1184611900894 L0.1781587013031345,32.220093259742065 L0.018960031946031464,32.318502962368484 L-0.1421356237308249,32.41367711524147 " />
			<path d="M-0.14213562373095812,32.41367711524155 L-0.33000329823578056,32.51926984015646 L-0.5203254429377804,32.62053470953047 L-0.7130682368438563,32.71745372819829 L-0.9081974288020387,32.810009673269406 L-1.1056783435880373,32.898186097188635 L-1.3054758880671784,32.981967330658904 L-1.5075545574305877,33.06133848542574 L-1.7118784415045276,33.136285456923034 L-1.91841123113179,33.20679492677938 L-2.127116224623963,33.272854365184884 L-2.3379563342834775,33.33445203311772 L-2.5508940929942217,33.391576984430216 L-2.7658916608796105,33.44421906779401 L-2.9829108320268674,33.49236892850401 L-3.2019130412763825,33.536018010140715 L-3.422859371074864,33.5751585560908 L-3.645710558391171,33.609783610925405 L-3.8704270016934963,33.63988702163621 L-4.096968767986704,33.66546343872883 L-4.325295599908596,33.68650831717343 L-4.555366922883794,33.703017917212385 L-4.787141852334004,33.7149893050249 L-5.020579200943365,33.72242035324831 L-5.255637485977603,33.725309741356135 L-5.492274936655663,33.72365695589276 L-5.730449501572554,33.71746229056465 L-5.970118856172045,33.70672684618818 L-6.211240410267898,33.69145253049402 L-6.4537713156123235,33.671642057788084 L-6.697668473510272,33.64729894846923 L-6.942888542478243,33.618427528403664 L-7.189387945946241,33.58503292815619 " />
			<path d="M-7.189387945946464,33.58503292815614 L-7.183288141492508,33.61023215427531 " />
			<path d="M-7.183288141492509,33.6102321542753 L-8.023912451307506,33.44028707082479 " />
			<path d="M-8.023912451307506,33.44028707082479 L-8.864534421402404,33.27034246038453 " />
			<path d="M-8.870634225856344,33.24514323426542 L-8.8645344214024,33.27034246038454 " />
			<path d="M-8.870634225856179,33.245143234265434 L-9.219578318713776,33.15103201477887 L-9.57015998160717,33.04860876745896 L-9.92226258775262,32.93790756509153 L-10.275769004399484,32.81896523426095 L-10.630561631796347,32.69182134309917 L-10.986522442312548,32.556518188122716 L-11.343533019701992,32.41310078016206 L-11.701474598496292,32.26161682938801 L-12.060228103514055,32.102116729440176 L-12.419674189473223,31.93465354066263 L-12.779693280693232,31.759282972452546 L-13.140165610873845,31.576063364727553 L-13.500971262937405,31.38505566851798 L-13.861990208921217,31.18632342569049 L-14.22310234990684,30.97993274780982 L-14.58418755597298,30.765952294145706 L-14.945125706158677,30.544453248832227 L-15.30579672842355,30.315509297187205 L-15.666080639591732,30.079196601199598 L-16.025857585266262,29.835593774192937 L-16.385007879700623,29.58478185467331 L-16.743412045614196,29.32684427937057 L-17.100950853938343,29.06186685548171 L-17.457505363479918,28.789937732125715 L-17.812956960489046,28.511147371019256 L-18.167187398117925,28.22558851638314 L-18.5200788357576,27.933356164089396 L-18.871513878239597,27.63454753005933 L-19.221375614889354,27.32926201792305 L-19.56954765841849,27.017601185951207 L-19.91591418364297,26.699668713269936 L-20.260359966014256,26.375570365370308 L-20.602770419950666,26.045413958923668 L-20.94303163695616,25.70930932591466 L-21.281030423513872,25.3673682771038 L-21.616654338741817,25.01970456483174 L-21.949791731798204,24.666433845177743 L-22.280331779023925,24.30767363948471 L-22.6081645208099,23.943543295263805 L-22.933180898176936,23.574163946491502 L-23.255272789056004,23.199658473312393 L-23.57433304425684,22.82015146116106 L-23.890255523112884,22.435769159316692 L-24.202935128790735,22.046639438904137 L-24.51226784325233,21.6528917503555 L-24.818150761858305,21.254657080346316 L-25.120482127600873,20.852067908220626 L-25.41916136495501,20.44525816191956 L-25.714089113336556,20.034363173428027 L-26.005167260156142,19.619519633754223 L-26.292298973457996,19.20086554745717 L-26.575388734132652,18.778540186737185 L-26.854342367692986,18.352684045104706 L-27.12906707560292,17.923438790642784 L-27.39947146614837,17.49094721887885 L-27.66546558484022,17.05535320528145 L-27.92696094433918,16.616801657397648 L-28.183870553892532,16.175438466647197 L-28.43610894827308,15.731410459789291 L-28.683592216210528,15.284865350078249 L-28.92623802830599,14.835951688124243 L-29.163965664420196,14.384818812475505 L-29.396696040526404,13.931616799938363 L-29.624351735018955,13.476496415651775 " />
			<path d="M-29.624351735019115,13.476496415651441 L-29.6403212304043,13.480673856451354 " />
			<path d="M-29.640321230404297,13.480673856451354 L-30.159854920083376,12.355021400842608 " />
			<path d="M-30.159854920083376,12.355021400842608 L-30.67938857484793,11.229369020881746 " />
			<path d="M-30.663419079462784,11.225191580081843 L-30.679388574847934,11.229369020881746 " />
			<path d="M-30.6634190794626,11.225191580082203 L-30.85966783045825,10.761855491792382 L-31.05035521809784,10.297655505234479 L-31.235417807070657,9.832746044205209 L-31.414794033248196,9.367281768519698 L-31.588424224164527,8.901417522561337 L-31.75625061886729,8.435308283770228 L-31.918217387132856,7.969109111087403 L-32.07427064803915,7.502975093371889 L-32.22435848789007,7.037061297807825 L-32.368430977485396,6.57152271831881 L-32.506440188730565,6.106514224006626 L-32.63834021058078,5.642190507631469 L-32.764087164314034,5.17870603415081 L-32.88363921812814,4.716214989334128 L-32.996956601056695,4.254871228470423 L-33.10400161619967,3.794828225185726 L-33.20473865326376,3.336239020387586 L-33.299134200408844,2.8792561713534566 L-33.38715685539624,2.424031700979979 L-33.46877733603513,1.9707170472100888 L-33.5439684899238,1.5194630126546667 L-33.61270530348232,1.0704197144255545 L-33.67496491027376,0.623736534196623 L-33.73072659861103,0.17956206850949297 L-33.779971818447,-0.26195592065956674 L-33.822684187545505,-0.7006705550551082 L-33.8588494969311,-1.1364358890039714 L-33.888455715615976,-1.569106957966536 L-33.91149299460222,-1.998539826761542 L-33.927953670158274,-2.4245916374485432 L-33.93783226636838,-2.8471206568519456 L-33.941125496954285,-3.2659863237109015 L-33.93783226636839,-3.6810492954393172 L-33.927953670158274,-4.092171494480475 L-33.91149299460222,-4.4992161542408144 L-33.888455715615976,-4.902047864587615 L-33.8588494969311,-5.3005326168953815 L-33.822684187545505,-5.694537848626037 L-33.779971818447,-6.083932487428086 L-33.73072659861103,-6.468586994739937 L-33.67496491027376,-6.848373408883088 L-33.61270530348232,-7.223165387630667 L-33.5439684899238,-7.592838250237277 L-33.46877733603513,-7.957269018916103 L-33.38715685539624,-8.316336459749495 L-33.299134200408844,-8.669921123019455 L-33.20473865326376,-9.017905382944546 L-33.10400161619967,-9.360173476810049 L-32.996956601056695,-9.69661154347835 L-32.88363921812814,-10.02710766126671 L-32.764087164314034,-10.35155188517991 L-32.70198548359076,-10.511470728637365 L-32.63834021058078,-10.669836283485223 L-32.57315663855711,-10.826635378719905 L-32.506440188730565,-10.98185497361771 L-32.43819640979892,-11.135482158819384 L-32.368430977485396,-11.28750415740379 L-32.29714969406662,-11.437908325950522 L-32.22435848789008,-11.586682155591445 L-32.15006341288106,-11.733813273051043 L-32.07427064803916,-11.879289441675473 L-31.99698649692437,-12.023098562450281 L-31.91821738713286,-12.165228675006647 L-31.837969869762343,-12.305667958616107 L-31.756250618867295,-12.444404733173675 L-31.673066430903845,-12.581427460169243 L-31.588424224164534,-12.716724743647246 L-31.502331038202943,-12.850285331154415 L-31.414794033248203,-12.982098114675642 L-31.325820489609516,-13.112152131557801 L-31.235417807070654,-13.24043656542151 L-31.14359350427452,-13.366940747060715 L-31.05035521809784,-13.491654155330012 L-30.95571070301603,-13.61456641801969 L-30.859667830458246,-13.735667312718343 L-30.762234588152758,-13.8549467676631 L-30.66341907946265,-13.972394862577177 " />
			<path d="M-30.663419079462788,-13.972394862577092 L-30.679388574847934,-13.995012288295866 " />
			<path d="M-30.67938857484793,-13.995012288295863 L-30.159854872377476,-14.520758925670354 " />
			<path d="M-30.159854872377476,-14.520758925670354 L-29.640321230404297,-15.046505501824107 " />
			<path d="M-29.62435173501912,-15.023888076105287 L-29.6403212304043,-15.046505501824111 " />
			<path d="M-29.624351735018983,-15.023888076105417 L-29.449403472055778,-15.172691749241215 L-29.271432386490204,-15.316886788135216 L-29.090473623393574,-15.456444717684809 L-28.90656291783268,-15.591337978506564 L-28.719736587813017,-15.721539932378588 L-28.530031527106786,-15.847024867500894 L-28.337485197967275,-15.967768003572916 L-28.142135623731015,-16.083745496686987 " />
			<path d="M-28.14213562373095,-16.083745496687023 L-27.909485018923547,-16.213674510852627 L-27.673094144444455,-16.336980413596507 L-27.4330272222142,-16.453629705563415 L-27.189349472850246,-16.563590695844916 L-26.94212709794807,-16.6668335105891 L-26.69142726209575,-16.763330101116615 L-26.437318074626898,-16.85305425154082 L-26.17986857111689,-16.93598158589006 L-25.91914869462757,-17.012089574730048 L-25.655229276705285,-17.08135754128456 L-25.388182018137623,-17.143766667052894 L-25.11807946947396,-17.19929999692235 L-24.844995011315177,-17.247942443774598 L-24.569002834377812,-17.289680792584477 L-24.290177919338213,-17.324503704010205 L-24.00859601646199,-17.352401717474024 L-23.724333625024432,-17.37336725373241 L-23.437467972527422,-17.387394616935204 L-23.148076993718547,-17.394479996172997 L-22.856239309418,-17.39462146651251 L-22.56203420515913,-17.387818989519538 L-22.265541609648395,-17.374074413269376 L-21.966842073050625,-17.35339147184476 L-21.666016745105374,-17.325775784321394 L-21.363147353080407,-17.29123485324139 L-21.058316179568322,-17.24977806257499 L-20.751606040132273,-17.20141667517113 L-20.443100260806908,-17.146163829697663 L-20.13288265546057,-17.0840345370718 L-19.821037503025085,-17.01504567638206 L-19.50764952459908,-16.939215990302557 L-19.192803860431223,-16.856566080001095 L-18.876586046789622,-16.76711839954229 L-18.559081992723595,-16.670897249787323 L-18.24037795672414,-16.567928771791948 L-17.920560523289538,-16.458240939704588 L-17.599716579402365,-16.341863553166405 L-17.27793329092425,-16.218828229215426 L-16.955298078915,-16.089168393696923 L-16.631898595882298,-15.952919272182397 L-16.307822701968522,-15.810117880399586 L-15.983158441081216,-15.660803014176173 L-15.657994016973603,-15.50501523889985 L-15.33241776928166,-15.342796878497635 L-15.006518149524261,-15.174192003937458 L-14.680383697072985,-14.999246421255082 L-14.354103015098012,-14.81800765910967 L-14.027764746496713,-14.630524955871385 L-13.701457549811375,-14.436849246244398 L-13.375270075142774,-14.23703314742916 L-13.049290940066006,-14.031130944827533 L-12.723608705555137,-13.819198577294669 L-12.398311851923179,-13.601293621941734 L-12.073488754784172,-13.377475278493579 L-11.749227661043442,-13.147804353205474 L-11.42561666492303,-12.912343242343534 L-11.102743684028539,-12.671155915233028 L-10.78069643546391,-12.42430789687945 L-10.459562412000803,-12.171866250166884 L-10.139428858308776,-11.913899557638581 L-9.820382747252912,-11.65047790286462 L-9.50251075626536,-11.381672851401879 L-9.18589924379707,-11.107557431351319 L-8.870634225856335,-10.828206113518076 " />
			<path d="M-8.87063422585635,-10.828206113518117 L-8.864534421402407,-10.846361892150258 " />
			<path d="M-8.864534421402407,-10.846361892150254 L-8.02391257630729,-10.045639980215192 " />
			<path d="M-8.02391257630729,-10.045639980215192 L-7.183288141492514,-9.244915601480953 " />
			<path d="M-7.189387945946471,-9.226759822848773 L-7.183288141492512,-9.244915601480956 " />
			<path d="M-7.18938794594625,-9.22675982284858 L-6.852440238021745,-8.882238439705661 L-6.517917567733974,-8.532046022353784 L-6.185931219577434,-8.176299068087756 L-5.856591634297095,-7.81511592201084 L-5.530008372148529,-7.448616737665326 L-5.206290076450911,-7.076923437061552 L-4.885544437444931,-6.700159670118403 L-4.567878156467906,-6.318450773529188 L-4.253396910457864,-5.931923729066368 L-3.9422053167982725,-5.540707121338862 L-3.6344068985153797,-5.144931095016306 L-3.330104049839612,-4.744727311534337 L-3.029398002142363,-4.340228905295122 L-2.7323887902597352,-3.9315704393780635 L-2.4391752192143485,-3.518887860775221 L-2.149854831346131,-3.102318455166177 L-1.8645238738633036,-2.682000801247776 L-1.5832772668241422,-2.2580747246336 L-1.3062085715602407,-1.8306812513386532 L-1.0334099595518325,-1.3999625608648056 L-0.7649721817653568,-0.9660619389023175 L-0.500984538463678,-0.5291237296635334 L-0.24153484949892068,-0.08929328786447499 L0.013290574902319108,0.35328306962994915 L0.26340696285148724,0.7984581124805912 L0.5087311089987825,1.246083745852614 L0.7491814022128622,1.6960110596818119 L0.984677852730119,2.148090378211932 L1.2151421187645344,2.602171309786737 L1.4404975325694593,3.0581027968803935 L1.6606691259423787,3.5157331663491904 L1.8755836551642489,3.9749101798880613 L2.0851696253653493,4.43548108467529 L2.289357314309168,4.897292664188206 L2.4880787955866204,5.360191289173118 L2.6812679612129884,5.824022968752765 L2.8688605436197534,6.288633401653852 L3.050794137034284,6.753868027537859 L3.227008218240176,7.219572078418218 L3.3974441667112707,7.685590630146382 L3.562045284112749,8.15176865394983 L3.7207568131627653,8.61795106800509 L3.8735259558483897,9.083982789028196 L4.020301890989693,9.549708783865645 L4.16103579114629,10.014974121068871 L4.295680838860587,10.479624022434676 L4.424192242232355,10.943503914494707 L4.546527249819544,11.406459479936984 L4.662645164860216,11.868336708942046 L4.772507358811016,12.328981950416855 L4.876077284197585,12.788241963109414 L4.973320486772678,13.2459639665869 L5.064204616977964,13.701995692060743 L5.148699440705613,14.15618543304128 L5.226776849356185,14.608382095805368 L5.298410869189407,15.05843524966033 L5.363577669964791,15.506195176987156 L5.422255572869133,15.951512923046465 L5.474425057728354,16.39424034553091 L5.520068769501176,16.834230163847074 L5.559171524052587,17.271336008110758 L5.591720313205087,17.705412467839437 L5.617704309066077,18.136315140325422 L5.637114867629926,18.563900678673537 " />
			<path d="M5.637114867629934,18.56390067867385 L5.656854249492381,18.57529721610577 " />
			<path d="M5.65685424949238,18.57529721610577 L5.65685424949238,19.595917942265423 " />
			<path d="M5.65685424949238,19.595917942265423 L5.655620345888618,19.850440256384427 L5.6519187888748945,20.103506056901068 L5.645750039824691,20.35508380091285 L5.637114867629943,20.605142130993066 " />
			<path d="M4.395914428231424,26.896255483781353 L-7.189387945946458,33.58503292815617 " />
			<path d="M-7.189387945946249,33.58503292815619 L-7.396783907321845,33.553588839324156 L-7.605020632494256,33.51898022535066 L-7.814072166123111,33.48121139997216 L-8.023912451307517,33.44028707082474 " />
			<path d="M-8.023912451307528,33.44028707082473 L-8.234514745818409,33.39621246586807 L-8.445853382380651,33.34899296920196 L-8.657902019167588,33.29863446639382 L-8.87063422585616,33.24514323426544 " />
			<path d="M-29.624351735018983,13.47649641565172 L-29.761164486351102,13.197033550944266 L-29.896030433586755,12.916943473739838 L-30.028932766616883,12.636261095332511 L-30.15985492008335,12.355021400842658 " />
			<path d="M-30.15985492008338,12.3550214008426 L-30.288780566849812,12.073259463802078 L-30.415693646089004,11.79101038501021 L-30.54057833896411,11.508309344860976 L-30.663419079462575,11.22519158008226 " />
			<path d="M-18.024431264545058,3.9280685628547007 L-30.66341907946276,11.225191580081837 " />
			<path d="M-30.6634190794626,-13.972394862577234 L-30.540578327594027,-14.113668371008364 L-30.415693622975013,-14.252165001388866 L-30.288780531622404,-14.387867491069239 L-30.159854872377522,-14.520758925670306 " />
			<path d="M-30.15985487237747,-14.520758925670355 L-30.02893273028989,-14.650822726216704 L-29.896030409006734,-14.77804269678994 L-29.76116447388161,-14.902402980302105 L-29.624351735019037,-15.02388807610537 " />
			<path d="M-26.483164117473677,-16.837453592670283 L-29.624351735019125,-15.023888076105298 " />
			<path d="M-8.870634225856167,-10.828206113517924 L-8.657902050740018,-10.63605538079033 L-8.445853445318352,-10.441561237969031 L-8.234514839902454,-10.244747927329643 L-8.023912576307467,-10.045639980215308 " />
			<path d="M-8.0239125763073,-10.045639980215148 L-7.814072259527034,-9.84426159032647 L-7.605020694525155,-9.640638467836085 L-7.396783938214235,-9.434795993036646 L-7.189387945946414,-9.226759822848747 " />
			<path d="M5.637114867629936,18.563900678673747 L5.645750039824691,18.823930046736436 L5.651918788874891,19.082630848597617 L5.655620345888618,19.339970838990844 L5.65685424949238,19.59591794226522 " />
			<path d="M-9.992587455556507,11.581329287347753 L5.637114867629934,20.605142130993165 " />
			<path d="M-9.992587455556507,9.540087835028439 L5.637114867629934,18.56390067867385 " />
			<path d="M-9.9925874555565,9.5400878350284 L-9.97083027724592,9.678685100236534 L-9.951943683048066,9.816240663102878 L-9.93594067022704,9.952659861458018 L-9.922832251641061,10.087848815149117 L-9.912627448163693,10.221714490645795 L-9.905333282475922,10.354164765063386 L-9.900954774233323,10.485108489559533 L-9.899494936611665,10.614455552060395 " />
			<path d="M-9.899494936611665,10.614455552060438 L-9.900954774233323,10.742116939273668 L-9.905333282475922,10.868004797944788 L-9.912627448163693,10.992032495315684 L-9.922832251641061,11.114114678742988 L-9.93594067022704,11.234167334435558 L-9.951943683048064,11.35210784527057 L-9.97083027724592,11.467855047648502 L-9.992587455556492,11.581329287347756 " />
			<path d="M-12.019231580832658,13.632209391857106 L-7.189387945946464,33.58503292815614 " />
			<path d="M-12.01923158083271,13.632209391857081 L-12.116316217150855,13.63899815747088 L-12.214794969823652,13.642019836049322 L-12.314600068328593,13.641272348151606 L-12.415662829386386,13.636756208179508 L-12.517913704226995,13.628474524023387 L-12.621282326451308,13.616432994923404 L-12.725697560455465,13.600639907547464 L-12.831087550384533,13.581106130288536 L-12.937379769581842,13.557845105785317 L-13.044501070499946,13.53087284167135 L-13.152377735038876,13.50020789955899 L-13.26093552527701,13.465871382265778 L-13.370099734559696,13.427886919292039 L-13.47979523891043,13.386280650559664 L-13.589946548729227,13.341081208423297 L-13.700477860742597,13.292319697966294 " />
			<path d="M-13.700477860742561,13.292319697966294 L-8.870634225856344,33.24514323426542 " />
			<path d="M-16.97965693853968,10.168786142335142 L-29.624351735019115,13.476496415651441 " />
			<path d="M-18.018724282983325,7.917481306765537 L-30.663419079462784,11.225191580081843 " />
			<path d="M-16.979656938539648,10.168786142335234 L-17.06141572188027,10.034384565018085 L-17.14116553239961,9.898696502216294 L-17.218851488347227,9.761815330934184 L-17.294420128263834,9.623835249242376 L-17.367819447772114,9.484851211453122 L-17.438998935364765,9.344958862775218 L-17.50790960716521,9.20425447349344 L-17.574504040637045,9.062834872717847 L-17.638736407218982,8.92079738174848 L-17.700562503862884,8.778239747101388 L-17.759939783453145,8.635260073242002 L-17.81682738408653,8.491956755072191 L-17.871186157192263,8.348428410217435 L-17.922978694473056,8.204773811160747 L-17.972169353648543,8.061091817270004 L-18.01872428298335,7.917481306765506 " />
			<path d="M-18.018724282983328,3.9361512998753656 L-30.663419079462788,-13.972394862577092 " />
			<path d="M-18.01872428298335,3.9361512998753803 L-17.97216935364854,3.8462977913379817 L-17.922978694473056,3.7594162780804012 L-17.871186157192263,3.6755665497058754 L-17.81682738408653,3.594806309421945 L-17.75993978345314,3.5171911343306066 L-17.70056250386288,3.442774437181593 L-17.638736407218982,3.371607429615098 L-17.574504040637045,3.3037390869192675 L-17.50790960716521,3.239216114326662 L-17.43899893536476,3.1780829148729364 L-17.367819447772114,3.1203815588398243 L-17.294420128263834,3.066151754803453 L-17.218851488347223,3.0154308223079394 L-17.14116553239961,2.968253666183047 L-17.06141572188027,2.924652752523585 L-16.97965693853966,2.8846580863470885 " />
			<path d="M-16.97965693853968,2.88465808634714 L-29.62435173501912,-15.023888076105287 " />
			<path d="M-13.700477860742545,3.5475943772902387 L-8.87063422585635,-10.828206113518117 " />
			<path d="M-12.635007990891411,0.3762738468879418 L-16.979656938539705,2.884658086347109 " />
			<path d="M-13.700477860742438,3.547594377290367 L-13.589946548729067,3.626463432322973 L-13.479795238910278,3.708455766937548 L-13.37009973455955,3.7935149561367485 L-13.260935525276867,3.8815824643934747 L-13.152377735038737,3.9725976859335015 L-13.04450107049981,4.066497986442801 L-12.93737976958171,4.163218746170858 L-12.831087550384408,4.262693404400293 L-12.725697560455348,4.364853505252242 L-12.621282326451194,4.469628744795896 L-12.517913704226885,4.57694701942985 L-12.41566282938628,4.686734475501929 L-12.314600068328492,4.798915560133358 L-12.214794969823556,4.913413073212288 L-12.116316217150766,5.030148220520919 L-12.019231580832656,5.149040667959595 " />
			<path d="M-12.01923158083267,5.149040667959602 L-7.189387945946471,-9.226759822848773 " />
			<path d="M1.395151351130537,2.9653737695265416 L-9.992587455556494,9.540087835028448 " />
			<path d="M-0.9388223858941507,-1.2482365634693713 L-12.019231580832667,5.149040667959587 " />
			<path d="M-12.727922061357857,7.960841664045288 L-12.727922061357857,10.002083116364684 " />
			<path d="M-12.727922061357855,10.002083116364645 L-9.992587455556507,11.581329287347753 " />
			<path d="M-12.727922061357855,7.96084166404533 L-9.992587455556507,9.540087835028439 " />
			<path d="M-9.9925874555565,11.581329287347796 L-10.027058515478737,11.733082041320106 L-10.066853396488455,11.880218596874005 L-10.11192061453782,12.022548598233268 L-10.162201864569719,12.159887908031155 L-10.21763209594909,12.292058845535475 L-10.27813959662123,12.418890416520425 L-10.343646085888217,12.540218534487888 L-10.41406681568343,12.655886232951953 L-10.489310680213121,12.765743868512017 L-10.569280333823212,12.869649314451754 L-10.653872316938815,12.967468144613491 L-10.742977189913553,13.059073807310089 L-10.83647967461551,13.14434778904934 L-10.934258803566625,13.223179767859072 L-11.03618807644262,13.29546775601461 L-11.142135623730924,13.361118231983877 " />
			<path d="M-11.142135623730953,13.361118231983895 L-11.241732255543438,13.414923132291591 L-11.34442449308348,13.463124743713054 L-11.450102732741392,13.505671620581786 L-11.55865418394206,13.542518352539641 L-11.669962989526521,13.573625613003376 L-11.783910349406533,13.598960201137988 L-11.9003746473601,13.618495077292032 L-12.019231580832708,13.632209391857081 " />
			<path d="M-14.584881215147547,9.542339684745823 L-14.606820666806183,9.54807879911831 " />
			<path d="M-14.60682066680618,9.54807879911831 L-13.700477860742561,13.292319697966294 " />
			<path d="M-12.753259696485769,10.599826861598713 L-12.019231580832658,13.632209391857106 " />
			<path d="M-12.753259696485767,10.59982686159871 L-14.584881215147547,9.542339684745821 " />
			<path d="M-13.7004778607426,13.292319697966292 L-13.810971231711779,13.240196166934972 L-13.921691099329106,13.184601481720748 L-14.032561737823624,13.125573665765025 L-14.143507318306112,13.063153090565415 L-14.254451960631506,12.997382448064045 L-14.365319785296387,12.928306721448816 L-14.476034965336023,12.855973154387598 L-14.586521778185482,12.780431218716384 L-14.696704657469338,12.701732580603503 L-14.806508244684554,12.619931065213065 L-14.9158574407412,12.53508261989175 L-15.024677457325733,12.447245275904178 L-15.132893868051736,12.356479108742992 L-15.240432659363119,12.262846197040801 L-15.347220281154963,12.166410580112126 L-15.453183697077401,12.067238214154317 L-15.558250434488109,11.96539692713747 L-15.662348634019267,11.860956372414142 L-15.765407098725069,11.75398798108063 L-15.867355342776174,11.644564913122363 L-15.968123639667805,11.532762007376846 L-16.067643069908506,11.418655730348378 L-16.165845568156964,11.302324123909518 L-16.262663969774618,11.183846751925124 L-16.358032056762273,11.06330464583542 L-16.451884603049237,10.940780249235331 L-16.54415741910407,10.816357361488002 L-16.63478739583638,10.69012108041103 L-16.72371254775966,10.562157744074653 L-16.810872055385666,10.432554871751671 L-16.89620630682132,10.301401104059487 L-16.97965693853964,10.168786142335245 " />
			<path d="M-15.645888011249816,7.296773963548703 L-18.018724282983325,7.917481306765537 " />
			<path d="M-14.606820666806183,9.54807879911831 L-16.97965693853968,10.168786142335142 " />
			<path d="M-14.61199986878669,9.526682722767204 L-14.60682066680618,9.54807879911831 " />
			<path d="M-14.61199986878669,9.526682722767202 L-15.556349186104047,8.981462390204987 " />
			<path d="M-15.556349186104047,7.423586845098143 L-15.556349186104047,8.981462390204987 " />
			<path d="M-15.556349186104047,7.423586845098143 L-15.645888011249816,7.296773963548703 " />
			<path d="M-18.018724282983353,7.917481306765493 L-18.062480354240126,7.77448269343503 L-18.103555144047437,7.63175114721392 L-18.141920559704385,7.48938428794772 L-18.177550361560023,7.347479486057912 L-18.210420180959726,7.206133795946357 L-18.24050753691188,7.065443889615881 L-18.267791851463542,6.925505990552397 L-18.292254463774537,6.786415807913807 L-18.31387864288034,6.648268471070652 L-18.332649599135067,6.511158464543307 L-18.348554494326716,6.37517956338022 L-18.36158245045772,6.240424769021383 L-18.371724557184855,6.10698624569091 L-18.37897387791339,5.974955257362213 L-18.38332545454128,5.844422105338902 L-18.384776310850235,5.715476066494083 L-18.38332545454128,5.588205332210329 L-18.37897387791339,5.462696948062041 L-18.371724557184855,5.339036754281463 L-18.36158245045772,5.217309327049114 L-18.348554494326716,5.097597920648728 L-18.332649599135067,4.9799844105263045 L-18.31387864288034,4.86454923729219 L-18.292254463774537,4.7513713517045115 L-18.267791851463542,4.640528160671588 L-18.24050753691188,4.5320954743102195 L-18.210420180959726,4.426147454096103 L-18.177550361560023,4.322756562141814 L-18.141920559704385,4.2219935116370575 L-18.103555144047437,4.123927218485078 L-18.062480354240126,4.028624754168285 L-18.018724282983356,3.9361512998753962 " />
			<path d="M-14.606820666806183,6.2452807500204575 L-16.97965693853968,2.88465808634714 " />
			<path d="M-15.645888011249816,7.296773963548703 L-18.018724282983328,3.9361512998753656 " />
			<path d="M-15.556349186104047,7.273351611600928 L-15.645888011249816,7.296773963548703 " />
			<path d="M-15.556349186104047,5.715476066494083 L-15.556349186104047,7.273351611600928 " />
			<path d="M-14.611999868786691,6.260696399056298 L-15.556349186104047,5.715476066494083 " />
			<path d="M-14.611999868786691,6.260696399056298 L-14.606820666806183,6.245280750020458 " />
			<path d="M-16.979656938539648,2.8846580863470823 L-16.896206306821313,2.848403613996073 L-16.81087205538566,2.815785352378823 L-16.723712547759643,2.7868256104364635 L-16.63478739583636,2.7615441949013535 L-16.544157419104046,2.7399583967504757 L-16.45188460304921,2.722082979379433 L-16.35803205676224,2.707930168505168 L-16.26266396977458,2.697509643804308 L-16.16584556815692,2.6908285322928407 L-16.067643069908456,2.6878914034516637 L-15.96812363966775,2.688700266101331 L-15.867355342776115,2.693254567028143 L-15.765407098725005,2.7015511913625074 L-15.6623486340192,2.713584464709327 L-15.558250434488036,2.7293461570289432 L-15.453183697077321,2.7488254882659966 L-15.347220281154877,2.7720091357223344 L-15.240432659363028,2.798881243168945 L-15.13289386805164,2.8294234316906666 L-15.024677457325632,2.8636148122562703 L-14.915857440741094,2.901432000005303 L-14.806508244684444,2.9428491302419406 L-14.696704657469219,2.9878378761248934 L-14.586521778185359,3.036367468041264 L-14.476034965335897,3.088404714651131 L-14.365319785296254,3.143914025588444 L-14.254451960631368,3.202857435802696 L-14.14350731830597,3.265194631524757 L-14.032561737823476,3.3308829778390834 L-13.921691099328953,3.399877547843439 L-13.810971231711623,3.4721311533762282 L-13.700477860742476,3.5475943772903413 " />
			<path d="M-12.753259696485769,7.333840537887807 L-14.584881215147547,6.276353361034917 " />
			<path d="M-12.753259696485769,7.333840537887807 L-12.01923158083267,5.149040667959602 " />
			<path d="M-14.606820666806183,6.245280750020458 L-13.700477860742545,3.5475943772902387 " />
			<path d="M-14.584881215147547,6.276353361034916 L-14.606820666806183,6.2452807500204575 " />
			<path d="M-12.019231580832624,5.1490406679596346 L-11.92390018279127,5.2696327851329805 L-11.830085925192199,5.392205137020694 L-11.737852971379676,5.516673891461087 L-11.6472644031807,5.642953919266486 L-11.558382177760818,5.770958852446505 L-11.471267085249108,5.900601143278587 L-11.385978707161378,6.031792124185427 L-11.302575375649958,6.164442068378271 L-11.22111413360801,6.298460251224707 L-11.141650695655581,6.433755012298867 L-11.064239410034151,6.57023381807168 L-10.98893322143568,6.70780332519828 L-10.915783634791591,6.846369444359278 L-10.844840680046495,6.985837404612222 L-10.776152877940682,7.126111818209271 L-10.709767206824843,7.267096745836703 L-10.645729070529692,7.408695762231666 L-10.584082267312452,7.550812022131299 L-10.524868959901465,7.693348326509107 L-10.468129646659413,7.836207189053274 L-10.413903133884851,7.979290902841491 L-10.362226509271014,8.122501607166637 L-10.313135116540074,8.265741354467648 L-10.266662531270125,8.4089121773198 L-10.222840537931503,8.55191615543858 L-10.18169910814811,8.694655482651287 L-10.143266380198602,8.837032533790634 L-10.107568639771511,8.97894993146451 L-10.074630301987384,9.120310612656287 L-10.044473894700314,9.261017895110141 L-10.01712004309023,9.400975543455923 L-9.992587455556507,9.540087835028354 " />
			<path d="M-12.727922061357857,7.3484692283495345 L-12.727922061357857,7.960841664045329 " />
			<path d="M-12.727922061357857,10.002083116364645 L-12.727922061357857,10.61445555206044 " />
			<path d="M-12.727922061357857,10.61445555206044 L-12.753259696485767,10.59982686159871 " />
			<path d="M-12.727922061357857,7.348469228349535 L-12.753259696485769,7.333840537887807 " />
			<path d="M-14.584881215147547,9.542339684745821 L-14.61199986878669,9.526682722767202 " />
			<path d="M-12.727922061357857,7.348469228349536 L-15.556349186104047,8.981462390204989 " />
			<path d="M-15.556349186104047,7.273351611600928 L-15.556349186104047,7.423586845098143 " />
			<path d="M-14.584881215147547,6.276353361034917 L-14.611999868786691,6.260696399056298 " />
			<path d="M16.5,28.57883832488648 L2.3578643762690477,36.743804134163746 " />
			<path d="M-16.5,-28.57883832488648 L-30.64213562373095,-20.413872515609217 " />
			<path d="M-9.026019100214135,12.139377787494846 L-11.142135623730951,13.361118231983896 " />

       </g>
    </g>
    
</g><text x="10" y="16" font-size="10">PX-V40-DEF-WHEEL-REAR</text><text x="10" y="32" font-size="10">rear wheel</text><text x="10" y="48" font-size="10">Instructional proxy; not engineering geometry</text></svg>
