<?xml version="1.0" encoding="UTF-8" standalone="no"?>
<svg
   xmlns:svg="http://www.w3.org/2000/svg"
   xmlns="http://www.w3.org/2000/svg"
   width="420.0"
   height="420"

><g transform="translate(0,55)">
    <g transform="scale(18.408151741633258, -18.408151741633258)   translate(15.723585551813246,-9.890450640951665)" stroke-width="0.05432375906258557"  fill="none">
       <!-- hidden lines -->
       <g  stroke="rgb(160,160,160)" fill="none" stroke-dasharray="0.05432375906258557,0.05432375906258557" >

       </g>

       <!-- solid lines -->
       <g  stroke="rgb(0,0,0)" fill="none">
			<path d="M1.7677669529663689,1.0206207261596574 L1.7656376002524719,1.1195503146031205 L1.7592546719079782,1.2157828082776772 L1.7486335449663477,1.3090863746770958 L1.7337998066526843,1.3992362373374931 L1.7147891927418673,1.4860152173435248 L1.6916475014679409,1.5692142565314153 L1.664430483192157,1.6486329211283866 L1.633203706095471,1.7240798846151697 L1.5980423982190515,1.7953733886483525 L1.5590312662333399,1.8623416809321458 L1.5162642913722608,1.9248234289847075 L1.4698445030241987,1.982668108802225 L1.419883730525178,2.0357363674844224 L1.3665023337521967,2.083900358947903 L1.3098289131657381,2.1270440519185634 L1.2500000000000113,2.16506350946109 " />
			<path d="M1.2499999999999993,2.165063509461097 L1.213257809615259,2.185064671934549 L1.175496889951246,2.2032311135920595 L1.1367489475044434,2.2195475807209637 L1.0970465175391364,2.2340003729661784 L1.0564229367687128,2.2465773548339034 L1.014912315364013,2.25726796588136 L0.972549508312238,2.26606322958402 L0.9293700861504606,2.272955760872872 L0.8407070766149437,2.2810110790750677 L0.7492210129050622,2.281406871114498 L0.6552191008493821,2.2741418079404148 L0.5590169943749468,2.25924028528766 L0.4609377355564811,2.236752341756953 L0.3613106698565459,2.2067534907876643 L0.2604703401992191,2.1693444670872912 L0.1587553635909491,2.1246508883691306 L0.05650729406083433,2.072822833534 L-0.045930524261478686,2.014034338712462 L-0.14821411007897053,1.948482812859821 L-0.24999999999999842,1.8763883748662853 " />
			<path d="M-1.7500000000000002,-0.7216878364870318 L-1.7615426698134504,-0.8458842219022185 L-1.7671701635499242,-0.967240168536653 L-1.7668635843544693,-1.0853481689228008 L-1.7606239617053683,-1.1998116220413626 L-1.7484722479571995,-1.3102461650885442 L-1.7304492479838331,-1.4162809641479737 L-1.7066154821576134,-1.5175599594332636 L-1.6770509831248426,-1.6137430609197572 L-1.6418550270599797,-1.7045072903505707 L-1.6011458003009946,-1.7895478657821418 L-1.5550600024852912,-1.8685792250274258 L-1.503752387518864,-1.9413359845600675 L-1.4761935692454504,-1.9752841954284737 L-1.4473952439200766,-2.007573830659599 L-1.4173815924686501,-2.038177777799219 L-1.3861778162830523,-2.067070339805233 L-1.3538101160604243,-2.0942272566245532 L-1.3203056698033782,-2.11962572556341 L-1.2856926099995991,-2.143244420433953 L-1.2500000000000056,-2.1650635094610933 " />
			<path d="M-1.25,-2.165063509461097 L-1.2031439520587386,-2.1901597541515287 L-1.1546573663487787,-2.212287826835181 L-1.1046059533855912,-2.231417738865894 L-1.053057544386774,-2.247523564797234 L-1.0000819993450945,-2.2605834775174656 L-0.9457511123520733,-2.270579777830321 L-0.890138514300422,-2.2774989184414967 L-0.8333195730971834,-2.2813315223183657 L-0.7753712915228235,-2.282072395398021 L-0.7163722028746891,-2.279720533626428 L-0.6564022645362622,-2.2742791243191522 L-0.5955427496164517,-2.265755541841809 L-0.533876136805768,-2.2541613376160976 L-0.47148599859865914,-2.239512224464955 L-0.40845688803349556,-2.2218280553180585 L-0.3448742241036792,-2.2011327963065193 L-0.2808241759951955,-2.177454494283247 L-0.2163935463074751,-2.1508252388129874 L-0.1516696534158345,-2.121281118683554 L-0.08674021313492632,-2.088862172997194 L-0.021693219843557886,-2.0536123369083614 L0.04338317276799984,-2.0155793820814387 L0.10840077116660894,-1.97481485194911 L0.17327146149886372,-1.931373991859107 L0.23790732900569608,-1.8853156742040154 L0.30222077716717183,-1.8367023186355889 L0.366124646415989,-1.785599807471719 L0.429532332258813,-1.732077396410683 L0.49235790264535545,-1.6762076206736882 L0.5545162144261356,-1.6180661967029057 L0.6159230287411052,-1.5577319195482104 L0.6764951251827453,-1.4952865560817017 L0.7361504145789252,-1.4308147341847237 L0.7948080502426804,-1.3644038280575468 L0.8523885375381388,-1.2961438398071568 L0.9088138416140987,-1.2261272774736263 L1.0178946920357994,-1.0812062369381952 L1.1214594829282944,-0.930426046126257 L1.218946987716614,-0.7746037959558109 L1.3098289131657377,-0.6145839007013761 L1.3936127622474075,-0.45123352203988354 L1.4698445030241978,-0.2854378698264024 L1.538111029087923,-0.11809540506524517 L1.5691399870917777,-0.034127313262019315 L1.5980423982190508,0.04988702892805374 L1.6247790930313157,0.1338337626788408 L1.6493138371356504,0.2175991207892488 L1.671613380290602,0.30106958186404015 L1.6916475014679409,0.384132024161531 L1.7093890498091306,0.46667387889966117 L1.7248139814210053,0.5485832828126751 L1.737901391960798,0.6297492297516735 L1.748633544966348,0.7100617211235646 L1.7569958958931011,0.7894119149645424 L1.7629771118253268,0.8676922734460796 L1.7665690868348327,0.9447967086135027 L1.7677669529663689,1.0206207261596392 " />
			<path d="M2.4748737341529163,0.6123724356957942 L2.4727443814390195,0.7113020241392574 L2.466361453094526,0.807534517813814 L2.4557403261528954,0.9008380842132326 L2.440906587839232,0.99098794687363 L2.421895973928415,1.0777669268796617 L2.3987542826544885,1.1609659660675522 L2.3715372643787047,1.2403846306645234 L2.3403104872820184,1.3158315941513066 L2.305149179405599,1.3871250981844894 L2.2661380474198873,1.4540933904682827 L2.2233710725588085,1.5165751385208444 L2.1769512842107464,1.574419818338362 L2.1269905117117256,1.6274880770205593 L2.073609114938744,1.6756520684840397 L2.0169356943522856,1.7187957614547003 L1.957106781186559,1.756815218997227 " />
			<path d="M-0.5428932188134524,-2.57331179992496 L-0.496037170872191,-2.598408044615392 L-0.4475505851622311,-2.6205361172990442 L-0.3974991721990436,-2.639666029329757 L-0.34595076320022644,-2.655771855261097 L-0.2929752181585469,-2.6688317679813287 L-0.23864433116552575,-2.6788280682941843 L-0.18303173311387444,-2.68574720890536 L-0.12621279191063584,-2.689579812782229 L-0.0682645103362759,-2.690320685861884 L-0.009265421688141484,-2.6879688240902913 L0.050704516650285414,-2.6825274147830154 L0.11156403157009587,-2.6740038323056723 L0.17323064438077962,-2.6624096280799607 L0.23562078258788843,-2.647760514928818 L0.298649893153052,-2.6300763457819216 L0.3622325570828684,-2.6093810867703824 L0.4262826051913521,-2.5857027847471103 L0.4907132348790725,-2.5590735292768505 L0.5554371277707131,-2.529529409147417 L0.6203665680516213,-2.4971104634610573 L0.6854135613429897,-2.4618606273722246 L0.7504899539545474,-2.423827672545302 L0.8155075523531565,-2.383063142412973 L0.8803782426854113,-2.33962228232297 L0.9450141101922437,-2.2935639646678783 L1.0093275583537193,-2.244950609099452 L1.0732314276025365,-2.193848097935582 L1.1366391134453606,-2.140325686874546 L1.199464683831903,-2.0844559111375514 L1.2616229956126832,-2.026314487166769 L1.3230298099276527,-1.9659802100120736 L1.383601906369293,-1.9035348465455648 L1.4432571957654727,-1.8390630246485868 L1.5019148314292279,-1.77265211852141 L1.5594953187246863,-1.7043921302710199 L1.6159206228006462,-1.6343755679374894 L1.7250014732223469,-1.4894545274020583 L1.828566264114842,-1.3386743365901201 L1.9260537689031616,-1.1828520864196739 L2.016935694352285,-1.0228321911652392 L2.100719543433955,-0.8594818125037467 L2.1769512842107455,-0.6936861602902655 L2.2452178102744704,-0.5263436955291082 L2.2762467682783254,-0.44237560372588236 L2.3051491794055985,-0.35836126153580933 L2.331885874217863,-0.2744145277850223 L2.356420618322198,-0.19064916967461426 L2.3787201614771494,-0.10717870859982292 L2.3987542826544885,-0.024116266302332046 L2.4164958309956783,0.05842558843579809 L2.431920762607553,0.14033499234881203 L2.4450081731473454,0.2215009392878104 L2.4557403261528954,0.3018134306597015 L2.464102677079649,0.38116362450067937 L2.4700838930118745,0.4594439829822165 L2.47367586802138,0.5365484181496396 L2.4748737341529163,0.612372435695776 " />
			<path d="M1.0606601717798214,0.6123724356957942 L1.0593825601514832,0.6717301887618724 L1.055552803144787,0.7294696849666062 L1.049180126979809,0.7854518248062575 L1.0402798839916105,0.8395417424024958 L1.0288735156451205,0.8916091304061149 L1.0149885008807646,0.9415285539188492 L0.9986582899152943,0.9891797526770318 L0.9799222236572827,1.034447930769102 L0.958825438931431,1.0772240331890117 L0.935418759740004,1.1174050085592875 L0.9097585748233566,1.1548940573908244 L0.8819067018145192,1.1896008652813352 L0.8519302383151068,1.2214418204906536 L0.819901400251318,1.2503402153687415 L0.7858973478994428,1.2762264311511378 L0.7500000000000068,1.299038105676654 " />
			<path d="M-0.75,-1.299038105676658 L-0.7218863712352431,-1.3140958524909174 L-0.6927944198092674,-1.327372696101109 L-0.6627635720313547,-1.3388506433195362 L-0.6318345266320644,-1.3485141388783404 L-0.5674506674112441,-1.3623478666981927 L-0.49999174385830997,-1.3687989133910194 L-0.42982332172481336,-1.3678323201758567 L-0.3573256497698711,-1.3594533251050858 L-0.2828915991591956,-1.3437073346789732 L-0.2069245344622075,-1.3206796777839118 L-0.129836127784485,-1.2904951432877925 L-0.05204412788095574,-1.2533173037983167 L0.026029903660799995,-1.2093476292488634 L0.10396287689931832,-1.1588243951154644 L0.18133246630030325,-1.1020213911813534 L0.25771939935528787,-1.0392464378464097 L0.3327097286556814,-0.9708397180217435 L0.4058970751096474,-0.8971719336490211 L0.47688483014560823,-0.8186422968345282 L0.5452883049684594,-0.7356763664841759 L0.6107368152214797,-0.6487237421629171 L0.6728756897569769,-0.5582556276757543 L0.7313681926299683,-0.46476227757348654 L0.7858973478994429,-0.3687503404208257 L0.8361676573484444,-0.27074011322393016 L0.8819067018145188,-0.17126272189584152 L0.9228666174527538,-0.07085724303914717 L0.9588254389314307,0.029932217356832234 L0.9895883022813903,0.13055947247354915 L1.0149885008807646,0.23047921449691866 L1.0348883888526033,0.329149969687605 L1.049180126979809,0.4260370326741388 L1.057786267095196,0.5206153640676477 L1.0606601717798214,0.6123724356957835 " />
			<path d="M-4.242640687119286,3.6742346141747673 L-4.243918298747623,3.7335923672408455 L-4.24774805575432,3.7913318634455795 L-4.254120731919298,3.8473140032852307 L-4.263020974907496,3.901403920881469 L-4.274427343253986,3.9534713088850877 L-4.2883123580183415,4.003390732397822 L-4.304642568983812,4.051041931156005 L-4.3233786352418235,4.0963101092480745 L-4.344475419967676,4.139086211667985 L-4.367882099159103,4.179267187038261 L-4.39354228407575,4.216756235869798 L-4.421394157084587,4.2514630437603085 L-4.451370620584,4.283303998969627 L-4.4833994586477885,4.3122023938477145 L-4.517403510999664,4.338088609630111 L-4.5533008588990995,4.360900284155627 " />
			<path d="M-4.553300858899107,4.3609002841556315 L-4.5910050224907915,4.380582462102277 L-4.630425169142129,4.397087727379418 L-4.671466332267043,4.410376317357313 L-4.71402964010878,4.4204162186587626 L-4.758012553930647,4.427183244282138 L-4.803309115040797,4.430661091869992 L-4.849810200056006,4.430841382982863 L-4.897403783789459,4.427723683283667 L-4.945975209129236,4.421315503584059 L-4.995407463257339,4.411632281750224 L-5.045581459543819,4.398697345511711 L-5.0963763244369,4.382541856262884 L-5.147669688657948,4.363204733992399 L-5.199337981999788,4.340732563521536 L-5.2512567310181515,4.315179482277289 L-5.303300858899107,4.286607049870562 L-5.355344986780063,4.255084099793671 L-5.407263735798425,4.2206865735944366 L-5.458932029140265,4.18349733792634 L-5.510225393361314,4.143605984915498 L-5.561020258254395,4.101108616325383 L-5.611194254540875,4.056107612039259 L-5.660626508668978,4.008711383418073 L-5.709197934008754,3.9590341121279935 L-5.756791517742207,3.9071954750667732 L-5.803292602757416,3.853320356051621 L-5.848589163867567,3.797538544963148 L-5.892572077689433,3.7399844250701744 L-5.935135385531171,3.680796649288669 L-5.976176548656084,3.6201178061547266 L-6.015596695307423,3.558094076316295 L-6.053300858899107,3.494874880371192 L-6.0891982067985495,3.4306125188997982 L-6.123202259150425,3.3654618055596153 L-6.155231097214214,3.2995796941256086 L-6.185207560713626,3.2331249003748135 L-6.213059433722463,3.1662575197261287 L-6.23871961863911,3.099138641556428 L-6.262126297830537,3.0319299611221404 L-6.283223082556389,2.9647933900212182 L-6.301959148814401,2.8978906661339123 L-6.318289359779872,2.8313829639820542 L-6.332174374544227,2.7654305064455142 L-6.343580742890717,2.700192178771251 L-6.352480985878915,2.635825145804834 L-6.358853662043893,2.5724844733665657 L-6.36268341905059,2.510322754684337 L-6.363961030678928,2.4494897427831788 L-6.36268341905059,2.3901319897171014 L-6.358853662043893,2.332392493512367 L-6.352480985878915,2.2764103536727154 L-6.343580742890717,2.222320436076477 L-6.332174374544227,2.170253048072858 L-6.318289359779872,2.1203336245601236 L-6.301959148814401,2.072682425801941 L-6.283223082556389,2.0274142477098707 L-6.262126297830537,1.9846381452899606 L-6.23871961863911,1.9444571699196849 L-6.213059433722463,1.906968121088148 L-6.185207560713626,1.8722613131976376 L-6.155231097214214,1.8404203579883198 L-6.123202259150425,1.8115219631102317 L-6.0891982067985495,1.7856357473278353 L-6.05330085889911,1.762824072802317 " />
			<path d="M-6.053300858899107,1.762824072802315 L-6.02518723013435,1.7477663259880556 L-5.996095278708374,1.734489482377864 L-5.966064430930461,1.7230115351594368 L-5.935135385531171,1.7133480396006326 L-5.87075152631035,1.6995143117807803 L-5.803292602757416,1.6930632650879536 L-5.73312418062392,1.6940298583031164 L-5.660626508668978,1.7024088533738873 L-5.586192458058302,1.7181548437999998 L-5.510225393361314,1.7411825006950612 L-5.433136986683592,1.7713670351911806 L-5.355344986780063,1.8085448746806563 L-5.277270955238307,1.8525145492301096 L-5.199337981999788,1.9030377833635086 L-5.121968392598803,1.9598407872976196 L-5.045581459543818,2.0226157406325633 L-4.970591130243426,2.0910224604572294 L-4.897403783789459,2.164690244829952 L-4.826416028753498,2.243219881644445 L-4.758012553930647,2.3261858119947973 L-4.692564043677627,2.413138436316056 L-4.630425169142129,2.5036065508032186 L-4.571932666269138,2.5970999009054863 L-4.517403510999664,2.6931118380581474 L-4.467133201550662,2.791122065255043 L-4.421394157084588,2.8905994565831317 L-4.380434241446353,2.991004935439826 L-4.344475419967676,3.091794395835805 L-4.313712556617716,3.192421650952522 L-4.2883123580183415,3.292341392975892 L-4.268412470046504,3.391012148166578 L-4.254120731919298,3.487899211153112 L-4.245514591803911,3.582477542546621 L-4.242640687119286,3.6742346141747566 " />
			<path d="M-4.8083261120685235,3.347635981803677 L-4.810709550764873,3.4022813647967225 L-4.817836913036355,3.453648324933471 L-4.829639558488084,3.501242170307769 L-4.846003821192375,3.544604546171221 L-4.866772104353771,3.5833178491399735 L-4.891744398052331,3.617009248943596 L-4.920680205448492,3.645354278984386 L-4.953300858899103,3.668079961128078 " />
			<path d="M-4.953300858899107,3.66807996112808 L-4.9892922036791845,3.6849674346325143 L-5.028307623463621,3.695854063896208 L-5.069971378431895,3.7006350047281154 L-5.113882223847938,3.699264214054497 L-5.159617274266282,3.69175489333889 L-5.206736076150077,3.678179361444798 L-5.2547848496794245,3.658668358165502 L-5.303300858899107,3.6334097851283813 L-5.351816868118789,3.6026468961995226 L-5.3998656416481365,3.566675954816018 L-5.446984443531932,3.5258433808071064 L-5.4927194939502755,3.480542414181849 L-5.536630339366318,3.4312093280128755 L-5.578294094334592,3.3783192268882 L-5.61730951411903,3.3223814713943245 L-5.653300858899106,3.2639347726953423 L-5.685921512349722,3.203542004449939 L-5.7148573197458825,3.1417847820303653 L-5.739829613444441,3.079257861248452 L-5.760597896605838,3.016563410532021 L-5.77696215931013,2.9543052117137445 L-5.7887648047618585,2.893082845282036 L-5.79589216703334,2.8334859160931827 L-5.79827560572969,2.776088375154269 L-5.79589216703334,2.7214429921612235 L-5.7887648047618585,2.670076032024475 L-5.77696215931013,2.622482186650177 L-5.760597896605838,2.5791198107867253 L-5.739829613444441,2.540406507817972 L-5.7148573197458825,2.5067151080143497 L-5.685921512349722,2.4783700779735605 L-5.653300858899108,2.455644395829867 " />
			<path d="M-5.653300858899106,2.455644395829866 L-5.626604921476765,2.4424215869651222 L-5.598156971327404,2.4325555803357477 L-5.568111170357687,2.426099840686483 L-5.536630339366318,2.4230893522298307 L-5.503885075704019,2.423540429063573 L-5.470052828791713,2.4274506267632665 L-5.435316938506731,2.4347987556287856 L-5.3998656416481365,2.4455449955131474 L-5.3638910518652,2.4596311116113365 L-5.327588118576886,2.476980770039759 L-5.291153570524067,2.49749995149617 L-5.2547848496794245,2.521077460758423 L-5.218679041292298,2.547585529261008 L-5.183031805866639,2.576880507483982 L-5.148036318859789,2.6088036434021595 L-5.113882223847938,2.6431819427760965 L-5.0807546048311565,2.67982910662286 L-5.048832983247159,2.718546540786358 L-5.018290345129083,2.7591244321362782 L-4.9892922036791845,2.801342885563621 L-4.961995702338455,2.844973115611346 L-4.9365487632127,2.889778686282588 L-4.913089285469833,2.935516792307806 L-4.891744398052332,2.9819395749275803 L-4.8726297707544886,3.0287954650607043 L-4.855848987397772,3.0758305465788283 L-4.841492984501125,3.1227899322999626 L-4.829639558488084,3.1694191452442015 L-4.820352944101225,3.2154654976665222 L-4.813683466308529,3.260679460393571 L-4.809667267588015,3.3048160150438752 L-4.8083261120685235,3.347635981803672 " />
			<path d="M-13.647160876900367,8.450739612601964 L-13.649544315596717,8.50538499559501 L-13.6566716778682,8.556751955731759 L-13.668474323319927,8.604345801106057 L-13.684838586024219,8.647708176969509 L-13.705606869185615,8.68642147993826 L-13.730579162884176,8.720112879741883 L-13.759514970280335,8.748457909782674 L-13.792135623730948,8.771183591926366 " />
			<path d="M-13.792135623730951,8.771183591926368 L-13.828126968511029,8.788071065430803 L-13.867142388295466,8.798957694694495 L-13.90880614326374,8.803738635526404 L-13.952716988679782,8.802367844852785 L-13.998452039098126,8.794858524137178 L-14.045570840981922,8.781282992243087 L-14.093619614511269,8.76177198896379 L-14.142135623730951,8.73651341592667 L-14.190651632950633,8.70575052699781 L-14.238700406479982,8.669779585614306 L-14.285819208363776,8.628947011605394 L-14.33155425878212,8.583646044980137 L-14.375465104198163,8.534312958811164 L-14.417128859166437,8.481422857686487 L-14.456144278950873,8.425485102192612 L-14.49213562373095,8.36703840349363 L-14.524756277181567,8.306645635248227 L-14.553692084577726,8.244888412828653 L-14.578664378276287,8.18236149204674 L-14.599432661437683,8.119667041330308 L-14.615796924141975,8.057408842512032 L-14.627599569593702,7.996186476080323 L-14.634726931865185,7.9365895468914704 L-14.637110370561535,7.879192005952556 L-14.634726931865185,7.824546622959511 L-14.627599569593702,7.773179662822763 L-14.615796924141975,7.725585817448464 L-14.599432661437683,7.682223441585013 L-14.578664378276287,7.64351013861626 L-14.553692084577726,7.6098187388126375 L-14.524756277181567,7.581473708771848 L-14.492135623730952,7.558748026628154 " />
			<path d="M-14.49213562373095,7.5587480266281535 L-14.46543968630861,7.5455252177634105 L-14.436991736159248,7.5356592111340355 L-14.406945935189531,7.529203471484771 L-14.375465104198163,7.5261929830281185 L-14.342719840535864,7.526644059861861 L-14.308887593623558,7.530554257561554 L-14.274151703338575,7.537902386427073 L-14.238700406479982,7.548648626311436 L-14.202725816697043,7.562734742409624 L-14.16642288340873,7.580084400838047 L-14.129988335355911,7.6006035822944575 L-14.093619614511269,7.624181091556711 L-14.057513806124144,7.6506891600592954 L-14.021866570698483,7.679984138282269 L-13.986871083691634,7.711907274200447 L-13.952716988679782,7.746285573574385 L-13.919589369663,7.782932737421148 L-13.887667748079004,7.821650171584645 L-13.857125109960927,7.862228062934566 L-13.828126968511029,7.904446516361909 L-13.800830467170298,7.948076746409634 L-13.775383528044545,7.992882317080875 L-13.751924050301676,8.038620423106094 L-13.730579162884176,8.085043205725869 L-13.711464535586332,8.131899095858993 L-13.694683752229617,8.178934177377116 L-13.68032774933297,8.22589356309825 L-13.668474323319927,8.27252277604249 L-13.65918770893307,8.31856912846481 L-13.652518231140373,8.36378309119186 L-13.64850203241986,8.407919645842163 L-13.647160876900367,8.450739612601959 " />
			<path d="M-6.929646455628166,4.572380853195266 L-6.932029894324516,4.627026236188311 L-6.939157256595998,4.67839319632506 L-6.950959902047726,4.725987041699359 L-6.967324164752018,4.769349417562809 L-6.988092447913415,4.808062720531563 L-7.013064741611974,4.841754120335185 L-7.042000549008135,4.8700991503759745 L-7.074621202458746,4.8928248325196675 " />
			<path d="M-7.774621202458749,3.6803892672214547 L-7.747925265036407,3.667166458356711 L-7.719477314887047,3.6573004517273366 L-7.68943151391733,3.6508447120780723 L-7.657950682925961,3.6478342236214196 L-7.625205419263662,3.648285300455162 L-7.591373172351356,3.6521954981548554 L-7.556637282066374,3.6595436270203745 L-7.521185985207779,3.670289866904737 L-7.485211395424843,3.6843759830029255 L-7.4489084621365285,3.7017256414313477 L-7.4124739140837095,3.722244822887759 L-7.376105193239067,3.745822332150012 L-7.339999384851941,3.772330400652597 L-7.304352149426282,3.801625378875571 L-7.2693566624194315,3.8335485147937485 L-7.235202567407581,3.8679268141676855 L-7.202074948390799,3.904573978014449 L-7.170153326806802,3.9432914121779468 L-7.139610688688726,3.983869303527867 L-7.110612547238827,4.02608775695521 L-7.083316045898098,4.069717987002935 L-7.057869106772343,4.114523557674176 L-7.034409629029476,4.160261663699394 L-7.0130647416119745,4.206684446319169 L-6.993950114314131,4.253540336452294 L-6.977169330957415,4.300575417970417 L-6.962813328060768,4.347534803691552 L-6.950959902047726,4.3941640166357905 L-6.941673287660868,4.440210369058111 L-6.9350038098681726,4.48542433178516 L-6.930987611147658,4.529560886435465 L-6.929646455628166,4.572380853195261 " />
			<path d="M1.957106781186548,1.7568152189972341 L1.2500000000000002,2.1650635094610973 " />
			<path d="M-0.5428932188134526,-2.5733117999249604 L-1.2500000000000002,-2.1650635094610973 " />
			<path d="M0.7500000000000001,1.2990381056766582 L-4.553300858899107,4.3609002841556315 " />
			<path d="M-0.7500000000000001,-1.2990381056766582 L-6.053300858899107,1.762824072802315 " />
			<path d="M-7.07462120245875,4.892824832519669 L-13.792135623730951,8.771183591926368 " />
			<path d="M-7.77462120245875,3.680389267221455 L-14.492135623730952,7.558748026628154 " />

       </g>
    </g>
    
</g><text x="10" y="16" font-size="10">PX-V40-DEF-R3055-RIVET</text><text x="10" y="32" font-size="10">R3055 rivet</text><text x="10" y="48" font-size="10">Instructional proxy; not engineering geometry</text></svg>
