<?xml version="1.0" encoding="UTF-8" standalone="no"?>
<svg
   xmlns:svg="http://www.w3.org/2000/svg"
   xmlns="http://www.w3.org/2000/svg"
   width="420.0"
   height="420"

><g transform="translate(0,55)">
    <g transform="scale(31.014033776176493, -31.014033776176493)   translate(4.003626567016407,-4.4763836312514576)" stroke-width="0.03224346781901529"  fill="none">
       <!-- hidden lines -->
       <g  stroke="rgb(160,160,160)" fill="none" stroke-dasharray="0.03224346781901529,0.03224346781901529" >

       </g>

       <!-- solid lines -->
       <g  stroke="rgb(0,0,0)" fill="none">
			<path d="M1.9445436482630059,1.9391793797033487 L1.9413496191921604,2.0875737623685438 L1.9317752266754198,2.2319225028803786 L1.9158435362629747,2.3718778524795066 L1.8935929287924793,2.507102646470103 L1.8650770079262533,2.6372711164791505 L1.830364471015364,2.762069675260986 L1.7895389436016882,2.8811976721564427 L1.7426987779566594,2.994368117386618 L1.7170579101316914,3.048633480065432 L1.68995681614203,3.101308373436392 L1.6614118206733188,3.152361068113372 L1.6314401181634621,3.2017608118620813 L1.6000597624453383,3.2494778481240623 L1.567289655871844,3.2954834339409245 L1.533149537929825,3.3397498572680333 L1.4976599733497507,3.382250453667201 L1.4608423397182828,3.4229596223683596 L1.4227188146012195,3.4618528416904972 L1.3833123621845638,3.4989066838126033 L1.3426467194417477,3.534098828885717 L1.3007463818353728,3.5674080784775652 L1.2576365885620593,3.5988143683417078 L1.2133433073492959,3.6282987805034863 L1.1678932188134694,3.6558435546554984 " />
			<path d="M1.1678932188134517,3.6558435546555086 L1.1213137003883742,3.6814320988557903 L1.073632809834241,3.705048999522122 L1.0248792683366195,3.726680030716636 L0.9750824432058945,3.7463121627149762 L0.9242723301875025,3.763933569854921 L0.8724795353936127,3.779533637659714 L0.8197352568671515,3.793102969231836 L0.7660712657892682,3.8046333909133363 L0.7115198873415619,3.8141179572093447 L0.6561139812346021,3.8215509549717757 L0.599886921914467,3.826927906840714 L0.5428725784592262,3.8302455739414114 L0.48510529417747394,3.8315019578352625 L0.42661986592120293,3.8306963017235884 L0.36745152312548435,3.827829090903505 L0.307635906587571,3.8229020524755986 L0.18620734323812882,3.8068816032265773 L0.06262670791787162,3.7826735486419905 L-0.06280828279832895,3.7503362080457077 L-0.1897954450310303,3.709947484923642 L-0.3180288555836515,3.661604679247428 L-0.4471995889382517,3.6054242530702707 L-0.5769964614841596,3.541541549959654 L-0.7071067811865481,3.4701104689428357 L-0.8372171008889369,3.391303093750609 L-0.9670139734348444,3.305309278252523 L-1.0961847067894446,3.2123361890822815 L-1.224418117342066,3.112607806555175 L-1.3514052795747675,3.006364385079887 L-1.4768402702909678,2.8938618743645774 L-1.600420905611225,2.775371302811613 L-1.721849468960667,2.6511781245864143 L-1.8408334282942995,2.521581531933364 L-1.9570861408323226,2.386893734395483 L-2.0703275436076978,2.2474392066742994 L-2.1802848281623644,2.1035539069418663 L-2.286693097766709,1.9555844674881029 L-2.389296005578991,1.803887359653247 L-2.487846372207337,1.6488280350571678 L-2.5821067811865475,1.4907800451944115 L-2.6718501509351547,1.330124141515926 L-2.756860281814843,1.1672473581654683 L-2.836932376974315,1.0025420795804514 L-2.911873535722845,0.8364050952034638 L-2.9815032182449372,0.6692366435817518 L-3.045653680536556,0.5014394481574995 L-3.104170378515124,0.3334177470717812 L-3.1569123403297534,0.1655763193194757 L-3.203752505974783,-0.0016804903987890363 L-3.2445780333884593,-0.16794974577843375 L-3.2792905702993482,-0.33283088961978363 L-3.307806491165574,-0.49592670880544215 L-3.330057098636069,-0.6568442912214842 L-3.3459887890485147,-0.815195972317156 L-3.3555631815652553,-0.9706002690227267 L-3.3587572106361008,-1.1226827987756232 L-3.3555631815652553,-1.2710771814408153 L-3.3459887890485147,-1.4154259219526517 L-3.330057098636069,-1.5553812715517807 L-3.3078064911655742,-1.6906060655423771 L-3.2792905702993482,-1.8207745355514242 L-3.244578033388459,-1.9455730943332603 L-3.2037525059747827,-2.0647010912287165 L-3.1569123403297534,-2.177871536458893 L-3.131271472504785,-2.232136899137708 L-3.104170378515124,-2.284811792508668 L-3.0756253830464124,-2.3358644871856478 L-3.0456536805365557,-2.3852642309343572 L-3.014273324818432,-2.432981267196338 L-2.9815032182449377,-2.4789868530132 L-2.9473631003029195,-2.523253276340307 L-2.9118735357228456,-2.5657538727394753 L-2.8750559020913777,-2.6064630414406333 L-2.8369323769743158,-2.64535626076277 L-2.79752592455766,-2.682410102884876 L-2.756860281814843,-2.7176022479579904 L-2.7149599442084673,-2.7509114975498394 L-2.671850150935154,-2.7823177874139815 L-2.6275568697223908,-2.81180219957576 L-2.582106781186556,-2.839346973727777 " />
			<path d="M-2.5821067811865475,-2.839346973727782 L-2.5118227092746555,-2.87699134076343 L-2.4390928307097157,-2.9101834497889087 L-2.3640157112649343,-2.9388783178349773 L-2.286693097766709,-2.963037056731988 L-2.207229780204189,-2.9826269258123355 L-2.1257334497146574,-2.9976213762816184 L-2.0423145526371806,-3.008000087198382 L-1.9570861408323226,-3.013748993013685 L-1.8701637184707827,-3.014860302633168 L-1.781665085498581,-3.011332509975779 L-1.6917101779909407,-3.0031703960148652 L-1.6004209056112253,-2.9903850222988515 L-1.5079209863951994,-2.9729937159602833 L-1.4143357790845363,-2.951020046233569 L-1.3197921132367907,-2.9244937925132244 L-1.2244181173420663,-2.893450903995916 L-1.1283430451793413,-2.857933450961008 L-1.0316971006477604,-2.817989567755618 L-0.9346112613102995,-2.7736733875614674 L-0.8372171008889371,-2.7250449690319285 L-0.7396466109518847,-2.6721702148986792 L-0.6420320220345477,-2.615120782658295 L-0.5445056244366338,-2.553973987459802 L-0.44719958893825185,-2.4888126973247973 L-0.3502457876780034,-2.4197252208421602 L-0.25377561543578975,-2.3468051874895206 L-0.15791981156256396,-2.2701514207437152 L-0.06280828279832806,-2.1898678041521613 L0.03143007278148546,-2.106063140546669 L0.1246675404526556,-2.0188510045904957 L0.21677776192511022,-1.9283495888584525 L0.30763590658757056,-1.8346815436586894 L0.39711884068184033,-1.7379738108132226 L0.48510529417747306,-1.6383574516224573 L0.5714760251206606,-1.5359674692468719 L0.6561139812346005,-1.4309426257465763 L0.7389044585523431,-1.323425254026697 L0.8197352568671515,-1.2135610649434294 L0.8984968317896783,-1.1014989498321959 L0.9750824432058945,-0.9873907787255225 L1.0493882999345892,-0.8713911945340804 L1.1213137003883733,-0.7536574034698531 L1.1907611690475721,-0.6343489619954379 L1.2576365885620588,-0.513627560588201 L1.3218493273019862,-0.39165680461236135 L1.3833123621845633,-0.268601992595962 L1.441942396610426,-0.14462989221320016 L1.4976599733497493,-0.01990851427574042 L1.5503895822251357,0.10539311496070841 L1.600059762445337,0.23110518286599543 L1.646603199451119,0.35705732057083417 L1.6899568161420286,0.48307883385594397 L1.7300618583604264,0.6089989344821243 L1.766863974516928,0.7346469716477362 L1.8003132892493552,0.8598526632599233 L1.830364471015364,0.9844463267061594 L1.8569767935271484,1.1082591088133549 L1.8801141909449606,1.2311232146828757 L1.8997453067546495,1.3528721350913735 L1.9158435362629742,1.47334087214921 L1.9283870626531043,1.592366162910677 L1.9373588865514426,1.7097867006329823 L1.9427468490657014,1.8254433533841172 L1.9445436482630059,1.939179379703322 " />
			<path d="M2.6516504294495533,1.5309310892394856 L2.648456400378708,1.6793254719046808 L2.6388820078619672,1.8236742124165157 L2.622950317449522,1.9636295620156436 L2.6006997099790268,2.09885435600624 L2.5721837891128008,2.2290228260152873 L2.5374712522019114,2.353821384797123 L2.4966457247882357,2.4729493816925796 L2.449805559143207,2.5861198269227548 L2.424164691318239,2.640385189601569 L2.3970635973285774,2.693060082972529 L2.3685186018598663,2.7441127776495087 L2.3385468993500096,2.793512521398218 L2.307166543631886,2.841229557660199 L2.2743964370583916,2.8872351434770613 L2.2402563191163725,2.93150156680417 L2.204766754536298,2.974002163203338 L2.1679491209048303,3.0147113319044965 L2.129825595787767,3.053604551226634 L2.0904191433711112,3.09065839334874 L2.049753500628295,3.125850538421854 L2.0078531630219203,3.159159788013702 L1.964743369748607,3.1905660778778446 L1.9204500885358435,3.220050490039623 L1.8750000000000169,3.2475952641916352 " />
			<path d="M-1.875,-3.247595264191645 L-1.8047159280881078,-3.2852396312272933 L-1.731986049523168,-3.318431740252772 L-1.6569089300783866,-3.3471266082988405 L-1.5795863165801614,-3.371285347195851 L-1.5001229990176417,-3.3908752162761986 L-1.41862666852811,-3.4058696667454815 L-1.335207771450633,-3.416248377662245 L-1.249979359645775,-3.4219972834775483 L-1.1630569372842352,-3.423108593097031 L-1.0745583043120335,-3.419580800439642 L-0.984603396804393,-3.4114186864787284 L-0.8933141244246778,-3.3986333127627146 L-0.8008142052086519,-3.3812420064241464 L-0.7072289978979888,-3.3592683366974323 L-0.6126853320502432,-3.3327420829770875 L-0.5173113361555186,-3.301699194459779 L-0.4212362639927936,-3.2661817414248713 L-0.3245903194612128,-3.226237858219481 L-0.22750448012375185,-3.1819216780253305 L-0.13011031970238945,-3.1332932594957916 L-0.03253982976533706,-3.0804185053625424 L0.06507475915199992,-3.0233690731221583 L0.16260115674991385,-2.962222277923665 L0.2599071922482957,-2.8970609877886604 L0.35686099350854417,-2.8279735113060234 L0.4533311657507578,-2.7550534779533837 L0.5491869696239836,-2.6783997112075784 L0.6442984983882195,-2.5981160946160244 L0.738536853968033,-2.5143114310105323 L0.8317743216392032,-2.427099295054359 L0.9238845431116578,-2.3365978793223157 L1.0147426877741181,-2.2429298341225525 L1.104225621868388,-2.1462221012770857 L1.1922120753640206,-2.0466057420863204 L1.2785828063072082,-1.944215759710735 L1.363220762421148,-1.8391909162104394 L1.4460112397388907,-1.7316735444905602 L1.5268420380536991,-1.6218093554072925 L1.605603612976226,-1.509747240296059 L1.6821892243924421,-1.3956390691893856 L1.7564950811211366,-1.2796394849979436 L1.8284204815749208,-1.1619056939337162 L1.8978679502341198,-1.042597252459301 L1.9647433697486065,-0.921875851052064 L2.0289561084885337,-0.7999050950762244 L2.090419143371111,-0.6768502830598251 L2.1490491777969734,-0.5528781826770632 L2.204766754536297,-0.4281568047396035 L2.257496363411683,-0.30285517550315466 L2.3071665436318844,-0.17714310759786764 L2.3537099806376665,-0.05119096989302892 L2.397063597328576,0.07483054339208092 L2.437168639546974,0.20075064401826115 L2.4739707557034754,0.3263986811838731 L2.5074200704359026,0.4516043727960602 L2.5374712522019114,0.5761980362422964 L2.564083574713696,0.7000108183494919 L2.587220972131508,0.8228749242190125 L2.606852087941197,0.9446238446275104 L2.6229503174495217,1.065092581685347 L2.635493843839652,1.1841178724468138 L2.64446566773799,1.3015384101691192 L2.649853630252249,1.417195062920254 L2.6516504294495533,1.530931089239459 " />
			<path d="M0.7071067811865476,1.2247448713915887 L0.7054032990154299,1.3038885421463595 L0.700296956339835,1.3808745370860047 L0.6918000547865307,1.4555173902055398 L0.6799330641356,1.5276372803338576 L0.6647245730069463,1.597060464338683 L0.6462112199878053,1.6636196956889955 L0.6244376053671782,1.727154627366572 L0.5994561836898292,1.787512198155999 L0.5713271373886938,1.8445470013825453 L0.5401182318001244,1.8981216352095798 L0.5059046519112612,1.948107033651629 L0.4687688212328115,1.9943827775056433 L0.4288002032335948,2.036837384451401 L0.3860950858152098,2.0753685776221853 L0.34075634934604293,2.1098835319987135 L0.29289321881346153,2.140299098032735 " />
			<path d="M0.292893218813452,2.1402990980327408 L0.2426210006912064,2.1665420019616013 L0.19006080515608825,2.1885490223311233 L0.1353392543228712,2.2062671423016504 L0.07858817720055422,2.219653677370249 L0.019944292104732142,2.2286763782014165 L-0.04045112270880147,2.2333135083185556 L-0.10245256939574732,2.23355389646905 L-0.165910681040351,2.2293969635367885 L-0.23067258149338682,2.2208527239373104 L-0.29658225366419066,2.2079417614921977 L-0.36348091537949767,2.190695179840847 L-0.43120740190360507,2.1691545275090784 L-0.49959855419833643,2.143371697815098 L-0.5684896119874565,2.113408803853947 L-0.6377146106786074,2.0793380288616183 L-0.7071067811865479,2.041241452319315 L-0.7764989516944886,1.9992108522167942 L-0.8457239503856393,1.9533474839511484 L-0.9146150081747595,1.9037618363936861 L-0.9830061604694909,1.850573365712563 L-1.0507326469935983,1.7939102075924094 L-1.117631308708905,1.733908868544244 L-1.183540980879709,1.6707138970493298 L-1.2483028813327446,1.6044775353292238 L-1.3117609929773486,1.5353593525809301 L-1.3737624396642945,1.463525860560727 L-1.4341578544778277,1.3891501124427625 L-1.49280173957365,1.3124112859187982 L-1.5495528166959671,1.2334942515434577 L-1.6042743675291837,1.1525891273648676 L-1.6568345630643022,1.0698908209136258 L-1.707106781186548,0.9855985596534889 L-1.7549699117191384,0.8999154110249634 L-1.8003086481883055,0.8130477932380527 L-1.8430137656066905,0.7252049779927101 L-1.8829823836059063,0.6365985863249836 L-1.9201182142843556,0.5474420787934037 L-1.954331794173219,0.4579502412338026 L-1.9855406997617884,0.3683386673214194 L-2.013669746062924,0.2788232391868565 L-2.038651167740273,0.18961960733711528 L-2.0604247823609003,0.10094267113463806 L-2.0789381353800414,0.01300606108591812 L-2.094146626508695,-0.07397837581309957 L-2.106013617159626,-0.15980108643498886 L-2.11451051871293,-0.24425531635268033 L-2.119616861388525,-0.3271376079289848 L-2.121320343559643,-0.40824829046386296 L-2.119616861388525,-0.4873919612186321 L-2.11451051871293,-0.564377956158278 L-2.106013617159626,-0.6390208092778136 L-2.094146626508695,-0.7111406994061316 L-2.0789381353800414,-0.780563883410957 L-2.0604247823609003,-0.8471231147612694 L-2.038651167740273,-0.9106580464388461 L-2.013669746062924,-0.9710156172282733 L-1.9855406997617884,-1.0280504204548202 L-1.9543317941732186,-1.0816250542818544 L-1.9201182142843556,-1.1316104527239037 L-1.8829823836059068,-1.1778861965779175 L-1.8430137656066905,-1.2203408035236745 L-1.800308648188305,-1.2588719966944586 L-1.754969911719138,-1.2933869510709874 L-1.707106781186552,-1.3238025171050116 " />
			<path d="M-1.7071067811865475,-1.3238025171050143 L-1.6696219428335384,-1.34387951285736 L-1.6308326742655708,-1.361581971004282 L-1.5907915438950204,-1.3768859006288519 L-1.549552816695967,-1.389770561373924 L-1.5071723806626232,-1.4002184915501095 L-1.4637076710682062,-1.4082155318003937 L-1.419217592626885,-1.4137508442893343 L-1.3737624396642942,-1.4168169273908293 L-1.3274038144048064,-1.4174096258545534 L-1.280204543486299,-1.4155281364372791 L-1.2322285928155572,-1.4111750089914588 L-1.183540980879709,-1.4043561430095846 L-1.134207690631162,-1.395080779629015 L-1.084295580065475,-1.3833614891081008 L-1.0338722916133438,-1.3692141537905835 L-0.9830061604694909,-1.3526579465813524 L-0.931766121982704,-1.3337153049627348 L-0.8802216182325276,-1.312411900586527 L-0.8284425039192151,-1.2887766044829798 L-0.7764989516944886,-1.2628414479338923 L-0.6724002429721476,-1.2042152152012882 L-0.5684896119874564,-1.1368509030234226 L-0.4653301594528099,-1.0611135644446081 L-0.36348091537949706,-0.9774136266646833 L-0.2634938096456391,-0.8862046668984616 L-0.16591068104035112,-0.7879809544014984 L-0.07126034099240319,-0.6832747719821743 L0.019944292104731476,-0.5726535315150381 L0.10720897244209204,-0.45671669908669305 L0.19006080515608803,-0.33609254643714254 L0.2680508089867437,-0.21143474630078568 L0.3407563493460427,-0.08341883009723783 L0.4077834286113783,0.04726147283195631 L0.4687688212328106,0.1798979946027411 L0.5233820420837908,0.31377196641166694 L0.5713271373886931,0.4481579136063062 L0.6123442885219726,0.5823275870952621 L0.6462112199878053,0.7155539097930879 L0.6727444039502567,0.8471149167140031 L0.6918000547865307,0.9762976673627148 L0.7032749082737139,1.1024021092207268 L0.7071067811865476,1.2247448713915745 " />
			<path d="M0.5818609561002115,1.8243093198338967 L0.5327409262741992,1.820274211576322 L0.48286000043400634,1.8136392666551922 L0.4322894218346251,1.8044139615400168 L0.3811014187389757,1.7926114724249758 L0.32936910125669705,1.7782486564097997 L0.27716635692342906,1.7613460274233412 L0.22456774516971914,1.7419277269242168 L0.17164839083028718,1.7200214894203707 L0.11848387684574083,1.6956586028568061 L0.06515013630999425,1.6688738639280627 L0.011723344017574275,1.6397055283792625 L-0.04172019233428611,1.608195256366712 L-0.1483522558743847,1.5383322038432512 L-0.2541370758203431,1.4596836960688162 L-0.35847051231241894,1.3726988967181197 L-0.46075671437954613,1.2778745782440182 L-0.5604115228597389,1.1757522847971034 L-0.6568658065482682,1.066915239452965 L-0.7495687125207829,0.9519850134100293 L-0.8379908120686973,0.8316179761802657 L-0.9216271242803233,0.7065015470458246 L-1.0000000000000004,0.5773502691896254 L-1.0726618496948526,0.4449017289206449 L-1.139197699650261,0.3099123432993095 L-1.1992275618955466,0.17315304021997738 L-1.2524086043251597,0.03540485562167149 L-1.2984371086217574,-0.10254552702849491 L-1.3370502047994182,-0.23991026950507227 L-1.3680273724609726,-0.3759048781888835 L-1.3911917001957301,-0.5097526843304995 L-1.4064108959251493,-0.6406892796256805 L-1.4135980424263435,-0.7679668817710923 L-1.41416497029344,-0.8300054779261556 L-1.4127120937185995,-0.890858605068506 L-1.409241487796752,-0.9504393487156823 L-1.4037581094780442,-1.0086626116879347 L-1.3962697904879944,-1.0654452356496762 L-1.3867872261417014,-1.120706119881746 L-1.3753239600680836,-1.1743663371148494 L-1.3618963648659688,-1.2263492462587322 L-1.3465236187196588,-1.2765806018660817 L-1.3292276780073724,-1.3249886601748109 L-1.3100332459416852,-1.3715042815772707 L-1.2889677372867616,-1.4160610293700286 " />
			<path d="M1.8750000000000002,3.2475952641916455 L1.1678932188134525,3.6558435546555086 " />
			<path d="M-1.8750000000000002,-3.2475952641916455 L-2.582106781186548,-2.8393469737277823 " />

       </g>
    </g>
    
</g><text x="10" y="16" font-size="10">PX-V40-DEF-WASHER-A</text><text x="10" y="32" font-size="10">Washer A</text><text x="10" y="48" font-size="10">Instructional proxy; not engineering geometry</text></svg>
