DBRep_DrawableShape

CASCADE Topology V3, (c) Open Cascade
Locations 0
Curve2ds 532
1 0 0 0 -1 
1 1 0 0 -1 
1 -19.804994310976596 27.1210029606228 1 0 
1 30 0 0 -1 
1 0 0 0 -1 
1 -19.804994310976596 27.1210029606228 1 0 
1 -15 -17.528985507246375 1 0 
1 0 0 1 0 
1 -15 -17.528985507246375 1 0 
1 0 -2 1 0 
8 -15 15
1 0 13.471014492753625 1 0 
8 -15 15
1 10 0 0 1 
1 0 -2 1 0 
2 -1.7763568394002505e-15 8.8817841970012523e-16 1 0 -0 1 1.25
2 -12.724137931034484 -10.770364817591203 1 0 -0 1 1.25
1 1.7241379310344822 -1.7241379310344822 0 1 
1 0 -2 1 0 
1 -12.379310344827587 -9.2531234382808574 0 1 
1 1.7241379310344822 1.7241379310344822 -1 0 
1 0 -2 1 0 
1 -12.379310344827587 -5.804847576211893 1 0 
1 -1.724137931034484 1.7241379310344822 0 -1 
1 0 -2 1 0 
1 -8.931034482758621 -5.804847576211893 0 -1 
1 -1.724137931034484 -1.7241379310344822 1 0 
1 0 -2 1 0 
1 -8.931034482758621 -9.2531234382808574 -1 0 
1 0 -2 1 0 
2 0 8.8817841970012523e-16 1 0 -0 1 1.25
2 -0.1724137931034484 -10.770364817591203 1 0 -0 1 1.25
1 0 -2 1 0 
2 1.7763568394002505e-15 0 1 0 -0 1 1.25
2 -12.724137931034484 10.402048975512244 1 0 -0 1 1.25
1 0 -2 1 0 
2 2.8620689655172393 0 -3.7007434154171886e-16 -1 1 -3.7007434154171886e-16 1.1999999999999993
2 -9.4827586206896548 10.264117941029486 3.7007434154171886e-16 -1 -1 -3.7007434154171886e-16 1.1999999999999993
1 2.8620689655172393 1.1999999999999993 -1 0 
1 0 -2 1 0 
1 -9.4827586206896548 11.464117941029485 1 0 
1 0 -2 1 0 
2 -2.8620689655172433 0 3.7007434154171886e-16 1 -1 3.7007434154171886e-16 1.1999999999999993
2 -3.7586206896551722 10.264117941029486 -3.7007434154171886e-16 1 1 3.7007434154171886e-16 1.1999999999999993
1 -2.8620689655172429 -1.1999999999999993 1 0 
1 0 -2 1 0 
1 -3.7586206896551726 9.0641179410294868 -1 0 
1 9.3367973547472829 -5.1317902692489366 0 1 
1 0 -2 1 0 
1 -14.724137931034482 -4.9772613693153414 0 1 
1 9.3367973547472829 4.2475200755786489 -1 0 
1 0 -2 1 0 
1 -14.724137931034482 4.4020489755122441 1 0 
1 6.854038734057629 4.2475200755786489 0 1 
1 0 -2 1 0 
1 -12.241379310344827 4.4020489755122441 0 1 
1 6.854038734057629 5.9026924893717521 -1 0 
1 0 -2 1 0 
1 -12.241379310344827 6.0572213893053473 1 0 
1 1.7505904581955596 5.9026924893717521 0 -1 
1 0 -2 1 0 
1 -7.137931034482758 6.0572213893053473 0 -1 
1 1.7505904581955596 4.2475200755786489 -1 0 
1 0 -2 1 0 
1 -7.137931034482758 4.4020489755122441 1 0 
1 -9.835616438356162 4.2475200755786489 0 -1 
1 0 -2 1 0 
1 4.4482758620689644 4.4020489755122441 0 -1 
1 -9.835616438356162 -5.1317902692489366 1 0 
1 0 -2 1 0 
1 4.4482758620689644 -4.9772613693153414 -1 0 
1 0 -2 1 0 
2 3.0531133177191805e-16 -3.5527136788005009e-15 1 0 -0 1 1.25
2 -0.10344827586206762 10.333083458270867 1 0 -0 1 1.25
1 0 0 0 -1 
1 6.2831853071795862 0 0 -1 
1 0 0 1 0 
2 3.0531133177191805e-16 -3.5527136788005009e-15 1 0 -0 1 1.25
2 -0.10344827586206762 10.333083458270867 1 0 -0 1 1.25
1 9.3793103448275854 0 0 -1 
1 0 -0 0 -1 
1 19.172413793103445 0 0 -1 
1 0 0 0 -1 
1 -9.835616438356162 -5.1317902692489366 1 0 
1 0 -0 1 0 
1 4.4482758620689644 -4.9772613693153414 -1 0 
1 11.586206896551722 0 0 -1 
1 0 0 0 -1 
1 -9.835616438356162 4.2475200755786489 0 -1 
1 0 0 1 0 
1 4.4482758620689644 4.4020489755122441 0 -1 
1 1.6551724137931032 0 0 -1 
1 0 0 0 -1 
1 1.7505904581955596 4.2475200755786489 -1 0 
1 0 0 1 0 
1 -7.137931034482758 4.4020489755122441 1 0 
1 5.1034482758620694 0 0 -1 
1 0 0 0 -1 
1 1.7505904581955596 5.9026924893717521 0 -1 
1 0 0 1 0 
1 -7.137931034482758 6.0572213893053473 0 -1 
1 1.6551724137931032 0 0 -1 
1 0 0 0 -1 
1 6.854038734057629 5.9026924893717521 -1 0 
1 0 0 1 0 
1 -12.241379310344827 6.0572213893053473 1 0 
1 2.4827586206896548 0 0 -1 
1 0 0 0 -1 
1 6.854038734057629 4.2475200755786489 0 1 
1 0 0 1 0 
1 -12.241379310344827 4.4020489755122441 0 1 
1 0 0 0 -1 
1 9.3793103448275854 0 0 -1 
1 9.3367973547472829 4.2475200755786489 -1 0 
1 0 0 1 0 
1 -14.724137931034482 4.4020489755122441 1 0 
1 9.3367973547472829 -5.1317902692489366 0 1 
1 0 0 1 0 
1 -14.724137931034482 -4.9772613693153414 0 1 
1 3.141592653589794 0 0 -1 
1 0 -0 0 -1 
1 0 0 0 -1 
1 5.7241379310344822 0 0 -1 
1 -2.8620689655172429 -1.1999999999999993 1 0 
1 0 -0 1 0 
1 -3.7586206896551726 9.0641179410294868 -1 0 
1 0 0 0 -1 
1 5.7241379310344822 0 0 -1 
1 0 0 1 0 
2 -2.8620689655172433 0 3.7007434154171886e-16 1 -1 3.7007434154171886e-16 1.1999999999999993
2 -3.7586206896551722 10.264117941029486 -3.7007434154171886e-16 1 1 3.7007434154171886e-16 1.1999999999999993
1 3.141592653589794 0 0 -1 
1 0 0 0 -1 
1 2.8620689655172393 1.1999999999999993 -1 0 
1 0 0 1 0 
1 -9.4827586206896548 11.464117941029485 1 0 
1 0 0 1 0 
2 2.8620689655172393 0 -3.7007434154171886e-16 -1 1 -3.7007434154171886e-16 1.1999999999999993
2 -9.4827586206896548 10.264117941029486 3.7007434154171886e-16 -1 -1 -3.7007434154171886e-16 1.1999999999999993
1 0 0 0 -1 
1 6.2831853071795862 0 0 -1 
1 0 0 1 0 
2 1.7763568394002505e-15 0 1 0 -0 1 1.25
2 -12.724137931034484 10.402048975512244 1 0 -0 1 1.25
1 0 0 0 -1 
1 6.2831853071795862 0 0 -1 
1 0 0 1 0 
2 0 8.8817841970012523e-16 1 0 -0 1 1.25
2 -0.1724137931034484 -10.770364817591203 1 0 -0 1 1.25
1 3.4482758620689644 0 0 -1 
1 0 -0 0 -1 
1 3.4482758620689662 0 0 -1 
1 0 0 0 -1 
1 -1.724137931034484 -1.7241379310344822 1 0 
1 0 -0 1 0 
1 -8.931034482758621 -9.2531234382808574 -1 0 
1 3.4482758620689662 0 0 -1 
1 0 0 0 -1 
1 -1.724137931034484 1.7241379310344822 0 -1 
1 0 0 1 0 
1 -8.931034482758621 -5.804847576211893 0 -1 
1 0 0 0 -1 
1 3.4482758620689644 0 0 -1 
1 1.7241379310344822 1.7241379310344822 -1 0 
1 0 0 1 0 
1 -12.379310344827587 -5.804847576211893 1 0 
1 1.7241379310344822 -1.7241379310344822 0 1 
1 0 0 1 0 
1 -12.379310344827587 -9.2531234382808574 0 1 
1 0 0 0 -1 
1 6.2831853071795862 0 0 -1 
1 0 0 1 0 
2 -1.7763568394002505e-15 8.8817841970012523e-16 1 0 -0 1 1.25
2 -12.724137931034484 -10.770364817591203 1 0 -0 1 1.25
1 -12 17 0 -1 
1 0 -2 1 0 
8 -8.0975028445117019 15.902497155488298
1 -3.9024971554882981 -3.8789970393772002 -1 0 
8 -8.0975028445117019 15.902497155488298
1 -3.9024971554882981 15 1 0 
8 7.5 9.5
1 18.827298315946024 7.5 0 -1 
8 7.5 9.5
1 -11.768173624406128 7.5 0 1 
1 12 17 -1 0 
1 0 -2 1 0 
8 -9.5 -7.5
1 6.7130986266617878 7.5 -0 1 
8 -9.5 -7.5
1 -6.7205904205376825 7.5 0 -1 
8 -8.0975028445117019 15.902497155488298
1 -3.9024971554882981 -3.8789970393772002 -1 0 
8 -8.0975028445117019 15.902497155488298
1 -3.9024971554882981 -14.999999999999996 1 0 
1 0 -2 1 0 
2 0 0 0 1 -1 0 1.5
2 0 -12 0 1 -1 0 1.5
1 0 -2 1 0 
2 0 -12 -1 0 -0 -1 1.5
2 -6 -12 1 0 0 -1 1.5
1 -1.5 12 0 -1 
1 0 -2 1 0 
1 -4.5 12 0 -1 
1 1.5 -12 0 1 
1 0 -2 1 0 
1 -7.5 -12 0 1 
1 0 -2 1 0 
2 0 12 1 0 -0 1 1.5
2 -6 12 -1 0 0 1 1.5
1 0 -2 1 0 
2 0 8.5465008283713956e-17 0 1 -1 0 1.5
2 0 0 0 1 -1 0 1.5
1 0 -2 1 0 
2 0 -12 -1 0 -0 -1 1.5
2 6 -12 1 0 0 -1 1.5
1 -1.5 12 0 -1 
1 0 -2 1 0 
1 7.5 12 0 -1 
1 1.5 -12 0 1 
1 0 -2 1 0 
1 4.5 -12 0 1 
1 0 -2 1 0 
2 0 12 1 0 -0 1 1.5
2 6 12 -1 0 0 1 1.5
1 0 -2 1 0 
2 0 0 0 1 -1 0 1.5
2 0 12 0 1 -1 0 1.5
1 0 0 0 -1 
1 6.2831853071795862 0 0 -1 
1 0 0 1 0 
2 0 0 0 1 -1 0 1.5
2 0 12 0 1 -1 0 1.5
1 -12 17 0 -1 
1 0 0 1 0 
1 12 17 -1 0 
1 0 0 1 0 
8 -9.5 -7.5
1 4.1893070247275679 7.5 -0 1 
8 -9.5 -7.5
1 -8.259916263234313 7.5 0 -1 
8 -8.0975028445117019 15.902497155488298
1 -3.9024971554882981 -5.8789970393772002 -1 0 
8 -8.0975028445117019 15.902497155488298
1 -3.9024971554882981 15 1 0 
8 -15 15
1 0 15.471014492753625 1 0 
8 -15 15
1 10 0 0 1 
8 -8.0975028445117019 15.902497155488298
1 -3.9024971554882981 -5.8789970393772002 -1 0 
8 -8.0975028445117019 15.902497155488298
1 -3.9024971554882981 -14.999999999999996 1 0 
1 0 0 1 0 
2 0 0 0 1 -1 0 1.5
2 0 -12 0 1 -1 0 1.5
1 0 0 1 0 
2 0 -12 -1 0 -0 -1 1.5
2 -6 -12 1 0 0 -1 1.5
1 -1.5 12 0 -1 
1 0 0 1 0 
1 -4.5 12 0 -1 
1 1.5 -12 0 1 
1 0 0 1 0 
1 -7.5 -12 0 1 
1 0 0 1 0 
2 0 12 1 0 -0 1 1.5
2 -6 12 -1 0 0 1 1.5
1 0 0 1 0 
2 0 8.5465008283713956e-17 0 1 -1 0 1.5
2 0 0 0 1 -1 0 1.5
1 0 0 1 0 
2 0 -12 -1 0 -0 -1 1.5
2 6 -12 1 0 0 -1 1.5
1 -1.5 12 0 -1 
1 0 0 1 0 
1 7.5 12 0 -1 
1 1.5 -12 0 1 
1 0 0 1 0 
1 4.5 -12 0 1 
1 0 0 1 0 
2 0 12 1 0 -0 1 1.5
2 6 12 -1 0 0 1 1.5
8 -22.324994233934589 12.675005766065411
1 -14.999999999999996 4.7960087266882141 0 1 
8 -22.324994233934589 12.675005766065411
1 -17.804994310976596 4.7960087266882105 0 -1 
1 17 17.471014492753625 -1 0 
1 0 -2 1 0 
8 -22.324994233934589 12.675005766065411
1 15 4.7960087266882141 0 1 
8 -22.324994233934589 12.675005766065411
1 -17.804994310976596 4.7960087266882105 0 -1 
1 17 17.471014492753625 -1 0 
1 0 -0 1 0 
8 -9.9024971554882981 -7.9024971554882981
1 31.999999999999996 -9.9024971554882981 0 -1 
8 -9.9024971554882981 -7.9024971554882981
1 -9.9024971554882981 -7.8789970393772002 1 0 
8 -9.9024971554882981 -7.9024971554882981
1 2 -9.9024971554882981 0 -1 
8 -9.9024971554882981 -7.9024971554882981
1 -9.9024971554882981 -7.8789970393772002 1 0 
1 -5.2650830849367978 -10.119851782941904 0.60992589147095166 0.79245845753160149 
1 0 0 1 0 
1 3.0100887739601987 -9.1988488223191105 -0.60992589147095166 0.79245845753160149 
1 -5.2650830849367978 -10.119851782941904 0.60992589147095166 0.79245845753160149 
1 0 -2 1 0 
1 3.0100887739601987 -9.1988488223191105 -0.60992589147095166 0.79245845753160149 
1 3.1415926535897931 0 0 -1 
1 0 0 0 -1 
1 0 0 0 -1 
1 22.461745257214545 0 0 -1 
1 0 0 1 0 
2 -6.8500000000000014 -8.899999999999995 -0.79245845753160149 0.60992589147095166 -0.60992589147095166 -0.79245845753160149 1.9999999999999998
2 4.5950056890234023 -7.9789970393772016 0.79245845753160149 0.60992589147095166 0.60992589147095166 -0.79245845753160149 1.9999999999999998
1 0 -2 1 0 
2 -6.8500000000000014 -8.899999999999995 -0.79245845753160149 0.60992589147095166 -0.60992589147095166 -0.79245845753160149 1.9999999999999998
2 4.5950056890234023 -7.9789970393772016 0.79245845753160149 0.60992589147095166 0.60992589147095166 -0.79245845753160149 1.9999999999999998
1 5.2650830849367978 10.119851782941907 -0.60992589147095166 -0.79245845753160149 
1 0 0 1 0 
1 -7.5200773959133969 11.040854743564701 0.60992589147095166 -0.79245845753160149 
1 5.2650830849367978 10.119851782941907 -0.60992589147095166 -0.79245845753160149 
1 0 -2 1 0 
1 -7.5200773959133969 11.040854743564701 0.60992589147095166 -0.79245845753160149 
8 -1 1
1 19.207387731456468 -1 0 -1 
8 -1 1
1 1 -1.6987949280605044 -1 0 
1 0 0 0 -1 
1 24 0 0 -1 
1 3.1415926535897931 0 0 -1 
1 0 0 0 -1 
1 3.1415926535897931 0 0 -1 
1 0 0 0 -1 
1 0 0 0 -1 
1 24 0 0 -1 
1 0 0 0 -1 
1 6.2831853071795862 0 0 -1 
1 0 0 0 -1 
1 24 0 0 -1 
1 3.1415926535897931 0 0 -1 
1 0 0 0 -1 
1 3.1415926535897931 0 0 -1 
1 0 0 0 -1 
1 0 0 0 -1 
1 24 0 0 -1 
1 0 0 0 -1 
1 6.2831853071795862 0 0 -1 
1 0 0 0 -1 
1 22.461745257214549 0 0 -1 
1 3.1415926535897931 0 0 -1 
1 0 0 0 -1 
1 0 0 1 0 
2 6.8499999999999996 8.9000000000000021 0.79245845753160149 -0.60992589147095166 0.60992589147095166 0.79245845753160149 1.9999999999999998
2 -9.1049943109765987 9.8210029606227955 -0.79245845753160149 -0.60992589147095166 -0.60992589147095166 0.79245845753160149 1.9999999999999998
1 0 -2 1 0 
2 6.8499999999999996 8.9000000000000021 0.79245845753160149 -0.60992589147095166 0.60992589147095166 0.79245845753160149 1.9999999999999998
2 -9.1049943109765987 9.8210029606227955 -0.79245845753160149 -0.60992589147095166 -0.60992589147095166 0.79245845753160149 1.9999999999999998
1 0 0 0 -1 
1 24 0 0 -1 
1 22.195005689023404 4.1210029606227998 -0.65850460786851817 0.75257669470687794 
1 0 -2 1 0 
1 20.195005689023404 -26.8789970393772 0.064382277997965046 0.99792530896845821 
1 -6.8049943109765962 -24.8789970393772 0.99726775445670901 -0.073871685515311772 
1 -19.804994310976596 -11.8789970393772 0.70710678118654757 -0.70710678118654757 
1 1.1950056890234038 28.1210029606228 -0.99886813772443761 -0.047565149415449412 
1 0 -2 1 0 
1 0 -2 1 0 
2 10.150000000000002 13.399999999999999 0.79713552979444413 -0.60380041995623945 0.60380041995623945 0.79713552979444413 1.9999999999999996
2 -3.2049943109765948 21.521002960622798 -0.79713552979444413 -0.60380041995623945 -0.60380041995623945 0.79713552979444413 1.9999999999999996
1 -8.555728940411111 -14.607600839912479 0.60380041995623945 0.79713552979444413 
1 0 -2 1 0 
1 15.500734629434518 -6.486597879289679 -0.60380041995623945 0.79713552979444413 
1 0 -2 1 0 
2 -10.149999999999995 -13.399999999999999 -0.79713552979444413 0.60380041995623945 -0.60380041995623945 -0.79713552979444413 2.0000000000000031
2 17.095005689023402 -5.2789970393771988 0.79713552979444413 0.60380041995623945 0.60380041995623945 -0.79713552979444413 2.0000000000000031
1 8.5557289404111145 14.607600839912477 -0.60380041995623945 -0.79713552979444413 
1 0 -2 1 0 
1 -1.6107232513877072 22.728603800535275 0.60380041995623945 -0.79713552979444413 
1 0 -2 1 0 
2 -3.5527136788005009e-15 -7.1054273576010019e-15 0 -1 1 0 1.7000000000000028
2 -2.8049943109765962 -21.3789970393772 0 -1 1 0 1.7000000000000028
1 0 -2 1 0 
2 0 -7.1054273576010019e-15 0 -1 1 0 1.7000000000000028
2 6.6950056890234038 -21.3789970393772 0 -1 1 0 1.7000000000000028
1 0 -2 1 0 
2 0 -7.1054273576010019e-15 0 -1 1 0 1.7000000000000028
2 15.695005689023404 -21.3789970393772 0 -1 1 0 1.7000000000000028
1 0 0 0 -1 
1 6.2831853071795862 0 0 -1 
1 0 0 1 0 
2 0 -7.1054273576010019e-15 0 -1 1 0 1.7000000000000028
2 15.695005689023404 -21.3789970393772 0 -1 1 0 1.7000000000000028
1 0 0 0 -1 
1 6.2831853071795862 0 0 -1 
1 0 0 1 0 
2 0 -7.1054273576010019e-15 0 -1 1 0 1.7000000000000028
2 6.6950056890234038 -21.3789970393772 0 -1 1 0 1.7000000000000028
1 0 0 0 -1 
1 6.2831853071795862 0 0 -1 
1 0 0 1 0 
2 -3.5527136788005009e-15 -7.1054273576010019e-15 0 -1 1 0 1.7000000000000028
2 -2.8049943109765962 -21.3789970393772 0 -1 1 0 1.7000000000000028
1 3.1415926535897931 0 0 -1 
1 0 0 0 -1 
1 0 0 0 -1 
1 33.620380723602757 0 0 -1 
1 8.5557289404111145 14.607600839912477 -0.60380041995623945 -0.79713552979444413 
1 0 0 1 0 
1 -1.6107232513877072 22.728603800535275 0.60380041995623945 -0.79713552979444413 
1 3.1415926535897931 0 0 -1 
1 0 0 0 -1 
1 0 0 1 0 
2 -10.149999999999995 -13.399999999999999 -0.79713552979444413 0.60380041995623945 -0.60380041995623945 -0.79713552979444413 2.0000000000000031
2 17.095005689023402 -5.2789970393771988 0.79713552979444413 0.60380041995623945 0.60380041995623945 -0.79713552979444413 2.0000000000000031
1 0 0 0 -1 
1 33.620380723602757 0 0 -1 
1 -8.555728940411111 -14.607600839912479 0.60380041995623945 0.79713552979444413 
1 0 0 1 0 
1 15.500734629434518 -6.486597879289679 -0.60380041995623945 0.79713552979444413 
1 0 0 1 0 
2 10.150000000000002 13.399999999999999 0.79713552979444413 -0.60380041995623945 0.60380041995623945 0.79713552979444413 1.9999999999999996
2 -3.2049943109765948 21.521002960622798 -0.79713552979444413 -0.60380041995623945 -0.60380041995623945 0.79713552979444413 1.9999999999999996
1 31.89043743820395 0 0 -1 
1 0 0 0 -1 
1 0 0 0 -1 
1 21.023796041628639 0 0 -1 
1 1.1950056890234038 28.1210029606228 -0.99886813772443761 -0.047565149415449412 
1 0 0 1 0 
1 39 0 0 -1 
1 -19.804994310976596 -11.8789970393772 0.70710678118654757 -0.70710678118654757 
1 -6.8049943109765962 -24.8789970393772 0.99726775445670901 -0.073871685515311772 
1 0 0 0 -1 
1 20.195005689023404 -26.8789970393772 0.064382277997965046 0.99792530896845821 
1 22.195005689023404 4.1210029606227998 -0.65850460786851817 0.75257669470687794 
1 0 0 1 0 
8 0.93949851968859832 2.9394985196885983
1 4.1950056890234038 -2.9394985196886019 0 -1 
8 0.93949851968859832 2.9394985196885983
1 31.999999999999996 -2.9394985196885983 0 1 
8 0.93949851968859832 2.9394985196885983
1 4.1950056890234038 -2.9394985196886019 0 -1 
8 0.93949851968859832 2.9394985196885983
1 2 -2.9394985196885983 0 1 
1 -19.804994310976596 27.1210029606228 0 -1 
1 0 0 1 0 
1 -19.804994310976596 27.1210029606228 0 -1 
1 0 -2 1 0 
1 39 0 0 -1 
1 0 0 0 -1 
1 21.023796041628639 0 0 -1 
1 31.89043743820395 0 0 -1 
1 0 0 0 -1 
1 1.1950056890234038 28.1210029606228 -0.99886813772443761 -0.047565149415449412 
1 0 0 1 0 
1 1.1950056890234038 28.1210029606228 -0.99886813772443761 -0.047565149415449412 
1 0 -2 1 0 
1 0 0 0 -1 
1 22.195005689023404 4.1210029606227998 -0.65850460786851817 0.75257669470687794 
1 0 0 1 0 
1 22.195005689023404 4.1210029606227998 -0.65850460786851817 0.75257669470687794 
1 0 -2 1 0 
1 20.195005689023404 -26.8789970393772 0.064382277997965046 0.99792530896845821 
1 20.195005689023404 -26.8789970393772 0.064382277997965046 0.99792530896845821 
1 -6.8049943109765962 -24.8789970393772 0.99726775445670901 -0.073871685515311772 
1 -6.8049943109765962 -24.8789970393772 0.99726775445670901 -0.073871685515311772 
1 -19.804994310976596 -11.8789970393772 0.70710678118654757 -0.70710678118654757 
1 0 0 1 0 
2 -3.5527136788005009e-15 -7.1054273576010019e-15 0 -1 1 0 1.7000000000000028
2 -1.2721114280937122 -20.52494298532314 0 -1 1 0 1.7000000000000028
1 0 0 1 0 
2 0 0 0 -1 1 0 1.7000000000000028
2 8.1774381214558325 -20.436654697034857 0 -1 1 0 1.7000000000000028
1 0 0 1 0 
2 7.1054273576010019e-15 0 0 -1 1 0 1.7000000000000028
2 17.375636319654035 -20.306024066404223 0 -1 1 0 1.7000000000000028
1 0 0 1 0 
2 0 -3.5527136788005009e-15 0 -1 1 0 0.85000000000000142
2 14.15311379713151 0.075507465127305551 0 -1 1 0 0.85000000000000142
1 0 0 1 0 
2 0 0 0 -1 1 0 0.85000000000000142
2 15.511672355690074 -1.8335015438817024 0 -1 1 0 0.85000000000000142
1 0 0 1 0 
2 7.1054273576010019e-15 0 0 -1 1 0 0.85000000000000142
2 16.817978661996378 -3.6690871294672895 0 -1 1 0 0.85000000000000142
1 0 0 1 0 
2 0 0 0 -1 1 0 4.5
2 5.8932038872216026 9.3507326903525296 0 -1 1 0 4.5
1 0 0 1 0 
2 -3.5527136788005009e-15 1.7763568394002505e-15 0 -1 1 0 0.84999999999999964
2 -0.98697629295857681 16.842624582244419 0 -1 1 0 0.84999999999999964
1 0 0 1 0 
2 1.7763568394002505e-15 8.8817841970012523e-16 0 -1 1 0 0.84999999999999964
2 -4.95814746412975 22.422804762424601 0 -1 1 0 0.84999999999999964
1 0 0 1 0 
2 0 0 0 -1 1 0 0.84999999999999964
2 -3.6518411578234442 20.587219176839014 0 -1 1 0 0.84999999999999964
1 0 0 1 0 
2 0 0 0 -1 1 0 0.84999999999999964
2 -2.2932825992648844 18.678210167830006 0 -1 1 0 0.84999999999999964
1 0 0 1 0 
2 0 3.5527136788005009e-15 0 -1 1 0 0.85000000000000142
2 12.846807490825206 1.9110930507128892 0 -1 1 0 0.85000000000000142
1 0 0 0 -1 
1 6.2831853071795862 0 0 -1 
1 0 -2 1 0 
2 0 3.5527136788005009e-15 0 -1 1 0 0.85000000000000142
2 12.846807490825206 1.9110930507128892 0 -1 1 0 0.85000000000000142
1 0 0 0 -1 
1 6.2831853071795862 0 0 -1 
1 0 -2 1 0 
2 0 0 0 -1 1 0 0.84999999999999964
2 -2.2932825992648844 18.678210167830006 0 -1 1 0 0.84999999999999964
1 0 0 0 -1 
1 6.2831853071795862 0 0 -1 
1 0 -2 1 0 
2 0 0 0 -1 1 0 0.84999999999999964
2 -3.6518411578234442 20.587219176839014 0 -1 1 0 0.84999999999999964
1 0 0 0 -1 
1 6.2831853071795862 0 0 -1 
1 0 -2 1 0 
2 1.7763568394002505e-15 8.8817841970012523e-16 0 -1 1 0 0.84999999999999964
2 -4.95814746412975 22.422804762424601 0 -1 1 0 0.84999999999999964
1 0 0 0 -1 
1 6.2831853071795862 0 0 -1 
1 0 -2 1 0 
2 -3.5527136788005009e-15 1.7763568394002505e-15 0 -1 1 0 0.84999999999999964
2 -0.98697629295857681 16.842624582244419 0 -1 1 0 0.84999999999999964
1 0 0 0 -1 
1 6.2831853071795862 0 0 -1 
1 0 -2 1 0 
2 0 0 0 -1 1 0 4.5
2 5.8932038872216026 9.3507326903525296 0 -1 1 0 4.5
1 0 0 0 -1 
1 6.2831853071795862 0 0 -1 
1 0 -2 1 0 
2 7.1054273576010019e-15 0 0 -1 1 0 0.85000000000000142
2 16.817978661996378 -3.6690871294672895 0 -1 1 0 0.85000000000000142
1 0 0 0 -1 
1 6.2831853071795862 0 0 -1 
1 0 -2 1 0 
2 0 0 0 -1 1 0 0.85000000000000142
2 15.511672355690074 -1.8335015438817024 0 -1 1 0 0.85000000000000142
1 0 0 0 -1 
1 6.2831853071795862 0 0 -1 
1 0 -2 1 0 
2 0 -3.5527136788005009e-15 0 -1 1 0 0.85000000000000142
2 14.15311379713151 0.075507465127305551 0 -1 1 0 0.85000000000000142
1 0 0 0 -1 
1 6.2831853071795862 0 0 -1 
1 0 -2 1 0 
2 7.1054273576010019e-15 0 0 -1 1 0 1.7000000000000028
2 17.375636319654035 -20.306024066404223 0 -1 1 0 1.7000000000000028
1 0 0 0 -1 
1 6.2831853071795862 0 0 -1 
1 0 -2 1 0 
2 0 0 0 -1 1 0 1.7000000000000028
2 8.1774381214558325 -20.436654697034857 0 -1 1 0 1.7000000000000028
1 0 0 0 -1 
1 6.2831853071795862 0 0 -1 
1 0 -2 1 0 
2 -3.5527136788005009e-15 -7.1054273576010019e-15 0 -1 1 0 1.7000000000000028
2 -1.2721114280937122 -20.52494298532314 0 -1 1 0 1.7000000000000028
1 -19.804994310976596 -11.8789970393772 0.70710678118654757 -0.70710678118654757 
Curves 227
1 -15 0 0 0 0 1 
1 15 0 0 0 0 1 
1 -15 0 0 1 0 0 
1 -15 0 2 1 0 0 
1 0 31 2 1 0 0 
8 0 31
1 -15 0 2 1.1460366705808067e-16 1 0 
8 0 31
1 15 31 2 0 -1 0 
2 -12.724137931034484 6.7586206896551726 2 0 0 1 1 0 0 0 1 0 1.25
1 -12.379310344827587 8.2758620689655178 2 0 1 0 
1 -12.379310344827587 11.724137931034482 2 1 0 0 
1 -8.931034482758621 11.724137931034482 2 0 -1 0 
1 -8.931034482758621 8.2758620689655178 2 -1 0 0 
2 -0.1724137931034484 6.7586206896551726 2 0 0 1 1 0 0 0 1 0 1.25
2 -12.724137931034484 27.931034482758619 2 0 0 1 1 0 0 0 1 0 1.25
2 -9.4827586206896548 27.793103448275861 2 0 -0 -1 3.7007434154171886e-16 -1 0 -1 -3.7007434154171886e-16 0 1.2
1 -9.4827586206896548 28.993103448275861 2 1 0 0 
2 -3.7586206896551722 27.793103448275861 2 0 0 -1 -3.7007434154171886e-16 1 0 1 3.7007434154171886e-16 0 1.2
1 -3.7586206896551726 26.593103448275862 2 -1 0 0 
1 -14.724137931034482 12.551724137931034 2 0 1 0 
1 -14.724137931034482 21.931034482758619 2 1 0 0 
1 -12.241379310344827 21.931034482758619 2 0 1 0 
1 -12.241379310344827 23.586206896551722 2 1 0 0 
1 -7.137931034482758 23.586206896551722 2 0 -1 0 
1 -7.137931034482758 21.931034482758619 2 1 0 0 
1 4.4482758620689644 21.931034482758619 2 0 -1 0 
1 4.4482758620689644 12.551724137931034 2 -1 0 0 
2 -0.10344827586206762 27.862068965517242 2 0 0 1 1 0 0 0 1 0 1.25
1 1.1465517241379324 27.862068965517242 0 0 0 1 
2 -0.10344827586206762 27.862068965517242 0 0 0 1 1 0 0 0 1 0 1.25
1 4.4482758620689644 12.551724137931034 0 0 0 1 
1 -14.724137931034482 12.551724137931034 0 0 0 1 
1 4.4482758620689644 12.551724137931034 0 -1 0 0 
1 4.4482758620689644 21.931034482758619 0 0 0 1 
1 4.4482758620689644 21.931034482758619 0 0 -1 0 
1 -7.137931034482758 21.931034482758619 0 0 0 1 
1 -7.137931034482758 21.931034482758619 0 1 0 0 
1 -7.137931034482758 23.586206896551722 0 0 0 1 
1 -7.137931034482758 23.586206896551722 0 0 -1 0 
1 -12.241379310344827 23.586206896551722 0 0 0 1 
1 -12.241379310344827 23.586206896551722 0 1 0 0 
1 -12.241379310344827 21.931034482758619 0 0 0 1 
1 -12.241379310344827 21.931034482758619 0 0 1 0 
1 -14.724137931034482 21.931034482758619 0 0 0 1 
1 -14.724137931034482 21.931034482758619 0 1 0 0 
1 -14.724137931034482 12.551724137931034 0 0 1 0 
1 -3.7586206896551726 26.593103448275862 0 0 0 1 
1 -9.4827586206896548 26.593103448275862 0 0 0 1 
1 -3.7586206896551726 26.593103448275862 0 -1 0 0 
1 -3.7586206896551726 28.993103448275861 0 0 0 1 
2 -3.7586206896551722 27.793103448275861 0 0 0 -1 -3.7007434154171886e-16 1 0 1 3.7007434154171886e-16 0 1.2
1 -9.4827586206896548 28.993103448275861 0 0 0 1 
1 -9.4827586206896548 28.993103448275861 0 1 0 0 
2 -9.4827586206896548 27.793103448275861 0 0 -0 -1 3.7007434154171886e-16 -1 0 -1 -3.7007434154171886e-16 0 1.2
1 -11.474137931034484 27.931034482758619 0 0 0 1 
2 -12.724137931034484 27.931034482758619 0 0 0 1 1 0 0 0 1 0 1.25
1 1.0775862068965516 6.7586206896551726 0 0 0 1 
2 -0.1724137931034484 6.7586206896551726 0 0 0 1 1 0 0 0 1 0 1.25
1 -8.931034482758621 8.2758620689655178 0 0 0 1 
1 -12.379310344827587 8.2758620689655178 0 0 0 1 
1 -8.931034482758621 8.2758620689655178 0 -1 0 0 
1 -8.931034482758621 11.724137931034482 0 0 0 1 
1 -8.931034482758621 11.724137931034482 0 0 -1 0 
1 -12.379310344827587 11.724137931034482 0 0 0 1 
1 -12.379310344827587 11.724137931034482 0 1 0 0 
1 -12.379310344827587 8.2758620689655178 0 0 1 0 
1 -11.474137931034484 6.7586206896551726 0 0 0 1 
2 -12.724137931034484 6.7586206896551726 0 0 0 1 1 0 0 0 1 0 1.25
1 17 31 24 -1 0 0 
1 15 31 15.902497155488298 0 0 -1 
1 7.5 31 23.768173624406128 1 0 -0 
1 17 31 0 0 0 1 
1 7.5 31 18.720590420537683 -1 0 0 
1 -14.999999999999996 31 15.902497155488298 0 0 -1 
2 -12 31 12 0 -1 0 1 0 0 0 0 1 1.5
2 -12 31 18 0 1 0 0 0 -1 -1 0 -0 1.5
1 12 31 16.5 -1 0 0 
1 -12 31 19.5 1 0 0 
2 12 31 18 0 1 0 0 0 1 1 0 0 1.5
2 0 31 12 0 -1 0 1 0 0 0 0 1 1.5
2 -12 31 6 0 1 0 0 0 -1 -1 0 -0 1.5
1 12 31 4.5 -1 0 0 
1 -12 31 7.5 1 0 0 
2 12 31 6 0 1 0 0 0 1 1 0 0 1.5
2 12 31 12 0 -1 0 1 0 0 0 0 1 1.5
1 13.5 33 12 0 -1 0 
2 12 33 12 0 -1 0 1 0 0 0 0 1 1.5
1 17 33 24 -1 0 0 
1 17 33 0 0 0 1 
1 7.5 33 20.259916263234313 -1 0 0 
1 15 33 15.902497155488298 0 0 -1 
1 0 33 2 1 0 0 
1 -14.999999999999996 33 15.902497155488298 0 0 -1 
2 -12 33 12 0 -1 0 1 0 0 0 0 1 1.5
2 -12 33 18 0 1 0 0 0 -1 -1 0 -0 1.5
1 12 33 16.5 -1 0 0 
1 -12 33 19.5 1 0 0 
2 12 33 18 0 1 0 0 0 1 1 0 0 1.5
2 0 33 12 0 -1 0 1 0 0 0 0 1 1.5
2 -12 33 6 0 1 0 0 0 -1 -1 0 -0 1.5
1 12 33 4.5 -1 0 0 
1 -12 33 7.5 1 0 0 
2 12 33 6 0 1 0 0 0 1 1 0 0 1.5
1 -14.999999999999996 22.324994233934589 2 0 1 0 
1 17 35 2 -1 0 0 
1 15 22.324994233934589 2 0 1 0 
1 17 35 0 -1 0 0 
1 -14.999999999999996 35 9.9024971554882981 -0 0 1 
1 15 35 9.9024971554882981 -0 0 1 
1 15 36.31985178294191 22.815083084936795 0 -0.79245845753160149 -0.60992589147095166 
1 17 36.31985178294191 22.815083084936795 0 -0.79245845753160149 -0.60992589147095166 
1 15 36.31985178294191 22.815083084936795 1 0 0 
1 15 33.8801482170581 25.984916915063202 1 0 0 
2 15 35.100000000000001 24.399999999999999 -1 0 0 0 -0.60992589147095166 0.79245845753160149 0 0.79245845753160149 0.60992589147095166 2
2 17 35.100000000000001 24.399999999999999 -1 0 0 0 -0.60992589147095166 0.79245845753160149 0 0.79245845753160149 0.60992589147095166 2
1 15 16.080148217058099 12.284916915063199 0 0.79245845753160149 0.60992589147095166 
1 17 16.080148217058099 12.284916915063199 0 0.79245845753160149 0.60992589147095166 
1 16 31.301205071939496 24.000000000000004 1 0 -0 
1 12 33 7.5 0 -1 0 
1 12 33 4.5 0 -1 0 
1 -12 33 7.5 0 -1 0 
1 -12 33 4.5 0 -1 0 
1 1.5 33 12 0 -1 0 
1 12 33 19.5 0 -1 0 
1 12 33 16.5 0 -1 0 
1 -12 33 19.5 0 -1 0 
1 -12 33 16.5 0 -1 0 
1 -10.5 33 12 0 -1 0 
1 15 18.519851782941906 9.1150830849367939 1 0 0 
1 15 16.080148217058099 12.284916915063199 1 0 0 
2 15 17.300000000000004 10.699999999999998 -1 0 -0 0 0.60992589147095166 -0.79245845753160149 0 -0.79245845753160149 -0.60992589147095166 2
2 17 17.300000000000004 10.699999999999998 -1 0 -0 0 0.60992589147095166 -0.79245845753160149 0 -0.79245845753160149 -0.60992589147095166 2
1 17 33 24 0 -1 0 
1 17 23 42 0 -0.75257669470687782 -0.65850460786851805 
1 17 54 40 0 -0.99792530896845821 0.064382277997965046 
1 17 52 13 0 0.073871685515311772 0.99726775445670901 
1 17 39 0 0 0.70710678118654757 0.70710678118654757 
8 0 39
1 17 39 0 0 -1 0 
1 17 -1 21 0 0.047565149415449405 -0.9988681377244375 
2 17 5.6000000000000014 16.600000000000001 -1 0 -0 0 0.60380041995623945 -0.79713552979444413 0 -0.79713552979444413 -0.60380041995623945 2
1 17 33.607600839912479 35.305728940411115 0 -0.79713552979444413 -0.60380041995623945 
2 17 32.399999999999999 36.899999999999999 -1 0 0 0 -0.60380041995623945 0.79713552979444413 0 0.79713552979444413 0.60380041995623945 2
1 17 4.392399160087523 18.194271059588889 0 0.79713552979444413 0.60380041995623945 
2 17 48.5 17 1 0 0 0 1 0 0 0 1 1.7
2 17 48.5 26.5 1 0 0 0 1 0 0 0 1 1.7
2 17 48.5 35.5 1 0 0 0 1 0 0 0 1 1.7
1 15 50.200000000000003 35.5 1 0 0 
2 15 48.5 35.5 1 0 0 0 1 0 0 0 1 1.7
1 15 50.200000000000003 26.5 1 0 0 
2 15 48.5 26.5 1 0 0 0 1 0 0 0 1 1.7
1 15 50.200000000000003 17 1 0 0 
2 15 48.5 17 1 0 0 0 1 0 0 0 1 1.7
1 15 4.392399160087523 18.194271059588889 1 0 0 
1 15 31.192399160087518 38.49427105958889 1 0 0 
1 15 4.392399160087523 18.194271059588889 0 0.79713552979444413 0.60380041995623945 
1 15 33.607600839912479 35.305728940411115 1 0 0 
2 15 32.399999999999999 36.899999999999999 -1 0 0 0 -0.60380041995623945 0.79713552979444413 0 0.79713552979444413 0.60380041995623945 2
1 15 6.8076008399124799 15.005728940411112 1 0 0 
1 15 33.607600839912479 35.305728940411115 0 -0.79713552979444413 -0.60380041995623945 
2 15 5.6000000000000014 16.600000000000001 -1 0 -0 0 0.60380041995623945 -0.79713552979444413 0 -0.79713552979444413 -0.60380041995623945 2
1 15 -1 21 1 0 0 
1 15 0 0 1 0 0 
1 15 -1 21 0 0.047565149415449405 -0.9988681377244375 
1 15 39 0 1 0 0 
1 15 52 13 1 0 0 
1 15 39 0 0 0.70710678118654757 0.70710678118654757 
1 15 54 40 1 0 0 
1 15 52 13 0 0.073871685515311772 0.99726775445670901 
1 15 23 42 1 0 0 
1 15 54 40 0 -0.99792530896845821 0.064382277997965046 
1 15 23 42 0 -0.75257669470687782 -0.65850460786851805 
1 -14.999999999999996 30.060501480311402 24 0 1 0 
1 15 30.060501480311402 24 0 1 0 
1 15 0 0 0 1 0 
1 -15 0 0 0 1 0 
1 -17 39 0 1 0 0 
8 0 39
1 -17 0 0 0 1 0 
1 -17 0 0 1 0 0 
1 -17 -1 21 1 0 0 
1 -17 -1 21 0 0.047565149415449405 -0.9988681377244375 
1 -15 -1 21 0 0.047565149415449405 -0.9988681377244375 
1 -17 23 42 1 0 0 
1 -17 23 42 0 -0.75257669470687782 -0.65850460786851805 
1 -15 23 42 0 -0.75257669470687782 -0.65850460786851805 
1 -17 54 40 1 0 0 
1 -17 54 40 0 -0.99792530896845821 0.064382277997965046 
1 -15 54 40 0 -0.99792530896845821 0.064382277997965046 
1 -17 52 13 1 0 0 
1 -17 52 13 0 0.073871685515311772 0.99726775445670901 
1 -15 52 13 0 0.073871685515311772 0.99726775445670901 
1 -17 39 0 0 0.70710678118654757 0.70710678118654757 
2 -17 47.64594594594594 18.532882882882884 1 0 0 0 1 0 0 0 1 1.7
2 -17 47.557657657657657 27.982432432432429 1 0 0 0 1 0 0 0 1 1.7
2 -17 47.427027027027023 37.180630630630631 1 0 0 0 1 0 0 0 1 1.7
2 -17 27.045495495495494 33.958108108108107 1 0 0 0 1 0 0 0 1 0.84999999999999998
2 -17 28.954504504504502 35.31666666666667 1 0 0 0 1 0 0 0 1 0.84999999999999998
2 -17 30.790090090090089 36.622972972972974 1 0 0 0 1 0 0 0 1 0.84999999999999998
2 -17 17.77027027027027 25.698198198198199 1 0 0 0 1 0 0 0 1 4.5
2 -17 10.278378378378379 18.818018018018019 1 0 0 0 1 0 0 0 1 0.84999999999999998
2 -17 4.6981981981981988 14.846846846846846 1 0 0 0 1 0 0 0 1 0.84999999999999998
2 -17 6.5337837837837842 16.153153153153152 1 0 0 0 1 0 0 0 1 0.84999999999999998
2 -17 8.4427927927927939 17.511711711711712 1 0 0 0 1 0 0 0 1 0.84999999999999998
2 -17 25.209909909909911 32.651801801801803 1 0 0 0 1 0 0 0 1 0.84999999999999998
1 -17 26.059909909909912 32.651801801801803 1 0 0 
2 -15 25.209909909909911 32.651801801801803 1 0 0 0 1 0 0 0 1 0.84999999999999998
1 -17 9.2927927927927936 17.511711711711712 1 0 0 
2 -15 8.4427927927927939 17.511711711711712 1 0 0 0 1 0 0 0 1 0.84999999999999998
1 -17 7.3837837837837839 16.153153153153152 1 0 0 
2 -15 6.5337837837837842 16.153153153153152 1 0 0 0 1 0 0 0 1 0.84999999999999998
1 -17 5.5481981981981985 14.846846846846846 1 0 0 
2 -15 4.6981981981981988 14.846846846846846 1 0 0 0 1 0 0 0 1 0.84999999999999998
1 -17 11.128378378378379 18.818018018018019 1 0 0 
2 -15 10.278378378378379 18.818018018018019 1 0 0 0 1 0 0 0 1 0.84999999999999998
1 -17 22.27027027027027 25.698198198198199 1 0 0 
2 -15 17.77027027027027 25.698198198198199 1 0 0 0 1 0 0 0 1 4.5
1 -17 31.640090090090091 36.622972972972974 1 0 0 
2 -15 30.790090090090089 36.622972972972974 1 0 0 0 1 0 0 0 1 0.84999999999999998
1 -17 29.804504504504504 35.31666666666667 1 0 0 
2 -15 28.954504504504502 35.31666666666667 1 0 0 0 1 0 0 0 1 0.84999999999999998
1 -17 27.895495495495496 33.958108108108107 1 0 0 
2 -15 27.045495495495494 33.958108108108107 1 0 0 0 1 0 0 0 1 0.84999999999999998
1 -17 49.127027027027026 37.180630630630631 1 0 0 
2 -15 47.427027027027023 37.180630630630631 1 0 0 0 1 0 0 0 1 1.7
1 -17 49.25765765765766 27.982432432432429 1 0 0 
2 -15 47.557657657657657 27.982432432432429 1 0 0 0 1 0 0 0 1 1.7
1 -17 49.345945945945942 18.532882882882884 1 0 0 
2 -15 47.64594594594594 18.532882882882884 1 0 0 0 1 0 0 0 1 1.7
1 -15 39 0 0 0.70710678118654757 0.70710678118654757 
Polygon3D 0
PolygonOnTriangulations 0
Surfaces 141
1 -15 0 0 0 1 0 1 0 0 0 0 -1 
1 -15 1 0 1 0 -0 0 -1 0 0 -0 -1 
1 -14.999999999999996 27.1210029606228 19.804994310976596 1 0 0 -0 0 1 0 -1 0 
1 15 0 0 -1 0 0 0 1 0 0 0 -1 
1 15 27.1210029606228 19.804994310976596 1 0 0 -0 0 1 0 -1 0 
1 0 17.528985507246375 0 0 0 1 1 0 -0 -0 1 0 
1 0 17.528985507246375 2 0 0 1 1 0 -0 -0 1 0 
1 0 31 12 -0 -1 -0 0 0 -1 1 -0 0 
2 -12.724137931034484 6.7586206896551726 0 -0 -0 -1 1 0 0 0 1 0 1.25
1 -12.724137931034482 6.7586206896551717 2 0 0 1 1 0 -0 -0 1 0 
1 -10.655172413793105 10 2 -0 -0 -1 -1 0 0 0 1 -0 
1 -12.379310344827587 8.2758620689655178 0 -1 0 0 0 1 0 0 0 -1 
1 -12.379310344827587 11.724137931034482 0 0 1 0 1 0 0 0 0 -1 
1 -8.931034482758621 11.724137931034482 0 1 0 -0 0 -1 0 0 -0 -1 
1 -8.931034482758621 8.2758620689655178 0 0 -1 0 -1 0 0 -0 -0 -1 
2 -0.1724137931034484 6.7586206896551726 0 -0 -0 -1 1 0 0 0 1 0 1.25
1 -0.1724137931034484 6.7586206896551717 2 0 0 1 1 0 -0 -0 1 0 
2 -12.724137931034484 27.931034482758619 0 -0 -0 -1 1 0 0 0 1 0 1.25
1 -12.724137931034486 27.931034482758619 2 0 0 1 1 0 -0 -0 1 0 
2 -9.4827586206896548 27.793103448275861 0 0 -0 -1 3.7007434154171886e-16 -1 0 -1 -3.7007434154171886e-16 0 1.2
1 -6.6206896551724155 27.793103448275861 2 -0 -0 -1 -1 0 0 0 1 -0 
1 -9.4827586206896548 28.993103448275861 0 0 1 0 1 0 0 0 0 -1 
2 -3.7586206896551722 27.793103448275861 0 0 0 -1 -3.7007434154171886e-16 1 0 1 3.7007434154171886e-16 0 1.2
1 -3.7586206896551726 26.593103448275862 0 0 -1 0 -1 0 0 -0 -0 -1 
1 -5.3873405762871984 17.68351440717997 2 -0 -0 -1 -1 0 0 0 1 -0 
1 -14.724137931034482 12.551724137931034 0 -1 0 0 0 1 0 0 0 -1 
1 -14.724137931034482 21.931034482758619 0 0 1 0 1 0 0 0 0 -1 
1 -12.241379310344827 21.931034482758619 0 -1 0 0 0 1 0 0 0 -1 
1 -12.241379310344827 23.586206896551722 0 0 1 0 1 0 0 0 0 -1 
1 -7.137931034482758 23.586206896551722 0 1 0 -0 0 -1 0 0 -0 -1 
1 -7.137931034482758 21.931034482758619 0 0 1 0 1 0 0 0 0 -1 
1 4.4482758620689644 21.931034482758619 0 1 0 -0 0 -1 0 0 -0 -1 
1 4.4482758620689644 12.551724137931034 0 0 -1 0 -1 0 0 -0 -0 -1 
2 -0.10344827586206762 27.862068965517242 0 -0 -0 -1 1 0 0 0 1 0 1.25
1 -0.10344827586206792 27.862068965517246 2 0 0 1 1 0 -0 -0 1 0 
1 -0.10344827586206792 27.862068965517246 0 0 0 1 1 0 -0 -0 1 0 
1 -5.3873405762871984 17.68351440717997 0 -0 -0 -1 -1 0 0 0 1 -0 
1 -6.6206896551724155 27.793103448275861 0 -0 -0 -1 -1 0 0 0 1 -0 
1 -12.724137931034486 27.931034482758619 0 0 0 1 1 0 -0 -0 1 0 
1 -0.1724137931034484 6.7586206896551717 0 0 0 1 1 0 -0 -0 1 0 
1 -10.655172413793105 10 0 -0 -0 -1 -1 0 0 0 1 -0 
1 -12.724137931034482 6.7586206896551717 0 0 0 1 1 0 -0 -0 1 0 
1 17 33 24 -0 -0 -1 -1 0 0 0 1 -0 
1 15 16.080148217058099 12.284916915063199 0 -0.60992589147095166 0.79245845753160149 0 0.79245845753160149 0.60992589147095166 -1 0 0 
1 17 33 0 -1 0 0 0 0 1 0 1 -0 
1 15 36.31985178294191 22.815083084936795 0 0.60992589147095166 -0.79245845753160149 0 -0.79245845753160149 -0.60992589147095166 -1 0 -0 
2 -12 33 12 -0 1 -0 1 0 0 0 0 1 1.5
1 -12 31 12 -0 -1 -0 0 0 -1 1 -0 0 
2 -12 33 18 0 1 0 0 0 -1 -1 0 -0 1.5
1 0 31 18 0 1 0 0 -0 1 1 0 -0 
1 12 33 16.5 -0 -0 -1 -1 0 0 0 1 -0 
1 -12 33 19.5 -0 0 1 1 0 0 0 1 -0 
2 12 33 18 0 1 0 0 0 1 1 0 0 1.5
2 0 33 12 -0 1 -0 1 0 0 0 0 1 1.5
1 -8.5465008283713956e-17 31.000000000000007 12 -0 -1 -0 0 0 -1 1 -0 0 
2 -12 33 6 0 1 0 0 0 -1 -1 0 -0 1.5
1 0 31 6 0 1 0 0 -0 1 1 0 -0 
1 12 33 4.5 -0 -0 -1 -1 0 0 0 1 -0 
1 -12 33 7.5 -0 0 1 1 0 0 0 1 -0 
2 12 33 6 0 1 0 0 0 1 1 0 0 1.5
2 12 33 12 -0 1 -0 1 0 0 0 0 1 1.5
1 12 31 12 -0 -1 -0 0 0 -1 1 -0 0 
1 12 33 12 -0 -1 -0 0 0 -1 1 -0 0 
1 0 33 12 -0 -1 -0 0 0 -1 1 -0 0 
1 -12 33 12 -0 -1 -0 0 0 -1 1 -0 0 
1 0 33 18 0 1 0 0 -0 1 1 0 -0 
1 -8.5465008283713956e-17 33.000000000000007 12 -0 -1 -0 0 0 -1 1 -0 0 
1 0 33 6 0 1 0 0 -0 1 1 0 -0 
1 17 35 0 0 -1 0 -1 0 0 -0 -0 -1 
1 15.000000000000002 26.200000000000006 17.549999999999997 -1 -0 -0 0 0 -1 0 -1 0 
1 17 26.200000000000006 17.549999999999997 -1 -0 -0 0 0 -1 0 -1 0 
1 17 27.1210029606228 19.804994310976596 1 0 0 -0 0 1 0 -1 0 
2 15 35.100000000000001 24.399999999999999 -1 0 0 0 -0.60992589147095166 0.79245845753160149 0 0.79245845753160149 0.60992589147095166 2
2 15 17.300000000000004 10.699999999999998 -1 0 -0 0 0.60992589147095166 -0.79245845753160149 0 -0.79245845753160149 -0.60992589147095166 2
1 17 33 0 -1 0 0 0 0 1 0 1 -0 
1 15 23 42 0 0.65850460786851817 -0.75257669470687794 0 -0.75257669470687794 -0.65850460786851817 -1 0 -0 
1 15 -1 21 -0 0.99886813772443761 0.047565149415449412 0 0.047565149415449412 -0.99886813772443761 -1 0 -0 
2 15 5.6000000000000014 16.600000000000001 -1 0 -0 0 0.60380041995623945 -0.79713552979444413 0 -0.79713552979444413 -0.60380041995623945 2
1 17 19 26.750000000000004 -1 -0 -0 0 0 -1 0 -1 0 
1 15 33.607600839912479 35.305728940411115 0 0.60380041995623945 -0.79713552979444413 0 -0.79713552979444402 -0.60380041995623934 -1 0 -0 
2 15 32.399999999999999 36.899999999999999 -1 0 0 0 -0.60380041995623945 0.79713552979444413 0 0.79713552979444413 0.60380041995623945 2
1 15 4.392399160087523 18.194271059588889 0 -0.60380041995623945 0.79713552979444413 0 0.79713552979444402 0.60380041995623934 -1 0 0 
2 15 48.5 17 -1 -0 -0 0 1 0 0 0 1 1.7
1 17 48.499999999999993 17.000000000000004 1 0 0 -0 0 1 0 -1 0 
2 15 48.5 26.5 -1 -0 -0 0 1 0 0 0 1 1.7
1 17 48.499999999999993 26.5 1 0 0 -0 0 1 0 -1 0 
2 15 48.5 35.5 -1 -0 -0 0 1 0 0 0 1 1.7
1 17 48.499999999999993 35.5 1 0 0 -0 0 1 0 -1 0 
1 15.000000000000002 48.499999999999993 35.5 1 0 0 -0 0 1 0 -1 0 
1 15.000000000000002 48.499999999999993 26.5 1 0 0 -0 0 1 0 -1 0 
1 15.000000000000002 48.499999999999993 17.000000000000004 1 0 0 -0 0 1 0 -1 0 
1 15.000000000000002 19 26.750000000000004 -1 -0 -0 0 0 -1 0 -1 0 
1 15 0 0 0 0 1 0 1 0 -1 0 0 
1 15 39 0 0 -0.70710678118654757 0.70710678118654757 0 0.70710678118654757 0.70710678118654757 -1 0 0 
1 15 52 13 0 -0.99726775445670901 0.073871685515311772 0 0.073871685515311772 0.99726775445670901 -1 0 0 
1 15 54 40 0 -0.064382277997965046 -0.99792530896845821 0 -0.99792530896845821 0.064382277997965046 -1 -0 0 
1 0 17.528985507246375 0 0 0 1 1 0 -0 -0 1 0 
1 -17 0 0 0 0 1 0 1 0 -1 0 0 
1 -17 -1 21 -0 0.99886813772443761 0.047565149415449412 0 0.047565149415449412 -0.99886813772443761 -1 0 -0 
1 -17 23 42 0 0.65850460786851817 -0.75257669470687794 0 -0.75257669470687794 -0.65850460786851817 -1 0 -0 
1 -16.999999999999996 27.1210029606228 19.804994310976596 1 0 0 -0 0 1 0 -1 0 
1 -17 54 40 0 -0.064382277997965046 -0.99792530896845821 0 -0.99792530896845821 0.064382277997965046 -1 -0 0 
1 -17 52 13 0 -0.99726775445670901 0.073871685515311772 0 0.073871685515311772 0.99726775445670901 -1 0 0 
1 -16.999999999999996 27.1210029606228 19.804994310976596 1 0 0 -0 0 1 0 -1 0 
2 -17 47.64594594594594 18.532882882882884 -1 -0 -0 0 1 0 0 0 1 1.7
1 -17 47.645945945945932 18.532882882882888 1 0 0 -0 0 1 0 -1 0 
2 -17 47.557657657657657 27.982432432432429 -1 -0 -0 0 1 0 0 0 1 1.7
1 -17 47.557657657657657 27.982432432432429 1 0 0 -0 0 1 0 -1 0 
2 -17 47.427027027027023 37.180630630630631 -1 -0 -0 0 1 0 0 0 1 1.7
1 -17 47.427027027027023 37.180630630630624 1 0 0 -0 0 1 0 -1 0 
2 -17 27.045495495495494 33.958108108108107 -1 -0 -0 0 1 0 0 0 1 0.84999999999999998
1 -17 27.045495495495491 33.958108108108107 1 0 0 -0 0 1 0 -1 0 
2 -17 28.954504504504502 35.31666666666667 -1 -0 -0 0 1 0 0 0 1 0.84999999999999998
1 -17 28.954504504504502 35.31666666666667 1 0 0 -0 0 1 0 -1 0 
2 -17 30.790090090090089 36.622972972972974 -1 -0 -0 0 1 0 0 0 1 0.84999999999999998
1 -17 30.790090090090089 36.622972972972967 1 0 0 -0 0 1 0 -1 0 
2 -17 17.77027027027027 25.698198198198199 -1 -0 -0 0 1 0 0 0 1 4.5
1 -17 17.77027027027027 25.698198198198199 1 0 0 -0 0 1 0 -1 0 
2 -17 10.278378378378379 18.818018018018019 -1 -0 -0 0 1 0 0 0 1 0.84999999999999998
1 -17 10.278378378378381 18.818018018018023 1 0 0 -0 0 1 0 -1 0 
2 -17 4.6981981981981988 14.846846846846846 -1 -0 -0 0 1 0 0 0 1 0.84999999999999998
1 -17 4.6981981981981997 14.846846846846844 1 0 0 -0 0 1 0 -1 0 
2 -17 6.5337837837837842 16.153153153153152 -1 -0 -0 0 1 0 0 0 1 0.84999999999999998
1 -17 6.5337837837837842 16.153153153153152 1 0 0 -0 0 1 0 -1 0 
2 -17 8.4427927927927939 17.511711711711712 -1 -0 -0 0 1 0 0 0 1 0.84999999999999998
1 -17 8.4427927927927939 17.511711711711712 1 0 0 -0 0 1 0 -1 0 
2 -17 25.209909909909911 32.651801801801803 -1 -0 -0 0 1 0 0 0 1 0.84999999999999998
1 -17 25.209909909909914 32.651801801801803 1 0 0 -0 0 1 0 -1 0 
1 -15 25.209909909909914 32.651801801801803 1 0 0 -0 0 1 0 -1 0 
1 -15 8.4427927927927939 17.511711711711712 1 0 0 -0 0 1 0 -1 0 
1 -15 6.5337837837837842 16.153153153153152 1 0 0 -0 0 1 0 -1 0 
1 -15 4.6981981981981997 14.846846846846844 1 0 0 -0 0 1 0 -1 0 
1 -15 10.278378378378381 18.818018018018023 1 0 0 -0 0 1 0 -1 0 
1 -15 17.77027027027027 25.698198198198199 1 0 0 -0 0 1 0 -1 0 
1 -15 30.790090090090089 36.622972972972967 1 0 0 -0 0 1 0 -1 0 
1 -15 28.954504504504502 35.31666666666667 1 0 0 -0 0 1 0 -1 0 
1 -15 27.045495495495491 33.958108108108107 1 0 0 -0 0 1 0 -1 0 
1 -15 47.427027027027023 37.180630630630624 1 0 0 -0 0 1 0 -1 0 
1 -15 47.557657657657657 27.982432432432429 1 0 0 -0 0 1 0 -1 0 
1 -15 47.645945945945932 18.532882882882888 1 0 0 -0 0 1 0 -1 0 
1 -17 39 0 0 -0.70710678118654757 0.70710678118654757 0 0.70710678118654757 0.70710678118654757 -1 0 0 
Triangulations 0

TShapes 603
Ve
1.00000003552714e-07
-15 0 0
0 0

0101101
*
Ve
1.00000003552714e-07
-15 0 2
0 0

0101101
*
Ed
 1.00000003552714e-07 1 1 0
1  1 0 0 2
2  1 1 0 0 2
2  2 2 0 0 2
2  3 3 0 0 2
0

0101000
+603 0 -602 0 *
Ve
1e-07
15 0 0
0 0

0101101
*
Ve
1e-07
15 0 2
0 0

0101101
*
Ed
 1e-07 1 1 0
1  2 0 0 2
2  4 1 0 0 2
2  5 4 0 0 2
2  6 5 0 0 2
0

0101000
+600 0 -599 0 *
Ed
 1e-07 1 1 0
1  3 0 0 30
2  7 6 0 0 30
2  8 1 0 0 30
0

0101000
+603 0 -600 0 *
Ed
 1e-07 1 1 0
1  4 0 0 30
2  9 7 0 0 30
2  10 1 0 0 30
0

0101000
+602 0 -599 0 *
Wi

0101100
+601 0 -598 0 -597 0 +596 0 *
Fa
0  1e-07 1 0

0101000
+595 0 *
Ve
1.50000003552714e-07
-15 31 2
0 0

0101101
*
Ve
1.5e-07
15 31 2
0 0

0101101
*
Ed
 1.5e-07 1 1 0
1  5 0 -15 15
2  11 7 0 -15 15
2  12 8 0 -15 15
0

0101000
+593 0 -592 0 *
Ed
 1e-07 1 1 0
1  6 0 0 31
0

0101000
+602 0 -593 0 *
Ed
 1e-07 1 1 0
1  7 0 0 31
0

0101000
+592 0 -599 0 *
Wi

0101100
-591 0 -590 0 +596 0 -589 0 *
Ve
1e-07
-11.4741379310345 6.75862068965517 2
0 0

0101101
*
Ed
 1e-07 1 1 0
1  8 0 0 6.28318530717959
2  13 9 0 0 6.28318530717959
2  14 10 0 0 6.28318530717959
2  15 7 0 0 6.28318530717959
0

0101000
+587 0 -587 0 *
Wi

0101100
-586 0 *
Ve
1e-07
-12.3793103448276 8.27586206896552 2
0 0

0101101
*
Ve
1e-07
-12.3793103448276 11.7241379310345 2
0 0

0101101
*
Ed
 1e-07 1 1 0
1  9 0 0 3.44827586206896
2  16 11 0 0 3.44827586206896
2  17 12 0 0 3.44827586206896
2  18 7 0 0 3.44827586206896
0

0101000
+584 0 -583 0 *
Ve
1e-07
-8.93103448275862 11.7241379310345 2
0 0

0101101
*
Ed
 1e-07 1 1 0
1  10 0 0 3.44827586206897
2  19 11 0 0 3.44827586206897
2  20 13 0 0 3.44827586206897
2  21 7 0 0 3.44827586206897
0

0101000
+583 0 -581 0 *
Ve
1e-07
-8.93103448275862 8.27586206896552 2
0 0

0101101
*
Ed
 1e-07 1 1 0
1  11 0 0 3.44827586206896
2  22 11 0 0 3.44827586206896
2  23 14 0 0 3.44827586206896
2  24 7 0 0 3.44827586206896
0

0101000
+581 0 -579 0 *
Ed
 1e-07 1 1 0
1  12 0 0 3.44827586206897
2  25 11 0 0 3.44827586206897
2  26 15 0 0 3.44827586206897
2  27 7 0 0 3.44827586206897
0

0101000
+579 0 -584 0 *
Wi

0101100
+582 0 +580 0 +578 0 +577 0 *
Ve
1e-07
1.07758620689655 6.75862068965517 2
0 0

0101101
*
Ed
 1e-07 1 1 0
1  13 0 0 6.28318530717959
2  28 16 0 0 6.28318530717959
2  29 17 0 0 6.28318530717959
2  30 7 0 0 6.28318530717959
0

0101000
+575 0 -575 0 *
Wi

0101100
-574 0 *
Ve
1e-07
-11.4741379310345 27.9310344827586 2
0 0

0101101
*
Ed
 1e-07 1 1 0
1  14 0 0 6.28318530717959
2  31 18 0 0 6.28318530717959
2  32 19 0 0 6.28318530717959
2  33 7 0 0 6.28318530717959
0

0101000
+572 0 -572 0 *
Wi

0101100
-571 0 *
Ve
1e-07
-9.48275862068965 26.5931034482759 2
0 0

0101101
*
Ve
1e-07
-9.48275862068965 28.9931034482759 2
0 0

0101101
*
Ed
 1e-07 1 1 0
1  15 0 0 3.14159265358979
2  34 20 0 0 3.14159265358979
2  35 21 0 0 3.14159265358979
2  36 7 0 0 3.14159265358979
0

0101000
+569 0 -568 0 *
Ve
1e-07
-3.75862068965517 28.9931034482759 2
0 0

0101101
*
Ed
 1e-07 1 1 0
1  16 0 0 5.72413793103448
2  37 21 0 0 5.72413793103448
2  38 22 0 0 5.72413793103448
2  39 7 0 0 5.72413793103448
0

0101000
+568 0 -566 0 *
Ve
1e-07
-3.75862068965517 26.5931034482759 2
0 0

0101101
*
Ed
 1e-07 1 1 0
1  17 0 0 3.14159265358979
2  40 23 0 0 3.14159265358979
2  41 21 0 0 3.14159265358979
2  42 7 0 0 3.14159265358979
0

0101000
+566 0 -564 0 *
Ed
 1e-07 1 1 0
1  18 0 0 5.72413793103448
2  43 21 0 0 5.72413793103448
2  44 24 0 0 5.72413793103448
2  45 7 0 0 5.72413793103448
0

0101000
+564 0 -569 0 *
Wi

0101100
+567 0 +565 0 +563 0 +562 0 *
Ve
1e-07
-14.7241379310345 12.551724137931 2
0 0

0101101
*
Ve
1e-07
-14.7241379310345 21.9310344827586 2
0 0

0101101
*
Ed
 1e-07 1 1 0
1  19 0 0 9.37931034482759
2  46 25 0 0 9.37931034482759
2  47 26 0 0 9.37931034482759
2  48 7 0 0 9.37931034482759
0

0101000
+560 0 -559 0 *
Ve
1e-07
-12.2413793103448 21.9310344827586 2
0 0

0101101
*
Ed
 1e-07 1 1 0
1  20 0 0 2.48275862068965
2  49 25 0 0 2.48275862068965
2  50 27 0 0 2.48275862068965
2  51 7 0 0 2.48275862068965
0

0101000
+559 0 -557 0 *
Ve
1e-07
-12.2413793103448 23.5862068965517 2
0 0

0101101
*
Ed
 1e-07 1 1 0
1  21 0 0 1.6551724137931
2  52 25 0 0 1.6551724137931
2  53 28 0 0 1.6551724137931
2  54 7 0 0 1.6551724137931
0

0101000
+557 0 -555 0 *
Ve
1e-07
-7.13793103448276 23.5862068965517 2
0 0

0101101
*
Ed
 1e-07 1 1 0
1  22 0 0 5.10344827586207
2  55 25 0 0 5.10344827586207
2  56 29 0 0 5.10344827586207
2  57 7 0 0 5.10344827586207
0

0101000
+555 0 -553 0 *
Ve
1e-07
-7.13793103448276 21.9310344827586 2
0 0

0101101
*
Ed
 1e-07 1 1 0
1  23 0 0 1.6551724137931
2  58 25 0 0 1.6551724137931
2  59 30 0 0 1.6551724137931
2  60 7 0 0 1.6551724137931
0

0101000
+553 0 -551 0 *
Ve
1e-07
4.44827586206896 21.9310344827586 2
0 0

0101101
*
Ed
 1e-07 1 1 0
1  24 0 0 11.5862068965517
2  61 25 0 0 11.5862068965517
2  62 31 0 0 11.5862068965517
2  63 7 0 0 11.5862068965517
0

0101000
+551 0 -549 0 *
Ve
1e-07
4.44827586206896 12.551724137931 2
0 0

0101101
*
Ed
 1e-07 1 1 0
1  25 0 0 9.37931034482759
2  64 25 0 0 9.37931034482759
2  65 32 0 0 9.37931034482759
2  66 7 0 0 9.37931034482759
0

0101000
+549 0 -547 0 *
Ed
 1e-07 1 1 0
1  26 0 0 19.1724137931034
2  67 25 0 0 19.1724137931034
2  68 33 0 0 19.1724137931034
2  69 7 0 0 19.1724137931034
0

0101000
+547 0 -560 0 *
Wi

0101100
+558 0 +556 0 +554 0 +552 0 +550 0 +548 0 +546 0 +545 0 *
Ve
1e-07
1.14655172413793 27.8620689655172 2
0 0

0101101
*
Ed
 1e-07 1 1 0
1  27 0 0 6.28318530717959
2  70 34 0 0 6.28318530717959
2  71 35 0 0 6.28318530717959
2  72 7 0 0 6.28318530717959
0

0101000
+543 0 -543 0 *
Wi

0101100
-542 0 *
Fa
0  1e-07 7 0

0111000
+588 0 +585 0 +576 0 +573 0 +570 0 +561 0 +544 0 +541 0 *
Ve
1e-07
1.14655172413793 27.8620689655172 0
0 0

0101101
*
Ed
 1e-07 1 1 0
1  28 0 0 2
3  73 74CN 34 0 0 2
0

0101000
+539 0 -543 0 *
Ed
 1e-07 1 1 0
1  29 0 0 6.28318530717959
2  75 34 0 0 6.28318530717959
2  76 36 0 0 6.28318530717959
2  77 6 0 0 6.28318530717959
0

0101000
+539 0 -539 0 *
Wi

0101100
+538 0 -538 0 -537 0 +542 0 *
Fa
0  1e-07 34 0

0101000
+536 0 *
Ve
1e-07
4.44827586206896 12.551724137931 0
0 0

0101101
*
Ed
 1e-07 1 1 0
1  30 0 0 2
2  78 32 0 0 2
2  79 33 0 0 2
0

0101000
+534 0 -547 0 *
Ve
1e-07
-14.7241379310345 12.551724137931 0
0 0

0101101
*
Ed
 1e-07 1 1 0
1  31 0 0 2
2  80 33 0 0 2
2  81 26 0 0 2
0

0101000
+532 0 -560 0 *
Ed
 1e-07 1 1 0
1  32 0 0 19.1724137931034
2  82 37 0 0 19.1724137931034
2  83 33 0 0 19.1724137931034
2  84 6 0 0 19.1724137931034
0

0101000
+534 0 -532 0 *
Wi

0101100
+533 0 -531 0 -530 0 +545 0 *
Fa
0  1e-07 33 0

0101000
+529 0 *
Ve
1e-07
4.44827586206896 21.9310344827586 0
0 0

0101101
*
Ed
 1e-07 1 1 0
1  33 0 0 2
2  85 31 0 0 2
2  86 32 0 0 2
0

0101000
+527 0 -549 0 *
Ed
 1e-07 1 1 0
1  34 0 0 9.37931034482759
2  87 37 0 0 9.37931034482759
2  88 32 0 0 9.37931034482759
2  89 6 0 0 9.37931034482759
0

0101000
+527 0 -534 0 *
Wi

0101100
+526 0 -533 0 -525 0 +546 0 *
Fa
0  1e-07 32 0

0101000
+524 0 *
Ve
1e-07
-7.13793103448276 21.9310344827586 0
0 0

0101101
*
Ed
 1e-07 1 1 0
1  35 0 0 2
2  90 30 0 0 2
2  91 31 0 0 2
0

0101000
+522 0 -551 0 *
Ed
 1e-07 1 1 0
1  36 0 0 11.5862068965517
2  92 37 0 0 11.5862068965517
2  93 31 0 0 11.5862068965517
2  94 6 0 0 11.5862068965517
0

0101000
+522 0 -527 0 *
Wi

0101100
+521 0 -526 0 -520 0 +548 0 *
Fa
0  1e-07 31 0

0101000
+519 0 *
Ve
1e-07
-7.13793103448276 23.5862068965517 0
0 0

0101101
*
Ed
 1e-07 1 1 0
1  37 0 0 2
2  95 29 0 0 2
2  96 30 0 0 2
0

0101000
+517 0 -553 0 *
Ed
 1e-07 1 1 0
1  38 0 0 1.6551724137931
2  97 37 0 0 1.6551724137931
2  98 30 0 0 1.6551724137931
2  99 6 0 0 1.6551724137931
0

0101000
+517 0 -522 0 *
Wi

0101100
+516 0 -521 0 -515 0 +550 0 *
Fa
0  1e-07 30 0

0101000
+514 0 *
Ve
1e-07
-12.2413793103448 23.5862068965517 0
0 0

0101101
*
Ed
 1e-07 1 1 0
1  39 0 0 2
2  100 28 0 0 2
2  101 29 0 0 2
0

0101000
+512 0 -555 0 *
Ed
 1e-07 1 1 0
1  40 0 0 5.10344827586207
2  102 37 0 0 5.10344827586207
2  103 29 0 0 5.10344827586207
2  104 6 0 0 5.10344827586207
0

0101000
+512 0 -517 0 *
Wi

0101100
+511 0 -516 0 -510 0 +552 0 *
Fa
0  1e-07 29 0

0101000
+509 0 *
Ve
1e-07
-12.2413793103448 21.9310344827586 0
0 0

0101101
*
Ed
 1e-07 1 1 0
1  41 0 0 2
2  105 27 0 0 2
2  106 28 0 0 2
0

0101000
+507 0 -557 0 *
Ed
 1e-07 1 1 0
1  42 0 0 1.6551724137931
2  107 37 0 0 1.6551724137931
2  108 28 0 0 1.6551724137931
2  109 6 0 0 1.6551724137931
0

0101000
+507 0 -512 0 *
Wi

0101100
+506 0 -511 0 -505 0 +554 0 *
Fa
0  1e-07 28 0

0101000
+504 0 *
Ve
1e-07
-14.7241379310345 21.9310344827586 0
0 0

0101101
*
Ed
 1e-07 1 1 0
1  43 0 0 2
2  110 27 0 0 2
2  111 26 0 0 2
0

0101000
+502 0 -559 0 *
Ed
 1e-07 1 1 0
1  44 0 0 2.48275862068965
2  112 37 0 0 2.48275862068965
2  113 27 0 0 2.48275862068965
2  114 6 0 0 2.48275862068965
0

0101000
+502 0 -507 0 *
Wi

0101100
+501 0 -506 0 -500 0 +556 0 *
Fa
0  1e-07 27 0

0101000
+499 0 *
Ed
 1e-07 1 1 0
1  45 0 0 9.37931034482759
2  115 37 0 0 9.37931034482759
2  116 26 0 0 9.37931034482759
2  117 6 0 0 9.37931034482759
0

0101000
+532 0 -502 0 *
Wi

0101100
+531 0 -501 0 -497 0 +558 0 *
Fa
0  1e-07 26 0

0101000
+496 0 *
Ve
1e-07
-3.75862068965517 26.5931034482759 0
0 0

0101101
*
Ed
 1e-07 1 1 0
1  46 0 0 2
2  118 23 0 0 2
4 G1 23 0 24 0
2  119 24 0 0 2
0

0101000
+494 0 -564 0 *
Ve
1e-07
-9.48275862068965 26.5931034482759 0
0 0

0101101
*
Ed
 1e-07 1 1 0
1  47 0 0 2
2  120 20 0 0 2
4 G1 24 0 20 0
2  121 24 0 0 2
0

0101000
+492 0 -569 0 *
Ed
 1e-07 1 1 0
1  48 0 0 5.72413793103448
2  122 38 0 0 5.72413793103448
2  123 24 0 0 5.72413793103448
2  124 6 0 0 5.72413793103448
0

0101000
+494 0 -492 0 *
Wi

0101100
+493 0 -491 0 -490 0 +562 0 *
Fa
0  1e-07 24 0

0101000
+489 0 *
Ve
1e-07
-3.75862068965517 28.9931034482759 0
0 0

0101101
*
Ed
 1e-07 1 1 0
1  49 0 0 2
2  125 23 0 0 2
4 G1 22 0 23 0
2  126 22 0 0 2
0

0101000
+487 0 -566 0 *
Ed
 1e-07 1 1 0
1  50 0 0 3.14159265358979
2  127 23 0 0 3.14159265358979
2  128 38 0 0 3.14159265358979
2  129 6 0 0 3.14159265358979
0

0101000
+487 0 -494 0 *
Wi

0101100
+486 0 -493 0 -485 0 +563 0 *
Fa
0  1e-07 23 0

0101000
+484 0 *
Ve
1e-07
-9.48275862068965 28.9931034482759 0
0 0

0101101
*
Ed
 1e-07 1 1 0
1  51 0 0 2
2  130 20 0 0 2
4 G1 22 0 20 0
2  131 22 0 0 2
0

0101000
+482 0 -568 0 *
Ed
 1e-07 1 1 0
1  52 0 0 5.72413793103448
2  132 38 0 0 5.72413793103448
2  133 22 0 0 5.72413793103448
2  134 6 0 0 5.72413793103448
0

0101000
+482 0 -487 0 *
Wi

0101100
+481 0 -486 0 -480 0 +565 0 *
Fa
0  1e-07 22 0

0101000
+479 0 *
Ed
 1e-07 1 1 0
1  53 0 0 3.14159265358979
2  135 20 0 0 3.14159265358979
2  136 38 0 0 3.14159265358979
2  137 6 0 0 3.14159265358979
0

0101000
+492 0 -482 0 *
Wi

0101100
+491 0 -481 0 -477 0 +567 0 *
Fa
0  1e-07 20 0

0101000
+476 0 *
Ve
1e-07
-11.4741379310345 27.9310344827586 0
0 0

0101101
*
Ed
 1e-07 1 1 0
1  54 0 0 2
3  138 139CN 18 0 0 2
0

0101000
+474 0 -572 0 *
Ed
 1e-07 1 1 0
1  55 0 0 6.28318530717959
2  140 18 0 0 6.28318530717959
2  141 39 0 0 6.28318530717959
2  142 6 0 0 6.28318530717959
0

0101000
+474 0 -474 0 *
Wi

0101100
+473 0 -473 0 -472 0 +571 0 *
Fa
0  1e-07 18 0

0101000
+471 0 *
Ve
1e-07
1.07758620689655 6.75862068965517 0
0 0

0101101
*
Ed
 1e-07 1 1 0
1  56 0 0 2
3  143 144CN 16 0 0 2
0

0101000
+469 0 -575 0 *
Ed
 1e-07 1 1 0
1  57 0 0 6.28318530717959
2  145 16 0 0 6.28318530717959
2  146 40 0 0 6.28318530717959
2  147 6 0 0 6.28318530717959
0

0101000
+469 0 -469 0 *
Wi

0101100
+468 0 -468 0 -467 0 +574 0 *
Fa
0  1e-07 16 0

0101000
+466 0 *
Ve
1e-07
-8.93103448275862 8.27586206896552 0
0 0

0101101
*
Ed
 1e-07 1 1 0
1  58 0 0 2
2  148 14 0 0 2
2  149 15 0 0 2
0

0101000
+464 0 -579 0 *
Ve
1e-07
-12.3793103448276 8.27586206896552 0
0 0

0101101
*
Ed
 1e-07 1 1 0
1  59 0 0 2
2  150 15 0 0 2
2  151 12 0 0 2
0

0101000
+462 0 -584 0 *
Ed
 1e-07 1 1 0
1  60 0 0 3.44827586206897
2  152 41 0 0 3.44827586206897
2  153 15 0 0 3.44827586206897
2  154 6 0 0 3.44827586206897
0

0101000
+464 0 -462 0 *
Wi

0101100
+463 0 -461 0 -460 0 +577 0 *
Fa
0  1e-07 15 0

0101000
+459 0 *
Ve
1e-07
-8.93103448275862 11.7241379310345 0
0 0

0101101
*
Ed
 1e-07 1 1 0
1  61 0 0 2
2  155 13 0 0 2
2  156 14 0 0 2
0

0101000
+457 0 -581 0 *
Ed
 1e-07 1 1 0
1  62 0 0 3.44827586206896
2  157 41 0 0 3.44827586206896
2  158 14 0 0 3.44827586206896
2  159 6 0 0 3.44827586206896
0

0101000
+457 0 -464 0 *
Wi

0101100
+456 0 -463 0 -455 0 +578 0 *
Fa
0  1e-07 14 0

0101000
+454 0 *
Ve
1e-07
-12.3793103448276 11.7241379310345 0
0 0

0101101
*
Ed
 1e-07 1 1 0
1  63 0 0 2
2  160 13 0 0 2
2  161 12 0 0 2
0

0101000
+452 0 -583 0 *
Ed
 1e-07 1 1 0
1  64 0 0 3.44827586206897
2  162 41 0 0 3.44827586206897
2  163 13 0 0 3.44827586206897
2  164 6 0 0 3.44827586206897
0

0101000
+452 0 -457 0 *
Wi

0101100
+451 0 -456 0 -450 0 +580 0 *
Fa
0  1e-07 13 0

0101000
+449 0 *
Ed
 1e-07 1 1 0
1  65 0 0 3.44827586206896
2  165 41 0 0 3.44827586206896
2  166 12 0 0 3.44827586206896
2  167 6 0 0 3.44827586206896
0

0101000
+462 0 -452 0 *
Wi

0101100
+461 0 -451 0 -447 0 +582 0 *
Fa
0  1e-07 12 0

0101000
+446 0 *
Ve
1e-07
-11.4741379310345 6.75862068965517 0
0 0

0101101
*
Ed
 1e-07 1 1 0
1  66 0 0 2
3  168 169CN 9 0 0 2
0

0101000
+444 0 -587 0 *
Ed
 1e-07 1 1 0
1  67 0 0 6.28318530717959
2  170 9 0 0 6.28318530717959
2  171 42 0 0 6.28318530717959
2  172 6 0 0 6.28318530717959
0

0101000
+444 0 -444 0 *
Wi

0101100
+443 0 -443 0 -442 0 +586 0 *
Fa
0  1e-07 9 0

0101000
+441 0 *
Ve
1.5e-07
15 31 24
0 0

0101101
*
Ve
1.5e-07
-15 31 24
0 0

0101101
*
Ed
 1e-07 1 1 0
1  68 0 2 32
2  173 8 0 2 32
2  174 43 0 2 32
0

0101000
+439 0 -438 0 *
Ve
1.50000003552714e-07
15 31 23.7681736244061
0 0

0101101
*
Ed
 1.5e-07 1 1 0
1  69 0 -8.0975028445117 -7.86567646891783
2  175 5 0 -8.0975028445117 -7.86567646891783
2  176 8 0 -8.0975028445117 -7.86567646891783
0

0101000
+439 0 -436 0 *
Ve
1.50000003552714e-07
17 31 23.7681736244061
0 0

0101101
*
Ed
 1.5e-07 1 1 0
1  70 0 7.5 9.5
2  177 44 0 7.5 9.5
2  178 8 0 7.5 9.5
0

0101000
+436 0 -434 0 *
Ve
1.5e-07
17 31 18.7205904205377
0 0

0101101
*
Ed
 1e-07 1 1 0
1  71 0 18.7205904205377 23.7681736244061
2  179 8 0 18.7205904205377 23.7681736244061
2  180 45 0 18.7205904205377 23.7681736244061
0

0101000
+432 0 -434 0 *
Ve
1.50000003552714e-07
15 31 18.7205904205377
0 0

0101101
*
Ed
 1.5e-07 1 1 0
1  72 0 -9.5 -7.5
2  181 46 0 -9.5 -7.5
2  182 8 0 -9.5 -7.5
0

0101000
+432 0 -430 0 *
Ed
 1.5e-07 1 1 0
1  69 0 -2.81809326504939 13.9024971554883
2  175 5 0 -2.81809326504939 13.9024971554883
2  176 8 0 -2.81809326504939 13.9024971554883
0

0101000
+430 0 -592 0 *
Ed
 1.5e-07 1 1 0
1  73 0 -8.0975028445117 13.9024971554883
2  183 3 0 -8.0975028445117 13.9024971554883
2  184 8 0 -8.0975028445117 13.9024971554883
0

0101000
+438 0 -593 0 *
Wi

0101100
+437 0 -435 0 -433 0 +431 0 -429 0 -428 0 +591 0 +427 0 *
Ve
1e-07
-10.5 31 12
0 0

0101101
*
Ed
 1e-07 1 1 0
1  74 0 0 6.28318530717959
2  185 47 0 0 6.28318530717959
2  186 48 0 0 6.28318530717959
2  187 8 0 0 6.28318530717959
0

0101000
+425 0 -425 0 *
Wi

0101100
-424 0 *
Ve
1e-07
-12 31 16.5
0 0

0101101
*
Ve
1e-07
-12 31 19.5
0 0

0101101
*
Ed
 1e-07 1 1 0
1  75 0 0 3.14159265358979
2  188 49 0 0 3.14159265358979
2  189 50 0 0 3.14159265358979
2  190 8 0 0 3.14159265358979
0

0101000
+422 0 -421 0 *
Ve
1e-07
12 31 16.5
0 0

0101101
*
Ed
 1e-07 1 1 0
1  76 0 0 24
2  191 50 0 0 24
2  192 51 0 0 24
2  193 8 0 0 24
0

0101000
+419 0 -422 0 *
Ve
1e-07
12 31 19.5
0 0

0101101
*
Ed
 1e-07 1 1 0
1  77 0 0 24
2  194 50 0 0 24
2  195 52 0 0 24
2  196 8 0 0 24
0

0101000
+421 0 -417 0 *
Ed
 1e-07 1 1 0
1  78 0 0 3.14159265358979
2  197 53 0 0 3.14159265358979
2  198 50 0 0 3.14159265358979
2  199 8 0 0 3.14159265358979
0

0101000
+417 0 -419 0 *
Wi

0101100
+420 0 +418 0 +416 0 +415 0 *
Ve
1e-07
1.5 31 12
0 0

0101101
*
Ed
 1e-07 1 1 0
1  79 0 0 6.28318530717959
2  200 54 0 0 6.28318530717959
2  201 55 0 0 6.28318530717959
2  202 8 0 0 6.28318530717959
0

0101000
+413 0 -413 0 *
Wi

0101100
-412 0 *
Ve
1e-07
-12 31 4.5
0 0

0101101
*
Ve
1e-07
-12 31 7.5
0 0

0101101
*
Ed
 1e-07 1 1 0
1  80 0 0 3.14159265358979
2  203 56 0 0 3.14159265358979
2  204 57 0 0 3.14159265358979
2  205 8 0 0 3.14159265358979
0

0101000
+410 0 -409 0 *
Ve
1e-07
12 31 4.5
0 0

0101101
*
Ed
 1e-07 1 1 0
1  81 0 0 24
2  206 57 0 0 24
2  207 58 0 0 24
2  208 8 0 0 24
0

0101000
+407 0 -410 0 *
Ve
1e-07
12 31 7.5
0 0

0101101
*
Ed
 1e-07 1 1 0
1  82 0 0 24
2  209 57 0 0 24
2  210 59 0 0 24
2  211 8 0 0 24
0

0101000
+409 0 -405 0 *
Ed
 1e-07 1 1 0
1  83 0 0 3.14159265358979
2  212 60 0 0 3.14159265358979
2  213 57 0 0 3.14159265358979
2  214 8 0 0 3.14159265358979
0

0101000
+405 0 -407 0 *
Wi

0101100
+408 0 +406 0 +404 0 +403 0 *
Ve
1e-07
13.5 31 12
0 0

0101101
*
Ed
 1e-07 1 1 0
1  84 0 0 6.28318530717959
2  215 61 0 0 6.28318530717959
2  216 62 0 0 6.28318530717959
2  217 8 0 0 6.28318530717959
0

0101000
+401 0 -401 0 *
Wi

0101100
-400 0 *
Fa
0  1e-07 8 0

0101000
+426 0 +423 0 +414 0 +411 0 +402 0 +399 0 *
Ve
1e-07
13.5 33 12
0 0

0101101
*
Ed
 1e-07 1 1 0
1  85 0 0 2
3  218 219CN 61 0 0 2
0

0101000
+397 0 -401 0 *
Ed
 1e-07 1 1 0
1  86 0 0 6.28318530717959
2  220 61 0 0 6.28318530717959
2  221 63 0 0 6.28318530717959
2  222 64 0 0 6.28318530717959
0

0101000
+397 0 -397 0 *
Wi

0101100
+396 0 -396 0 -395 0 +400 0 *
Fa
0  1e-07 61 0

0101000
+394 0 *
Ve
1e-07
17 33 24
0 0

0101101
*
Ve
1.5e-07
-15 33 24
0 0

0101101
*
Ed
 1e-07 1 1 0
1  87 0 0 32
2  223 64 0 0 32
2  224 43 0 0 32
0

0101000
+392 0 -391 0 *
Ve
1.50000003552714e-07
17 33 20.2599162632343
0 0

0101101
*
Ed
 1e-07 1 1 0
1  88 0 20.2599162632343 24
2  225 64 0 20.2599162632343 24
2  226 45 0 20.2599162632343 24
0

0101000
+389 0 -392 0 *
Ve
1.5e-07
15 33 20.2599162632343
0 0

0101101
*
Ed
 1.5e-07 1 1 0
1  89 0 -9.5 -7.5
2  227 46 0 -9.5 -7.5
2  228 64 0 -9.5 -7.5
0

0101000
+389 0 -387 0 *
Ve
1.5e-07
15 33 2
0 0

0101101
*
Ed
 1.5e-07 1 1 0
1  90 0 -4.35741910774601 13.9024971554883
2  229 5 0 -4.35741910774601 13.9024971554883
2  230 64 0 -4.35741910774601 13.9024971554883
0

0101000
+387 0 -385 0 *
Ve
1.50000003552714e-07
-15 33 2
0 0

0101101
*
Ed
 1.5e-07 1 1 0
1  91 0 -15 15
2  231 7 0 -15 15
2  232 64 0 -15 15
0

0101000
+383 0 -385 0 *
Ed
 1.5e-07 1 1 0
1  92 0 -8.0975028445117 13.9024971554883
2  233 3 0 -8.0975028445117 13.9024971554883
2  234 64 0 -8.0975028445117 13.9024971554883
0

0101000
+391 0 -383 0 *
Wi

0101100
+390 0 +388 0 -386 0 -384 0 +382 0 +381 0 *
Ve
1e-07
-10.5 33 12
0 0

0101101
*
Ed
 1e-07 1 1 0
1  93 0 0 6.28318530717959
2  235 47 0 0 6.28318530717959
2  236 65 0 0 6.28318530717959
2  237 64 0 0 6.28318530717959
0

0101000
+379 0 -379 0 *
Wi

0101100
-378 0 *
Ve
1e-07
-12 33 16.5
0 0

0101101
*
Ve
1e-07
-12 33 19.5
0 0

0101101
*
Ed
 1e-07 1 1 0
1  94 0 0 3.14159265358979
2  238 49 0 0 3.14159265358979
2  239 66 0 0 3.14159265358979
2  240 64 0 0 3.14159265358979
0

0101000
+376 0 -375 0 *
Ve
1e-07
12 33 16.5
0 0

0101101
*
Ed
 1e-07 1 1 0
1  95 0 0 24
2  241 66 0 0 24
2  242 51 0 0 24
2  243 64 0 0 24
0

0101000
+373 0 -376 0 *
Ve
1e-07
12 33 19.5
0 0

0101101
*
Ed
 1e-07 1 1 0
1  96 0 0 24
2  244 66 0 0 24
2  245 52 0 0 24
2  246 64 0 0 24
0

0101000
+375 0 -371 0 *
Ed
 1e-07 1 1 0
1  97 0 0 3.14159265358979
2  247 53 0 0 3.14159265358979
2  248 66 0 0 3.14159265358979
2  249 64 0 0 3.14159265358979
0

0101000
+371 0 -373 0 *
Wi

0101100
+374 0 +372 0 +370 0 +369 0 *
Ve
1e-07
1.5 33 12
0 0

0101101
*
Ed
 1e-07 1 1 0
1  98 0 0 6.28318530717959
2  250 54 0 0 6.28318530717959
2  251 67 0 0 6.28318530717959
2  252 64 0 0 6.28318530717959
0

0101000
+367 0 -367 0 *
Wi

0101100
-366 0 *
Ve
1e-07
-12 33 4.5
0 0

0101101
*
Ve
1e-07
-12 33 7.5
0 0

0101101
*
Ed
 1e-07 1 1 0
1  99 0 0 3.14159265358979
2  253 56 0 0 3.14159265358979
2  254 68 0 0 3.14159265358979
2  255 64 0 0 3.14159265358979
0

0101000
+364 0 -363 0 *
Ve
1e-07
12 33 4.5
0 0

0101101
*
Ed
 1e-07 1 1 0
1  100 0 0 24
2  256 68 0 0 24
2  257 58 0 0 24
2  258 64 0 0 24
0

0101000
+361 0 -364 0 *
Ve
1e-07
12 33 7.5
0 0

0101101
*
Ed
 1e-07 1 1 0
1  101 0 0 24
2  259 68 0 0 24
2  260 59 0 0 24
2  261 64 0 0 24
0

0101000
+363 0 -359 0 *
Ed
 1e-07 1 1 0
1  102 0 0 3.14159265358979
2  262 60 0 0 3.14159265358979
2  263 68 0 0 3.14159265358979
2  264 64 0 0 3.14159265358979
0

0101000
+359 0 -361 0 *
Wi

0101100
+362 0 +360 0 +358 0 +357 0 *
Wi

0101100
-395 0 *
Fa
0  1e-07 64 0

0101000
+380 0 +377 0 +368 0 +365 0 +356 0 +355 0 *
Ve
1.5e-07
-15 35 2
0 0

0101101
*
Ed
 1.5e-07 1 1 0
1  103 0 10.6750057660654 12.6750057660654
2  265 7 0 10.6750057660654 12.6750057660654
2  266 3 0 10.6750057660654 12.6750057660654
0

0101000
+383 0 -353 0 *
Ve
1.5e-07
15 35 2
0 0

0101101
*
Ed
 1e-07 1 1 0
1  104 0 2 32
2  267 7 0 2 32
2  268 69 0 2 32
0

0101000
+351 0 -353 0 *
Ed
 1.5e-07 1 1 0
1  105 0 10.6750057660654 12.6750057660654
2  269 7 0 10.6750057660654 12.6750057660654
2  270 5 0 10.6750057660654 12.6750057660654
0

0101000
+385 0 -351 0 *
Wi

0101100
-352 0 +350 0 +349 0 +382 0 *
Fa
0  1e-07 7 0

0101000
+348 0 *
Ve
1.5e-07
15 35 0
0 0

0101101
*
Ve
1.50000003552714e-07
-15 35 0
0 0

0101101
*
Ed
 1e-07 1 1 0
1  106 0 2 32
2  271 6 0 2 32
2  272 69 0 2 32
0

0101000
+346 0 -345 0 *
Ed
 1.5e-07 1 1 0
1  107 0 -9.9024971554883 -7.9024971554883
2  273 69 0 -9.9024971554883 -7.9024971554883
2  274 3 0 -9.9024971554883 -7.9024971554883
0

0101000
+345 0 -353 0 *
Ed
 1.5e-07 1 1 0
1  108 0 -9.9024971554883 -7.9024971554883
2  275 69 0 -9.9024971554883 -7.9024971554883
2  276 5 0 -9.9024971554883 -7.9024971554883
0

0101000
+346 0 -351 0 *
Wi

0101100
-344 0 -343 0 +350 0 +342 0 *
Fa
0  1e-07 69 0

0101000
+341 0 *
Ve
1e-07
15 36.3198517829419 22.8150830849368
0 0

0101101
*
Ed
 1e-07 1 1 0
1  109 0 0 4.18930702472757
2  277 70 0 0 4.18930702472757
2  278 46 0 0 4.18930702472757
2  279 5 0 0 4.18930702472757
0

0101000
+339 0 -387 0 *
Ve
1e-07
17 36.3198517829419 22.8150830849368
0 0

0101101
*
Ed
 1e-07 1 1 0
1  110 0 0 4.18930702472757
2  280 71 0 0 4.18930702472757
2  281 46 0 0 4.18930702472757
2  282 72 0 0 4.18930702472757
0

0101000
+337 0 -389 0 *
Ed
 1e-07 1 1 0
1  111 0 0 2
2  283 73 0 0 2
4 G1 73 0 46 0
2  284 46 0 0 2
0

0101000
+339 0 -337 0 *
Wi

0101100
-338 0 +386 0 +336 0 +335 0 *
Fa
0  1e-07 46 0

0101000
+334 0 *
Ve
1.00000000111022e-07
15 33.8801482170581 25.9849169150632
0 0

0101101
*
Ve
1.00000000111022e-07
17 33.8801482170581 25.9849169150632
0 0

0101101
*
Ed
 1.00000000111022e-07 1 1 0
1  112 0 0 2
2  285 73 0 0 2
4 G1 44 0 73 0
2  286 44 0 0 2
0

0101000
+332 0 -331 0 *
Ed
 1e-07 1 1 0
1  113 0 0 3.14159265358979
2  287 73 0 0 3.14159265358979
2  288 70 0 0 3.14159265358979
2  289 5 0 0 3.14159265358979
0

0101000
+332 0 -339 0 *
Ed
 1e-07 1 1 0
1  114 0 0 3.14159265358979
2  290 73 0 0 3.14159265358979
2  291 71 0 0 3.14159265358979
2  292 72 0 0 3.14159265358979
0

0101000
+331 0 -337 0 *
Wi

0101100
+330 0 -335 0 -329 0 +328 0 *
Fa
0  1e-07 73 0

0101000
+327 0 *
Ve
1.50000005024296e-07
15 31.3012050719395 24
0 0

0101101
*
Ed
 1e-07 1 1 0
1  115 0 19.2073877314565 22.4617452572145
2  293 70 0 19.2073877314565 22.4617452572145
2  294 44 0 19.2073877314565 22.4617452572145
2  295 5 0 19.2073877314565 22.4617452572145
0

0101000
+325 0 -332 0 *
Ve
1.50000003552714e-07
17 31.3012050719395 24
0 0

0101101
*
Ed
 1e-07 1 1 0
1  116 0 19.2073877314565 22.4617452572145
2  296 71 0 19.2073877314565 22.4617452572145
2  297 44 0 19.2073877314565 22.4617452572145
2  298 72 0 19.2073877314565 22.4617452572145
0

0101000
+323 0 -331 0 *
Ed
 1.5e-07 1 1 0
1  117 0 -1 1
2  299 44 0 -1 1
2  300 43 0 -1 1
0

0101000
+325 0 -323 0 *
Wi

0101100
-324 0 -330 0 +322 0 +321 0 *
Fa
0  1e-07 44 0

0101000
+320 0 *
Ed
 1e-07 1 1 0
1  118 0 0 2
2  301 60 0 0 2
4 G1 59 0 60 0
2  302 59 0 0 2
0

0101000
+359 0 -405 0 *
Ed
 1e-07 1 1 0
1  119 0 0 2
2  303 60 0 0 2
4 G1 60 0 58 0
2  304 58 0 0 2
0

0101000
+361 0 -407 0 *
Wi

0101100
+318 0 -317 0 -357 0 +403 0 *
Fa
0  1e-07 60 0

0101000
+316 0 *
Ed
 1e-07 1 1 0
1  120 0 0 2
2  305 56 0 0 2
4 G1 59 0 56 0
2  306 59 0 0 2
0

0101000
+363 0 -409 0 *
Wi

0101100
+314 0 -318 0 -358 0 +404 0 *
Fa
0  1e-07 59 0

0101000
+313 0 *
Ed
 1e-07 1 1 0
1  121 0 0 2
2  307 56 0 0 2
4 G1 58 0 56 0
2  308 58 0 0 2
0

0101000
+364 0 -410 0 *
Wi

0101100
+317 0 -311 0 -360 0 +406 0 *
Fa
0  1e-07 58 0

0101000
+310 0 *
Wi

0101100
+311 0 -314 0 -362 0 +408 0 *
Fa
0  1e-07 56 0

0101000
+308 0 *
Ed
 1e-07 1 1 0
1  122 0 0 2
3  309 310CN 54 0 0 2
0

0101000
+367 0 -413 0 *
Wi

0101100
+306 0 -306 0 -366 0 +412 0 *
Fa
0  1e-07 54 0

0101000
+305 0 *
Ed
 1e-07 1 1 0
1  123 0 0 2
2  311 53 0 0 2
4 G1 52 0 53 0
2  312 52 0 0 2
0

0101000
+371 0 -417 0 *
Ed
 1e-07 1 1 0
1  124 0 0 2
2  313 53 0 0 2
4 G1 53 0 51 0
2  314 51 0 0 2
0

0101000
+373 0 -419 0 *
Wi

0101100
+303 0 -302 0 -369 0 +415 0 *
Fa
0  1e-07 53 0

0101000
+301 0 *
Ed
 1e-07 1 1 0
1  125 0 0 2
2  315 49 0 0 2
4 G1 52 0 49 0
2  316 52 0 0 2
0

0101000
+375 0 -421 0 *
Wi

0101100
+299 0 -303 0 -370 0 +416 0 *
Fa
0  1e-07 52 0

0101000
+298 0 *
Ed
 1e-07 1 1 0
1  126 0 0 2
2  317 49 0 0 2
4 G1 51 0 49 0
2  318 51 0 0 2
0

0101000
+376 0 -422 0 *
Wi

0101100
+302 0 -296 0 -372 0 +418 0 *
Fa
0  1e-07 51 0

0101000
+295 0 *
Wi

0101100
+296 0 -299 0 -374 0 +420 0 *
Fa
0  1e-07 49 0

0101000
+293 0 *
Ed
 1e-07 1 1 0
1  127 0 0 2
3  319 320CN 47 0 0 2
0

0101000
+379 0 -425 0 *
Wi

0101100
+291 0 -291 0 -378 0 +424 0 *
Fa
0  1e-07 47 0

0101000
+290 0 *
Ve
1.00000000111022e-07
15 18.5198517829419 9.11508308493679
0 0

0101101
*
Ed
 1e-07 1 1 0
1  109 0 6.71309862666179 22.4617452572145
2  277 70 0 6.71309862666179 22.4617452572145
2  278 46 0 6.71309862666179 22.4617452572145
2  279 5 0 6.71309862666179 22.4617452572145
0

0101000
+430 0 -288 0 *
Ve
1.00000000111022e-07
17 18.5198517829419 9.11508308493679
0 0

0101101
*
Ed
 1.00000000111022e-07 1 1 0
1  128 0 0 2
2  321 74 0 0 2
4 G1 46 0 74 0
2  322 46 0 0 2
0

0101000
+288 0 -286 0 *
Ed
 1e-07 1 1 0
1  110 0 6.71309862666179 22.4617452572145
2  280 71 0 6.71309862666179 22.4617452572145
2  281 46 0 6.71309862666179 22.4617452572145
2  282 72 0 6.71309862666179 22.4617452572145
0

0101000
+432 0 -286 0 *
Wi

0101100
-287 0 -285 0 +284 0 -429 0 *
Fa
0  1e-07 46 0

0101000
+283 0 *
Ve
1e-07
15 16.0801482170581 12.2849169150632
0 0

0101101
*
Ve
1e-07
17 16.0801482170581 12.2849169150632
0 0

0101101
*
Ed
 1e-07 1 1 0
1  129 0 0 2
2  323 74 0 0 2
4 G1 44 0 74 0
2  324 44 0 0 2
0

0101000
+281 0 -280 0 *
Ed
 1e-07 1 1 0
1  130 0 0 3.14159265358979
2  325 74 0 0 3.14159265358979
2  326 70 0 0 3.14159265358979
2  327 5 0 0 3.14159265358979
0

0101000
+288 0 -281 0 *
Ed
 1e-07 1 1 0
1  131 0 0 3.14159265358979
2  328 74 0 0 3.14159265358979
2  329 71 0 0 3.14159265358979
2  330 72 0 0 3.14159265358979
0

0101000
+286 0 -280 0 *
Wi

0101100
+285 0 -279 0 -278 0 +277 0 *
Fa
0  1e-07 74 0

0101000
+276 0 *
Ed
 1e-07 1 1 0
1  132 0 0 1.6987949280605
2  331 43 0 0 1.6987949280605
2  332 45 0 0 1.6987949280605
0

0101000
+392 0 -323 0 *
Wi

0101100
-388 0 -336 0 -328 0 -322 0 -274 0 *
Ed
 1e-07 1 1 0
1  116 0 0 18.827298315946
2  296 71 0 0 18.827298315946
2  297 44 0 0 18.827298315946
2  298 72 0 0 18.827298315946
0

0101000
+280 0 -434 0 *
Wi

0101100
+431 0 -272 0 -277 0 -284 0 *
Ve
1e-07
17 23 42
0 0

0101101
*
Ve
1e-07
17 -1 21
0 0

0101101
*
Ed
 1e-07 1 1 0
1  133 0 0 31.8904374382039
2  333 72 0 0 31.8904374382039
2  334 76 0 0 31.8904374382039
0

0101000
+270 0 -269 0 *
Ve
1e-07
17 54 40
0 0

0101101
*
Ed
 1e-07 1 1 0
1  134 0 0 31.0644491340181
2  335 72 0 0 31.0644491340181
0

0101000
+267 0 -270 0 *
Ve
1e-07
17 52 13
0 0

0101101
*
Ed
 1e-07 1 1 0
1  135 0 0 27.0739727413618
2  336 72 0 0 27.0739727413618
0

0101000
+265 0 -267 0 *
Ve
1e-07
17 39 0
0 0

0101101
*
Ed
 1e-07 1 1 0
1  136 0 0 18.3847763108502
2  337 72 0 0 18.3847763108502
0

0101000
+263 0 -265 0 *
Ve
1e-07
17 0 0
0 0

0101101
*
Ed
 1e-07 1 1 0
1  137 0 0 39
0

0101000
+263 0 -261 0 *
Ed
 1e-07 1 1 0
1  138 0 0 21.0237960416286
2  338 72 0 0 21.0237960416286
2  339 77 0 0 21.0237960416286
0

0101000
+269 0 -261 0 *
Wi

0101100
-268 0 -266 0 -264 0 -262 0 +260 0 -259 0 *
Ve
1.00000000111022e-07
17 6.80760083991248 15.0057289404111
0 0

0101101
*
Ve
1e-07
17 4.39239916008752 18.1942710595889
0 0

0101101
*
Ed
 1e-07 1 1 0
1  139 0 0 3.14159265358979
2  340 78 0 0 3.14159265358979
2  341 79 0 0 3.14159265358979
2  342 72 0 0 3.14159265358979
0

0101000
+257 0 -256 0 *
Ve
1e-07
17 33.6076008399125 35.3057289404111
0 0

0101101
*
Ed
 1e-07 1 1 0
1  140 0 0 33.6203807236028
2  343 79 0 0 33.6203807236028
2  344 80 0 0 33.6203807236028
2  345 72 0 0 33.6203807236028
0

0101000
+254 0 -257 0 *
Ve
1.00000000111022e-07
17 31.1923991600875 38.4942710595889
0 0

0101101
*
Ed
 1e-07 1 1 0
1  141 0 0 3.14159265358979
2  346 81 0 0 3.14159265358979
2  347 79 0 0 3.14159265358979
2  348 72 0 0 3.14159265358979
0

0101000
+252 0 -254 0 *
Ed
 1e-07 1 1 0
1  142 0 0 33.6203807236028
2  349 79 0 0 33.6203807236028
2  350 82 0 0 33.6203807236028
2  351 72 0 0 33.6203807236028
0

0101000
+256 0 -252 0 *
Wi

0101100
-255 0 -253 0 -251 0 -250 0 *
Ve
1e-07
17 50.2 17
0 0

0101101
*
Ed
 1e-07 1 1 0
1  143 0 0 6.28318530717959
2  352 83 0 0 6.28318530717959
2  353 84 0 0 6.28318530717959
2  354 72 0 0 6.28318530717959
0

0101000
+248 0 -248 0 *
Wi

0101100
+247 0 *
Ve
1e-07
17 50.2 26.5
0 0

0101101
*
Ed
 1e-07 1 1 0
1  144 0 0 6.28318530717959
2  355 85 0 0 6.28318530717959
2  356 86 0 0 6.28318530717959
2  357 72 0 0 6.28318530717959
0

0101000
+245 0 -245 0 *
Wi

0101100
+244 0 *
Ve
1e-07
17 50.2 35.5
0 0

0101101
*
Ed
 1e-07 1 1 0
1  145 0 0 6.28318530717959
2  358 87 0 0 6.28318530717959
2  359 88 0 0 6.28318530717959
2  360 72 0 0 6.28318530717959
0

0101000
+242 0 -242 0 *
Wi

0101100
+241 0 *
Fa
0  0 75 0

0111000
+273 0 +271 0 +258 0 +249 0 +246 0 +243 0 +240 0 *
Ve
1e-07
15 50.2 35.5
0 0

0101101
*
Ed
 1e-07 1 1 0
1  146 0 0 2
3  361 362CN 87 0 0 2
0

0101000
+238 0 -242 0 *
Ed
 1e-07 1 1 0
1  147 0 0 6.28318530717959
2  363 87 0 0 6.28318530717959
2  364 89 0 0 6.28318530717959
2  365 5 0 0 6.28318530717959
0

0101000
+238 0 -238 0 *
Wi

0101100
+237 0 -237 0 -236 0 +241 0 *
Fa
0  1e-07 87 0

0101000
+235 0 *
Ve
1e-07
15 50.2 26.5
0 0

0101101
*
Ed
 1e-07 1 1 0
1  148 0 0 2
3  366 367CN 85 0 0 2
0

0101000
+233 0 -245 0 *
Ed
 1e-07 1 1 0
1  149 0 0 6.28318530717959
2  368 85 0 0 6.28318530717959
2  369 90 0 0 6.28318530717959
2  370 5 0 0 6.28318530717959
0

0101000
+233 0 -233 0 *
Wi

0101100
+232 0 -232 0 -231 0 +244 0 *
Fa
0  1e-07 85 0

0101000
+230 0 *
Ve
1e-07
15 50.2 17
0 0

0101101
*
Ed
 1e-07 1 1 0
1  150 0 0 2
3  371 372CN 83 0 0 2
0

0101000
+228 0 -248 0 *
Ed
 1e-07 1 1 0
1  151 0 0 6.28318530717959
2  373 83 0 0 6.28318530717959
2  374 91 0 0 6.28318530717959
2  375 5 0 0 6.28318530717959
0

0101000
+228 0 -228 0 *
Wi

0101100
+227 0 -227 0 -226 0 +247 0 *
Fa
0  1e-07 83 0

0101000
+225 0 *
Ve
1e-07
15 4.39239916008752 18.1942710595889
0 0

0101101
*
Ed
 1e-07 1 1 0
1  152 0 0 2
2  376 78 0 0 2
4 G1 82 0 78 0
2  377 82 0 0 2
0

0101000
+223 0 -256 0 *
Ve
1.00000000111022e-07
15 31.1923991600875 38.4942710595889
0 0

0101101
*
Ed
 1.00000000111022e-07 1 1 0
1  153 0 0 2
2  378 81 0 0 2
4 G1 82 0 81 0
2  379 82 0 0 2
0

0101000
+221 0 -252 0 *
Ed
 1e-07 1 1 0
1  154 0 0 33.6203807236028
2  380 92 0 0 33.6203807236028
2  381 82 0 0 33.6203807236028
2  382 5 0 0 33.6203807236028
0

0101000
+223 0 -221 0 *
Wi

0101100
+222 0 -220 0 -219 0 +250 0 *
Fa
0  1e-07 82 0

0101000
+218 0 *
Ve
1e-07
15 33.6076008399125 35.3057289404111
0 0

0101101
*
Ed
 1e-07 1 1 0
1  155 0 0 2
2  383 81 0 0 2
4 G1 81 0 80 0
2  384 80 0 0 2
0

0101000
+216 0 -254 0 *
Ed
 1e-07 1 1 0
1  156 0 0 3.14159265358979
2  385 81 0 0 3.14159265358979
2  386 92 0 0 3.14159265358979
2  387 5 0 0 3.14159265358979
0

0101000
+221 0 -216 0 *
Wi

0101100
+220 0 -215 0 -214 0 +251 0 *
Fa
0  1e-07 81 0

0101000
+213 0 *
Ve
1.00000000111022e-07
15 6.80760083991248 15.0057289404111
0 0

0101101
*
Ed
 1.00000000111022e-07 1 1 0
1  157 0 0 2
2  388 78 0 0 2
4 G1 80 0 78 0
2  389 80 0 0 2
0

0101000
+211 0 -257 0 *
Ed
 1e-07 1 1 0
1  158 0 0 33.6203807236028
2  390 92 0 0 33.6203807236028
2  391 80 0 0 33.6203807236028
2  392 5 0 0 33.6203807236028
0

0101000
+216 0 -211 0 *
Wi

0101100
+215 0 -210 0 -209 0 +253 0 *
Fa
0  1e-07 80 0

0101000
+208 0 *
Ed
 1e-07 1 1 0
1  159 0 0 3.14159265358979
2  393 78 0 0 3.14159265358979
2  394 92 0 0 3.14159265358979
2  395 5 0 0 3.14159265358979
0

0101000
+211 0 -223 0 *
Wi

0101100
+210 0 -222 0 -206 0 +255 0 *
Fa
0  1e-07 78 0

0101000
+205 0 *
Ve
1e-07
15 -1 21
0 0

0101101
*
Ed
 1e-07 1 1 0
1  160 0 0 2
2  396 76 0 0 2
2  397 77 0 0 2
0

0101000
+203 0 -269 0 *
Ed
 1e-07 1 1 0
1  161 0 0 2
2  398 93 0 0 2
2  399 77 0 0 2
0

0101000
+600 0 -261 0 *
Ed
 1e-07 1 1 0
1  162 0 0 21.0237960416286
2  400 5 0 0 21.0237960416286
2  401 77 0 0 21.0237960416286
0

0101000
+203 0 -600 0 *
Wi

0101100
+202 0 -201 0 -200 0 +259 0 *
Fa
0  1e-07 77 0

0101000
+199 0 *
Ve
1e-07
15 39 0
0 0

0101101
*
Ed
 1e-07 1 1 0
1  163 0 0 2
2  402 93 0 0 2
0

0101000
+197 0 -263 0 *
Ve
1e-07
15 52 13
0 0

0101101
*
Ed
 1e-07 1 1 0
1  164 0 0 2
0

0101000
+195 0 -265 0 *
Ed
 1e-07 1 1 0
1  165 0 0 18.3847763108502
2  403 5 0 0 18.3847763108502
0

0101000
+197 0 -195 0 *
Wi

0101100
+196 0 -194 0 -193 0 +262 0 *
Fa
0  1e-07 94 0

0101000
+192 0 *
Ve
1e-07
15 54 40
0 0

0101101
*
Ed
 1e-07 1 1 0
1  166 0 0 2
0

0101000
+190 0 -267 0 *
Ed
 1e-07 1 1 0
1  167 0 0 27.0739727413618
2  404 5 0 0 27.0739727413618
0

0101000
+195 0 -190 0 *
Wi

0101100
+194 0 -189 0 -188 0 +264 0 *
Fa
0  1e-07 95 0

0101000
+187 0 *
Ve
1e-07
15 23 42
0 0

0101101
*
Ed
 1e-07 1 1 0
1  168 0 0 2
2  405 76 0 0 2
0

0101000
+185 0 -270 0 *
Ed
 1e-07 1 1 0
1  169 0 0 31.0644491340181
2  406 5 0 0 31.0644491340181
0

0101000
+190 0 -185 0 *
Wi

0101100
+189 0 -184 0 -183 0 +266 0 *
Fa
0  1e-07 96 0

0101000
+182 0 *
Ed
 1e-07 1 1 0
1  170 0 0 31.8904374382039
2  407 5 0 0 31.8904374382039
2  408 76 0 0 31.8904374382039
0

0101000
+185 0 -203 0 *
Wi

0101100
+184 0 -202 0 -180 0 +268 0 *
Fa
0  1e-07 76 0

0101000
+179 0 *
Ed
 1e-07 1 1 0
1  115 0 0 18.827298315946
2  293 70 0 0 18.827298315946
2  294 44 0 0 18.827298315946
2  295 5 0 0 18.827298315946
0

0101000
+281 0 -436 0 *
Wi

0101100
-177 0 -433 0 +272 0 +279 0 *
Fa
0  1e-07 44 0

0101000
+176 0 *
Ed
 1.5e-07 1 1 0
1  171 0 0.939498519688598 2.9394985196886
2  409 3 0 0.939498519688598 2.9394985196886
2  410 43 0 0.939498519688598 2.9394985196886
0

0101000
+438 0 -391 0 *
Ed
 1.5e-07 1 1 0
1  172 0 0.939498519688598 1.24070359162809
2  411 5 0 0.939498519688598 1.24070359162809
2  412 43 0 0.939498519688598 1.24070359162809
0

0101000
+439 0 -325 0 *
Wi

0101100
-390 0 +174 0 +437 0 -173 0 -321 0 +274 0 *
Fa
0  1e-07 43 0

0101000
+172 0 *
Ed
 1e-07 1 1 0
1  173 0 35 39
2  413 5 0 35 39
2  414 93 0 35 39
0

0101000
+346 0 -197 0 *
Ve
1e-07
-15 39 0
0 0

0101101
*
Ed
 1e-07 1 1 0
1  174 0 35 39
2  415 3 0 35 39
2  416 98 0 35 39
0

0101000
+345 0 -169 0 *
Ve
1e-07
-17 39 0
0 0

0101101
*
Ed
 1e-07 1 1 0
1  175 0 0 2
2  417 98 0 0 2
0

0101000
+167 0 -169 0 *
Ve
1e-07
-17 0 0
0 0

0101101
*
Ed
 1e-07 1 1 0
1  176 0 0 39
0

0101000
+165 0 -167 0 *
Ed
 1e-07 1 1 0
1  177 0 0 2
2  418 98 0 0 2
2  419 99 0 0 2
0

0101000
+165 0 -603 0 *
Wi

0101100
+597 0 +201 0 -260 0 -196 0 -170 0 +344 0 +168 0 -166 0 -164 0 +163 0 
*
Wi

0101100
-442 0 *
Wi

0101100
+447 0 +450 0 +455 0 +460 0 *
Wi

0101100
-467 0 *
Wi

0101100
-472 0 *
Wi

0101100
+477 0 +480 0 +485 0 +490 0 *
Wi

0101100
+497 0 +500 0 +505 0 +510 0 +515 0 +520 0 +525 0 +530 0 *
Wi

0101100
-537 0 *
Fa
0  0 97 0

0111000
+162 0 +161 0 +160 0 +159 0 +158 0 +157 0 +156 0 +155 0 *
Ve
1e-07
-17 -1 21
0 0

0101101
*
Ve
1e-07
-15 -1 21
0 0

0101101
*
Ed
 1e-07 1 1 0
1  178 0 0 2
2  420 100 0 0 2
2  421 99 0 0 2
0

0101000
+153 0 -152 0 *
Ed
 1e-07 1 1 0
1  179 0 0 21.0237960416286
2  422 101 0 0 21.0237960416286
2  423 99 0 0 21.0237960416286
0

0101000
+153 0 -165 0 *
Ed
 1e-07 1 1 0
1  180 0 0 21.0237960416286
2  424 3 0 0 21.0237960416286
2  425 99 0 0 21.0237960416286
0

0101000
+152 0 -603 0 *
Wi

0101100
+151 0 -163 0 -150 0 +149 0 *
Fa
0  1e-07 99 0

0101000
+148 0 *
Ve
1e-07
-17 23 42
0 0

0101101
*
Ve
1e-07
-15 23 42
0 0

0101101
*
Ed
 1e-07 1 1 0
1  181 0 0 2
2  426 100 0 0 2
0

0101000
+146 0 -145 0 *
Ed
 1e-07 1 1 0
1  182 0 0 31.8904374382039
2  427 101 0 0 31.8904374382039
2  428 100 0 0 31.8904374382039
0

0101000
+146 0 -153 0 *
Ed
 1e-07 1 1 0
1  183 0 0 31.8904374382039
2  429 3 0 0 31.8904374382039
2  430 100 0 0 31.8904374382039
0

0101000
+145 0 -152 0 *
Wi

0101100
+144 0 -151 0 -143 0 +142 0 *
Fa
0  1e-07 100 0

0101000
+141 0 *
Ve
1e-07
-17 54 40
0 0

0101101
*
Ve
1e-07
-15 54 40
0 0

0101101
*
Ed
 1e-07 1 1 0
1  184 0 0 2
0

0101000
+139 0 -138 0 *
Ed
 1e-07 1 1 0
1  185 0 0 31.0644491340181
2  431 101 0 0 31.0644491340181
0

0101000
+139 0 -146 0 *
Ed
 1e-07 1 1 0
1  186 0 0 31.0644491340181
2  432 3 0 0 31.0644491340181
0

0101000
+138 0 -145 0 *
Wi

0101100
+137 0 -144 0 -136 0 +135 0 *
Fa
0  1e-07 102 0

0101000
+134 0 *
Ve
1e-07
-17 52 13
0 0

0101101
*
Ve
1e-07
-15 52 13
0 0

0101101
*
Ed
 1e-07 1 1 0
1  187 0 0 2
0

0101000
+132 0 -131 0 *
Ed
 1e-07 1 1 0
1  188 0 0 27.0739727413618
2  433 101 0 0 27.0739727413618
0

0101000
+132 0 -139 0 *
Ed
 1e-07 1 1 0
1  189 0 0 27.0739727413618
2  434 3 0 0 27.0739727413618
0

0101000
+131 0 -138 0 *
Wi

0101100
+130 0 -137 0 -129 0 +128 0 *
Fa
0  1e-07 103 0

0101000
+127 0 *
Ed
 1e-07 1 1 0
1  190 0 0 18.3847763108502
2  435 101 0 0 18.3847763108502
0

0101000
+167 0 -132 0 *
Wi

0101100
+143 0 +150 0 +164 0 +125 0 +129 0 +136 0 *
Ve
1.00000003552714e-07
-17 49.3459459459459 18.5328828828829
0 0

0101101
*
Ed
 1.00000003552714e-07 1 1 0
1  191 0 0 6.28318530717959
2  436 105 0 0 6.28318530717959
2  437 106 0 0 6.28318530717959
2  438 101 0 0 6.28318530717959
0

0101000
+123 0 -123 0 *
Wi

0101100
-122 0 *
Ve
1.00000003552714e-07
-17 49.2576576576577 27.9824324324324
0 0

0101101
*
Ed
 1.00000003552714e-07 1 1 0
1  192 0 0 6.28318530717959
2  439 107 0 0 6.28318530717959
2  440 108 0 0 6.28318530717959
2  441 101 0 0 6.28318530717959
0

0101000
+120 0 -120 0 *
Wi

0101100
-119 0 *
Ve
1.00000003552714e-07
-17 49.127027027027 37.1806306306306
0 0

0101101
*
Ed
 1.00000003552714e-07 1 1 0
1  193 0 0 6.28318530717959
2  442 109 0 0 6.28318530717959
2  443 110 0 0 6.28318530717959
2  444 101 0 0 6.28318530717959
0

0101000
+117 0 -117 0 *
Wi

0101100
-116 0 *
Ve
1.00000003552714e-07
-17 27.8954954954955 33.9581081081081
0 0

0101101
*
Ed
 1.00000003552714e-07 1 1 0
1  194 0 0 6.28318530717959
2  445 111 0 0 6.28318530717959
2  446 112 0 0 6.28318530717959
2  447 101 0 0 6.28318530717959
0

0101000
+114 0 -114 0 *
Wi

0101100
-113 0 *
Ve
1.00000003552714e-07
-17 29.8045045045045 35.3166666666667
0 0

0101101
*
Ed
 1.00000003552714e-07 1 1 0
1  195 0 0 6.28318530717959
2  448 113 0 0 6.28318530717959
2  449 114 0 0 6.28318530717959
2  450 101 0 0 6.28318530717959
0

0101000
+111 0 -111 0 *
Wi

0101100
-110 0 *
Ve
1.00000003552714e-07
-17 31.6400900900901 36.622972972973
0 0

0101101
*
Ed
 1.00000003552714e-07 1 1 0
1  196 0 0 6.28318530717959
2  451 115 0 0 6.28318530717959
2  452 116 0 0 6.28318530717959
2  453 101 0 0 6.28318530717959
0

0101000
+108 0 -108 0 *
Wi

0101100
-107 0 *
Ve
1.00000003552714e-07
-17 22.2702702702703 25.6981981981982
0 0

0101101
*
Ed
 1.00000003552714e-07 1 1 0
1  197 0 0 6.28318530717959
2  454 117 0 0 6.28318530717959
2  455 118 0 0 6.28318530717959
2  456 101 0 0 6.28318530717959
0

0101000
+105 0 -105 0 *
Wi

0101100
-104 0 *
Ve
1.00000003552714e-07
-17 11.1283783783784 18.818018018018
0 0

0101101
*
Ed
 1.00000003552714e-07 1 1 0
1  198 0 0 6.28318530717959
2  457 119 0 0 6.28318530717959
2  458 120 0 0 6.28318530717959
2  459 101 0 0 6.28318530717959
0

0101000
+102 0 -102 0 *
Wi

0101100
-101 0 *
Ve
1.00000003552714e-07
-17 5.5481981981982 14.8468468468468
0 0

0101101
*
Ed
 1.00000003552714e-07 1 1 0
1  199 0 0 6.28318530717959
2  460 121 0 0 6.28318530717959
2  461 122 0 0 6.28318530717959
2  462 101 0 0 6.28318530717959
0

0101000
+99 0 -99 0 *
Wi

0101100
-98 0 *
Ve
1.00000003552714e-07
-17 7.38378378378378 16.1531531531532
0 0

0101101
*
Ed
 1.00000003552714e-07 1 1 0
1  200 0 0 6.28318530717959
2  463 123 0 0 6.28318530717959
2  464 124 0 0 6.28318530717959
2  465 101 0 0 6.28318530717959
0

0101000
+96 0 -96 0 *
Wi

0101100
-95 0 *
Ve
1.00000003552714e-07
-17 9.29279279279279 17.5117117117117
0 0

0101101
*
Ed
 1.00000003552714e-07 1 1 0
1  201 0 0 6.28318530717959
2  466 125 0 0 6.28318530717959
2  467 126 0 0 6.28318530717959
2  468 101 0 0 6.28318530717959
0

0101000
+93 0 -93 0 *
Wi

0101100
-92 0 *
Ve
1.00000003552714e-07
-17 26.0599099099099 32.6518018018018
0 0

0101101
*
Ed
 1.00000003552714e-07 1 1 0
1  202 0 0 6.28318530717959
2  469 127 0 0 6.28318530717959
2  470 128 0 0 6.28318530717959
2  471 101 0 0 6.28318530717959
0

0101000
+90 0 -90 0 *
Wi

0101100
-89 0 *
Fa
0  0 104 0

0111000
+124 0 +121 0 +118 0 +115 0 +112 0 +109 0 +106 0 +103 0 +100 0 +97 0 
+94 0 +91 0 +88 0 *
Ve
1.00000003552714e-07
-15 26.0599099099099 32.6518018018018
0 0

0101101
*
Ed
 1e-07 1 1 0
1  203 0 0 2
3  472 473CN 127 0 0 2
0

0101000
+90 0 -86 0 *
Ed
 1.00000003552714e-07 1 1 0
1  204 0 0 6.28318530717959
2  474 127 0 0 6.28318530717959
2  475 129 0 0 6.28318530717959
2  476 3 0 0 6.28318530717959
0

0101000
+86 0 -86 0 *
Wi

0101100
+85 0 -85 0 -89 0 +84 0 *
Fa
0  1e-07 127 0

0101000
+83 0 *
Ve
1.00000003552714e-07
-15 9.29279279279279 17.5117117117117
0 0

0101101
*
Ed
 1e-07 1 1 0
1  205 0 0 2
3  477 478CN 125 0 0 2
0

0101000
+93 0 -81 0 *
Ed
 1.00000003552714e-07 1 1 0
1  206 0 0 6.28318530717959
2  479 125 0 0 6.28318530717959
2  480 130 0 0 6.28318530717959
2  481 3 0 0 6.28318530717959
0

0101000
+81 0 -81 0 *
Wi

0101100
+80 0 -80 0 -92 0 +79 0 *
Fa
0  1e-07 125 0

0101000
+78 0 *
Ve
1.00000003552714e-07
-15 7.38378378378378 16.1531531531532
0 0

0101101
*
Ed
 1e-07 1 1 0
1  207 0 0 2
3  482 483CN 123 0 0 2
0

0101000
+96 0 -76 0 *
Ed
 1.00000003552714e-07 1 1 0
1  208 0 0 6.28318530717959
2  484 123 0 0 6.28318530717959
2  485 131 0 0 6.28318530717959
2  486 3 0 0 6.28318530717959
0

0101000
+76 0 -76 0 *
Wi

0101100
+75 0 -75 0 -95 0 +74 0 *
Fa
0  1e-07 123 0

0101000
+73 0 *
Ve
1.00000003552714e-07
-15 5.5481981981982 14.8468468468468
0 0

0101101
*
Ed
 1e-07 1 1 0
1  209 0 0 2
3  487 488CN 121 0 0 2
0

0101000
+99 0 -71 0 *
Ed
 1.00000003552714e-07 1 1 0
1  210 0 0 6.28318530717959
2  489 121 0 0 6.28318530717959
2  490 132 0 0 6.28318530717959
2  491 3 0 0 6.28318530717959
0

0101000
+71 0 -71 0 *
Wi

0101100
+70 0 -70 0 -98 0 +69 0 *
Fa
0  1e-07 121 0

0101000
+68 0 *
Ve
1.00000003552714e-07
-15 11.1283783783784 18.818018018018
0 0

0101101
*
Ed
 1e-07 1 1 0
1  211 0 0 2
3  492 493CN 119 0 0 2
0

0101000
+102 0 -66 0 *
Ed
 1.00000003552714e-07 1 1 0
1  212 0 0 6.28318530717959
2  494 119 0 0 6.28318530717959
2  495 133 0 0 6.28318530717959
2  496 3 0 0 6.28318530717959
0

0101000
+66 0 -66 0 *
Wi

0101100
+65 0 -65 0 -101 0 +64 0 *
Fa
0  1e-07 119 0

0101000
+63 0 *
Ve
1.00000003552714e-07
-15 22.2702702702703 25.6981981981982
0 0

0101101
*
Ed
 1e-07 1 1 0
1  213 0 0 2
3  497 498CN 117 0 0 2
0

0101000
+105 0 -61 0 *
Ed
 1.00000003552714e-07 1 1 0
1  214 0 0 6.28318530717959
2  499 117 0 0 6.28318530717959
2  500 134 0 0 6.28318530717959
2  501 3 0 0 6.28318530717959
0

0101000
+61 0 -61 0 *
Wi

0101100
+60 0 -60 0 -104 0 +59 0 *
Fa
0  1e-07 117 0

0101000
+58 0 *
Ve
1.00000003552714e-07
-15 31.6400900900901 36.622972972973
0 0

0101101
*
Ed
 1e-07 1 1 0
1  215 0 0 2
3  502 503CN 115 0 0 2
0

0101000
+108 0 -56 0 *
Ed
 1.00000003552714e-07 1 1 0
1  216 0 0 6.28318530717959
2  504 115 0 0 6.28318530717959
2  505 135 0 0 6.28318530717959
2  506 3 0 0 6.28318530717959
0

0101000
+56 0 -56 0 *
Wi

0101100
+55 0 -55 0 -107 0 +54 0 *
Fa
0  1e-07 115 0

0101000
+53 0 *
Ve
1.00000003552714e-07
-15 29.8045045045045 35.3166666666667
0 0

0101101
*
Ed
 1e-07 1 1 0
1  217 0 0 2
3  507 508CN 113 0 0 2
0

0101000
+111 0 -51 0 *
Ed
 1.00000003552714e-07 1 1 0
1  218 0 0 6.28318530717959
2  509 113 0 0 6.28318530717959
2  510 136 0 0 6.28318530717959
2  511 3 0 0 6.28318530717959
0

0101000
+51 0 -51 0 *
Wi

0101100
+50 0 -50 0 -110 0 +49 0 *
Fa
0  1e-07 113 0

0101000
+48 0 *
Ve
1.00000003552714e-07
-15 27.8954954954955 33.9581081081081
0 0

0101101
*
Ed
 1e-07 1 1 0
1  219 0 0 2
3  512 513CN 111 0 0 2
0

0101000
+114 0 -46 0 *
Ed
 1.00000003552714e-07 1 1 0
1  220 0 0 6.28318530717959
2  514 111 0 0 6.28318530717959
2  515 137 0 0 6.28318530717959
2  516 3 0 0 6.28318530717959
0

0101000
+46 0 -46 0 *
Wi

0101100
+45 0 -45 0 -113 0 +44 0 *
Fa
0  1e-07 111 0

0101000
+43 0 *
Ve
1.00000003552714e-07
-15 49.127027027027 37.1806306306306
0 0

0101101
*
Ed
 1e-07 1 1 0
1  221 0 0 2
3  517 518CN 109 0 0 2
0

0101000
+117 0 -41 0 *
Ed
 1.00000003552714e-07 1 1 0
1  222 0 0 6.28318530717959
2  519 109 0 0 6.28318530717959
2  520 138 0 0 6.28318530717959
2  521 3 0 0 6.28318530717959
0

0101000
+41 0 -41 0 *
Wi

0101100
+40 0 -40 0 -116 0 +39 0 *
Fa
0  1e-07 109 0

0101000
+38 0 *
Ve
1.00000003552714e-07
-15 49.2576576576577 27.9824324324324
0 0

0101101
*
Ed
 1e-07 1 1 0
1  223 0 0 2
3  522 523CN 107 0 0 2
0

0101000
+120 0 -36 0 *
Ed
 1.00000003552714e-07 1 1 0
1  224 0 0 6.28318530717959
2  524 107 0 0 6.28318530717959
2  525 139 0 0 6.28318530717959
2  526 3 0 0 6.28318530717959
0

0101000
+36 0 -36 0 *
Wi

0101100
+35 0 -35 0 -119 0 +34 0 *
Fa
0  1e-07 107 0

0101000
+33 0 *
Ve
1.00000003552714e-07
-15 49.3459459459459 18.5328828828829
0 0

0101101
*
Ed
 1e-07 1 1 0
1  225 0 0 2
3  527 528CN 105 0 0 2
0

0101000
+123 0 -31 0 *
Ed
 1.00000003552714e-07 1 1 0
1  226 0 0 6.28318530717959
2  529 105 0 0 6.28318530717959
2  530 140 0 0 6.28318530717959
2  531 3 0 0 6.28318530717959
0

0101000
+31 0 -31 0 *
Wi

0101100
+30 0 -30 0 -122 0 +29 0 *
Fa
0  1e-07 105 0

0101000
+28 0 *
Ed
 1e-07 1 1 0
1  227 0 0 18.3847763108502
2  532 3 0 0 18.3847763108502
0

0101000
+169 0 -131 0 *
Wi

0101100
+166 0 -130 0 -125 0 +26 0 *
Fa
0  1e-07 141 0

0101000
+25 0 *
Wi

0101100
+180 0 +200 0 +598 0 -589 0 -428 0 +287 0 +278 0 +177 0 -435 0 +173 0 
+324 0 +329 0 +338 0 +384 0 +349 0 -342 0 +170 0 +193 0 +188 0 +183 0 
*
Wi

0101100
-226 0 *
Wi

0101100
-231 0 *
Wi

0101100
-236 0 *
Wi

0101100
+206 0 +219 0 +214 0 +209 0 *
Fa
0  1e-07 5 0

0111000
+23 0 +22 0 +21 0 +20 0 +19 0 *
Wi

0101100
+142 0 +149 0 +601 0 +590 0 -427 0 +174 0 +381 0 +352 0 -343 0 +168 0 
+26 0 +128 0 +135 0 *
Wi

0101100
-29 0 *
Wi

0101100
-34 0 *
Wi

0101100
-39 0 *
Wi

0101100
-44 0 *
Wi

0101100
-49 0 *
Wi

0101100
-54 0 *
Wi

0101100
-59 0 *
Wi

0101100
-64 0 *
Wi

0101100
-69 0 *
Wi

0101100
-74 0 *
Wi

0101100
-79 0 *
Wi

0101100
-84 0 *
Fa
0  1e-07 3 0

0111000
+17 0 +16 0 +15 0 +14 0 +13 0 +12 0 +11 0 +10 0 +9 0 +8 0 
+7 0 +6 0 +5 0 *
Sh

0101100
-594 0 +540 0 +535 0 -528 0 -523 0 -518 0 -513 0 -508 0 -503 0 -498 0 
-495 0 -488 0 -483 0 -478 0 -475 0 +470 0 +465 0 -458 0 -453 0 -448 0 
-445 0 +440 0 +398 0 +393 0 -354 0 +347 0 -340 0 -333 0 -326 0 -319 0 
-315 0 -312 0 -309 0 -307 0 +304 0 -300 0 -297 0 -294 0 -292 0 +289 0 
-282 0 -275 0 -239 0 +234 0 +229 0 +224 0 -217 0 -212 0 -207 0 -204 0 
-198 0 -191 0 -186 0 -181 0 -178 0 -175 0 -171 0 -154 0 -147 0 -140 0 
-133 0 -126 0 -87 0 +82 0 +77 0 +72 0 +67 0 +62 0 +57 0 +52 0 
+47 0 +42 0 +37 0 +32 0 +27 0 -24 0 -18 0 +4 0 *
So

0100000
+3 0 *
Co

1100000
+2 0 *

+1 0 