DBRep_DrawableShape

CASCADE Topology V3, (c) Open Cascade
Locations 0
Curve2ds 40
1 3.1415926535897931 0 0 -1 
1 0 0 0 -1 
1 41.688303395987063 4.0499999999999998 -1 2.3174623686227292e-19 
1 41.688303395987063 4.0499999999999998 -1 2.3174623686227292e-19 
1 0 0 0 -1 
1 0 0 1 0 
2 41.688303395987056 2.7079629584980422e-16 2.3174623686227297e-19 -1 1 2.3174623686227297e-19 4.0499999999999998
1 0 -2 1 0 
2 41.688303395987056 2.7079629584980422e-16 2.3174623686227297e-19 -1 1 2.3174623686227297e-19 4.0499999999999998
1 3.1415926535897931 0 0 -1 
1 0 0 1 0 
2 -41.688303395987056 -2.7079629584980422e-16 -2.3174623686227297e-19 1 -1 -2.3174623686227297e-19 4.0499999999999998
1 0 -2 1 0 
2 -41.688303395987056 -2.7079629584980422e-16 -2.3174623686227297e-19 1 -1 -2.3174623686227297e-19 4.0499999999999998
1 -41.688303395987063 -4.0499999999999998 1 -2.3174623686227292e-19 
1 0 0 1 0 
2 8.1965684239904135e-17 -5.5511151231257827e-17 1 0 -0 1 0.97382963821980995
2 -0.072391256045883937 -0.002732658028017928 0.0074062312121749851 -0.99997257349350932 -0.99997257349350932 -0.0074062312121749851 0.97382963821980995
1 0 0 1 0 
2 -3.8857805861880479e-16 0 1 0 -0 1 1.6631950219892722
2 -41.688303395987056 -6.7099132313495647e-15 0.0074062312121749851 -0.99997257349350932 -0.99997257349350932 -0.0074062312121749851 1.6631950219892722
1 0 0 1 0 
2 1.1102230246251565e-16 0 1 0 -0 1 1.6142589512647147
2 41.688303395987056 6.7099132313495647e-15 0.0074062312121749851 -0.99997257349350932 -0.99997257349350932 -0.0074062312121749851 1.6142589512647147
1 -41.688303395987063 -4.0499999999999998 1 -2.3174623686227292e-19 
1 0 -2 1 0 
2 8.1965684239904135e-17 -5.5511151231257827e-17 1 0 -0 1 0.97382963821980995
2 -0.072391256045883937 -0.002732658028017928 0.0074062312121749851 -0.99997257349350932 -0.99997257349350932 -0.0074062312121749851 0.97382963821980995
1 0 -2 1 0 
2 -3.8857805861880479e-16 0 1 0 -0 1 1.6631950219892722
2 -41.688303395987056 -6.7099132313495647e-15 0.0074062312121749851 -0.99997257349350932 -0.99997257349350932 -0.0074062312121749851 1.6631950219892722
1 0 -2 1 0 
2 1.1102230246251565e-16 0 1 0 -0 1 1.6142589512647147
2 41.688303395987056 6.7099132313495647e-15 0.0074062312121749851 -0.99997257349350932 -0.99997257349350932 -0.0074062312121749851 1.6142589512647147
1 0 0 0 -1 
1 6.2831853071795862 0 0 -1 
1 0 0 0 -1 
1 6.2831853071795862 0 0 -1 
1 0 0 0 -1 
1 6.2831853071795862 0 0 -1 
Curves 21
1 -3.741867854421645 -41.741291770973959 0 0 0 1 
1 -4.3593742820096049 41.633028291952805 0 0 0 1 
1 -3.741867854421645 -41.741291770973959 0 -0.0074062312121749851 0.99997257349350932 0 
1 -3.741867854421645 -41.741291770973959 2 -0.0074062312121749851 0.99997257349350932 0 
1 4.3579099908757799 -41.68130129815534 0 0 0 1 
2 0.30802106822706699 -41.711296534564646 0 0 0 -1 0.99997257349350932 0.0074062312121749851 0 0.0074062312121749851 -0.99997257349350932 0 4.0499999999999998
2 0.30802106822706699 -41.711296534564646 2 0 0 -1 0.99997257349350932 0.0074062312121749851 0 0.0074062312121749851 -0.99997257349350932 0 4.0499999999999998
1 3.7404035632878201 41.693018764771423 0 0 0 1 
2 -0.30948535936089194 41.66302352836211 0 -0 0 -1 -0.99997257349350932 -0.0074062312121749851 0 -0.0074062312121749851 0.99997257349350932 0 4.0499999999999998
2 -0.30948535936089194 41.66302352836211 2 -0 0 -1 -0.99997257349350932 -0.0074062312121749851 0 -0.0074062312121749851 0.99997257349350932 0 4.0499999999999998
1 3.7404035632878201 41.693018764771423 0 0.0074062312121749851 -0.99997257349350932 0 
2 0.0014642911338267339 0.04827300620254249 0 0 0 1 1 0 0 0 1 0 0.97382963821980995
2 -0.3094853593608855 41.66302352836211 0 0 0 1 1 0 0 0 1 0 1.6631950219892722
2 0.30802106822706055 -41.711296534564646 0 0 0 1 1 0 0 0 1 0 1.6142589512647147
1 3.7404035632878201 41.693018764771423 2 0.0074062312121749851 -0.99997257349350932 0 
2 0.0014642911338267339 0.04827300620254249 2 0 0 1 1 0 0 0 1 0 0.97382963821980995
2 -0.3094853593608855 41.66302352836211 2 0 0 1 1 0 0 0 1 0 1.6631950219892722
2 0.30802106822706055 -41.711296534564646 2 0 0 1 1 0 0 0 1 0 1.6142589512647147
1 0.97529392935363668 0.04827300620254249 0 0 0 1 
1 1.3537096626283867 41.66302352836211 0 0 0 1 
1 1.9222800194917753 -41.711296534564646 0 0 0 1 
Polygon3D 0
PolygonOnTriangulations 0
Surfaces 15
1 -3.741867854421645 -41.741291770973959 0 -0.99997257349350932 -0.0074062312121749851 0 -0.0074062312121749851 0.99997257349350932 0 -0 0 -1 
2 0.30802106822706699 -41.711296534564646 0 0 0 -1 0.99997257349350932 0.0074062312121749851 0 0.0074062312121749851 -0.99997257349350932 0 4.0499999999999998
2 -0.30948535936089194 41.66302352836211 0 -0 0 -1 -0.99997257349350932 -0.0074062312121749851 0 -0.0074062312121749851 0.99997257349350932 0 4.0499999999999998
1 -0.00073214556691247499 -0.02413650310126695 0 0 0 -1 0.0074062312121749851 -0.99997257349350932 0 -0.99997257349350932 -0.0074062312121749851 0 
1 -0.00073214556691247499 -0.02413650310126695 2 0 0 -1 0.0074062312121749851 -0.99997257349350932 0 -0.99997257349350932 -0.0074062312121749851 0 
1 3.7404035632878201 41.693018764771423 0 0.99997257349350932 0.0074062312121749851 0 0.0074062312121749851 -0.99997257349350932 0 0 0 -1 
2 0.0014642911338267339 0.04827300620254249 0 -0 -0 -1 1 0 0 0 1 0 0.97382963821980995
1 0.001464291133826652 0.048273006202542545 0 0 0 1 1 0 -0 -0 1 0 
2 -0.3094853593608855 41.66302352836211 0 -0 -0 -1 1 0 0 0 1 0 1.6631950219892722
1 -0.30948535936088511 41.66302352836211 0 0 0 1 1 0 -0 -0 1 0 
2 0.30802106822706055 -41.711296534564646 0 -0 -0 -1 1 0 0 0 1 0 1.6142589512647147
1 0.30802106822706043 -41.711296534564646 0 0 0 1 1 0 -0 -0 1 0 
1 0.001464291133826652 0.048273006202542545 2 0 0 1 1 0 -0 -0 1 0 
1 -0.30948535936088511 41.66302352836211 2 0 0 1 1 0 -0 -0 1 0 
1 0.30802106822706043 -41.711296534564646 2 0 0 1 1 0 -0 -0 1 0 
Triangulations 0

TShapes 62
Ve
1e-07
-3.74186785442165 -41.741291770974 0
0 0

0101101
*
Ve
1e-07
-3.74186785442165 -41.741291770974 2
0 0

0101101
*
Ed
 1e-07 1 1 0
1  1 0 0 2
2  1 2 0 0 2
4 G1 1 0 2 0
0

0101000
+62 0 -61 0 *
Ve
1e-07
-4.3593742820096 41.6330282919528 0
0 0

0101101
*
Ve
1e-07
-4.3593742820096 41.6330282919528 2
0 0

0101101
*
Ed
 1e-07 1 1 0
1  2 0 0 2
2  2 3 0 0 2
4 G1 1 0 3 0
0

0101000
+59 0 -58 0 *
Ed
 1e-07 1 1 0
1  3 0 0 83.3766067919741
2  3 4 0 0 83.3766067919741
0

0101000
+62 0 -59 0 *
Ed
 1e-07 1 1 0
1  4 0 0 83.3766067919741
2  4 5 0 0 83.3766067919741
0

0101000
+61 0 -58 0 *
Wi

0101100
+60 0 -57 0 -56 0 +55 0 *
Fa
0  1e-07 1 0

0101000
+54 0 *
Ve
1e-07
4.35790999087578 -41.6813012981553 0
0 0

0101101
*
Ve
1e-07
4.35790999087578 -41.6813012981553 2
0 0

0101101
*
Ed
 1e-07 1 1 0
1  5 0 0 2
2  5 2 0 0 2
4 G1 6 0 2 0
0

0101000
+52 0 -51 0 *
Ed
 1e-07 1 1 0
1  6 0 0 3.14159265358979
2  6 2 0 0 3.14159265358979
2  7 4 0 0 3.14159265358979
0

0101000
+52 0 -62 0 *
Ed
 1e-07 1 1 0
1  7 0 0 3.14159265358979
2  8 2 0 0 3.14159265358979
2  9 5 0 0 3.14159265358979
0

0101000
+51 0 -61 0 *
Wi

0101100
+50 0 -60 0 -49 0 +48 0 *
Fa
0  1e-07 2 0

0101000
+47 0 *
Ve
1e-07
3.74040356328782 41.6930187647714 0
0 0

0101101
*
Ve
1e-07
3.74040356328782 41.6930187647714 2
0 0

0101101
*
Ed
 1e-07 1 1 0
1  8 0 0 2
2  10 3 0 0 2
4 G1 3 0 6 0
0

0101000
+45 0 -44 0 *
Ed
 1e-07 1 1 0
1  9 0 0 3.14159265358979
2  11 3 0 0 3.14159265358979
2  12 4 0 0 3.14159265358979
0

0101000
+59 0 -45 0 *
Ed
 1e-07 1 1 0
1  10 0 0 3.14159265358979
2  13 3 0 0 3.14159265358979
2  14 5 0 0 3.14159265358979
0

0101000
+58 0 -44 0 *
Wi

0101100
+57 0 -43 0 -42 0 +41 0 *
Fa
0  1e-07 3 0

0101000
+40 0 *
Ed
 1e-07 1 1 0
1  11 0 0 83.3766067919741
2  15 4 0 0 83.3766067919741
0

0101000
+45 0 -52 0 *
Wi

0101100
+56 0 +49 0 +42 0 +38 0 *
Ve
1e-07
0.975293929353637 0.0482730062025425 0
0 0

0101101
*
Ed
 1e-07 1 1 0
1  12 0 0 6.28318530717959
2  16 7 0 0 6.28318530717959
2  17 8 0 0 6.28318530717959
2  18 4 0 0 6.28318530717959
0

0101000
+36 0 -36 0 *
Wi

0101100
+35 0 *
Ve
1e-07
1.35370966262839 41.6630235283621 0
0 0

0101101
*
Ed
 1e-07 1 1 0
1  13 0 0 6.28318530717959
2  19 9 0 0 6.28318530717959
2  20 10 0 0 6.28318530717959
2  21 4 0 0 6.28318530717959
0

0101000
+33 0 -33 0 *
Wi

0101100
+32 0 *
Ve
1e-07
1.92228001949178 -41.7112965345646 0
0 0

0101101
*
Ed
 1e-07 1 1 0
1  14 0 0 6.28318530717959
2  22 11 0 0 6.28318530717959
2  23 12 0 0 6.28318530717959
2  24 4 0 0 6.28318530717959
0

0101000
+30 0 -30 0 *
Wi

0101100
+29 0 *
Fa
0  1e-07 4 0

0101000
+37 0 +34 0 +31 0 +28 0 *
Ed
 1e-07 1 1 0
1  15 0 0 83.3766067919741
2  25 5 0 0 83.3766067919741
0

0101000
+44 0 -51 0 *
Wi

0101100
+55 0 +48 0 +41 0 +26 0 *
Ve
1e-07
0.975293929353637 0.0482730062025425 2
0 0

0101101
*
Ed
 1e-07 1 1 0
1  16 0 0 6.28318530717959
2  26 7 0 0 6.28318530717959
2  27 13 0 0 6.28318530717959
2  28 5 0 0 6.28318530717959
0

0101000
+24 0 -24 0 *
Wi

0101100
+23 0 *
Ve
1e-07
1.35370966262839 41.6630235283621 2
0 0

0101101
*
Ed
 1e-07 1 1 0
1  17 0 0 6.28318530717959
2  29 9 0 0 6.28318530717959
2  30 14 0 0 6.28318530717959
2  31 5 0 0 6.28318530717959
0

0101000
+21 0 -21 0 *
Wi

0101100
+20 0 *
Ve
1e-07
1.92228001949178 -41.7112965345646 2
0 0

0101101
*
Ed
 1e-07 1 1 0
1  18 0 0 6.28318530717959
2  32 11 0 0 6.28318530717959
2  33 15 0 0 6.28318530717959
2  34 5 0 0 6.28318530717959
0

0101000
+18 0 -18 0 *
Wi

0101100
+17 0 *
Fa
0  1e-07 5 0

0101000
+25 0 +22 0 +19 0 +16 0 *
Wi

0101100
+43 0 -50 0 -38 0 +26 0 *
Fa
0  1e-07 6 0

0101000
+14 0 *
Ed
 1e-07 1 1 0
1  19 0 0 2
3  35 36CN 7 0 0 2
0

0101000
+36 0 -24 0 *
Wi

0101100
+12 0 -12 0 -35 0 +23 0 *
Fa
0  1e-07 7 0

0101000
+11 0 *
Ed
 1e-07 1 1 0
1  20 0 0 2
3  37 38CN 9 0 0 2
0

0101000
+33 0 -21 0 *
Wi

0101100
+9 0 -9 0 -32 0 +20 0 *
Fa
0  1e-07 9 0

0101000
+8 0 *
Ed
 1e-07 1 1 0
1  21 0 0 2
3  39 40CN 11 0 0 2
0

0101000
+30 0 -18 0 *
Wi

0101100
+6 0 -6 0 -29 0 +17 0 *
Fa
0  1e-07 11 0

0101000
+5 0 *
Sh

0101100
+53 0 +46 0 +39 0 +27 0 -15 0 +13 0 +10 0 +7 0 +4 0 *
So

0100000
+3 0 *
Co

1100000
+2 0 *

+1 0 