DBRep_DrawableShape

CASCADE Topology V3, (c) Open Cascade
Locations 0
Curve2ds 92
1 0 0 0 -1 
1 6 8.25 -1 0 
1 0 -2 1 0 
1 -9.6625782698941798 -12.013051983589857 1 0 
1 0 -2 1 0 
1 6 8.25 -1 0 
1 0 0 1 0 
1 0 0 0 -1 
1 6 -8.25 0 1 
1 11.33742173010582 -12.013051983589857 0 1 
1 0 0 1 0 
1 -6 8.25 0 -1 
1 0 -2 1 0 
2 0 0 0 -1 1 0 1.5
2 1.5 0 0 -1 1 0 1.5
1 0 0 0 -1 
1 6.2831853071795862 0 0 -1 
1 0 0 1 0 
2 0 0 0 -1 1 0 1.5
2 1.5 0 0 -1 1 0 1.5
1 12 0 0 -1 
1 -6 -8.25 1 0 
1 0 0 1 0 
1 11.33742173010582 4.4869480164101425 -1 0 
1 0 -2 1 0 
1 9.5 0 0 -1 
1 0 0 0 -1 
1 12 -2 -1 0 
1 -6 5 1 0 
1 6 5 -1 0 
1 0 -2 1 0 
1 6 -5 0 1 
1 1.8374217301058207 4.4869480164101425 0 1 
1 0 0 1 0 
1 -6 5 0 -1 
1 0 -2 1 0 
2 0 0 0 -1 1 0 1.5
2 1.5 0 0 -1 1 0 1.5
1 0 0 0 -1 
1 6.2831853071795862 0 0 -1 
1 0 0 1 0 
2 0 0 0 -1 1 0 1.5
2 1.5 0 0 -1 1 0 1.5
1 6 5 -1 0 
1 0 0 1 0 
1 6 -5 0 1 
1 -6 -5 1 0 
1 0 0 1 0 
8 -0.25652599179493052 9.7434740082050695
1 -0.16257826989417945 4.743474008205073 0 1 
8 -0.25652599179493052 9.7434740082050695
1 -4 4.7434740082050695 0 -1 
1 12 0 0 -1 
1 1.8374217301058207 14.486948016410143 -1 0 
1 0 -2 1 0 
1 9 0 0 -1 
1 0 0 0 -1 
1 -7.1625782698941798 14.486948016410143 -0.70710678118654757 -0.70710678118654757 
1 -7.1625782698941798 14.486948016410143 -0.70710678118654757 -0.70710678118654757 
1 0 0 0 -1 
8 -1.9187108650529103 0.08128913494708967
1 -0.081289134947089781 4.4869480164101425 -1 0 
8 -1.9187108650529103 0.08128913494708967
1 10 -0.08128913494708967 -0 1 
1 6 -8.25 0 1 
8 -10.131525991794929 6.3684740082050713
1 9.3374217301058202 -1.8815259917949287 0 1 
8 -10.131525991794929 6.3684740082050713
1 -4 -1.8815259917949287 0 -1 
8 -10.131525991794929 6.3684740082050713
1 -7.6625782698941798 -1.8815259917949287 0 1 
8 -10.131525991794929 6.3684740082050713
1 -4 -1.8815259917949287 0 -1 
8 -4.8312891349470899 -2.8312891349470899
1 -4.8312891349470899 4.4869480164101425 1 0 
8 -4.8312891349470899 -2.8312891349470899
1 2 -4.8312891349470899 0 -1 
1 -9.6625782698941798 11.986948016410143 0 -1 
1 0 -2 1 0 
1 0 -2 1 0 
2 8.5465008283713956e-17 0 1 0 -0 1 1.5
2 0.83742173010582055 -4.0130519835898575 1 0 -0 1 1.5
1 0 0 0 -1 
1 6.2831853071795862 0 0 -1 
1 0 0 1 0 
2 8.5465008283713956e-17 0 1 0 -0 1 1.5
2 0.83742173010582055 -4.0130519835898575 1 0 -0 1 1.5
1 -6 -8.25 1 0 
1 0 0 1 0 
1 12 0 0 -1 
1 -6 -8.25 1 0 
1 0 -2 1 0 
1 6 -8.25 0 1 
1 0 -2 1 0 
2 0 0 0 -1 1 0 1.5
2 1.5 0 0 -1 1 0 1.5
1 0 0 0 -1 
1 6.2831853071795862 0 0 -1 
1 0 0 1 0 
2 0 0 0 -1 1 0 1.5
2 1.5 0 0 -1 1 0 1.5
1 6 -8.25 0 1 
Curves 56
8 0 21
1 -10.5 0 0 1 0 0 
8 0 12
1 -10.5 0 12 0 0 -1 
1 -10.5 0 12 1 0 0 
1 -8.5 0 12 0 0 -1 
1 -10.5 0 2 1 0 0 
1 8.5 0 12 0 0 -1 
1 8.5 0 12 1 0 0 
8 0 12
1 10.5 0 0 0 0 1 
1 10.5 16.5 12 0 -1 0 
8 0 12
1 10.5 16.5 12 0 0 -1 
1 10.5 0 0 0 1 0 
2 10.5 8.25 7.5 1 0 0 0 1 0 0 0 1 1.5
1 8.5 9.75 7.5 1 0 0 
2 8.5 8.25 7.5 1 0 0 0 1 0 0 0 1 1.5
8 0 9.5
1 1 16.5 0 1 0 0 
1 8.5 16.5 12 1 0 0 
1 8.5 16.5 0 0 0 1 
1 10.5 16.5 2 -1 0 0 
1 1 16.5 0 0 0 1 
1 1 16.5 12 0 0 -1 
1 1 26.5 12 0 -1 0 
8 0 12
1 1 26.5 12 0 0 -1 
1 1 16.5 0 0 1 0 
2 1 21.5 7.5 1 0 0 0 1 0 0 0 1 1.5
1 -1 23 7.5 1 0 0 
2 -1 21.5 7.5 1 0 0 0 1 0 0 0 1 1.5
1 -1 16.5 12 0 0 -1 
1 -1 26.5 12 0 -1 0 
1 -1 26.5 0 0 0 1 
1 -1 16.756525991794931 2 0 1 0 
8 0 9
1 -8 26.5 0 1 0 0 
1 -1 26.5 12 1 0 0 
1 1 26.5 2 -1 0 0 
1 -8 26.5 0 0 0 1 
1 -10.5 24 0 0 0 1 
1 -8 26.5 0 -0.70710678118654746 -0.70710678118654746 0 
1 -8 26.5 2 -0.70710678118654746 -0.70710678118654746 0 
1 -1 16.5 12 1 0 0 
1 -0.91871086505291033 16.5 2 -1 -0 0 
1 8.5 16.5 12 0 -1 0 
1 8.5 10.131525991794929 2 0 1 0 
1 -8.5 10.131525991794929 2 0 1 0 
1 -5.6687108650529101 16.5 2 1 0 -0 
1 -10.5 24 2 0 -1 0 
2 0 8 2 0 0 1 1 0 0 0 1 0 1.5
1 1.5 8 0 0 0 1 
2 0 8 0 0 0 1 1 0 0 0 1 0 1.5
1 -10.5 16.5 0 0 0 1 
1 -10.5 16.5 12 1 0 0 
1 -8.5 16.5 0 0 0 1 
1 -8.5 16.5 12 0 -1 0 
2 -8.5 8.25 7.5 1 0 0 0 1 0 0 0 1 1.5
1 -10.5 9.75 7.5 1 0 0 
2 -10.5 8.25 7.5 1 0 0 0 1 0 0 0 1 1.5
1 -10.5 16.5 12 0 -1 0 
8 0 24
1 -10.5 0 0 0 1 0 
Polygon3D 0
PolygonOnTriangulations 0
Surfaces 42
1 -10.5 0 0 0 1 0 1 0 0 0 0 -1 
1 -10.5 0 12 -0 1 0 0 0 -1 -1 0 -0 
1 -8.5 8.25 6 1 0 0 -0 0 1 0 -1 0 
1 -0.83742173010582055 12.013051983589857 2 0 0 1 1 0 -0 -0 1 0 
1 -10.5 0 0 0 1 0 1 0 0 0 0 -1 
1 8.5 8.25 6 1 0 0 -0 0 1 0 -1 0 
1 8.5 0 12 -0 1 0 0 0 -1 -1 0 -0 
1 10.5 0 0 -1 0 0 0 1 0 0 0 -1 
1 10.5 8.25 6 1 0 0 -0 0 1 0 -1 0 
1 -0.83742173010582055 12.013051983589857 0 0 0 1 1 0 -0 -0 1 0 
1 10.5 0 0 -1 0 0 0 1 0 0 0 -1 
2 8.5 8.25 7.5 -1 -0 -0 0 1 0 0 0 1 1.5
1 10.5 8.25 7.5 1 0 0 -0 0 1 0 -1 0 
1 8.5 8.25 7.5 1 0 0 -0 0 1 0 -1 0 
1 10.5 16.5 0 0 -1 0 -1 0 0 -0 -0 -1 
1 8.5 16.5 0 0 -1 0 0 0 1 -1 0 0 
1 10.5 16.5 0 0 -1 0 -1 0 0 -0 -0 -1 
1 1 16.5 0 -1 0 0 0 1 0 0 0 -1 
1 -1 16.5 12 -0 1 0 0 0 -1 -1 0 -0 
1 1 21.5 6 1 0 0 -0 0 1 0 -1 0 
1 1 16.5 0 -1 0 0 0 1 0 0 0 -1 
2 -1 21.5 7.5 -1 -0 -0 0 1 0 0 0 1 1.5
1 1 21.5 7.5 1 0 0 -0 0 1 0 -1 0 
1 -1 21.5 7.5 1 0 0 -0 0 1 0 -1 0 
1 -1 21.5 6 1 0 0 -0 0 1 0 -1 0 
1 -1 26.5 0 0 -1 0 0 0 1 -1 0 0 
1 1 26.5 0 0 -1 0 -1 0 0 -0 -0 -1 
1 1 26.5 0 0 -1 0 -1 0 0 -0 -0 -1 
1 -8 26.5 0 0.70710678118654757 -0.70710678118654757 0 -0.70710678118654757 -0.70710678118654757 0 0 -0 -1 
1 -10.5 24 0 1 0 -0 0 -1 0 0 -0 -1 
1 -1 26.5 12 0 0 -1 0 -1 0 -1 -0 -0 
1 8.5 16.5 12 0 0 -1 0 -1 0 -1 -0 -0 
1 -10.5 16.5 0 0 -1 0 0 0 1 -1 0 0 
2 0 8 0 -0 -0 -1 1 0 0 0 1 0 1.5
1 -8.5465008283713956e-17 8 2 0 0 1 1 0 -0 -0 1 0 
1 -8.5465008283713956e-17 8 0 0 0 1 1 0 -0 -0 1 0 
1 -10.5 8.25 6 1 0 0 -0 0 1 0 -1 0 
2 -10.5 8.25 7.5 -1 -0 -0 0 1 0 0 0 1 1.5
1 -8.5 8.25 7.5 1 0 0 -0 0 1 0 -1 0 
1 -10.5 8.25 7.5 1 0 0 -0 0 1 0 -1 0 
1 -10.5 16.5 12 0 0 -1 0 -1 0 -1 -0 -0 
1 -10.5 24 0 1 0 -0 0 -1 0 0 -0 -1 
Triangulations 0

TShapes 146
Ve
1.00000000666134e-07
-10.5 0 0
0 0

0101101
*
Ve
1.00000000666134e-07
10.5 0 0
0 0

0101101
*
Ed
 1e-07 1 1 0
1  1 0 0 21
0

0101000
+146 0 -145 0 *
Ve
1e-07
-10.5 0 12
0 0

0101101
*
Ed
 1e-07 1 1 0
1  2 0 0 12
0

0101000
+143 0 -146 0 *
Ve
1e-07
-8.5 0 12
0 0

0101101
*
Ed
 1e-07 1 1 0
1  3 0 0 2
2  1 2 0 0 2
0

0101000
+143 0 -141 0 *
Ve
1.5e-07
-8.5 0 2
0 0

0101101
*
Ed
 1e-07 1 1 0
1  4 0 0 10
2  2 3 0 0 10
2  3 2 0 0 10
0

0101000
+141 0 -139 0 *
Ve
1.5e-07
8.5 0 2
0 0

0101101
*
Ed
 1e-07 1 1 0
1  5 0 2 19
2  4 4 0 2 19
2  5 5 0 2 19
0

0101000
+139 0 -137 0 *
Ve
1e-07
8.5 0 12
0 0

0101101
*
Ed
 1e-07 1 1 0
1  6 0 0 10
2  6 6 0 0 10
2  7 7 0 0 10
0

0101000
+135 0 -137 0 *
Ve
1e-07
10.5 0 12
0 0

0101101
*
Ed
 1e-07 1 1 0
1  7 0 0 2
2  8 7 0 0 2
0

0101000
+135 0 -133 0 *
Ed
 1e-07 1 1 0
1  8 0 0 12
0

0101000
+145 0 -133 0 *
Wi

0101100
-144 0 -142 0 +140 0 +138 0 +136 0 -134 0 +132 0 -131 0 *
Fa
0  0 1 0

0111000
+130 0 *
Ve
1e-07
10.5 16.5 12
0 0

0101101
*
Ed
 1e-07 1 1 0
1  9 0 0 16.5
2  9 9 0 0 16.5
0

0101000
+128 0 -133 0 *
Ve
1e-07
10.5 16.5 0
0 0

0101101
*
Ed
 1e-07 1 1 0
1  10 0 0 12
0

0101000
+128 0 -126 0 *
Ed
 1e-07 1 1 0
1  11 0 0 16.5
2  10 10 0 0 16.5
2  11 11 0 0 16.5
2  12 9 0 0 16.5
0

0101000
+145 0 -126 0 *
Wi

0101100
+131 0 -127 0 +125 0 -124 0 *
Ve
1e-07
10.5 9.75 7.5
0 0

0101101
*
Ed
 1e-07 1 1 0
1  12 0 0 6.28318530717959
2  13 12 0 0 6.28318530717959
2  14 13 0 0 6.28318530717959
2  15 9 0 0 6.28318530717959
0

0101000
+122 0 -122 0 *
Wi

0101100
+121 0 *
Fa
0  0 8 0

0111000
+123 0 +120 0 *
Ve
1e-07
8.5 9.75 7.5
0 0

0101101
*
Ed
 1e-07 1 1 0
1  13 0 0 2
3  16 17CN 12 0 0 2
0

0101000
+118 0 -122 0 *
Ed
 1e-07 1 1 0
1  14 0 0 6.28318530717959
2  18 12 0 0 6.28318530717959
2  19 14 0 0 6.28318530717959
2  20 6 0 0 6.28318530717959
0

0101000
+118 0 -118 0 *
Wi

0101100
+117 0 -117 0 -116 0 +121 0 *
Fa
0  1e-07 12 0

0101000
+115 0 *
Ve
1.00000000666134e-07
1 16.5 0
0 0

0101101
*
Ed
 1e-07 1 1 0
1  15 0 0 9.5
0

0101000
+113 0 -126 0 *
Ve
1e-07
8.5 16.5 12
0 0

0101101
*
Ed
 1e-07 1 1 0
1  16 0 0 2
2  21 16 0 0 2
0

0101000
+111 0 -128 0 *
Ve
1.5e-07
8.5 16.5 2
0 0

0101101
*
Ed
 1e-07 1 1 0
1  17 0 2 12
2  22 6 0 2 12
2  23 16 0 2 12
0

0101000
+109 0 -111 0 *
Ve
2.12133034355964e-07
1 16.5 2
0 0

0101101
*
Ed
 1e-07 1 1 0
1  18 0 2 9.5
2  24 4 0 2 9.5
2  25 17 0 2 9.5
0

0101000
+109 0 -107 0 *
Ed
 1.00000000666134e-07 1 1 0
1  19 0 0 2
2  26 17 0 0 2
2  27 18 0 0 2
2  28 19 0 0 2
2  29 20 0 0 2
0

0101000
+113 0 -107 0 *
Wi

0101100
+112 0 -125 0 -110 0 -108 0 +106 0 -105 0 *
Fa
0  0 15 0

0111000
+104 0 *
Ve
1e-07
1 16.5 12
0 0

0101101
*
Ed
 1e-07 1 1 0
1  20 0 0 10
2  30 20 0 0 10
2  31 19 0 0 10
0

0101000
+102 0 -107 0 *
Ve
1e-07
1 26.5 12
0 0

0101101
*
Ed
 1e-07 1 1 0
1  21 0 0 10
2  32 20 0 0 10
0

0101000
+100 0 -102 0 *
Ve
1.00000000111022e-07
1 26.5 0
0 0

0101101
*
Ed
 1e-07 1 1 0
1  22 0 0 12
0

0101000
+100 0 -98 0 *
Ed
 1e-07 1 1 0
1  23 0 0 10
2  33 10 0 0 10
2  34 18 0 0 10
2  35 20 0 0 10
0

0101000
+113 0 -98 0 *
Wi

0101100
+105 0 -101 0 -99 0 +97 0 -96 0 *
Ve
1e-07
1 23 7.5
0 0

0101101
*
Ed
 1e-07 1 1 0
1  24 0 0 6.28318530717959
2  36 22 0 0 6.28318530717959
2  37 23 0 0 6.28318530717959
2  38 20 0 0 6.28318530717959
0

0101000
+94 0 -94 0 *
Wi

0101100
+93 0 *
Fa
0  0 21 0

0111000
+95 0 +92 0 *
Ve
1e-07
-1 23 7.5
0 0

0101101
*
Ed
 1e-07 1 1 0
1  25 0 0 2
3  39 40CN 22 0 0 2
0

0101000
+90 0 -94 0 *
Ed
 1e-07 1 1 0
1  26 0 0 6.28318530717959
2  41 22 0 0 6.28318530717959
2  42 24 0 0 6.28318530717959
2  43 25 0 0 6.28318530717959
0

0101000
+90 0 -90 0 *
Wi

0101100
+89 0 -89 0 -88 0 +93 0 *
Fa
0  1e-07 22 0

0101000
+87 0 *
Ve
1e-07
-1 16.5 12
0 0

0101101
*
Ve
1.5e-07
-1 16.5 2
0 0

0101101
*
Ed
 1e-07 1 1 0
1  27 0 0 10
2  44 25 0 0 10
2  45 19 0 0 10
0

0101000
+85 0 -84 0 *
Ve
1e-07
-1 26.5 12
0 0

0101101
*
Ed
 1e-07 1 1 0
1  28 0 0 10
2  46 25 0 0 10
0

0101000
+82 0 -85 0 *
Ve
1.5e-07
-1 26.5 2
0 0

0101101
*
Ed
 1e-07 1 1 0
1  29 0 2 12
2  47 25 0 2 12
2  48 26 0 2 12
0

0101000
+80 0 -82 0 *
Ed
 1.5e-07 1 1 0
1  30 0 -0.256525991794931 9.74347400820507
2  49 4 0 -0.256525991794931 9.74347400820507
2  50 25 0 -0.256525991794931 9.74347400820507
0

0101000
+84 0 -80 0 *
Wi

0101100
+83 0 +81 0 +79 0 +78 0 *
Wi

0101100
-88 0 *
Fa
0  1e-07 25 0

0101000
+77 0 +76 0 *
Ve
1e-07
-8 26.5 0
0 0

0101101
*
Ed
 1e-07 1 1 0
1  31 0 0 9
0

0101000
+74 0 -98 0 *
Ed
 1e-07 1 1 0
1  32 0 0 2
2  51 26 0 0 2
0

0101000
+82 0 -100 0 *
Ve
1e-07
-8 26.5 2
0 0

0101101
*
Ed
 1e-07 1 1 0
1  33 0 2 9
2  52 4 0 2 9
2  53 28 0 2 9
0

0101000
+80 0 -71 0 *
Ed
 1e-07 1 1 0
1  34 0 0 2
2  54 28 0 0 2
0

0101000
+74 0 -71 0 *
Wi

0101100
+73 0 -97 0 -72 0 -79 0 +70 0 -69 0 *
Fa
0  0 27 0

0111000
+68 0 *
Ve
1e-07
-10.5 24 0
0 0

0101101
*
Ve
1e-07
-10.5 24 2
0 0

0101101
*
Ed
 1e-07 1 1 0
1  35 0 0 2
2  55 30 0 0 2
0

0101000
+66 0 -65 0 *
Ed
 1e-07 1 1 0
1  36 0 0 3.53553390593274
2  56 10 0 0 3.53553390593274
0

0101000
+74 0 -66 0 *
Ed
 1e-07 1 1 0
1  37 0 0 3.53553390593274
2  57 4 0 0 3.53553390593274
0

0101000
+71 0 -65 0 *
Wi

0101100
+69 0 -64 0 -63 0 +62 0 *
Fa
0  1e-07 29 0

0101000
+61 0 *
Ed
 1e-07 1 1 0
1  38 0 0 2
2  58 19 0 0 2
0

0101000
+85 0 -102 0 *
Wi

0101100
+72 0 -59 0 -81 0 +99 0 *
Fa
0  1e-07 31 0

0101000
+58 0 *
Ed
 1.5e-07 1 1 0
1  39 0 -1.91871086505291 0.0812891349470897
2  59 4 0 -1.91871086505291 0.0812891349470897
2  60 19 0 -1.91871086505291 0.0812891349470897
0

0101000
+107 0 -84 0 *
Wi

0101100
-83 0 +56 0 +101 0 +59 0 *
Fa
0  1e-07 19 0

0101000
+55 0 *
Ed
 1e-07 1 1 0
1  40 0 0 16.5
2  61 6 0 0 16.5
0

0101000
+111 0 -135 0 *
Wi

0101100
+110 0 -132 0 -53 0 +127 0 *
Fa
0  1e-07 32 0

0101000
+52 0 *
Ed
 1.5e-07 1 1 0
1  41 0 -10.1315259917949 6.36847400820507
2  62 4 0 -10.1315259917949 6.36847400820507
2  63 6 0 -10.1315259917949 6.36847400820507
0

0101000
+137 0 -109 0 *
Wi

0101100
+134 0 +53 0 +108 0 +50 0 *
Wi

0101100
-116 0 *
Fa
0  1e-07 6 0

0101000
+49 0 +48 0 *
Ve
1.5e-07
-8.5 16.5 2
0 0

0101101
*
Ed
 1.5e-07 1 1 0
1  42 0 -10.1315259917949 6.36847400820507
2  64 4 0 -10.1315259917949 6.36847400820507
2  65 3 0 -10.1315259917949 6.36847400820507
0

0101000
+139 0 -46 0 *
Ve
1.5e-07
-10.5 16.5 2
0 0

0101101
*
Ed
 1.5e-07 1 1 0
1  43 0 -4.83128913494709 -2.83128913494709
2  66 4 0 -4.83128913494709 -2.83128913494709
2  67 33 0 -4.83128913494709 -2.83128913494709
0

0101000
+44 0 -46 0 *
Ed
 1e-07 1 1 0
1  44 0 0 7.5
2  68 4 0 0 7.5
2  69 30 0 0 7.5
0

0101000
+65 0 -44 0 *
Wi

0101100
-45 0 +43 0 +42 0 +62 0 +70 0 +78 0 +56 0 +106 0 +50 0 +136 0 
*
Ve
1e-07
1.5 8 2
0 0

0101101
*
Ed
 1e-07 1 1 0
1  45 0 0 6.28318530717959
2  70 34 0 0 6.28318530717959
2  71 35 0 0 6.28318530717959
2  72 4 0 0 6.28318530717959
0

0101000
+40 0 -40 0 *
Wi

0101100
-39 0 *
Fa
0  1e-07 4 0

0101000
+41 0 +38 0 *
Ve
1e-07
1.5 8 0
0 0

0101101
*
Ed
 1e-07 1 1 0
1  46 0 0 2
3  73 74CN 34 0 0 2
0

0101000
+36 0 -40 0 *
Ed
 1e-07 1 1 0
1  47 0 0 6.28318530717959
2  75 34 0 0 6.28318530717959
2  76 36 0 0 6.28318530717959
2  77 10 0 0 6.28318530717959
0

0101000
+36 0 -36 0 *
Wi

0101100
+35 0 -35 0 -34 0 +39 0 *
Fa
0  1e-07 34 0

0101000
+33 0 *
Ve
1e-07
-10.5 16.5 12
0 0

0101101
*
Ed
 1e-07 1 1 0
1  48 0 2 12
2  78 37 0 2 12
2  79 33 0 2 12
0

0101000
+44 0 -31 0 *
Ve
1e-07
-8.5 16.5 12
0 0

0101101
*
Ed
 1e-07 1 1 0
1  49 0 0 2
2  80 33 0 0 2
0

0101000
+31 0 -29 0 *
Ed
 1e-07 1 1 0
1  50 0 2 12
2  81 3 0 2 12
2  82 33 0 2 12
0

0101000
+46 0 -29 0 *
Wi

0101100
-30 0 -28 0 +27 0 +43 0 *
Fa
0  1e-07 33 0

0101000
+26 0 *
Ed
 1e-07 1 1 0
1  51 0 0 16.5
2  83 3 0 0 16.5
0

0101000
+29 0 -141 0 *
Wi

0101100
+138 0 +24 0 +27 0 +45 0 *
Ve
1e-07
-8.5 9.75 7.5
0 0

0101101
*
Ed
 1e-07 1 1 0
1  52 0 0 6.28318530717959
2  84 38 0 0 6.28318530717959
2  85 39 0 0 6.28318530717959
2  86 3 0 0 6.28318530717959
0

0101000
+22 0 -22 0 *
Wi

0101100
-21 0 *
Fa
0  1e-07 3 0

0101000
+23 0 +20 0 *
Ve
1e-07
-10.5 9.75 7.5
0 0

0101101
*
Ed
 1e-07 1 1 0
1  53 0 0 2
3  87 88CN 38 0 0 2
0

0101000
+18 0 -22 0 *
Ed
 1e-07 1 1 0
1  54 0 0 6.28318530717959
2  89 38 0 0 6.28318530717959
2  90 40 0 0 6.28318530717959
2  91 37 0 0 6.28318530717959
0

0101000
+18 0 -18 0 *
Wi

0101100
+17 0 -17 0 -16 0 +21 0 *
Fa
0  1e-07 38 0

0101000
+15 0 *
Ed
 1e-07 1 1 0
1  55 0 0 16.5
2  92 37 0 0 16.5
0

0101000
+31 0 -143 0 *
Wi

0101100
+28 0 -140 0 -13 0 +24 0 *
Fa
0  1e-07 41 0

0101000
+12 0 *
Ed
 1e-07 1 1 0
1  56 0 0 24
0

0101000
+146 0 -66 0 *
Wi

0101100
+10 0 +64 0 +42 0 +30 0 +13 0 +142 0 *
Wi

0101100
-16 0 *
Fa
0  0 42 0

0111000
+9 0 +8 0 *
Wi

0101100
-10 0 +144 0 +124 0 -112 0 +96 0 -73 0 +63 0 *
Wi

0101100
-34 0 *
Fa
0  0 10 0

0111000
+6 0 +5 0 *
Sh

0101100
-129 0 -119 0 +114 0 -103 0 -91 0 +86 0 -75 0 -67 0 -60 0 -57 0 
-54 0 -51 0 -47 0 +37 0 +32 0 -25 0 +19 0 +14 0 -11 0 -7 0 
-4 0 *
So

0100000
+3 0 *
Co

1100000
+2 0 *

+1 0 