DBRep_DrawableShape

CASCADE Topology V3, (c) Open Cascade
Locations 0
Curve2ds 121
1 0 0 0 -1 
1 -16.300000000000001 17.5 0 -1 
1 0 -2 1 0 
1 -8 -16.300000000000001 1 0 
1 0 0 1 0 
1 0 0 0 -1 
1 -8 -16.300000000000001 1 0 
1 0 -2 1 0 
1 8 -16.300000000000001 0 1 
1 0 -2 1 0 
1 16.300000000000001 17.5 -1 0 
1 0 0 1 0 
2 1.7763568394002505e-15 -3.5527136788005009e-15 1 0 -0 1 1.25
2 -14 8.5 1 0 -0 1 1.25
1 -12.300000000000001 -6.149999999999995 1 0 
1 0 0 1 0 
1 -12.300000000000001 2.5 1 0 
1 -12.300000000000001 6.1500000000000021 0 -1 
1 0 0 1 0 
1 -12.300000000000001 14.799999999999997 0 -1 
1 12.300000000000001 6.1500000000000021 -1 0 
1 0 -0 1 0 
1 12.300000000000001 14.799999999999997 -1 0 
1 12.300000000000001 -6.149999999999995 0 1 
1 0 0 1 0 
1 12.300000000000001 2.5 0 1 
1 0 0 1 0 
2 1.7763568394002505e-15 -3.5527136788005009e-15 1 0 -0 1 1.25
2 14 8.5 1 0 -0 1 1.25
1 0 0 0 -1 
1 6.2831853071795862 0 0 -1 
1 0 -2 1 0 
2 1.7763568394002505e-15 -3.5527136788005009e-15 1 0 -0 1 1.25
2 14 8.5 1 0 -0 1 1.25
1 24.600000000000001 0 0 -1 
1 0 0 0 -1 
1 12.299999999999997 0 0 -1 
1 0 -0 0 -1 
1 12.300000000000001 -6.149999999999995 0 1 
1 0 -2 1 0 
1 12.300000000000001 2.5 0 1 
1 24.600000000000001 0 0 -1 
1 0 0 0 -1 
1 12.300000000000001 6.1500000000000021 -1 0 
1 0 -2 1 0 
1 12.300000000000001 14.799999999999997 -1 0 
1 0 0 0 -1 
1 12.299999999999997 0 0 -1 
1 -12.300000000000001 6.1500000000000021 0 -1 
1 0 -2 1 0 
1 -12.300000000000001 14.799999999999997 0 -1 
1 -12.300000000000001 -6.149999999999995 1 0 
1 0 -2 1 0 
1 -12.300000000000001 2.5 1 0 
1 0 0 0 -1 
1 6.2831853071795862 0 0 -1 
1 0 -2 1 0 
2 1.7763568394002505e-15 -3.5527136788005009e-15 1 0 -0 1 1.25
2 -14 8.5 1 0 -0 1 1.25
1 35 0 0 -1 
1 8 16.300000000000001 -1 0 
1 0 -2 1 0 
1 16 0 0 -1 
1 8 16.300000000000001 -1 0 
1 0 0 1 0 
1 16.300000000000001 -17.5 0 1 
1 0 -2 1 0 
1 -8 16.300000000000001 0 -1 
1 0 -2 1 0 
2 0 0 0 1 -1 0 1.25
2 0 -14.199999999999999 0 1 -1 0 1.25
1 5 -12.5 0 1 
1 0 -2 1 0 
1 5 -12.5 0 1 
1 5 12.5 -1 0 
1 0 -2 1 0 
1 5 12.5 -1 0 
1 -5 12.5 0 -1 
1 0 -2 1 0 
1 -5 12.5 0 -1 
1 -5 -12.5 1 0 
1 0 -2 1 0 
1 -5 -12.5 1 0 
1 0 -2 1 0 
2 0 0 0 1 -1 0 1.25
2 0 14.199999999999999 0 1 -1 0 1.25
1 0 0 0 -1 
1 6.2831853071795862 0 0 -1 
1 0 0 1 0 
2 0 0 0 1 -1 0 1.25
2 0 14.199999999999999 0 1 -1 0 1.25
1 25 0 0 -1 
1 0 0 0 -1 
1 0 0 0 -1 
1 10 0 0 -1 
1 -5 -12.5 1 0 
1 0 0 1 0 
1 -5 -12.5 1 0 
1 10 0 0 -1 
1 0 0 0 -1 
1 -5 12.5 0 -1 
1 0 0 1 0 
1 -5 12.5 0 -1 
1 25 0 0 -1 
1 0 0 0 -1 
1 5 12.5 -1 0 
1 0 0 1 0 
1 5 12.5 -1 0 
1 5 -12.5 0 1 
1 0 0 1 0 
1 5 -12.5 0 1 
1 0 0 0 -1 
1 6.2831853071795862 0 0 -1 
1 0 0 1 0 
2 0 0 0 1 -1 0 1.25
2 0 -14.199999999999999 0 1 -1 0 1.25
1 -8 16.300000000000001 0 -1 
1 -16.300000000000001 -17.5 1 0 
1 0 -2 1 0 
1 6 -16.300000000000001 0 1 
1 16.300000000000001 17.5 -1 0 
Curves 54
1 -16.300000000000001 35 0 0 0 1 
1 -16.300000000000001 35 2 0 -1 0 
1 -16.300000000000001 0 16 0 0 -1 
1 -16.300000000000001 0 16 0 -1 0 
1 -16.300000000000001 -2 16 0 0 -1 
8 0 37
1 -16.300000000000001 35 0 0 -1 0 
1 -16.300000000000001 -2 0 1 0 0 
8 0 37
1 16.300000000000001 35 0 0 -1 0 
1 16.300000000000001 35 0 -1 0 0 
2 -14 26 0 0 0 1 1 0 0 0 1 0 1.25
1 -12.300000000000001 20 0 1 0 0 
1 -12.300000000000001 32.299999999999997 0 0 -1 0 
1 12.300000000000001 32.299999999999997 0 -1 0 0 
1 12.300000000000001 20 0 0 1 0 
2 14 26 0 0 0 1 1 0 0 0 1 0 1.25
1 15.25 26 0 0 0 1 
2 14 26 2 0 0 1 1 0 0 0 1 0 1.25
1 12.300000000000001 20 0 0 0 1 
1 12.300000000000001 32.299999999999997 0 0 0 1 
1 12.300000000000001 20 2 0 1 0 
1 -12.300000000000001 32.299999999999997 0 0 0 1 
1 12.300000000000001 32.299999999999997 2 -1 0 0 
1 -12.300000000000001 20 0 0 0 1 
1 -12.300000000000001 32.299999999999997 2 0 -1 0 
1 -12.300000000000001 20 2 1 0 0 
1 -12.75 26 0 0 0 1 
2 -14 26 2 0 0 1 1 0 0 0 1 0 1.25
1 16.300000000000001 35 0 0 0 1 
1 16.300000000000001 -2 0 0 0 1 
1 16.300000000000001 0 16 0 -1 0 
1 16.300000000000001 0 0 0 0 1 
1 16.300000000000001 0 2 0 1 0 
1 16.300000000000001 -2 16 -1 0 0 
2 -14.199999999999999 -2 8 0 -1 0 1 0 0 0 0 1 1.25
1 -12.5 -2 3 1 0 0 
1 12.5 -2 3 0 0 1 
1 12.5 -2 13 -1 0 0 
1 -12.5 -2 13 0 0 -1 
2 14.199999999999999 -2 8 0 -1 0 1 0 0 0 0 1 1.25
1 15.449999999999999 0 8 0 -1 0 
2 14.199999999999999 0 8 0 -1 0 1 0 0 0 0 1 1.25
1 -12.5 0 13 0 -1 0 
1 -12.5 0 3 0 -1 0 
1 -12.5 0 13 0 0 -1 
1 12.5 0 13 0 -1 0 
1 12.5 0 13 -1 0 0 
1 12.5 0 3 0 -1 0 
1 12.5 0 3 0 0 1 
1 -12.5 0 3 1 0 0 
1 -12.949999999999999 0 8 0 -1 0 
2 -14.199999999999999 0 8 0 -1 0 1 0 0 0 0 1 1.25
1 16.300000000000001 0 16 -1 0 0 
1 -16.300000000000001 0 2 1 0 0 
1 16.300000000000001 35 2 -1 0 0 
Polygon3D 0
PolygonOnTriangulations 0
Surfaces 39
1 -16.300000000000001 35 0 1 0 -0 0 -1 0 0 -0 -1 
1 -16.300000000000001 35 0 1 0 -0 0 -1 0 0 -0 -1 
1 0 17.5 2 0 0 1 1 0 -0 -0 1 0 
1 0 0 8 -0 -1 -0 0 0 -1 1 -0 0 
1 -16.300000000000001 0 16 1 0 0 0 0 -1 -0 1 0 
1 0 -2 8 -0 -1 -0 0 0 -1 1 -0 0 
1 0 17.5 0 0 0 1 1 0 -0 -0 1 0 
1 -16.300000000000001 0 0 -0 0 1 1 0 0 0 1 -0 
1 0 17.5 0 0 0 1 1 0 -0 -0 1 0 
2 -14 26 0 -0 -0 -1 1 0 0 0 1 0 1.25
1 -14.000000000000002 26.000000000000004 0 0 0 1 1 0 -0 -0 1 0 
1 0 26.149999999999995 0 0 0 1 1 0 -0 -0 1 0 
1 -12.300000000000001 20 0 0 1 0 1 0 0 0 0 -1 
1 -12.300000000000001 32.299999999999997 0 1 0 -0 0 -1 0 0 -0 -1 
1 12.300000000000001 32.299999999999997 0 0 -1 0 -1 0 0 -0 -0 -1 
1 12.300000000000001 20 0 -1 0 0 0 1 0 0 0 -1 
2 14 26 0 -0 -0 -1 1 0 0 0 1 0 1.25
1 13.999999999999998 26.000000000000004 0 0 0 1 1 0 -0 -0 1 0 
1 13.999999999999998 26.000000000000004 2 0 0 1 1 0 -0 -0 1 0 
1 0 26.149999999999995 2 0 0 1 1 0 -0 -0 1 0 
1 -14.000000000000002 26.000000000000004 2 0 0 1 1 0 -0 -0 1 0 
1 16.300000000000001 0 0 -1 0 0 0 1 0 0 0 -1 
1 16.300000000000001 0 0 -1 0 0 0 1 0 0 0 -1 
1 16.300000000000001 0 0 -1 0 0 0 0 1 0 1 -0 
2 -14.199999999999999 0 8 -0 1 -0 1 0 0 0 0 1 1.25
1 -14.199999999999999 -2 8 -0 -1 -0 0 0 -1 1 -0 0 
1 0 -2 8 -0 -1 -0 0 0 -1 1 -0 0 
1 -12.5 0 3 -0 0 1 1 0 0 0 1 -0 
1 12.5 0 3 -1 0 0 0 0 1 0 1 -0 
1 12.5 0 13 -0 -0 -1 -1 0 0 0 1 -0 
1 -12.5 0 13 1 0 0 0 0 -1 -0 1 0 
2 14.199999999999999 0 8 -0 1 -0 1 0 0 0 0 1 1.25
1 14.199999999999999 -2 8 -0 -1 -0 0 0 -1 1 -0 0 
1 14.199999999999999 0 8 -0 -1 -0 0 0 -1 1 -0 0 
1 0 0 8 -0 -1 -0 0 0 -1 1 -0 0 
1 -14.199999999999999 0 8 -0 -1 -0 0 0 -1 1 -0 0 
1 16.300000000000001 0 16 -0 -0 -1 -1 0 0 0 1 -0 
1 -16.300000000000001 0 0 0 1 0 1 0 0 0 0 -1 
1 16.300000000000001 35 0 0 -1 0 -1 0 0 -0 -0 -1 
Triangulations 0

TShapes 145
Ve
1e-07
-16.3 35 0
0 0

0101101
*
Ve
1e-07
-16.3 35 2
0 0

0101101
*
Ed
 1e-07 1 1 0
1  1 0 0 2
2  1 2 0 0 2
0

0101000
+145 0 -144 0 *
Ve
1.00000000666134e-07
-16.3 0 2
0 0

0101101
*
Ed
 1e-07 1 1 0
1  2 0 0 35
2  2 3 0 0 35
2  3 2 0 0 35
0

0101000
+144 0 -142 0 *
Ve
1e-07
-16.3 0 16
0 0

0101101
*
Ed
 1e-07 1 1 0
1  3 0 0 14
2  4 4 0 0 14
2  5 5 0 0 14
0

0101000
+140 0 -142 0 *
Ve
1e-07
-16.3 -2 16
0 0

0101101
*
Ed
 1e-07 1 1 0
1  4 0 0 2
2  6 5 0 0 2
0

0101000
+140 0 -138 0 *
Ve
1e-07
-16.3 -2 0
0 0

0101101
*
Ed
 1e-07 1 1 0
1  5 0 0 16
2  7 6 0 0 16
2  8 5 0 0 16
0

0101000
+138 0 -136 0 *
Ed
 1e-07 1 1 0
1  6 0 0 37
0

0101000
+145 0 -136 0 *
Wi

0101100
+143 0 +141 0 -139 0 +137 0 +135 0 -134 0 *
Fa
0  0 1 0

0111000
+133 0 *
Ve
1e-07
16.3 -2 0
0 0

0101101
*
Ed
 1e-07 1 1 0
1  7 0 0 32.6
2  9 6 0 0 32.6
2  10 8 0 0 32.6
0

0101000
+136 0 -131 0 *
Ve
1e-07
16.3 35 0
0 0

0101101
*
Ed
 1e-07 1 1 0
1  8 0 0 37
0

0101000
+129 0 -131 0 *
Ed
 1e-07 1 1 0
1  9 0 0 32.6
2  11 9 0 0 32.6
0

0101000
+129 0 -145 0 *
Wi

0101100
+134 0 +130 0 -128 0 +127 0 *
Ve
1e-07
-12.75 26 0
0 0

0101101
*
Ed
 1e-07 1 1 0
1  10 0 0 6.28318530717959
2  12 10 0 0 6.28318530717959
2  13 11 0 0 6.28318530717959
2  14 9 0 0 6.28318530717959
0

0101000
+125 0 -125 0 *
Wi

0101100
-124 0 *
Ve
1e-07
-12.3 20 0
0 0

0101101
*
Ve
1e-07
12.3 20 0
0 0

0101101
*
Ed
 1e-07 1 1 0
1  11 0 0 24.6
2  15 12 0 0 24.6
2  16 13 0 0 24.6
2  17 9 0 0 24.6
0

0101000
+122 0 -121 0 *
Ve
1e-07
-12.3 32.3 0
0 0

0101101
*
Ed
 1e-07 1 1 0
1  12 0 0 12.3
2  18 12 0 0 12.3
2  19 14 0 0 12.3
2  20 9 0 0 12.3
0

0101000
+119 0 -122 0 *
Ve
1e-07
12.3 32.3 0
0 0

0101101
*
Ed
 1e-07 1 1 0
1  13 0 0 24.6
2  21 12 0 0 24.6
2  22 15 0 0 24.6
2  23 9 0 0 24.6
0

0101000
+117 0 -119 0 *
Ed
 1e-07 1 1 0
1  14 0 0 12.3
2  24 12 0 0 12.3
2  25 16 0 0 12.3
2  26 9 0 0 12.3
0

0101000
+121 0 -117 0 *
Wi

0101100
-120 0 -118 0 -116 0 -115 0 *
Ve
1e-07
15.25 26 0
0 0

0101101
*
Ed
 1e-07 1 1 0
1  15 0 0 6.28318530717959
2  27 17 0 0 6.28318530717959
2  28 18 0 0 6.28318530717959
2  29 9 0 0 6.28318530717959
0

0101000
+113 0 -113 0 *
Wi

0101100
-112 0 *
Fa
0  0 7 0

0111000
+126 0 +123 0 +114 0 +111 0 *
Ve
1e-07
15.25 26 2
0 0

0101101
*
Ed
 1e-07 1 1 0
1  16 0 0 2
3  30 31CN 17 0 0 2
0

0101000
+113 0 -109 0 *
Ed
 1e-07 1 1 0
1  17 0 0 6.28318530717959
2  32 17 0 0 6.28318530717959
2  33 19 0 0 6.28318530717959
2  34 3 0 0 6.28318530717959
0

0101000
+109 0 -109 0 *
Wi

0101100
+108 0 -108 0 -112 0 +107 0 *
Fa
0  1e-07 17 0

0101000
+106 0 *
Ve
1e-07
12.3 20 2
0 0

0101101
*
Ed
 1e-07 1 1 0
1  18 0 0 2
2  35 13 0 0 2
2  36 16 0 0 2
0

0101000
+121 0 -104 0 *
Ve
1e-07
12.3 32.3 2
0 0

0101101
*
Ed
 1e-07 1 1 0
1  19 0 0 2
2  37 16 0 0 2
2  38 15 0 0 2
0

0101000
+117 0 -102 0 *
Ed
 1e-07 1 1 0
1  20 0 0 12.3
2  39 20 0 0 12.3
2  40 16 0 0 12.3
2  41 3 0 0 12.3
0

0101000
+104 0 -102 0 *
Wi

0101100
+103 0 -101 0 -115 0 +100 0 *
Fa
0  1e-07 16 0

0101000
+99 0 *
Ve
1e-07
-12.3 32.3 2
0 0

0101101
*
Ed
 1e-07 1 1 0
1  21 0 0 2
2  42 15 0 0 2
2  43 14 0 0 2
0

0101000
+119 0 -97 0 *
Ed
 1e-07 1 1 0
1  22 0 0 24.6
2  44 20 0 0 24.6
2  45 15 0 0 24.6
2  46 3 0 0 24.6
0

0101000
+102 0 -97 0 *
Wi

0101100
+101 0 -96 0 -116 0 +95 0 *
Fa
0  1e-07 15 0

0101000
+94 0 *
Ve
1e-07
-12.3 20 2
0 0

0101101
*
Ed
 1e-07 1 1 0
1  23 0 0 2
2  47 13 0 0 2
2  48 14 0 0 2
0

0101000
+122 0 -92 0 *
Ed
 1e-07 1 1 0
1  24 0 0 12.3
2  49 20 0 0 12.3
2  50 14 0 0 12.3
2  51 3 0 0 12.3
0

0101000
+97 0 -92 0 *
Wi

0101100
+96 0 -91 0 -118 0 +90 0 *
Fa
0  1e-07 14 0

0101000
+89 0 *
Ed
 1e-07 1 1 0
1  25 0 0 24.6
2  52 20 0 0 24.6
2  53 13 0 0 24.6
2  54 3 0 0 24.6
0

0101000
+92 0 -104 0 *
Wi

0101100
+91 0 -103 0 -120 0 +87 0 *
Fa
0  1e-07 13 0

0101000
+86 0 *
Ve
1e-07
-12.75 26 2
0 0

0101101
*
Ed
 1e-07 1 1 0
1  26 0 0 2
3  55 56CN 10 0 0 2
0

0101000
+125 0 -84 0 *
Ed
 1e-07 1 1 0
1  27 0 0 6.28318530717959
2  57 10 0 0 6.28318530717959
2  58 21 0 0 6.28318530717959
2  59 3 0 0 6.28318530717959
0

0101000
+84 0 -84 0 *
Wi

0101100
+83 0 -83 0 -124 0 +82 0 *
Fa
0  1e-07 10 0

0101000
+81 0 *
Ve
1e-07
16.3 35 2
0 0

0101101
*
Ed
 1e-07 1 1 0
1  28 0 0 2
2  60 23 0 0 2
0

0101000
+129 0 -79 0 *
Ve
1e-07
16.3 -2 16
0 0

0101101
*
Ed
 1e-07 1 1 0
1  29 0 0 16
2  61 6 0 0 16
2  62 24 0 0 16
0

0101000
+131 0 -77 0 *
Ve
1e-07
16.3 0 16
0 0

0101101
*
Ed
 1e-07 1 1 0
1  30 0 0 2
2  63 24 0 0 2
0

0101000
+75 0 -77 0 *
Ve
1e-07
16.3 0 2
0 0

0101101
*
Ed
 1e-07 1 1 0
1  31 0 2 16
2  64 4 0 2 16
2  65 24 0 2 16
0

0101000
+73 0 -75 0 *
Ed
 1e-07 1 1 0
1  32 0 0 35
2  66 3 0 0 35
2  67 23 0 0 35
0

0101000
+73 0 -79 0 *
Wi

0101100
-78 0 +128 0 +76 0 -74 0 -72 0 +71 0 *
Fa
0  0 22 0

0111000
+70 0 *
Ed
 1e-07 1 1 0
1  33 0 0 32.6
2  68 6 0 0 32.6
0

0101000
+77 0 -138 0 *
Wi

0101100
+130 0 +135 0 +76 0 +68 0 *
Ve
1e-07
-12.95 -2 8
0 0

0101101
*
Ed
 1e-07 1 1 0
1  34 0 0 6.28318530717959
2  69 25 0 0 6.28318530717959
2  70 26 0 0 6.28318530717959
2  71 6 0 0 6.28318530717959
0

0101000
+66 0 -66 0 *
Wi

0101100
-65 0 *
Ve
1e-07
-12.5 -2 3
0 0

0101101
*
Ve
1e-07
12.5 -2 3
0 0

0101101
*
Ed
 1e-07 1 1 0
1  35 0 0 25
2  72 27 0 0 25
2  73 28 0 0 25
2  74 6 0 0 25
0

0101000
+63 0 -62 0 *
Ve
1e-07
12.5 -2 13
0 0

0101101
*
Ed
 1e-07 1 1 0
1  36 0 0 10
2  75 27 0 0 10
2  76 29 0 0 10
2  77 6 0 0 10
0

0101000
+62 0 -60 0 *
Ve
1e-07
-12.5 -2 13
0 0

0101101
*
Ed
 1e-07 1 1 0
1  37 0 0 25
2  78 27 0 0 25
2  79 30 0 0 25
2  80 6 0 0 25
0

0101000
+60 0 -58 0 *
Ed
 1e-07 1 1 0
1  38 0 0 10
2  81 27 0 0 10
2  82 31 0 0 10
2  83 6 0 0 10
0

0101000
+58 0 -63 0 *
Wi

0101100
-61 0 -59 0 -57 0 -56 0 *
Ve
1e-07
15.45 -2 8
0 0

0101101
*
Ed
 1e-07 1 1 0
1  39 0 0 6.28318530717959
2  84 32 0 0 6.28318530717959
2  85 33 0 0 6.28318530717959
2  86 6 0 0 6.28318530717959
0

0101000
+54 0 -54 0 *
Wi

0101100
-53 0 *
Fa
0  1e-07 6 0

0101000
+67 0 +64 0 +55 0 +52 0 *
Ve
1e-07
15.45 0 8
0 0

0101101
*
Ed
 1e-07 1 1 0
1  40 0 0 2
3  87 88CN 32 0 0 2
0

0101000
+50 0 -54 0 *
Ed
 1e-07 1 1 0
1  41 0 0 6.28318530717959
2  89 32 0 0 6.28318530717959
2  90 34 0 0 6.28318530717959
2  91 4 0 0 6.28318530717959
0

0101000
+50 0 -50 0 *
Wi

0101100
+49 0 -49 0 -48 0 +53 0 *
Fa
0  1e-07 32 0

0101000
+47 0 *
Ve
1e-07
-12.5 0 13
0 0

0101101
*
Ed
 1e-07 1 1 0
1  42 0 0 2
2  92 30 0 0 2
2  93 31 0 0 2
0

0101000
+45 0 -58 0 *
Ve
1e-07
-12.5 0 3
0 0

0101101
*
Ed
 1e-07 1 1 0
1  43 0 0 2
2  94 28 0 0 2
2  95 31 0 0 2
0

0101000
+43 0 -63 0 *
Ed
 1e-07 1 1 0
1  44 0 0 10
2  96 35 0 0 10
2  97 31 0 0 10
2  98 4 0 0 10
0

0101000
+45 0 -43 0 *
Wi

0101100
+44 0 -42 0 -41 0 +56 0 *
Fa
0  1e-07 31 0

0101000
+40 0 *
Ve
1e-07
12.5 0 13
0 0

0101101
*
Ed
 1e-07 1 1 0
1  45 0 0 2
2  99 29 0 0 2
2  100 30 0 0 2
0

0101000
+38 0 -60 0 *
Ed
 1e-07 1 1 0
1  46 0 0 25
2  101 35 0 0 25
2  102 30 0 0 25
2  103 4 0 0 25
0

0101000
+38 0 -45 0 *
Wi

0101100
+37 0 -44 0 -36 0 +57 0 *
Fa
0  1e-07 30 0

0101000
+35 0 *
Ve
1e-07
12.5 0 3
0 0

0101101
*
Ed
 1e-07 1 1 0
1  47 0 0 2
2  104 28 0 0 2
2  105 29 0 0 2
0

0101000
+33 0 -62 0 *
Ed
 1e-07 1 1 0
1  48 0 0 10
2  106 35 0 0 10
2  107 29 0 0 10
2  108 4 0 0 10
0

0101000
+33 0 -38 0 *
Wi

0101100
+32 0 -37 0 -31 0 +59 0 *
Fa
0  1e-07 29 0

0101000
+30 0 *
Ed
 1e-07 1 1 0
1  49 0 0 25
2  109 35 0 0 25
2  110 28 0 0 25
2  111 4 0 0 25
0

0101000
+43 0 -33 0 *
Wi

0101100
+42 0 -32 0 -28 0 +61 0 *
Fa
0  1e-07 28 0

0101000
+27 0 *
Ve
1e-07
-12.95 0 8
0 0

0101101
*
Ed
 1e-07 1 1 0
1  50 0 0 2
3  112 113CN 25 0 0 2
0

0101000
+25 0 -66 0 *
Ed
 1e-07 1 1 0
1  51 0 0 6.28318530717959
2  114 25 0 0 6.28318530717959
2  115 36 0 0 6.28318530717959
2  116 4 0 0 6.28318530717959
0

0101000
+25 0 -25 0 *
Wi

0101100
+24 0 -24 0 -23 0 +65 0 *
Fa
0  1e-07 25 0

0101000
+22 0 *
Ed
 1e-07 1 1 0
1  52 0 0 32.6
2  117 4 0 0 32.6
0

0101000
+75 0 -140 0 *
Wi

0101100
+74 0 -137 0 -20 0 +68 0 *
Fa
0  1e-07 37 0

0101000
+19 0 *
Ed
 1e-07 1 1 0
1  53 0 0 32.6
2  118 3 0 0 32.6
2  119 38 0 0 32.6
2  120 4 0 0 32.6
0

0101000
+142 0 -73 0 *
Wi

0101100
+139 0 +20 0 +72 0 +17 0 *
Wi

0101100
-23 0 *
Wi

0101100
-28 0 -41 0 -31 0 -36 0 *
Wi

0101100
-48 0 *
Fa
0  1e-07 4 0

0101000
+16 0 +15 0 +14 0 +13 0 *
Ed
 1e-07 1 1 0
1  54 0 0 32.6
2  121 3 0 0 32.6
0

0101000
+79 0 -144 0 *
Wi

0101100
+17 0 +141 0 +71 0 +11 0 *
Wi

0101100
-82 0 *
Wi

0101100
-87 0 -100 0 -95 0 -90 0 *
Wi

0101100
-107 0 *
Fa
0  1e-07 3 0

0101000
+10 0 +9 0 +8 0 +7 0 *
Wi

0101100
+78 0 -143 0 -127 0 +11 0 *
Fa
0  1e-07 39 0

0101000
+5 0 *
Sh

0101100
-132 0 -110 0 +105 0 +98 0 +93 0 +88 0 +85 0 +80 0 -69 0 +51 0 
+46 0 +39 0 +34 0 +29 0 +26 0 +21 0 -18 0 -12 0 +6 0 -4 0 
*
So

0100000
+3 0 *
Co

1100000
+2 0 *

+1 0 